<?xml version="1.0" encoding="UTF-8"?>
<svg xmlns="http://www.w3.org/2000/svg" xmlns:xlink="http://www.w3.org/1999/xlink" width="45pt" height="55pt" viewBox="0 0 45 55" version="1.1">
<g id="surface304">
<path style=" stroke:none;fill-rule:evenodd;fill:rgb(0%,0%,0%);fill-opacity:0.04;" d="M 13.585938 35.046875 L 8.242188 49.898438 C 7.457031 52.082031 8.707031 54.464844 10.945312 55.066406 C 13.183594 55.664062 15.457031 54.222656 15.867188 51.941406 L 18.667969 36.410156 C 19.242188 33.222656 14.679688 32 13.585938 35.046875 Z M 13.585938 35.046875 "/>
<path style=" stroke:none;fill-rule:evenodd;fill:rgb(0%,0%,0%);fill-opacity:0.04;" d="M 14.425781 20.53125 L 8.203125 6.023438 C 7.289062 3.894531 4.75 3 2.703125 4.089844 C 0.65625 5.175781 -0.0234375 7.78125 1.234375 9.730469 L 9.777344 23 C 11.53125 25.722656 15.703125 23.507812 14.425781 20.53125 Z M 14.425781 20.53125 "/>
<path style=" stroke:none;fill-rule:evenodd;fill:rgb(0%,0%,0%);fill-opacity:0.04;" d="M 22.65625 21.535156 L 27.996094 6.679688 C 28.78125 4.5 27.53125 2.113281 25.292969 1.515625 C 23.054688 0.914062 20.785156 2.355469 20.371094 4.636719 L 17.570312 20.171875 C 16.996094 23.359375 21.558594 24.582031 22.65625 21.535156 Z M 22.65625 21.535156 "/>
<path style=" stroke:none;fill-rule:evenodd;fill:rgb(0%,0%,0%);fill-opacity:0.04;" d="M 27.988281 27.878906 L 42.023438 20.660156 C 44.085938 19.601562 44.800781 17.003906 43.570312 15.039062 C 42.34375 13.074219 39.699219 12.578125 37.84375 13.964844 L 25.199219 23.417969 C 22.605469 25.355469 25.109375 29.359375 27.988281 27.878906 Z M 27.988281 27.878906 "/>
</g>
</svg>
