<?xml version="1.0" encoding="UTF-8"?>
<svg xmlns="http://www.w3.org/2000/svg" xmlns:xlink="http://www.w3.org/1999/xlink" width="952pt" height="696pt" viewBox="0 0 952 696" version="1.1" bounds="[[482.357,259.349],[533.61,325.757]]">
<g id="surface6465">
<circle style="fill:none;stroke-width:0.4;stroke-linecap:butt;stroke-linejoin:round;stroke:rgb(0%,0%,0%);stroke-opacity:1;stroke-dasharray:4;stroke-miterlimit:10;" cx="292.258472" cy="506.313241" r="23.304722" transform="matrix(13.695085,0,0,-13.695085,-3559.352703,7300.288543)" necklace_id="N_0"/>
<path style="fill-rule:evenodd;fill:rgb(86.7%,52.9%,47.5%);fill-opacity:1;stroke-width:0.2;stroke-linecap:butt;stroke-linejoin:round;stroke:rgb(0%,0%,0%);stroke-opacity:1;stroke-miterlimit:10;" d="M 288.371094 503.456113 L 289.253881 504.049107 L 290.284132 503.749045 L 290.755902 504.049107 L 291.57109 504.049107 L 291.828938 503.705975 L 292.344063 503.533981 L 292.257924 502.976071 L 292.68691 502.889932 L 293.073967 502.417876 L 292.644125 501.98889 L 292.17207 501.816896 L 292.215995 500.990014 L 290.909927 501.569887 L 289.966956 502.367961 L 288.733906 502.802936 Z M 288.371094 503.456113 " transform="matrix(13.695085,0,0,-13.695085,-3559.352703,7300.288543)" id="BEL" necklace_id="N_0"/>
<path style="fill-rule:evenodd;fill:rgb(99.6%,96.5%,60.8%);fill-opacity:1;stroke-width:0.2;stroke-linecap:butt;stroke-linejoin:round;stroke:rgb(0%,0%,0%);stroke-opacity:1;stroke-miterlimit:10;" d="M 292.644125 501.98889 L 292.988113 501.559904 L 292.94105 500.916995 L 292.215995 500.990014 L 292.17207 501.816896 Z M 292.644125 501.98889 " transform="matrix(13.695085,0,0,-13.695085,-3559.352703,7300.288543)" id="LUX" necklace_id="N_0"/>
<path style="fill-rule:evenodd;fill:rgb(70.6%,59.2%,50.6%);fill-opacity:1;stroke-width:0.2;stroke-linecap:butt;stroke-linejoin:round;stroke:rgb(0%,0%,0%);stroke-opacity:1;stroke-miterlimit:10;" d="M 289.253881 504.049107 L 290.284132 504.907934 L 290.927896 505.852046 L 291.142104 506.838942 L 291.399952 506.753088 L 291.52802 505.636982 L 292.17207 505.9379 L 291.828938 506.109038 L 291.828938 506.666948 L 292.215139 507.054005 L 293.158966 507.182074 L 294.103933 506.967866 L 294.147003 506.366886 L 293.502953 505.765906 L 293.888869 505.464989 L 293.502953 505.036003 L 292.68691 504.692871 L 292.901973 504.049107 L 292.68691 502.889932 L 292.257924 502.976071 L 292.344063 503.533981 L 291.828938 503.705975 L 291.57109 504.049107 L 290.755902 504.049107 L 290.284132 503.749045 Z M 289.253881 504.049107 " transform="matrix(13.695085,0,0,-13.695085,-3559.352703,7300.288543)" id="NLD" necklace_id="N_0"/>
<path style="fill-rule:evenodd;fill:rgb(100%,80%,30.2%);fill-opacity:1;stroke-width:0.2;stroke-linecap:butt;stroke-linejoin:round;stroke:rgb(0%,0%,0%);stroke-opacity:1;stroke-miterlimit:10;" d="M 286.90387 503.784128 L 286.130897 503.140078 L 284.027896 503.010869 L 282.612014 502.711092 L 281.88211 502.711092 L 281.410054 502.968085 L 280.722935 502.753877 L 280.552082 502.195967 L 279.864963 502.280965 L 279.09199 502.152897 L 278.619934 501.723055 L 277.9331 501.938119 L 278.277087 502.239037 L 279.392907 502.925015 L 279.435977 503.355142 L 280.036957 503.697988 L 281.28113 503.697988 L 282.139958 504.385108 L 281.194991 503.99805 L 280.637081 503.99805 L 279.779109 504.512891 L 279.006135 504.342038 L 278.706073 504.727954 L 280.250879 505.372004 L 280.293949 506.273045 L 279.564045 506.229976 L 279.951103 506.660103 L 279.6499 507.089089 L 280.036957 507.174943 L 280.679865 506.917095 L 281.582048 507.002949 L 281.710116 507.818137 L 282.054104 508.291048 L 281.538978 508.247978 L 281.066923 508.890887 L 281.83904 509.491867 L 281.194991 509.491867 L 280.121955 509.062881 L 279.350123 509.406868 L 279.993887 510.222055 L 279.779109 510.951959 L 279.307053 510.951959 L 279.607115 510.222055 L 279.135059 510.394049 L 278.878067 510.006992 L 278.536932 510.060045 L 278.880919 510.876088 L 278.064876 510.447102 L 277.850954 510.789949 L 279.052057 511.390928 L 278.967059 511.647921 L 278.151016 511.562922 L 278.194085 512.2489 L 278.708926 512.2489 L 278.838135 512.420894 L 277.850954 513.236937 L 278.408864 513.623139 L 278.795065 513.021874 L 279.010129 513.880131 L 279.696107 513.965985 L 279.481899 514.266903 L 279.868101 514.653104 L 280.040094 515.08209 L 280.811927 514.952881 L 282.27202 515.124875 L 282.22895 514.566965 L 281.02699 514.009055 L 281.11313 513.536999 L 281.884962 513.752063 L 283.558978 513.665923 L 283.730971 513.151083 L 282.82993 512.078047 L 282.056956 511.69099 L 282.572082 511.433998 L 282.744075 511.046941 L 283.687902 510.404032 L 283.859895 509.330997 L 284.159957 508.90087 L 284.760937 508.815871 L 285.62005 507.356064 L 285.790903 506.627016 L 285.361917 506.326098 L 285.790903 506.196889 L 286.049036 506.455022 L 286.907008 506.368883 L 287.507988 505.810973 L 287.165141 504.994929 L 286.306028 504.522874 L 286.049036 504.093888 L 286.563876 504.051103 Z M 286.90387 503.784128 " transform="matrix(13.695085,0,0,-13.695085,-3559.352703,7300.288543)" id="GBR" necklace_id="N_0"/>
<path style="fill-rule:evenodd;fill:rgb(100%,80%,30.2%);fill-opacity:1;stroke-width:0.2;stroke-linecap:butt;stroke-linejoin:round;stroke:rgb(0%,0%,0%);stroke-opacity:1;stroke-miterlimit:10;" d="M 277.206904 509.846122 L 276.305007 509.115933 L 275.789881 508.686947 L 276.433931 508.085968 L 276.992126 508.601093 L 277.63589 508.085968 L 278.27994 508.085968 L 278.880919 508.601093 L 278.493862 509.459065 L 278.151016 509.846122 Z M 277.206904 509.846122 " transform="matrix(13.695085,0,0,-13.695085,-3559.352703,7300.288543)" id="GBR" necklace_id="N_0"/>
<path style="fill-rule:evenodd;fill:rgb(53.3%,78%,39.6%);fill-opacity:1;stroke-width:0.2;stroke-linecap:butt;stroke-linejoin:round;stroke:rgb(0%,0%,0%);stroke-opacity:1;stroke-miterlimit:10;" d="M 277.63589 508.085968 L 278.022092 507.184926 L 277.894023 506.069106 L 277.506966 505.166923 L 275.961875 505.037999 L 274.545993 504.180027 L 273.000046 504.093888 L 272.484921 504.694867 L 272.52799 505.338917 L 273.557956 505.854042 L 273.858874 506.498092 L 274.460139 506.797869 L 273.72995 506.797869 L 272.958117 507.142141 L 273.557956 507.613912 L 273.0859 508.000113 L 273.300964 508.471884 L 274.28786 508.429099 L 275.061118 508.471884 L 275.360895 508.815871 L 274.889125 509.115933 L 275.704883 509.846122 L 276.56314 510.103115 L 277.206904 509.846122 L 276.305007 509.115933 L 275.789881 508.686947 L 276.433931 508.085968 L 276.992126 508.601093 Z M 277.63589 508.085968 " transform="matrix(13.695085,0,0,-13.695085,-3559.352703,7300.288543)" id="IRL" necklace_id="N_0"/>
<path style="fill-rule:evenodd;fill:rgb(70.6%,59.2%,50.6%);fill-opacity:1;stroke-width:0.2;stroke-linecap:butt;stroke-linejoin:round;stroke:rgb(0%,0%,0%);stroke-opacity:1;stroke-miterlimit:10;" d="M 271.830032 524.498105 L 270.490022 523.437049 L 269.262962 523.382 L 268.203047 522.656089 L 266.863036 522.656089 L 266.025886 522.097894 L 263.125096 522.82409 L 261.338986 522.82409 L 261.562891 523.158094 L 262.455091 523.213999 L 262.008991 523.93991 L 260.390881 524.107055 L 260.334976 524.498105 L 262.064896 524.60906 L 262.846141 525.111064 L 261.842131 525.222875 L 260.670121 525.054874 L 260.000116 525.334114 L 262.008991 526.617935 L 263.125096 526.33898 L 263.683006 525.78107 L 263.627101 525.00011 L 264.129106 525.390019 L 264.631967 525.222875 L 264.687016 525.947929 L 265.078066 526.060025 L 265.580071 525.445925 L 265.691882 525.947929 L 266.473127 526.11593 L 267.365897 526.11593 L 269.039912 526.170979 L 269.094961 526.674125 L 269.877062 526.56203 L 270.100112 526.11593 L 271.160027 526.394885 L 270.545927 526.00412 L 271.047932 525.502115 L 271.996892 525.222875 Z M 271.830032 524.498105 " transform="matrix(13.695085,0,0,-13.695085,-3559.352703,7300.288543)" id="ISL" necklace_id="N_0"/>
<path style="fill-rule:evenodd;fill:rgb(83.1%,87.8%,35.3%);fill-opacity:1;stroke-width:0.2;stroke-linecap:butt;stroke-linejoin:round;stroke:rgb(0%,0%,0%);stroke-opacity:1;stroke-miterlimit:10;" d="M 294.103933 506.967866 L 294.188931 507.60507 L 295.180106 507.60507 L 295.542918 507.40712 L 295.840128 507.836106 L 296.236027 507.836106 L 295.906016 508.496128 L 296.368945 508.826995 L 295.939103 509.091118 L 295.67498 509.421129 L 296.301916 509.421129 L 296.566894 509.222895 L 297.49104 509.222895 L 297.590015 508.761107 L 298.349867 508.52893 L 298.878113 508.660991 L 298.878113 508.133031 L 299.240926 507.935081 L 299.505049 508.232005 L 300.131985 508.297894 L 300.594913 508.660991 L 301.155961 508.660991 L 301.452885 508.92597 L 301.948045 508.92597 L 302.047019 508.52893 L 301.618033 508.297894 L 302.047019 508.166117 L 302.642009 507.868907 L 302.873046 506.945047 L 302.576121 506.350057 L 303.235858 505.78901 L 303.070995 505.492085 L 303.36792 504.996926 L 303.335118 504.269875 L 303.697931 504.006037 L 303.731018 503.444989 L 303.565869 503.016003 L 303.037909 503.346014 L 302.774071 503.312928 L 302.377886 502.950115 L 301.815983 502.917028 L 301.222134 502.421013 L 300.760061 502.421013 L 300.131985 502.288952 L 300.594913 501.727904 L 300.628 501.199944 L 300.958011 500.703928 L 301.750095 500.209054 L 302.24611 500.142881 L 302.381024 499.624047 L 301.566122 499.151992 L 301.050996 498.80886 L 301.436912 497.950032 L 300.535871 498.078956 L 299.720113 497.993102 L 298.991065 497.564116 L 298.260876 497.950032 L 297.83189 497.6069 L 297.145056 497.821964 L 295.728888 498.122026 L 294.463893 497.798005 L 294.609075 499.175951 L 295.261967 500.191941 L 293.593941 500.482019 L 292.94105 500.916995 L 292.988113 501.559904 L 292.644125 501.98889 L 293.073967 502.417876 L 292.68691 502.889932 L 292.901973 504.049107 L 292.68691 504.692871 L 293.502953 505.036003 L 293.888869 505.464989 L 293.502953 505.765906 L 294.147003 506.366886 Z M 294.103933 506.967866 " transform="matrix(13.695085,0,0,-13.695085,-3559.352703,7300.288543)" id="DEU" necklace_id="N_0"/>
<path style="fill-rule:evenodd;fill:rgb(83.1%,83.1%,83.1%);fill-opacity:1;stroke-width:0.2;stroke-linecap:butt;stroke-linejoin:round;stroke:rgb(0%,0%,0%);stroke-opacity:1;stroke-miterlimit:10;" d="M 301.69 505.85 Z " transform="matrix(13.695085,0,0,-13.695085,-3559.352703,7300.288543)" id="BER" necklace_id="N_0"/>
<path style="fill-rule:evenodd;fill:rgb(62%,83.9%,77.3%);fill-opacity:1;stroke-width:0.2;stroke-linecap:butt;stroke-linejoin:round;stroke:rgb(0%,0%,0%);stroke-opacity:1;stroke-miterlimit:10;" d="M 295.67498 509.421129 L 295.874926 510.054055 L 295.380052 510.483041 L 295.247135 511.769999 L 295.676977 512.793975 L 296.931133 512.89295 L 297.426863 513.519885 L 298.153059 513.61886 L 298.28512 512.959123 L 297.856134 512.463964 L 297.955109 511.902916 L 298.647933 511.870115 L 298.449983 511.341013 L 297.922022 511.307926 L 297.823047 510.846139 L 297.426863 510.516128 L 297.922022 510.516128 L 298.582045 510.350979 L 298.647933 509.657015 L 298.384095 509.194942 L 298.28512 509.591127 L 297.856134 509.623928 L 297.426863 509.921993 L 297.327888 510.186116 L 296.963935 510.15303 L 297.030108 509.75599 L 297.49104 509.222895 L 296.566894 509.222895 L 296.301916 509.421129 Z M 295.67498 509.421129 " transform="matrix(13.695085,0,0,-13.695085,-3559.352703,7300.288543)" id="DNK" necklace_id="N_0"/>
<path style="fill-rule:evenodd;fill:rgb(62%,83.9%,77.3%);fill-opacity:1;stroke-width:0.2;stroke-linecap:butt;stroke-linejoin:round;stroke:rgb(0%,0%,0%);stroke-opacity:1;stroke-miterlimit:10;" d="M 300.29913 511.341013 L 300.629141 511.07689 L 300.497079 510.516128 L 300.133981 510.285091 L 300.463993 510.054055 L 300.398104 509.854964 L 299.936032 509.854964 L 300.562967 509.459065 L 300.100895 509.36009 L 299.902945 508.832129 L 299.175894 508.931104 L 298.779994 509.194942 L 298.878969 509.55804 L 299.309096 509.327004 L 299.671909 509.491867 L 299.671909 509.821878 L 299.011031 509.821878 L 298.912056 510.218918 L 298.548958 510.680991 L 299.044117 510.746879 L 299.309096 511.011002 L 299.704995 511.044088 Z M 300.29913 511.341013 " transform="matrix(13.695085,0,0,-13.695085,-3559.352703,7300.288543)" id="DNK" necklace_id="N_0"/>
<path style="fill-rule:evenodd;fill:rgb(83.5%,72.5%,54.1%);fill-opacity:1;stroke-width:0.2;stroke-linecap:butt;stroke-linejoin:round;stroke:rgb(0%,0%,0%);stroke-opacity:1;stroke-miterlimit:10;" d="M 317.847909 513.491077 L 318.343068 513.952865 L 317.847909 514.416078 L 317.880996 514.877866 L 317.683046 515.339938 L 318.145119 515.867899 L 318.244093 516.462889 L 317.121998 516.331113 L 315.404913 516.594951 L 315.305939 516.363914 L 314.348136 516.462889 L 313.489879 516.066134 L 312.961918 515.736123 L 313.127066 515.043014 L 313.852977 514.481966 L 314.281963 514.679916 L 314.479912 514.580941 L 314.281963 514.052125 L 315.206964 514.25093 L 316.131109 513.920063 L 316.924049 513.392102 Z M 317.847909 513.491077 " transform="matrix(13.695085,0,0,-13.695085,-3559.352703,7300.288543)" id="EST" necklace_id="N_0"/>
<path style="fill-rule:evenodd;fill:rgb(98%,71.4%,58%);fill-opacity:1;stroke-width:0.2;stroke-linecap:butt;stroke-linejoin:round;stroke:rgb(0%,0%,0%);stroke-opacity:1;stroke-miterlimit:10;" d="M 301.001936 510.210931 L 301.596071 510.044928 L 302.78491 510.309906 L 302.521072 510.706091 L 302.851083 511.200965 L 304.600969 511.333027 L 305.029955 512.224941 L 305.260992 513.742935 L 305.492028 514.667936 L 305.162017 514.964861 L 306.251025 515.294872 L 306.978077 515.723858 L 307.373976 516.418108 L 307.96811 516.814007 L 307.539124 517.341968 L 306.581892 518.003131 L 305.855126 518.201081 L 305.62409 519.488039 L 306.019989 520.280979 L 305.855126 520.776138 L 306.383942 520.80894 L 306.383942 521.304099 L 306.812928 521.304099 L 307.571926 521.832915 L 308.099886 522.360876 L 309.354899 522.822949 L 309.652108 523.318108 L 310.146983 523.74795 L 309.717997 524.243109 L 310.146983 524.639009 L 310.146983 525.034908 L 310.609911 525.067995 L 311.137872 525.662129 L 311.896869 525.530067 L 312.854957 525.696071 L 312.293909 526.28992 L 312.160992 526.653018 L 312.558032 527.214066 L 311.996129 527.576878 L 312.062017 527.941117 L 311.864068 528.072893 L 311.830981 528.732916 L 311.10507 529.228075 L 308.958999 530.086903 L 308.198861 530.185878 L 308.332064 529.855866 L 308.033998 529.293963 L 307.241914 529.392938 L 306.15205 529.491913 L 305.986902 528.700114 L 305.227905 528.799089 L 304.436106 528.10598 L 304.005979 528.10598 L 304.335991 527.643907 L 304.302904 527.279954 L 303.444932 526.718906 L 303.379044 526.28992 L 302.454043 526.125057 L 302.487985 524.935933 L 301.661959 524.111048 L 302.090945 523.648119 L 302.025057 523.285022 L 301.695046 523.020899 L 301.035023 523.186047 L 299.912072 522.42705 L 299.977961 521.205124 L 300.208997 520.478928 L 300.011047 519.917881 L 300.17591 519.553927 L 300.7709 519.322891 L 300.7709 518.861103 L 300.143109 518.630067 L 300.47312 517.970045 L 300.307972 517.177105 L 299.681036 516.97887 L 299.483086 516.549884 L 299.647949 515.989122 L 299.351025 515.361045 L 299.021014 515.790031 L 298.657916 515.558995 L 299.086902 514.701023 L 299.582061 513.940885 L 300.143109 512.588039 L 301.001936 512.026991 L 300.539864 511.629951 L 301.001936 510.738892 Z M 301.001936 510.210931 " transform="matrix(13.695085,0,0,-13.695085,-3559.352703,7300.288543)" id="SWE" necklace_id="N_0"/>
<path style="fill-rule:evenodd;fill:rgb(14.5%,73.7%,61.2%);fill-opacity:1;stroke-width:0.2;stroke-linecap:butt;stroke-linejoin:round;stroke:rgb(0%,0%,0%);stroke-opacity:1;stroke-miterlimit:10;" d="M 312.854957 525.696071 L 314.141915 525.232858 L 314.208944 524.342084 L 313.613954 524.275911 L 312.459057 523.053985 L 311.204045 522.294988 L 311.10507 521.832915 L 310.312986 521.832915 L 309.88286 521.039976 L 310.312986 519.984054 L 310.378875 518.266969 L 310.939922 517.770954 L 311.830981 517.606091 L 311.830981 517.144018 L 312.789069 517.011957 L 314.307919 517.07813 L 314.63793 517.375055 L 316.090036 517.638893 L 317.740948 517.770954 L 318.533887 518.531092 L 319.985993 519.587014 L 321.53793 521.105864 L 321.33998 521.733085 L 319.689069 522.559111 L 320.217885 523.087072 L 320.118911 523.482971 L 319.491119 523.714863 L 319.491119 524.144135 L 318.930072 524.407972 L 318.79801 525.463894 L 319.292884 525.696071 L 317.873009 527.214066 L 318.632862 528.007005 L 318.632862 528.501879 L 318.037872 528.799089 L 317.278875 528.930865 L 316.916062 529.592029 L 317.675059 530.548975 L 317.246073 531.076936 L 316.519878 531.242085 L 315.924888 531.606038 L 315.297952 531.373861 L 314.43998 531.373861 L 313.977052 530.64795 L 313.910878 529.955127 L 313.184968 529.558086 L 312.127905 529.855866 L 311.467883 529.657917 L 310.577109 529.855866 L 309.387985 530.582062 L 308.958999 530.086903 L 311.10507 529.228075 L 311.830981 528.732916 L 311.864068 528.072893 L 312.062017 527.941117 L 311.996129 527.576878 L 312.558032 527.214066 L 312.160992 526.653018 L 312.293909 526.28992 Z M 312.854957 525.696071 " transform="matrix(13.695085,0,0,-13.695085,-3559.352703,7300.288543)" id="FIN" necklace_id="N_0"/>
<path style="fill-rule:evenodd;fill:rgb(56.1%,73.7%,75.7%);fill-opacity:1;stroke-width:0.2;stroke-linecap:butt;stroke-linejoin:round;stroke:rgb(0%,0%,0%);stroke-opacity:1;stroke-miterlimit:10;" d="M 299.021014 515.790031 L 298.459111 516.05501 L 298.260876 516.450909 L 297.864976 516.450909 L 298.062926 515.989122 L 297.667027 515.624883 L 297.139066 515.624883 L 295.850967 514.602048 L 294.530066 514.074087 L 293.07796 514.635135 L 292.350909 515.163096 L 292.417082 515.525908 L 293.144134 515.989122 L 292.581945 516.120898 L 292.053984 515.790031 L 291.95501 516.879895 L 292.516057 517.27608 L 292.020898 517.606091 L 291.822948 518.266969 L 292.020898 518.828017 L 291.822948 519.223916 L 291.822948 519.917881 L 293.044874 520.80894 L 293.374885 520.676878 L 293.308997 520.974088 L 294.133882 521.138951 L 294.265943 521.601023 L 295.224031 521.567937 L 295.850967 522.624999 L 296.279953 522.757061 L 296.742881 522.42705 L 297.303929 522.921924 L 298.657916 523.913098 L 299.086902 523.781037 L 298.955126 524.210023 L 299.780011 524.704897 L 300.803987 526.356094 L 301.100911 527.048917 L 301.99197 527.477903 L 302.620047 528.171868 L 302.685935 528.601139 L 303.444932 529.062927 L 302.157118 528.930865 L 301.167085 528.700114 L 301.26606 529.161902 L 302.916971 529.392938 L 302.18992 529.525 L 302.387869 529.855866 L 303.940091 530.582062 L 303.774943 529.823065 L 304.237016 529.888953 L 304.666857 529.625115 L 305.525115 529.888953 L 305.525115 530.185878 L 304.567883 530.185878 L 304.733031 530.681037 L 305.855126 530.977962 L 307.209113 531.639125 L 307.605012 531.242085 L 308.198861 531.505922 L 308.397952 531.208998 L 309.156949 531.770901 L 309.717997 531.969136 L 309.816971 532.398122 L 311.336107 532.695046 L 311.10507 532.331949 L 311.996129 532.497097 L 312.558032 532.827108 L 314.04294 532.958884 L 313.184968 532.26606 L 313.085993 531.572951 L 313.514979 532.035024 L 314.505868 532.827108 L 314.605128 532.133999 L 315.198977 532.562985 L 315.034114 532.794021 L 315.627963 532.958884 L 316.519878 532.794021 L 318.070959 532.365035 L 319.19391 531.803988 L 318.434912 531.606038 L 317.675059 531.606038 L 317.938897 531.14311 L 318.566974 531.242085 L 319.260083 531.175911 L 319.260083 530.878987 L 318.566974 530.878987 L 318.335938 530.582062 L 317.675059 530.548975 L 317.246073 531.076936 L 316.519878 531.242085 L 315.924888 531.606038 L 315.297952 531.373861 L 314.43998 531.373861 L 313.977052 530.64795 L 313.910878 529.955127 L 313.184968 529.558086 L 312.127905 529.855866 L 311.467883 529.657917 L 310.577109 529.855866 L 309.387985 530.582062 L 308.958999 530.086903 L 308.198861 530.185878 L 308.332064 529.855866 L 308.033998 529.293963 L 307.241914 529.392938 L 306.15205 529.491913 L 305.986902 528.700114 L 305.227905 528.799089 L 304.436106 528.10598 L 304.005979 528.10598 L 304.335991 527.643907 L 304.302904 527.279954 L 303.444932 526.718906 L 303.379044 526.28992 L 302.454043 526.125057 L 302.487985 524.935933 L 301.661959 524.111048 L 302.090945 523.648119 L 302.025057 523.285022 L 301.695046 523.020899 L 301.035023 523.186047 L 299.912072 522.42705 L 299.977961 521.205124 L 300.208997 520.478928 L 300.011047 519.917881 L 300.17591 519.553927 L 300.7709 519.322891 L 300.7709 518.861103 L 300.143109 518.630067 L 300.47312 517.970045 L 300.307972 517.177105 L 299.681036 516.97887 L 299.483086 516.549884 L 299.647949 515.989122 L 299.351025 515.361045 Z M 299.021014 515.790031 " transform="matrix(13.695085,0,0,-13.695085,-3559.352703,7300.288543)" id="NOR" necklace_id="N_0"/>
</g>
</svg>
