<?xml version="1.0" encoding="UTF-8"?>
<svg xmlns="http://www.w3.org/2000/svg" xmlns:xlink="http://www.w3.org/1999/xlink" width="350pt" viewBox="0 0 249 162" version="1.1">
<g id="surface584">
<path style="fill:none;stroke-width:0.4;stroke-linecap:butt;stroke-linejoin:round;stroke:rgb(0%,0%,0%);stroke-opacity:1;stroke-miterlimit:10;" d="M 288.957031 287.203125 L 284.824219 284.929688 L 281.460938 283.023438 " transform="matrix(1,0,0,-1,-40,445)"/>
<path style="fill:none;stroke-width:0.4;stroke-linecap:butt;stroke-linejoin:round;stroke:rgb(0%,0%,0%);stroke-opacity:1;stroke-miterlimit:10;" d="M 40.40625 440.773438 L 48.394531 438.933594 L 47.769531 442.714844 " transform="matrix(1,0,0,-1,-40,445)"/>
<path style="fill:none;stroke-width:0.4;stroke-linecap:butt;stroke-linejoin:round;stroke:rgb(0%,0%,0%);stroke-opacity:1;stroke-miterlimit:10;" d="M 288.957031 298.886719 L 277.386719 290.445313 L 270.886719 283.023438 " transform="matrix(1,0,0,-1,-40,445)"/>
<path style="fill:none;stroke-width:0.4;stroke-linecap:butt;stroke-linejoin:round;stroke:rgb(0%,0%,0%);stroke-opacity:1;stroke-miterlimit:10;" d="M 82.9375 436.761719 L 83.28125 437.988281 L 82.484375 437.285156 Z M 82.9375 436.761719 " transform="matrix(1,0,0,-1,-40,445)"/>
<path style="fill:none;stroke-width:0.4;stroke-linecap:butt;stroke-linejoin:round;stroke:rgb(0%,0%,0%);stroke-opacity:1;stroke-miterlimit:10;" d="M 75.523438 437.222656 L 77.1875 437.285156 L 75.652344 437.375 Z M 75.523438 437.222656 " transform="matrix(1,0,0,-1,-40,445)"/>
<path style="fill:none;stroke-width:0.4;stroke-linecap:butt;stroke-linejoin:round;stroke:rgb(0%,0%,0%);stroke-opacity:1;stroke-miterlimit:10;" d="M 72.011719 433.125 L 72.101563 433.644531 L 71.875 433.921875 Z M 72.011719 433.125 " transform="matrix(1,0,0,-1,-40,445)"/>
<path style="fill:none;stroke-width:0.4;stroke-linecap:butt;stroke-linejoin:round;stroke:rgb(0%,0%,0%);stroke-opacity:1;stroke-miterlimit:10;" d="M 55.621094 432.769531 L 54.878906 434.105469 L 56.1875 433.644531 Z M 55.621094 432.769531 " transform="matrix(1,0,0,-1,-40,445)"/>
<path style="fill:none;stroke-width:0.4;stroke-linecap:butt;stroke-linejoin:round;stroke:rgb(0%,0%,0%);stroke-opacity:1;stroke-miterlimit:10;" d="M 67.195313 427.402344 L 72.230469 428.09375 L 70.570313 430.777344 Z M 67.195313 427.402344 " transform="matrix(1,0,0,-1,-40,445)"/>
<path style="fill:none;stroke-width:0.4;stroke-linecap:butt;stroke-linejoin:round;stroke:rgb(0%,0%,0%);stroke-opacity:1;stroke-miterlimit:10;" d="M 40.40625 438.828125 L 56.066406 424.839844 L 67.003906 440.292969 L 68.976563 442.570313 " transform="matrix(1,0,0,-1,-40,445)"/>
<path style="fill:none;stroke-width:0.4;stroke-linecap:butt;stroke-linejoin:round;stroke:rgb(0%,0%,0%);stroke-opacity:1;stroke-miterlimit:10;" d="M 288.957031 311.765625 L 288.382813 311.269531 L 272.804688 297.28125 L 256.761719 285.554688 L 238.5625 287.644531 L 233.371094 283.023438 " transform="matrix(1,0,0,-1,-40,445)"/>
<path style="fill:none;stroke-width:0.4;stroke-linecap:butt;stroke-linejoin:round;stroke:rgb(0%,0%,0%);stroke-opacity:1;stroke-miterlimit:10;" d="M 40.40625 437.355469 L 55.910156 423.609375 L 76.160156 422.175781 L 92.253906 436.386719 L 97.054688 442.378906 " transform="matrix(1,0,0,-1,-40,445)"/>
<path style="fill:none;stroke-width:0.4;stroke-linecap:butt;stroke-linejoin:round;stroke:rgb(0%,0%,0%);stroke-opacity:1;stroke-miterlimit:10;" d="M 288.957031 326.761719 L 285.828125 323.308594 L 267.398438 305.34375 L 250.703125 296.222656 L 240.644531 296.691406 L 225.316406 287.09375 L 227.519531 283.023438 " transform="matrix(1,0,0,-1,-40,445)"/>
<path style="fill:none;stroke-width:0.4;stroke-linecap:butt;stroke-linejoin:round;stroke:rgb(0%,0%,0%);stroke-opacity:1;stroke-miterlimit:10;" d="M 141.886719 411.453125 L 141.222656 412.828125 L 140.792969 411.789063 Z M 141.886719 411.453125 " transform="matrix(1,0,0,-1,-40,445)"/>
<path style="fill:none;stroke-width:0.4;stroke-linecap:butt;stroke-linejoin:round;stroke:rgb(0%,0%,0%);stroke-opacity:1;stroke-miterlimit:10;" d="M 40.40625 414.808594 L 41.359375 417.867188 L 40.40625 417.867188 " transform="matrix(1,0,0,-1,-40,445)"/>
<path style="fill:none;stroke-width:0.4;stroke-linecap:butt;stroke-linejoin:round;stroke:rgb(0%,0%,0%);stroke-opacity:1;stroke-miterlimit:10;" d="M 40.40625 435.507813 L 55.773438 422.519531 L 75.226563 415.015625 L 97.355469 431.277344 L 105.964844 442.316406 " transform="matrix(1,0,0,-1,-40,445)"/>
<path style="fill:none;stroke-width:0.4;stroke-linecap:butt;stroke-linejoin:round;stroke:rgb(0%,0%,0%);stroke-opacity:1;stroke-miterlimit:10;" d="M 288.957031 344.53125 L 285.035156 339.195313 L 278.375 330.523438 L 261.992188 313.40625 L 248.109375 307.449219 L 228.402344 308.308594 L 218.679688 291.976563 L 219.503906 283.023438 " transform="matrix(1,0,0,-1,-40,445)"/>
<path style="fill:none;stroke-width:0.4;stroke-linecap:butt;stroke-linejoin:round;stroke:rgb(0%,0%,0%);stroke-opacity:1;stroke-miterlimit:10;" d="M 204.820313 283.023438 L 201.179688 283.765625 L 200.90625 283.023438 " transform="matrix(1,0,0,-1,-40,445)"/>
<path style="fill:none;stroke-width:0.4;stroke-linecap:butt;stroke-linejoin:round;stroke:rgb(0%,0%,0%);stroke-opacity:1;stroke-miterlimit:10;" d="M 142.617188 410.628906 L 141.292969 414.488281 L 140.1875 411.789063 Z M 142.617188 410.628906 " transform="matrix(1,0,0,-1,-40,445)"/>
<path style="fill:none;stroke-width:0.4;stroke-linecap:butt;stroke-linejoin:round;stroke:rgb(0%,0%,0%);stroke-opacity:1;stroke-miterlimit:10;" d="M 266.859375 352.847656 L 266.851563 344.859375 L 273.898438 348.433594 Z M 266.859375 352.847656 " transform="matrix(1,0,0,-1,-40,445)"/>
<path style="fill:none;stroke-width:0.4;stroke-linecap:butt;stroke-linejoin:round;stroke:rgb(0%,0%,0%);stroke-opacity:1;stroke-miterlimit:10;" d="M 40.40625 333.160156 L 41.015625 333.1875 L 61.304688 354.34375 L 72.910156 370.628906 L 65.09375 379.859375 L 58.148438 385.582031 L 44.261719 386.25 L 40.40625 390.234375 " transform="matrix(1,0,0,-1,-40,445)"/>
<path style="fill:none;stroke-width:0.4;stroke-linecap:butt;stroke-linejoin:round;stroke:rgb(0%,0%,0%);stroke-opacity:1;stroke-miterlimit:10;" d="M 40.40625 410.625 L 49.234375 419.078125 L 40.40625 423.777344 " transform="matrix(1,0,0,-1,-40,445)"/>
<path style="fill:none;stroke-width:0.4;stroke-linecap:butt;stroke-linejoin:round;stroke:rgb(0%,0%,0%);stroke-opacity:1;stroke-miterlimit:10;" d="M 40.40625 426.300781 L 40.804688 427.015625 L 40.441406 430.003906 L 40.40625 430.378906 " transform="matrix(1,0,0,-1,-40,445)"/>
<path style="fill:none;stroke-width:0.4;stroke-linecap:butt;stroke-linejoin:round;stroke:rgb(0%,0%,0%);stroke-opacity:1;stroke-miterlimit:10;" d="M 40.40625 432.878906 L 55.679688 421.808594 L 64.160156 417.746094 L 70.054688 399.511719 L 82.421875 405.964844 L 87.351563 401.660156 L 102.300781 406.171875 L 95.5 424.621094 L 108.738281 419.832031 L 122.207031 424.792969 L 111.335938 442.28125 " transform="matrix(1,0,0,-1,-40,445)"/>
<path style="fill:none;stroke-width:0.4;stroke-linecap:butt;stroke-linejoin:round;stroke:rgb(0%,0%,0%);stroke-opacity:1;stroke-miterlimit:10;" d="M 288.957031 379.222656 L 288.050781 374.832031 L 288.957031 372.441406 " transform="matrix(1,0,0,-1,-40,445)"/>
<path style="fill:none;stroke-width:0.4;stroke-linecap:butt;stroke-linejoin:round;stroke:rgb(0%,0%,0%);stroke-opacity:1;stroke-miterlimit:10;" d="M 288.957031 358.648438 L 285.9375 367.757813 L 273.492188 357.328125 L 278.839844 349.664063 L 271.625 337.058594 L 256.789063 321.164063 L 248.199219 318.300781 L 229.808594 323.410156 L 216.59375 317.429688 L 213.488281 295.796875 L 195.320313 291.828125 L 179.84375 293.941406 L 132.953125 290.046875 L 117.699219 283.023438 " transform="matrix(1,0,0,-1,-40,445)"/>
<path style="fill:none;stroke-width:0.4;stroke-linecap:butt;stroke-linejoin:round;stroke:rgb(0%,0%,0%);stroke-opacity:1;stroke-miterlimit:10;" d="M 41.148438 425.554688 L 42.800781 430.109375 L 52.09375 421.140625 Z M 41.148438 425.554688 " transform="matrix(1,0,0,-1,-40,445)"/>
<path style="fill:none;stroke-width:0.4;stroke-linecap:butt;stroke-linejoin:round;stroke:rgb(0%,0%,0%);stroke-opacity:1;stroke-miterlimit:10;" d="M 144.351563 407.230469 L 141.355469 417.496094 L 139.582031 411.789063 Z M 144.351563 407.230469 " transform="matrix(1,0,0,-1,-40,445)"/>
<path style="fill:none;stroke-width:0.4;stroke-linecap:butt;stroke-linejoin:round;stroke:rgb(0%,0%,0%);stroke-opacity:1;stroke-miterlimit:10;" d="M 274.175781 352 L 273.738281 353.507813 L 274.5 353.863281 Z M 274.175781 352 " transform="matrix(1,0,0,-1,-40,445)"/>
<path style="fill:none;stroke-width:0.4;stroke-linecap:butt;stroke-linejoin:round;stroke:rgb(0%,0%,0%);stroke-opacity:1;stroke-miterlimit:10;" d="M 276.273438 349.398438 L 275.546875 349.863281 L 275.996094 350.570313 Z M 276.273438 349.398438 " transform="matrix(1,0,0,-1,-40,445)"/>
<path style="fill:none;stroke-width:0.4;stroke-linecap:butt;stroke-linejoin:round;stroke:rgb(0%,0%,0%);stroke-opacity:1;stroke-miterlimit:10;" d="M 260.449219 340.5625 L 255.464844 346.183594 L 253.199219 336.390625 Z M 260.449219 340.5625 " transform="matrix(1,0,0,-1,-40,445)"/>
<path style="fill:none;stroke-width:0.4;stroke-linecap:butt;stroke-linejoin:round;stroke:rgb(0%,0%,0%);stroke-opacity:1;stroke-miterlimit:10;" d="M 174.527344 329.125 L 173.3125 329.828125 L 174.003906 330.296875 Z M 174.527344 329.125 " transform="matrix(1,0,0,-1,-40,445)"/>
<path style="fill:none;stroke-width:0.4;stroke-linecap:butt;stroke-linejoin:round;stroke:rgb(0%,0%,0%);stroke-opacity:1;stroke-miterlimit:10;" d="M 175.65625 324.007813 L 175.824219 324.628906 L 176.046875 324.367188 Z M 175.65625 324.007813 " transform="matrix(1,0,0,-1,-40,445)"/>
<path style="fill:none;stroke-width:0.4;stroke-linecap:butt;stroke-linejoin:round;stroke:rgb(0%,0%,0%);stroke-opacity:1;stroke-miterlimit:10;" d="M 73.480469 283.023438 L 67.210938 283.40625 L 53.28125 287.773438 L 44.519531 301.347656 L 50.433594 328.71875 L 62.914063 349.066406 L 76.777344 353.613281 L 79.296875 368.839844 L 87.785156 370.746094 L 86.421875 379.988281 L 66.109375 382.089844 L 63.25 387.160156 L 58.203125 392.535156 L 40.800781 392.628906 L 40.40625 392.910156 " transform="matrix(1,0,0,-1,-40,445)"/>
<path style="fill:none;stroke-width:0.4;stroke-linecap:butt;stroke-linejoin:round;stroke:rgb(0%,0%,0%);stroke-opacity:1;stroke-miterlimit:10;" d="M 40.40625 407.480469 L 46.683594 406.699219 L 48.042969 412.21875 L 59.417969 411.28125 L 56.105469 419.683594 L 63.632813 416.449219 L 72.695313 389.109375 L 89.234375 383.378906 L 85.175781 400.65625 L 94.511719 384.761719 L 107.945313 380.097656 L 111.65625 397.042969 L 131.46875 403.757813 L 120.0625 423.941406 L 133.089844 417.589844 L 147.925781 439.304688 L 148.515625 442.023438 " transform="matrix(1,0,0,-1,-40,445)"/>
<path style="fill:none;stroke-width:0.4;stroke-linecap:butt;stroke-linejoin:round;stroke:rgb(0%,0%,0%);stroke-opacity:1;stroke-miterlimit:10;" d="M 288.957031 381.621094 L 285.234375 369.410156 L 262.714844 351.609375 L 265.847656 342.652344 L 252.378906 327.738281 L 243.148438 326.980469 L 235.964844 338.960938 L 225.144531 343.289063 L 216.039063 317.804688 L 205.242188 301.859375 L 195.335938 302.300781 L 186.554688 308.648438 L 181.050781 339.109375 L 171.648438 334.917969 L 151.539063 313.773438 L 128.550781 301.433594 L 106.734375 285.136719 L 100.402344 283.023438 " transform="matrix(1,0,0,-1,-40,445)"/>
<path style="fill:none;stroke-width:0.4;stroke-linecap:butt;stroke-linejoin:round;stroke:rgb(0%,0%,0%);stroke-opacity:1;stroke-miterlimit:10;" d="M 44.691406 426.019531 L 43.394531 426.359375 L 45.070313 426.742188 Z M 44.691406 426.019531 " transform="matrix(1,0,0,-1,-40,445)"/>
<path style="fill:none;stroke-width:0.4;stroke-linecap:butt;stroke-linejoin:round;stroke:rgb(0%,0%,0%);stroke-opacity:1;stroke-miterlimit:10;" d="M 48.582031 404.84375 L 49.832031 410.109375 L 63.761719 409.519531 L 65.027344 404.304688 Z M 48.582031 404.84375 " transform="matrix(1,0,0,-1,-40,445)"/>
<path style="fill:none;stroke-width:0.4;stroke-linecap:butt;stroke-linejoin:round;stroke:rgb(0%,0%,0%);stroke-opacity:1;stroke-miterlimit:10;" d="M 62.5 399.136719 L 66.546875 399.371094 L 66.957031 398.816406 Z M 62.5 399.136719 " transform="matrix(1,0,0,-1,-40,445)"/>
<path style="fill:none;stroke-width:0.4;stroke-linecap:butt;stroke-linejoin:round;stroke:rgb(0%,0%,0%);stroke-opacity:1;stroke-miterlimit:10;" d="M 40.40625 404.699219 L 48.808594 404.105469 L 41.257813 393.914063 L 40.40625 401.03125 " transform="matrix(1,0,0,-1,-40,445)"/>
<path style="fill:none;stroke-width:0.4;stroke-linecap:butt;stroke-linejoin:round;stroke:rgb(0%,0%,0%);stroke-opacity:1;stroke-miterlimit:10;" d="M 91.136719 385.648438 L 92.246094 388.53125 L 92.621094 386.289063 Z M 91.136719 385.648438 " transform="matrix(1,0,0,-1,-40,445)"/>
<path style="fill:none;stroke-width:0.4;stroke-linecap:butt;stroke-linejoin:round;stroke:rgb(0%,0%,0%);stroke-opacity:1;stroke-miterlimit:10;" d="M 68.367188 385.070313 L 67.355469 387.292969 L 73.214844 386.195313 Z M 68.367188 385.070313 " transform="matrix(1,0,0,-1,-40,445)"/>
<path style="fill:none;stroke-width:0.4;stroke-linecap:butt;stroke-linejoin:round;stroke:rgb(0%,0%,0%);stroke-opacity:1;stroke-miterlimit:10;" d="M 82.386719 382.222656 L 82.9375 383.277344 L 86.820313 381.859375 Z M 82.386719 382.222656 " transform="matrix(1,0,0,-1,-40,445)"/>
<path style="fill:none;stroke-width:0.4;stroke-linecap:butt;stroke-linejoin:round;stroke:rgb(0%,0%,0%);stroke-opacity:1;stroke-miterlimit:10;" d="M 169.292969 441.882813 L 170.164063 441.898438 L 183.097656 425.117188 L 195.03125 437.152344 L 196.796875 441.695313 " transform="matrix(1,0,0,-1,-40,445)"/>
<path style="fill:none;stroke-width:0.4;stroke-linecap:butt;stroke-linejoin:round;stroke:rgb(0%,0%,0%);stroke-opacity:1;stroke-miterlimit:10;" d="M 288.957031 384.390625 L 284.238281 371.753906 L 259.496094 351.898438 L 264.527344 343.527344 L 263.617188 342.433594 L 257.105469 347.992188 L 253.230469 348.175781 L 251.664063 332.773438 L 241.59375 340.96875 L 239.785156 353.011719 L 229.609375 356.578125 L 214.871094 318.59375 L 203.476563 312.484375 L 196.984375 317.523438 L 186.46875 326.648438 L 184.140625 336.929688 L 181.238281 348.777344 L 173.707031 346.746094 L 180.441406 345.292969 L 176.757813 340.675781 L 157.746094 330.472656 L 145.410156 324.972656 L 125.683594 321.308594 L 114.648438 328.324219 L 123.34375 305.429688 L 97.171875 286.269531 L 74.296875 287.710938 L 61.402344 296.316406 L 55.207031 306.53125 L 56.015625 327.964844 L 63.707031 336.554688 L 62.140625 346.71875 L 71.96875 346.085938 L 79.785156 343.941406 L 92.164063 370.636719 L 94.398438 384.324219 L 110.125 372.058594 L 117.492188 378.640625 L 116.941406 396.929688 L 131.613281 387.140625 L 140.851563 393.480469 L 138.394531 401.664063 L 123.5625 422.214844 L 145.761719 405.476563 L 152.230469 398.980469 L 158.078125 407.851563 L 152.277344 415.597656 L 149.980469 419.605469 L 160.914063 437.648438 L 159.019531 441.953125 " transform="matrix(1,0,0,-1,-40,445)"/>
<path style="fill:none;stroke-width:0.4;stroke-linecap:butt;stroke-linejoin:round;stroke:rgb(0%,0%,0%);stroke-opacity:1;stroke-miterlimit:10;" d="M 63.0625 407.835938 L 62.375 408.144531 L 62.90625 408.636719 Z M 63.0625 407.835938 " transform="matrix(1,0,0,-1,-40,445)"/>
<path style="fill:none;stroke-width:0.4;stroke-linecap:butt;stroke-linejoin:round;stroke:rgb(0%,0%,0%);stroke-opacity:1;stroke-miterlimit:10;" d="M 50.535156 407.007813 L 51.976563 408.789063 L 54.207031 408.140625 Z M 50.535156 407.007813 " transform="matrix(1,0,0,-1,-40,445)"/>
<path style="fill:none;stroke-width:0.4;stroke-linecap:butt;stroke-linejoin:round;stroke:rgb(0%,0%,0%);stroke-opacity:1;stroke-miterlimit:10;" d="M 179.46875 344.128906 L 179.304688 344.402344 L 179.554688 344.628906 Z M 179.46875 344.128906 " transform="matrix(1,0,0,-1,-40,445)"/>
<path style="fill:none;stroke-width:0.4;stroke-linecap:butt;stroke-linejoin:round;stroke:rgb(0%,0%,0%);stroke-opacity:1;stroke-miterlimit:10;" d="M 163.582031 441.921875 L 168.589844 441.082031 L 180.367188 424.773438 L 191.90625 423.449219 L 206.183594 431.292969 L 208.753906 438.128906 L 202.523438 441.65625 " transform="matrix(1,0,0,-1,-40,445)"/>
<path style="fill:none;stroke-width:0.4;stroke-linecap:butt;stroke-linejoin:round;stroke:rgb(0%,0%,0%);stroke-opacity:1;stroke-miterlimit:10;" d="M 226.453125 441.492188 L 229.898438 439.78125 L 232.550781 441.449219 " transform="matrix(1,0,0,-1,-40,445)"/>
<path style="fill:none;stroke-width:0.4;stroke-linecap:butt;stroke-linejoin:round;stroke:rgb(0%,0%,0%);stroke-opacity:1;stroke-miterlimit:10;" d="M 146.15625 399.648438 L 141.710938 404.496094 L 144.886719 405.097656 Z M 146.15625 399.648438 " transform="matrix(1,0,0,-1,-40,445)"/>
<path style="fill:none;stroke-width:0.4;stroke-linecap:butt;stroke-linejoin:round;stroke:rgb(0%,0%,0%);stroke-opacity:1;stroke-miterlimit:10;" d="M 188.761719 343.023438 L 186.0625 348.980469 L 189.109375 346.222656 Z M 188.761719 343.023438 " transform="matrix(1,0,0,-1,-40,445)"/>
<path style="fill:none;stroke-width:0.4;stroke-linecap:butt;stroke-linejoin:round;stroke:rgb(0%,0%,0%);stroke-opacity:1;stroke-miterlimit:10;" d="M 212.585938 326.117188 L 200.707031 323.851563 L 191.53125 328.84375 L 187.890625 342.878906 L 210.941406 335.085938 Z M 212.585938 326.117188 " transform="matrix(1,0,0,-1,-40,445)"/>
<path style="fill:none;stroke-width:0.4;stroke-linecap:butt;stroke-linejoin:round;stroke:rgb(0%,0%,0%);stroke-opacity:1;stroke-miterlimit:10;" d="M 224.753906 441.503906 L 228.769531 437.914063 L 233.359375 439.761719 L 234.652344 441.433594 " transform="matrix(1,0,0,-1,-40,445)"/>
<path style="fill:none;stroke-width:0.4;stroke-linecap:butt;stroke-linejoin:round;stroke:rgb(0%,0%,0%);stroke-opacity:1;stroke-miterlimit:10;" d="M 288.957031 418.15625 L 284.492188 411.0625 L 288.957031 402.226563 " transform="matrix(1,0,0,-1,-40,445)"/>
<path style="fill:none;stroke-width:0.4;stroke-linecap:butt;stroke-linejoin:round;stroke:rgb(0%,0%,0%);stroke-opacity:1;stroke-miterlimit:10;" d="M 288.957031 391.300781 L 286.789063 390.46875 L 278.785156 373.207031 L 267.117188 367.828125 L 256.425781 354.039063 L 251.453125 352.359375 L 248.660156 346.085938 L 243.386719 356.957031 L 230.667969 363.441406 L 217.792969 366.023438 L 191.109375 360.417969 L 177.042969 355.175781 L 151.769531 340.996094 L 140.742188 336.578125 L 125.8125 332.722656 L 113.359375 337.914063 L 110.136719 335.46875 L 109.667969 328.285156 L 110.613281 315.195313 L 92.441406 301.9375 L 79.527344 302.941406 L 69.472656 313.449219 L 65.40625 329.890625 L 69.902344 343.558594 L 77.132813 339.425781 L 90.222656 341.5625 L 96.699219 346.546875 L 93.382813 354.824219 L 96.203125 367.65625 L 102.019531 366.785156 L 102.765625 371.367188 L 116.34375 366.253906 L 125.515625 356.242188 L 131.664063 355.050781 L 133.714844 359.4375 L 130.296875 374.800781 L 122.203125 384.417969 L 124.382813 387.582031 L 140.292969 368.320313 L 150.5 363.511719 L 150.535156 370.21875 L 146.875 380.46875 L 145.007813 397.402344 L 161.777344 388.398438 L 164.242188 395.304688 L 162.273438 408.492188 L 155.734375 416.738281 L 168.242188 434.894531 L 177.148438 425.121094 L 181.351563 421.652344 L 192.589844 420.21875 L 207.136719 428.515625 L 216.300781 429.386719 L 216.839844 433.269531 L 209.050781 441.609375 " transform="matrix(1,0,0,-1,-40,445)"/>
<path style="fill:none;stroke-width:0.4;stroke-linecap:butt;stroke-linejoin:round;stroke:rgb(0%,0%,0%);stroke-opacity:1;stroke-miterlimit:10;" d="M 144.863281 403.15625 L 144.570313 404.503906 L 144.917969 404.550781 Z M 144.863281 403.15625 " transform="matrix(1,0,0,-1,-40,445)"/>
<path style="fill:none;stroke-width:0.4;stroke-linecap:butt;stroke-linejoin:round;stroke:rgb(0%,0%,0%);stroke-opacity:1;stroke-miterlimit:10;" d="M 200.730469 328.015625 L 192.839844 329.605469 L 191.167969 339.855469 Z M 200.730469 328.015625 " transform="matrix(1,0,0,-1,-40,445)"/>
<path style="fill:none;stroke-width:0.4;stroke-linecap:butt;stroke-linejoin:round;stroke:rgb(0%,0%,0%);stroke-opacity:1;stroke-miterlimit:10;" d="M 223.40625 441.511719 L 227.933594 436.542969 L 235.195313 439.183594 L 236.078125 441.425781 " transform="matrix(1,0,0,-1,-40,445)"/>
<path style="fill:none;stroke-width:0.4;stroke-linecap:butt;stroke-linejoin:round;stroke:rgb(0%,0%,0%);stroke-opacity:1;stroke-miterlimit:10;" d="M 288.957031 421.316406 L 282.679688 411.960938 L 286.363281 400.375 L 288.957031 398.945313 " transform="matrix(1,0,0,-1,-40,445)"/>
<path style="fill:none;stroke-width:0.4;stroke-linecap:butt;stroke-linejoin:round;stroke:rgb(0%,0%,0%);stroke-opacity:1;stroke-miterlimit:10;" d="M 288.957031 393.007813 L 285.253906 392.234375 L 278.253906 375.222656 L 266 369.765625 L 256.605469 356.886719 L 251.257813 353.128906 L 230.550781 365.40625 L 217.789063 367.46875 L 190.984375 362.230469 L 184.945313 366.472656 L 176.835938 355.578125 L 150.171875 343.816406 L 139.96875 339.050781 L 125.886719 334.238281 L 113.765625 339.542969 L 108.675781 335.902344 L 109.507813 328.285156 L 102.824219 312.949219 L 91.058594 306.527344 L 81.085938 307.480469 L 72.945313 315.136719 L 67.589844 329.863281 L 71.128906 342.203125 L 77.519531 338.179688 L 90.308594 339.800781 L 97.863281 346.21875 L 94.8125 354.648438 L 97.816406 366.839844 L 101.988281 366.066406 L 103.917969 368.894531 L 115.746094 365.179688 L 125.21875 355.191406 L 132.003906 353.707031 L 134.773438 359.34375 L 131.789063 374.300781 L 124.003906 384.46875 L 124.3125 385.746094 L 139.847656 367.316406 L 146.101563 364.097656 L 150.949219 362.921875 L 151.746094 370.417969 L 148.871094 378.199219 L 145.984375 396.273438 L 159.558594 388.289063 L 161.867188 387.441406 L 163.386719 388.890625 L 165.574219 395.203125 L 163.886719 407.921875 L 157.65625 415.210938 L 168.074219 431.78125 L 175.820313 424.394531 L 181.5 420.128906 L 192.929688 418.625 L 207.628906 427.070313 L 217.296875 427.027344 L 218.007813 433.738281 L 211.296875 441.59375 " transform="matrix(1,0,0,-1,-40,445)"/>
<path style="fill:none;stroke-width:0.4;stroke-linecap:butt;stroke-linejoin:round;stroke:rgb(0%,0%,0%);stroke-opacity:1;stroke-miterlimit:10;" d="M 194.039063 331.496094 L 194.015625 331.683594 L 194.066406 331.652344 Z M 194.039063 331.496094 " transform="matrix(1,0,0,-1,-40,445)"/>
<path style="fill:none;stroke-width:0.4;stroke-linecap:butt;stroke-linejoin:round;stroke:rgb(0%,0%,0%);stroke-opacity:1;stroke-miterlimit:10;" d="M 222.0625 441.523438 L 227.722656 436.191406 L 232.375 434.441406 L 237.429688 441.417969 " transform="matrix(1,0,0,-1,-40,445)"/>
<path style="fill:none;stroke-width:0.4;stroke-linecap:butt;stroke-linejoin:round;stroke:rgb(0%,0%,0%);stroke-opacity:1;stroke-miterlimit:10;" d="M 288.957031 424.078125 L 280.753906 412.914063 L 285 399.792969 L 288.957031 396.109375 " transform="matrix(1,0,0,-1,-40,445)"/>
<path style="fill:none;stroke-width:0.4;stroke-linecap:butt;stroke-linejoin:round;stroke:rgb(0%,0%,0%);stroke-opacity:1;stroke-miterlimit:10;" d="M 288.957031 394.898438 L 284.574219 394.304688 L 276.023438 376.207031 L 264.785156 371.875 L 255.757813 357.617188 L 250.804688 356.058594 L 230.441406 367.210938 L 217.789063 368.914063 L 190.824219 364.625 L 183.566406 368.535156 L 176.753906 355.734375 L 165.53125 354.878906 L 125.96875 335.820313 L 113.699219 340.953125 L 107.4375 336.269531 L 108.1875 328.273438 L 100.195313 315.496094 L 89.839844 310.558594 L 81.882813 312.046875 L 76.222656 316.726563 L 69.53125 329.839844 L 70.335938 338.539063 L 77.875 337.03125 L 90.707031 338.152344 L 98.640625 346 L 96.722656 357.394531 L 97.308594 363.035156 L 102.648438 365.09375 L 104.679688 367.117188 L 115.09375 364.003906 L 124.839844 353.867188 L 132.289063 352.574219 L 135.808594 359.328125 L 134.277344 370.683594 L 144.863281 363.742188 L 151.878906 361.707031 L 152.996094 370.621094 L 150.058594 378.21875 L 147.164063 394.320313 L 159.152344 387.300781 L 162.003906 385.980469 L 164.386719 388.53125 L 166.910156 395.105469 L 165.578125 407.398438 L 160.253906 419.152344 L 168.816406 428.214844 L 175.21875 423.105469 L 183.214844 417.628906 L 193.214844 417.277344 L 208.285156 425.148438 L 219.058594 425.902344 L 219.3125 434.257813 L 212.613281 441.585938 " transform="matrix(1,0,0,-1,-40,445)"/>
<path style="fill:none;stroke-width:0.4;stroke-linecap:butt;stroke-linejoin:round;stroke:rgb(0%,0%,0%);stroke-opacity:1;stroke-miterlimit:10;" d="M 220.078125 441.535156 L 227.21875 435.363281 L 234.179688 432.761719 L 238.84375 441.40625 " transform="matrix(1,0,0,-1,-40,445)"/>
<path style="fill:none;stroke-width:0.4;stroke-linecap:butt;stroke-linejoin:round;stroke:rgb(0%,0%,0%);stroke-opacity:1;stroke-miterlimit:10;" d="M 218.316406 441.546875 L 226.527344 434.226563 L 235.605469 431.429688 L 240.269531 441.398438 " transform="matrix(1,0,0,-1,-40,445)"/>
<path style="fill:none;stroke-width:0.4;stroke-linecap:butt;stroke-linejoin:round;stroke:rgb(0%,0%,0%);stroke-opacity:1;stroke-miterlimit:10;" d="M 288.957031 431.863281 L 277.886719 414.335938 L 282.292969 398.640625 L 275.238281 381.921875 L 262.445313 375.9375 L 253.675781 359.414063 L 231.296875 370.960938 L 217.785156 371.699219 L 198.222656 369.113281 L 188.785156 375.269531 L 179.472656 371.300781 L 175.5625 358.066406 L 156.863281 359.925781 L 127.496094 337.992188 L 114.21875 343.929688 L 105.015625 336.988281 L 106.285156 328.261719 L 95.339844 320.15625 L 87.222656 318.324219 L 82.417969 319.730469 L 72.730469 331.808594 L 73.261719 334.671875 L 94.195313 336.203125 L 100.84375 345.382813 L 99.339844 357.972656 L 100.15625 360.710938 L 105.484375 364.171875 L 114.074219 362.179688 L 122.730469 351.855469 L 132.851563 350.324219 L 139.539063 363.019531 L 144.902344 361.613281 L 153.636719 359.398438 L 155.132813 370.96875 L 152.261719 380.265625 L 151.109375 389.925781 L 158.996094 385.167969 L 162.207031 383.738281 L 164.074219 384.46875 L 165.8125 386.335938 L 170.691406 394.820313 L 169.914063 407.882813 L 162.257813 417.679688 L 181.554688 414.285156 L 193.980469 413.679688 L 200.550781 416.363281 L 210.960938 421.824219 L 220.789063 423.816406 L 222.148438 429.421875 L 222.046875 435.101563 L 215.238281 441.566406 " transform="matrix(1,0,0,-1,-40,445)"/>
<path style="fill:none;stroke-width:0.4;stroke-linecap:butt;stroke-linejoin:round;stroke:rgb(0%,0%,0%);stroke-opacity:1;stroke-miterlimit:10;" d="M 184.832031 389.855469 L 184.621094 392.035156 L 185.546875 391.820313 Z M 184.832031 389.855469 " transform="matrix(1,0,0,-1,-40,445)"/>
<path style="fill:none;stroke-width:0.4;stroke-linecap:butt;stroke-linejoin:round;stroke:rgb(0%,0%,0%);stroke-opacity:1;stroke-miterlimit:10;" d="M 262.449219 441.246094 L 277.300781 437.96875 L 277.820313 441.140625 " transform="matrix(1,0,0,-1,-40,445)"/>
<path style="fill:none;stroke-width:0.4;stroke-linecap:butt;stroke-linejoin:round;stroke:rgb(0%,0%,0%);stroke-opacity:1;stroke-miterlimit:10;" d="M 288.957031 434.632813 L 276.054688 416.089844 L 279.558594 397.472656 L 273.089844 382.246094 L 261.238281 378.027344 L 251.019531 361.410156 L 231.929688 372.527344 L 217.78125 372.855469 L 198.855469 370.730469 L 188.417969 393.433594 L 194.34375 411.964844 L 201.863281 415.433594 L 211.675781 420.023438 L 222.011719 423.074219 L 223.175781 429.324219 L 226.210938 433.703125 L 237.1875 429.953125 L 241.691406 441.386719 " transform="matrix(1,0,0,-1,-40,445)"/>
<path style="fill:none;stroke-width:0.4;stroke-linecap:butt;stroke-linejoin:round;stroke:rgb(0%,0%,0%);stroke-opacity:1;stroke-miterlimit:10;" d="M 155.398438 361.023438 L 156.132813 371.132813 L 153.277344 382.855469 L 152.234375 387.90625 L 158.496094 384.507813 L 162.324219 382.46875 L 164.898438 383.144531 L 166.566406 386.054688 L 169.449219 391.546875 L 174.523438 387.558594 L 178.097656 371.660156 L 174.757813 359.632813 Z M 155.398438 361.023438 " transform="matrix(1,0,0,-1,-40,445)"/>
<path style="fill:none;stroke-width:0.4;stroke-linecap:butt;stroke-linejoin:round;stroke:rgb(0%,0%,0%);stroke-opacity:1;stroke-miterlimit:10;" d="M 94.410156 322.386719 L 85.855469 321.402344 L 73.59375 332.640625 L 73.886719 333.242188 L 96.8125 335.527344 L 97.746094 337.925781 L 101.882813 345.089844 L 100.382813 358.203125 L 102.109375 360.1875 L 105.789063 362.855469 L 114.171875 360.523438 L 122.371094 350.921875 L 133.238281 348.78125 L 140.191406 361.335938 L 144.902344 360.527344 L 148.644531 358.351563 L 127.667969 339.570313 L 113.421875 345.378906 L 104.066406 337.269531 L 105.21875 328.253906 Z M 94.410156 322.386719 " transform="matrix(1,0,0,-1,-40,445)"/>
<path style="fill:none;stroke-width:0.4;stroke-linecap:butt;stroke-linejoin:round;stroke:rgb(0%,0%,0%);stroke-opacity:1;stroke-miterlimit:10;" d="M 288.957031 438.976563 L 283.207031 436.050781 L 279.261719 441.128906 " transform="matrix(1,0,0,-1,-40,445)"/>
<path style="fill:none;stroke-width:0.4;stroke-linecap:butt;stroke-linejoin:round;stroke:rgb(0%,0%,0%);stroke-opacity:1;stroke-miterlimit:10;" d="M 285.105469 430.339844 L 284.601563 431.824219 L 285.320313 433.363281 Z M 285.105469 430.339844 " transform="matrix(1,0,0,-1,-40,445)"/>
<path style="fill:none;stroke-width:0.4;stroke-linecap:butt;stroke-linejoin:round;stroke:rgb(0%,0%,0%);stroke-opacity:1;stroke-miterlimit:10;" d="M 259.160156 441.269531 L 260.863281 437.433594 L 272.863281 415.164063 L 278.195313 396.894531 L 271.957031 384.136719 L 260.371094 379.539063 L 251.410156 364.480469 L 232.585938 374.164063 L 217.78125 374.003906 L 200.511719 372.644531 L 192.207031 394.3125 L 197.492188 409.164063 L 203.042969 414.457031 L 212.289063 418.121094 L 223.488281 422.828125 L 224.761719 431.148438 L 238.011719 429.1875 L 243.148438 441.378906 " transform="matrix(1,0,0,-1,-40,445)"/>
<path style="fill:none;stroke-width:0.4;stroke-linecap:butt;stroke-linejoin:round;stroke:rgb(0%,0%,0%);stroke-opacity:1;stroke-miterlimit:10;" d="M 155.738281 362.511719 L 155.792969 362.820313 L 156.53125 362.613281 Z M 155.738281 362.511719 " transform="matrix(1,0,0,-1,-40,445)"/>
<path style="fill:none;stroke-width:0.4;stroke-linecap:butt;stroke-linejoin:round;stroke:rgb(0%,0%,0%);stroke-opacity:1;stroke-miterlimit:10;" d="M 173.863281 361.375 L 157.695313 362.859375 L 156.382813 364.511719 L 157.390625 371.335938 L 154.613281 383.046875 L 153.714844 385.828125 L 156.339844 384.78125 L 162.4375 381.269531 L 165.386719 381.902344 L 167.429688 385.734375 L 170.511719 389.765625 L 175.628906 372.308594 Z M 173.863281 361.375 " transform="matrix(1,0,0,-1,-40,445)"/>
<path style="fill:none;stroke-width:0.4;stroke-linecap:butt;stroke-linejoin:round;stroke:rgb(0%,0%,0%);stroke-opacity:1;stroke-miterlimit:10;" d="M 142.195313 355.117188 L 139.773438 359.011719 L 144.902344 359.5625 Z M 142.195313 355.117188 " transform="matrix(1,0,0,-1,-40,445)"/>
<path style="fill:none;stroke-width:0.4;stroke-linecap:butt;stroke-linejoin:round;stroke:rgb(0%,0%,0%);stroke-opacity:1;stroke-miterlimit:10;" d="M 88.46875 323.863281 L 76.019531 331.160156 L 97.046875 334.640625 L 99.453125 337.382813 L 102.90625 344.804688 L 101.726563 358.503906 L 106.394531 361.578125 L 114.585938 359.066406 L 121.933594 349.777344 L 134.152344 346.472656 L 127.8125 340.886719 L 112.765625 346.574219 L 103.332031 337.484375 L 104.773438 329.039063 L 94.363281 324.582031 Z M 88.46875 323.863281 " transform="matrix(1,0,0,-1,-40,445)"/>
<path style="fill:none;stroke-width:0.4;stroke-linecap:butt;stroke-linejoin:round;stroke:rgb(0%,0%,0%);stroke-opacity:1;stroke-miterlimit:10;" d="M 257.0625 441.28125 L 259.175781 437.46875 L 258.398438 429.417969 L 271.449219 414.753906 L 275.289063 402.808594 L 273.144531 386.878906 L 259.246094 381.488281 L 249.890625 366.871094 L 233.101563 375.445313 L 217.78125 374.957031 L 202.355469 374.125 L 204.144531 382.472656 L 194.195313 394.777344 L 199.121094 407.144531 L 204.175781 413.609375 L 212.621094 416.285156 L 221.347656 417.605469 L 224.324219 422.953125 L 225.988281 429.058594 L 238.90625 428.355469 L 244.363281 441.367188 " transform="matrix(1,0,0,-1,-40,445)"/>
<path style="fill:none;stroke-width:0.4;stroke-linecap:butt;stroke-linejoin:round;stroke:rgb(0%,0%,0%);stroke-opacity:1;stroke-miterlimit:10;" d="M 169.429688 364.492188 L 159.40625 364.71875 L 155.621094 384.316406 L 162.558594 379.957031 L 166.179688 380.757813 L 169.949219 385.992188 L 173.570313 373.707031 Z M 169.429688 364.492188 " transform="matrix(1,0,0,-1,-40,445)"/>
<path style="fill:none;stroke-width:0.4;stroke-linecap:butt;stroke-linejoin:round;stroke:rgb(0%,0%,0%);stroke-opacity:1;stroke-miterlimit:10;" d="M 102.449219 338.890625 L 103.707031 344.578125 L 102.796875 358.738281 L 106.019531 360.058594 L 114.378906 357.933594 L 121.511719 348.683594 L 132.3125 345.886719 L 127.949219 342.140625 L 113.410156 347.089844 Z M 102.449219 338.890625 " transform="matrix(1,0,0,-1,-40,445)"/>
<path style="fill:none;stroke-width:0.4;stroke-linecap:butt;stroke-linejoin:round;stroke:rgb(0%,0%,0%);stroke-opacity:1;stroke-miterlimit:10;" d="M 104.523438 329.5625 L 94.648438 326.367188 L 80.699219 331.25 L 97.480469 332.996094 L 100.792969 336.390625 Z M 104.523438 329.5625 " transform="matrix(1,0,0,-1,-40,445)"/>
<path style="fill:none;stroke-width:0.4;stroke-linecap:butt;stroke-linejoin:round;stroke:rgb(0%,0%,0%);stroke-opacity:1;stroke-miterlimit:10;" d="M 248.257813 369.433594 L 236.046875 376.222656 L 217.777344 375.910156 L 202.554688 374.320313 L 217.851563 385.496094 L 198.015625 395.664063 L 203.292969 403.464844 L 209.1875 414.128906 L 224.691406 416.605469 L 225.425781 423.359375 L 226.949219 427.699219 L 239.09375 428.179688 L 251.167969 443.808594 L 256.988281 437.238281 L 249.757813 425.703125 L 269.363281 414.148438 L 274.460938 402.632813 L 271.777344 388.398438 L 258.21875 383.273438 Z M 248.257813 369.433594 " transform="matrix(1,0,0,-1,-40,445)"/>
<path style="fill:none;stroke-width:0.4;stroke-linecap:butt;stroke-linejoin:round;stroke:rgb(0%,0%,0%);stroke-opacity:1;stroke-miterlimit:10;" d="M 162.027344 364.734375 L 156.976563 381.757813 L 162.65625 378.890625 L 168.597656 380.398438 L 171.769531 373.574219 Z M 162.027344 364.734375 " transform="matrix(1,0,0,-1,-40,445)"/>
<path style="fill:none;stroke-width:0.4;stroke-linecap:butt;stroke-linejoin:round;stroke:rgb(0%,0%,0%);stroke-opacity:1;stroke-miterlimit:10;" d="M 160.226563 365.714844 L 159.226563 366.257813 L 159.433594 366.761719 Z M 160.226563 365.714844 " transform="matrix(1,0,0,-1,-40,445)"/>
<path style="fill:none;stroke-width:0.4;stroke-linecap:butt;stroke-linejoin:round;stroke:rgb(0%,0%,0%);stroke-opacity:1;stroke-miterlimit:10;" d="M 105.328125 344.121094 L 103.886719 355.777344 L 105.765625 359.019531 L 114.164063 356.476563 L 121.09375 347.585938 L 129.886719 344.757813 L 128.058594 343.144531 L 113.355469 348.265625 Z M 105.328125 344.121094 " transform="matrix(1,0,0,-1,-40,445)"/>
<path style="fill:none;stroke-width:0.4;stroke-linecap:butt;stroke-linejoin:round;stroke:rgb(0%,0%,0%);stroke-opacity:1;stroke-miterlimit:10;" d="M 104.253906 329.699219 L 94.933594 327.925781 L 88.5625 329.28125 L 97.675781 332.261719 L 101.558594 333.535156 Z M 104.253906 329.699219 " transform="matrix(1,0,0,-1,-40,445)"/>
<path style="fill:none;stroke-width:0.4;stroke-linecap:butt;stroke-linejoin:round;stroke:rgb(0%,0%,0%);stroke-opacity:1;stroke-miterlimit:10;" d="M 239.335938 427.953125 L 250.492188 440.023438 L 252.292969 435.980469 L 243.632813 425.523438 Z M 239.335938 427.953125 " transform="matrix(1,0,0,-1,-40,445)"/>
<path style="fill:none;stroke-width:0.4;stroke-linecap:butt;stroke-linejoin:round;stroke:rgb(0%,0%,0%);stroke-opacity:1;stroke-miterlimit:10;" d="M 208.136719 376.179688 L 219.824219 382.964844 L 225.347656 376.953125 Z M 208.136719 376.179688 " transform="matrix(1,0,0,-1,-40,445)"/>
<path style="fill:none;stroke-width:0.4;stroke-linecap:butt;stroke-linejoin:round;stroke:rgb(0%,0%,0%);stroke-opacity:1;stroke-miterlimit:10;" d="M 246.628906 371.996094 L 221.09375 385.402344 L 219.335938 390.628906 L 207.09375 395.691406 L 206.546875 400.898438 L 216.0625 409.117188 L 225.039063 416.132813 L 225.445313 423.355469 L 234.582031 426.625 L 237.179688 422 L 259.570313 415.300781 L 264.535156 405.300781 L 274.222656 402.585938 L 267.839844 393.609375 L 257.785156 384.023438 Z M 246.628906 371.996094 " transform="matrix(1,0,0,-1,-40,445)"/>
<path style="fill:none;stroke-width:0.4;stroke-linecap:butt;stroke-linejoin:round;stroke:rgb(0%,0%,0%);stroke-opacity:1;stroke-miterlimit:10;" d="M 162.199219 370.4375 L 158.585938 379.648438 L 163.078125 378.050781 L 166.3125 378.550781 L 168.589844 374.058594 Z M 162.199219 370.4375 " transform="matrix(1,0,0,-1,-40,445)"/>
<path style="fill:none;stroke-width:0.4;stroke-linecap:butt;stroke-linejoin:round;stroke:rgb(0%,0%,0%);stroke-opacity:1;stroke-miterlimit:10;" d="M 106.589844 346.769531 L 104.929688 356.378906 L 107.632813 357.390625 L 113.386719 355.613281 L 117.839844 350.019531 Z M 106.589844 346.769531 " transform="matrix(1,0,0,-1,-40,445)"/>
<path style="fill:none;stroke-width:0.4;stroke-linecap:butt;stroke-linejoin:round;stroke:rgb(0%,0%,0%);stroke-opacity:1;stroke-miterlimit:10;" d="M 124.417969 345.453125 L 127.535156 344.402344 L 126.652344 343.652344 Z M 124.417969 345.453125 " transform="matrix(1,0,0,-1,-40,445)"/>
<path style="fill:none;stroke-width:0.4;stroke-linecap:butt;stroke-linejoin:round;stroke:rgb(0%,0%,0%);stroke-opacity:1;stroke-miterlimit:10;" d="M 96.023438 329.664063 L 101.476563 331.652344 L 101.664063 329.230469 Z M 96.023438 329.664063 " transform="matrix(1,0,0,-1,-40,445)"/>
<path style="fill:none;stroke-width:0.4;stroke-linecap:butt;stroke-linejoin:round;stroke:rgb(0%,0%,0%);stroke-opacity:1;stroke-miterlimit:10;" d="M 245.035156 433.289063 L 244.988281 433.761719 L 245.292969 433.644531 Z M 245.035156 433.289063 " transform="matrix(1,0,0,-1,-40,445)"/>
<path style="fill:none;stroke-width:0.4;stroke-linecap:butt;stroke-linejoin:round;stroke:rgb(0%,0%,0%);stroke-opacity:1;stroke-miterlimit:10;" d="M 255.378906 403.503906 L 251.199219 408.34375 L 254.140625 411.617188 Z M 255.378906 403.503906 " transform="matrix(1,0,0,-1,-40,445)"/>
<path style="fill:none;stroke-width:0.4;stroke-linecap:butt;stroke-linejoin:round;stroke:rgb(0%,0%,0%);stroke-opacity:1;stroke-miterlimit:10;" d="M 261.429688 397.410156 L 259.65625 399.546875 L 265.179688 400.515625 Z M 261.429688 397.410156 " transform="matrix(1,0,0,-1,-40,445)"/>
<path style="fill:none;stroke-width:0.4;stroke-linecap:butt;stroke-linejoin:round;stroke:rgb(0%,0%,0%);stroke-opacity:1;stroke-miterlimit:10;" d="M 240.929688 375.421875 L 243.882813 392.878906 L 224.578125 383.855469 L 222.8125 394.511719 L 212.179688 397.15625 L 227.816406 412.355469 L 231.425781 416.839844 L 226.769531 422.546875 L 234.390625 424.808594 L 235.621094 418.59375 L 242.515625 416.195313 L 258.277344 395.324219 L 250.902344 380.867188 Z M 240.929688 375.421875 " transform="matrix(1,0,0,-1,-40,445)"/>
<path style="fill:none;stroke-width:0.4;stroke-linecap:butt;stroke-linejoin:round;stroke:rgb(0%,0%,0%);stroke-opacity:1;stroke-miterlimit:10;" d="M 162.050781 375.160156 L 163.078125 376.871094 L 166.441406 376.492188 L 165.96875 373.769531 Z M 162.050781 375.160156 " transform="matrix(1,0,0,-1,-40,445)"/>
<path style="fill:none;stroke-width:0.4;stroke-linecap:butt;stroke-linejoin:round;stroke:rgb(0%,0%,0%);stroke-opacity:1;stroke-miterlimit:10;" d="M 114.367188 349.929688 L 107.257813 349.34375 L 106.390625 355.65625 L 108.585938 356.152344 L 114.570313 353.199219 Z M 114.367188 349.929688 " transform="matrix(1,0,0,-1,-40,445)"/>
<path style="fill:none;stroke-width:0.4;stroke-linecap:butt;stroke-linejoin:round;stroke:rgb(0%,0%,0%);stroke-opacity:1;stroke-miterlimit:10;" d="M 230.148438 421.707031 L 228.644531 422.992188 L 232.011719 423.132813 Z M 230.148438 421.707031 " transform="matrix(1,0,0,-1,-40,445)"/>
<path style="fill:none;stroke-width:0.4;stroke-linecap:butt;stroke-linejoin:round;stroke:rgb(0%,0%,0%);stroke-opacity:1;stroke-miterlimit:10;" d="M 231.804688 409.84375 L 234.742188 416.667969 L 243.804688 413.375 L 240.210938 409.761719 Z M 231.804688 409.84375 " transform="matrix(1,0,0,-1,-40,445)"/>
<path style="fill:none;stroke-width:0.4;stroke-linecap:butt;stroke-linejoin:round;stroke:rgb(0%,0%,0%);stroke-opacity:1;stroke-miterlimit:10;" d="M 231.574219 387.757813 L 226.757813 389.03125 L 225.117188 396.027344 L 228.277344 412.601563 L 232.640625 402.769531 Z M 231.574219 387.757813 " transform="matrix(1,0,0,-1,-40,445)"/>
<path style="fill:none;stroke-width:0.4;stroke-linecap:butt;stroke-linejoin:round;stroke:rgb(0%,0%,0%);stroke-opacity:1;stroke-miterlimit:10;" d="M 246.039063 379.605469 L 247.378906 386.375 L 249.6875 382.386719 Z M 246.039063 379.605469 " transform="matrix(1,0,0,-1,-40,445)"/>
<path style="fill:none;stroke-width:0.4;stroke-linecap:butt;stroke-linejoin:round;stroke:rgb(0%,0%,0%);stroke-opacity:1;stroke-miterlimit:10;" d="M 107.726563 351.148438 L 107.480469 353.917969 L 112.242188 353.46875 L 113.253906 350.375 Z M 107.726563 351.148438 " transform="matrix(1,0,0,-1,-40,445)"/>
<path style="fill:none;stroke-width:0.4;stroke-linecap:butt;stroke-linejoin:round;stroke:rgb(0%,0%,0%);stroke-opacity:1;stroke-miterlimit:10;" d="M 237.714844 413.296875 L 236.488281 413.609375 L 237.75 413.746094 Z M 237.714844 413.296875 " transform="matrix(1,0,0,-1,-40,445)"/>
<path style="fill:none;stroke-width:0.4;stroke-linecap:butt;stroke-linejoin:round;stroke:rgb(0%,0%,0%);stroke-opacity:1;stroke-miterlimit:10;" d="M 230.464844 400.132813 L 229.808594 400.859375 L 230.765625 401.902344 Z M 230.464844 400.132813 " transform="matrix(1,0,0,-1,-40,445)"/>
<path style="fill:none;stroke-width:0.4;stroke-linecap:butt;stroke-linejoin:round;stroke:rgb(0%,0%,0%);stroke-opacity:1;stroke-miterlimit:10;" d="M 230.929688 389.304688 L 228.234375 391.753906 L 228.476563 394.351563 Z M 230.929688 389.304688 " transform="matrix(1,0,0,-1,-40,445)"/>
<path style="fill:none;stroke-width:0.4;stroke-linecap:butt;stroke-linejoin:round;stroke:rgb(0%,0%,0%);stroke-opacity:1;stroke-miterlimit:10;" d="M 108.394531 351.589844 L 108.4375 351.792969 L 108.71875 351.6875 Z M 108.394531 351.589844 " transform="matrix(1,0,0,-1,-40,445)"/>
<path style="fill:none;stroke-width:0.4;stroke-linecap:butt;stroke-linejoin:round;stroke:rgb(0%,0%,0%);stroke-opacity:1;stroke-miterlimit:10;" d="M 162.984375 441.925781 L 165.511719 436.660156 L 152.378906 419.402344 L 153.734375 416.246094 L 159.601563 408.058594 L 161.480469 395.511719 L 159.511719 392.5625 L 153.289063 395.980469 L 145.597656 405.40625 L 129.960938 415.410156 L 139.515625 404.046875 L 142.785156 393.269531 L 144.886719 377.207031 L 145.257813 372.335938 L 141.371094 370.75 L 123.371094 392.304688 L 120.550781 392.628906 L 119.398438 383.742188 L 128.691406 375.339844 L 127.109375 360.183594 L 117.203125 367.796875 L 109.640625 370.394531 L 95.882813 382.007813 L 98.894531 372.199219 L 99.332031 369.714844 L 93.40625 369.519531 L 90.269531 355.214844 L 93.96875 347.3125 L 76.675781 342.703125 L 71.671875 344.71875 L 65.824219 345.9375 L 64.816406 333.746094 L 58.933594 329.96875 L 60.632813 309.164063 L 76.019531 292.730469 L 95.660156 291.269531 L 118.304688 309.292969 L 112.101563 328.304688 L 112.089844 333.4375 L 113.902344 334.925781 L 125.621094 329.007813 L 142.953125 329.550781 L 159.640625 336.574219 L 181.339844 352.367188 L 185.933594 337.347656 L 188.132813 328.285156 L 198.988281 318.648438 L 201.964844 316.035156 L 213.125 319.777344 L 220.847656 340.523438 L 219.144531 361.511719 L 230.875 360.042969 L 240.914063 354.246094 L 244.261719 342.902344 L 251.3125 338.265625 L 251.675781 349.566406 L 258.824219 352.367188 L 269.710938 363.328125 L 283.519531 373.4375 L 288.957031 386.984375 " transform="matrix(1,0,0,-1,-40,445)"/>
<path style="fill:none;stroke-width:0.4;stroke-linecap:butt;stroke-linejoin:round;stroke:rgb(0%,0%,0%);stroke-opacity:1;stroke-miterlimit:10;" d="M 206.777344 441.625 L 215.800781 432.855469 L 206.855469 429.339844 L 192.308594 421.554688 L 181.332031 423.015625 L 179.027344 424.71875 L 167.816406 438.933594 L 166.574219 435.972656 L 153.808594 418.152344 L 160.875 408.265625 L 162.804688 395.414063 L 161.140625 390.234375 L 152.515625 394.75 L 145.25 405.253906 L 140.226563 405.5625 L 144.203125 393.113281 L 146.210938 377.226563 L 149.570313 370.0625 L 148.640625 365.378906 L 140.792969 369.441406 L 123.648438 390.144531 L 120.78125 383.746094 L 128.714844 375.332031 L 132.6875 359.789063 L 130.269531 356.550781 L 127.035156 356.871094 L 116.5625 366.644531 L 109.335938 369.136719 L 97.695313 379.5625 L 101.382813 372.109375 L 100.28125 367.738281 L 94.625 368.453125 L 91.890625 355.011719 L 95.476563 346.890625 L 79.117188 339.949219 L 71.457031 343.722656 L 67.300781 344.523438 L 66.105469 332.785156 L 61.933594 329.929688 L 65.425781 311.488281 L 77.824219 297.980469 L 94.082031 296.5 L 114.136719 312.492188 L 110.835938 328.296875 L 110.546875 333.992188 L 113.640625 336.484375 L 125.722656 330.964844 L 141.601563 333.335938 L 154.503906 338.363281 L 181.402344 354.726563 L 187.773438 337.773438 L 190.324219 328.054688 L 201.003906 320.742188 L 212.289063 320.34375 L 216.789063 337 L 190.203125 346.820313 L 191.257813 358.183594 L 217.796875 364.542969 L 230.777344 361.632813 L 242.074219 355.519531 L 248.398438 341.148438 L 251.328125 350.332031 L 257.53125 353.269531 L 268.335938 365.710938 L 279.46875 372 L 288.957031 389.175781 " transform="matrix(1,0,0,-1,-40,445)"/>
<path style="fill:none;stroke-width:0.4;stroke-linecap:butt;stroke-linejoin:round;stroke:rgb(0%,0%,0%);stroke-opacity:1;stroke-miterlimit:10;" d="M 213.746094 441.578125 L 220.464844 434.71875 L 219.476563 425.507813 L 210.679688 423.371094 L 193.601563 415.46875 L 182.511719 416.214844 L 170.804688 423.761719 L 161.023438 417.480469 L 167.136719 408.078125 L 168.425781 394.988281 L 164.859375 386.691406 L 162.097656 384.949219 L 159.527344 385.867188 L 148.96875 392.851563 L 151.386719 378.238281 L 154.179688 370.8125 L 152.980469 360.257813 L 144.902344 362.695313 L 135.96875 366.945313 L 137.121094 359.316406 L 132.527344 351.621094 L 125.484375 352.292969 L 114.34375 362.65625 L 105.234375 365.261719 L 98.957031 362.523438 L 97.976563 357.671875 L 100.035156 345.609375 L 90.957031 336.804688 L 72.625 336.128906 L 70.726563 331.558594 L 79.003906 318.074219 L 88.714844 314.289063 L 97.632813 317.203125 L 106.53125 328.261719 L 106.195313 336.636719 L 113.628906 342.449219 L 126.035156 337.128906 L 161.28125 357.351563 L 175.9375 357.332031 L 181.109375 371.753906 L 198.148438 366.445313 L 217.785156 370.421875 L 230.328125 369.039063 L 252.398438 357.574219 L 254.453125 358.746094 L 263.394531 374.289063 L 277.242188 380.882813 L 284.234375 399.46875 L 279.109375 413.730469 L 288.957031 427.882813 " transform="matrix(1,0,0,-1,-40,445)"/>
</g>
</svg>
