<?xml version="1.0" encoding="UTF-8"?>
<svg xmlns="http://www.w3.org/2000/svg" xmlns:xlink="http://www.w3.org/1999/xlink" width="298pt" height="75pt" viewBox="0 0 298 75" version="1.1">
<g id="surface144264">
<path style=" stroke:none;fill-rule:evenodd;fill:rgb(52.5%,36.9%,23.5%);fill-opacity:0.5;" d="M 274.546875 51.808594 L 257.445312 68.554688 L 229 33 C 246.078125 32.964844 262.46875 39.734375 274.546875 51.808594 Z M 274.546875 51.808594 "/>
<path style=" stroke:none;fill-rule:evenodd;fill:rgb(52.5%,36.9%,23.5%);fill-opacity:0.2;" d="M 86.613281 70.546875 C 76.035156 63.152344 61.964844 63.152344 51.386719 70.546875 L 51.433594 70.132812 L 51.488281 69.714844 L 51.542969 69.289062 L 51.601562 68.867188 L 51.667969 68.4375 L 51.734375 68.003906 L 51.808594 67.566406 L 51.886719 67.125 L 51.96875 66.683594 L 52.054688 66.234375 L 52.144531 65.78125 L 52.242188 65.328125 L 52.445312 64.40625 L 52.671875 63.46875 L 52.792969 62.992188 L 52.921875 62.515625 L 53.050781 62.035156 L 53.1875 61.550781 L 53.328125 61.058594 L 53.476562 60.566406 L 53.632812 60.070312 L 53.789062 59.570312 L 53.953125 59.066406 L 54.125 58.558594 L 54.300781 58.046875 L 54.484375 57.53125 L 54.675781 57.015625 L 54.871094 56.492188 L 55.070312 55.96875 L 55.28125 55.4375 L 55.496094 54.90625 L 55.714844 54.371094 L 55.945312 53.832031 L 56.179688 53.289062 L 56.421875 52.742188 L 56.671875 52.191406 L 56.925781 51.640625 L 57.191406 51.082031 L 57.460938 50.523438 L 57.738281 49.960938 L 58.027344 49.390625 L 58.320312 48.820312 L 58.621094 48.25 L 58.929688 47.671875 L 59.246094 47.09375 L 59.570312 46.511719 L 59.90625 45.925781 L 60.246094 45.335938 L 60.597656 44.746094 L 60.957031 44.152344 L 61.324219 43.554688 L 61.699219 42.953125 L 62.085938 42.351562 L 62.480469 41.746094 L 62.882812 41.136719 L 63.292969 40.523438 L 63.714844 39.910156 L 64.148438 39.292969 L 64.585938 38.675781 L 65.035156 38.054688 L 65.496094 37.429688 L 65.96875 36.804688 L 66.445312 36.175781 L 66.9375 35.542969 L 67.4375 34.910156 L 67.945312 34.277344 L 68.46875 33.640625 L 69 33 "/>
<path style=" stroke:none;fill-rule:evenodd;fill:rgb(52.5%,36.9%,23.5%);fill-opacity:0.5;" d="M 69 33 C 86.078125 32.964844 102.46875 39.734375 114.546875 51.8125 L 137.175781 29.183594 C 115.515625 7.523438 84.820312 -2.5 54.554688 2.203125 Z M 69 33 "/>
<path style=" stroke:none;fill-rule:evenodd;fill:rgb(52.5%,36.9%,23.5%);fill-opacity:0.5;" d="M 69 33 C 86.082031 32.949219 102.480469 39.71875 114.546875 51.808594 L 91.332031 74.4375 C 89.886719 72.992188 88.308594 71.6875 86.613281 70.542969 "/>
<path style=" stroke:none;fill-rule:evenodd;fill:rgb(100%,100%,100%);fill-opacity:0.2;" d="M 69 33 C 52.125 33.121094 35.972656 39.875 24.039062 51.808594 L 46.667969 74.4375 C 48.113281 72.992188 49.691406 71.6875 51.386719 70.542969 L 51.433594 70.132812 L 51.488281 69.714844 L 51.542969 69.289062 L 51.601562 68.867188 L 51.667969 68.4375 L 51.734375 68.003906 L 51.808594 67.566406 L 51.886719 67.125 L 51.96875 66.683594 L 52.054688 66.234375 L 52.144531 65.78125 L 52.242188 65.328125 L 52.445312 64.40625 L 52.671875 63.46875 L 52.792969 62.992188 L 52.921875 62.515625 L 53.050781 62.035156 L 53.1875 61.550781 L 53.328125 61.058594 L 53.476562 60.566406 L 53.632812 60.070312 L 53.789062 59.570312 L 53.953125 59.066406 L 54.125 58.558594 L 54.300781 58.046875 L 54.484375 57.53125 L 54.675781 57.015625 L 54.871094 56.492188 L 55.070312 55.96875 L 55.28125 55.4375 L 55.496094 54.90625 L 55.714844 54.371094 L 55.945312 53.832031 L 56.179688 53.289062 L 56.421875 52.742188 L 56.671875 52.191406 L 56.925781 51.640625 L 57.191406 51.082031 L 57.460938 50.523438 L 57.738281 49.960938 L 58.027344 49.390625 L 58.320312 48.820312 L 58.621094 48.25 L 58.929688 47.671875 L 59.246094 47.09375 L 59.570312 46.511719 L 59.90625 45.925781 L 60.246094 45.335938 L 60.597656 44.746094 L 60.957031 44.152344 L 61.324219 43.554688 L 61.699219 42.953125 L 62.085938 42.351562 L 62.480469 41.746094 L 62.882812 41.136719 L 63.292969 40.523438 L 63.714844 39.910156 L 64.148438 39.292969 L 64.585938 38.675781 L 65.035156 38.054688 L 65.496094 37.429688 L 65.96875 36.804688 L 66.445312 36.175781 L 66.9375 35.542969 L 67.4375 34.910156 L 67.945312 34.277344 L 68.46875 33.640625 L 69 33 "/>
<path style=" stroke:none;fill-rule:evenodd;fill:rgb(100%,100%,100%);fill-opacity:0.5;" d="M 24.039062 51.808594 C 35.972656 39.875 52.125 33.121094 69 33 L 54.554688 2.203125 C 34.425781 5.332031 15.816406 14.777344 1.410156 29.183594 Z M 24.039062 51.808594 "/>
<path style="fill:none;stroke-width:1.2;stroke-linecap:round;stroke-linejoin:round;stroke:rgb(17.3%,24.3%,31.4%);stroke-opacity:1;stroke-miterlimit:10;" d="M 137.894531 307.136719 L 134.152344 312.125 " transform="matrix(1,0,0,-1,-107,353)"/>
<path style="fill-rule:evenodd;fill:rgb(17.3%,24.3%,31.4%);fill-opacity:1;stroke-width:1.2;stroke-linecap:round;stroke-linejoin:round;stroke:rgb(17.3%,24.3%,31.4%);stroke-opacity:1;stroke-miterlimit:10;" d="M 134.152344 312.125 L 135.152344 309.125 L 136.75 310.324219 Z M 134.152344 312.125 " transform="matrix(1,0,0,-1,-107,353)"/>
<path style="fill:none;stroke-width:1.2;stroke-linecap:round;stroke-linejoin:round;stroke:rgb(17.3%,24.3%,31.4%);stroke-opacity:1;stroke-miterlimit:10;" d="M 214.695312 307.136719 L 218.433594 312.125 " transform="matrix(1,0,0,-1,-107,353)"/>
<path style="fill-rule:evenodd;fill:rgb(17.3%,24.3%,31.4%);fill-opacity:1;stroke-width:1.2;stroke-linecap:round;stroke-linejoin:round;stroke:rgb(17.3%,24.3%,31.4%);stroke-opacity:1;stroke-miterlimit:10;" d="M 218.433594 312.125 L 215.835938 310.324219 L 217.433594 309.125 Z M 218.433594 312.125 " transform="matrix(1,0,0,-1,-107,353)"/>
<path style="fill:none;stroke-width:1.2;stroke-linecap:round;stroke-linejoin:round;stroke:rgb(17.3%,24.3%,31.4%);stroke-opacity:1;stroke-dasharray:2,3;stroke-miterlimit:10;" d="M 131.039062 301.191406 C 156.03125 326.183594 196.554688 326.183594 221.546875 301.191406 " transform="matrix(1,0,0,-1,-107,353)"/>
<path style="fill:none;stroke-width:0.8;stroke-linecap:round;stroke-linejoin:round;stroke:rgb(17.3%,24.3%,31.4%);stroke-opacity:1;stroke-miterlimit:10;" d="M 176 320 L 175.46875 319.359375 L 174.945312 318.722656 L 174.4375 318.089844 L 173.9375 317.457031 L 173.445312 316.824219 L 172.96875 316.195312 L 172.496094 315.570312 L 172.035156 314.945312 L 171.585938 314.324219 L 171.148438 313.707031 L 170.714844 313.089844 L 170.292969 312.476562 L 169.882812 311.863281 L 169.480469 311.253906 L 169.085938 310.648438 L 168.699219 310.046875 L 168.324219 309.445312 L 167.957031 308.847656 L 167.597656 308.253906 L 167.246094 307.664062 L 166.90625 307.074219 L 166.570312 306.488281 L 166.246094 305.90625 L 165.929688 305.328125 L 165.621094 304.75 L 165.320312 304.179688 L 165.027344 303.609375 L 164.738281 303.039062 L 164.460938 302.476562 L 164.191406 301.917969 L 163.925781 301.359375 L 163.671875 300.808594 L 163.421875 300.257812 L 163.179688 299.710938 L 162.945312 299.167969 L 162.714844 298.628906 L 162.496094 298.09375 L 162.28125 297.5625 L 162.070312 297.03125 L 161.871094 296.507812 L 161.675781 295.984375 L 161.484375 295.46875 L 161.300781 294.953125 L 161.125 294.441406 L 160.953125 293.933594 L 160.789062 293.429688 L 160.632812 292.929688 L 160.476562 292.433594 L 160.328125 291.941406 L 160.1875 291.449219 L 160.050781 290.964844 L 159.921875 290.484375 L 159.792969 290.007812 L 159.671875 289.53125 L 159.445312 288.59375 L 159.242188 287.671875 L 159.144531 287.21875 L 159.054688 286.765625 L 158.96875 286.316406 L 158.886719 285.875 L 158.808594 285.433594 L 158.734375 284.996094 L 158.667969 284.5625 L 158.601562 284.132812 L 158.542969 283.710938 L 158.488281 283.285156 L 158.433594 282.867188 L 158.386719 282.453125 " transform="matrix(1,0,0,-1,-107,353)"/>
<path style=" stroke:none;fill-rule:evenodd;fill:rgb(17.3%,24.3%,31.4%);fill-opacity:1;" d="M 70.800781 33 C 70.800781 30.601562 67.199219 30.601562 67.199219 33 C 67.199219 35.398438 70.800781 35.398438 70.800781 33 Z M 70.800781 33 "/>
<path style="fill:none;stroke-width:1.2;stroke-linecap:round;stroke-linejoin:round;stroke:rgb(17.3%,24.3%,31.4%);stroke-opacity:1;stroke-miterlimit:10;" d="M 193.613281 282.453125 L 161.554688 350.796875 " transform="matrix(1,0,0,-1,-107,353)"/>
<path style=" stroke:none;fill-rule:evenodd;fill:rgb(52.5%,36.9%,23.5%);fill-opacity:0.5;" d="M 229 33 C 246.078125 32.964844 262.46875 39.734375 274.546875 51.808594 L 297.175781 29.183594 C 273.273438 5.28125 238.5625 -4.289062 205.789062 3.988281 Z M 229 33 "/>
<path style=" stroke:none;fill-rule:evenodd;fill:rgb(52.5%,36.9%,23.5%);fill-opacity:0.2;" d="M 184.039062 51.808594 C 195.972656 39.875 212.125 33.121094 229 33 L 205.789062 3.988281 C 188.996094 8.226562 173.660156 16.933594 161.410156 29.183594 Z M 184.039062 51.808594 "/>
<path style="fill:none;stroke-width:1.2;stroke-linecap:round;stroke-linejoin:round;stroke:rgb(17.3%,24.3%,31.4%);stroke-opacity:1;stroke-miterlimit:10;" d="M 297.894531 307.136719 L 294.152344 312.125 " transform="matrix(1,0,0,-1,-107,353)"/>
<path style="fill-rule:evenodd;fill:rgb(17.3%,24.3%,31.4%);fill-opacity:1;stroke-width:1.2;stroke-linecap:round;stroke-linejoin:round;stroke:rgb(17.3%,24.3%,31.4%);stroke-opacity:1;stroke-miterlimit:10;" d="M 294.152344 312.125 L 295.152344 309.125 L 296.75 310.324219 Z M 294.152344 312.125 " transform="matrix(1,0,0,-1,-107,353)"/>
<path style="fill:none;stroke-width:1.2;stroke-linecap:round;stroke-linejoin:round;stroke:rgb(17.3%,24.3%,31.4%);stroke-opacity:1;stroke-miterlimit:10;" d="M 374.695312 307.136719 L 378.433594 312.125 " transform="matrix(1,0,0,-1,-107,353)"/>
<path style="fill-rule:evenodd;fill:rgb(17.3%,24.3%,31.4%);fill-opacity:1;stroke-width:1.2;stroke-linecap:round;stroke-linejoin:round;stroke:rgb(17.3%,24.3%,31.4%);stroke-opacity:1;stroke-miterlimit:10;" d="M 378.433594 312.125 L 375.835938 310.324219 L 377.433594 309.125 Z M 378.433594 312.125 " transform="matrix(1,0,0,-1,-107,353)"/>
<path style="fill:none;stroke-width:1.2;stroke-linecap:round;stroke-linejoin:round;stroke:rgb(17.3%,24.3%,31.4%);stroke-opacity:1;stroke-dasharray:2,3;stroke-miterlimit:10;" d="M 291.039062 301.191406 C 316.03125 326.183594 356.554688 326.183594 381.546875 301.191406 " transform="matrix(1,0,0,-1,-107,353)"/>
<path style="fill:none;stroke-width:1.2;stroke-linecap:round;stroke-linejoin:round;stroke:rgb(17.3%,24.3%,31.4%);stroke-opacity:1;stroke-miterlimit:10;" d="M 364.445312 284.445312 L 312.789062 349.011719 " transform="matrix(1,0,0,-1,-107,353)"/>
<path style=" stroke:none;fill-rule:evenodd;fill:rgb(17.3%,24.3%,31.4%);fill-opacity:1;" d="M 230.800781 33 C 230.800781 30.601562 227.199219 30.601562 227.199219 33 C 227.199219 35.398438 230.800781 35.398438 230.800781 33 Z M 230.800781 33 "/>
<path style="fill:none;stroke-width:0.8;stroke-linecap:round;stroke-linejoin:round;stroke:rgb(17.3%,24.3%,31.4%);stroke-opacity:1;stroke-miterlimit:10;" d="M 336 320 L 336.296875 319.363281 L 336.585938 318.730469 L 336.867188 318.101562 L 337.148438 317.480469 L 337.417969 316.863281 L 337.6875 316.25 L 337.949219 315.640625 L 338.203125 315.039062 L 338.453125 314.441406 L 338.699219 313.847656 L 338.941406 313.257812 L 339.175781 312.675781 L 339.40625 312.09375 L 339.628906 311.519531 L 339.851562 310.949219 L 340.066406 310.386719 L 340.277344 309.824219 L 340.480469 309.269531 L 340.683594 308.71875 L 340.878906 308.171875 L 341.070312 307.628906 L 341.261719 307.089844 L 341.621094 306.027344 L 341.796875 305.503906 L 341.96875 304.984375 L 342.136719 304.46875 L 342.296875 303.957031 L 342.457031 303.453125 L 342.609375 302.949219 L 342.761719 302.449219 L 342.910156 301.957031 L 343.191406 300.980469 L 343.328125 300.5 L 343.460938 300.023438 L 343.589844 299.550781 L 343.714844 299.082031 L 343.835938 298.617188 L 343.957031 298.15625 L 344.070312 297.699219 L 344.183594 297.246094 L 344.292969 296.796875 L 344.398438 296.355469 L 344.5 295.914062 L 344.601562 295.476562 L 344.695312 295.042969 L 344.789062 294.613281 L 344.882812 294.1875 L 345.054688 293.351562 L 345.136719 292.9375 L 345.214844 292.527344 L 345.292969 292.121094 L 345.367188 291.71875 L 345.4375 291.316406 L 345.507812 290.921875 L 345.574219 290.53125 L 345.699219 289.757812 L 345.816406 289 L 345.871094 288.625 L 345.921875 288.253906 L 345.972656 287.886719 L 346.019531 287.523438 L 346.066406 287.164062 L 346.152344 286.453125 L 346.164062 286.34375 " transform="matrix(1,0,0,-1,-107,353)"/>
<path style=" stroke:none;fill-rule:evenodd;fill:rgb(52.5%,36.9%,23.5%);fill-opacity:0.2;" d="M 239.164062 66.65625 C 227.65625 62.800781 214.957031 65.789062 206.371094 74.371094 L 184.039062 51.808594 C 195.988281 39.898438 212.128906 33.144531 229 33 L 229.296875 33.636719 L 229.585938 34.269531 L 229.867188 34.898438 L 230.148438 35.519531 L 230.417969 36.136719 L 230.6875 36.75 L 230.949219 37.359375 L 231.203125 37.960938 L 231.453125 38.558594 L 231.699219 39.152344 L 231.941406 39.742188 L 232.175781 40.324219 L 232.40625 40.90625 L 232.628906 41.480469 L 232.851562 42.050781 L 233.066406 42.613281 L 233.277344 43.175781 L 233.480469 43.730469 L 233.683594 44.28125 L 233.878906 44.828125 L 234.070312 45.371094 L 234.261719 45.910156 L 234.621094 46.972656 L 234.796875 47.496094 L 234.96875 48.015625 L 235.136719 48.53125 L 235.296875 49.042969 L 235.457031 49.546875 L 235.609375 50.050781 L 235.761719 50.550781 L 235.910156 51.042969 L 236.191406 52.019531 L 236.328125 52.5 L 236.460938 52.976562 L 236.589844 53.449219 L 236.714844 53.917969 L 236.835938 54.382812 L 236.957031 54.84375 L 237.070312 55.300781 L 237.183594 55.753906 L 237.292969 56.203125 L 237.398438 56.644531 L 237.5 57.085938 L 237.601562 57.523438 L 237.695312 57.957031 L 237.789062 58.386719 L 237.882812 58.8125 L 238.054688 59.648438 L 238.136719 60.0625 L 238.214844 60.472656 L 238.292969 60.878906 L 238.367188 61.28125 L 238.4375 61.683594 L 238.507812 62.078125 L 238.574219 62.46875 L 238.699219 63.242188 L 238.816406 64 L 238.871094 64.375 L 238.921875 64.746094 L 238.972656 65.113281 L 239.019531 65.476562 L 239.066406 65.835938 L 239.152344 66.546875 Z M 239.164062 66.65625 "/>
</g>
</svg>
