<?xml version="1.0" encoding="UTF-8"?>
<svg xmlns="http://www.w3.org/2000/svg" xmlns:xlink="http://www.w3.org/1999/xlink" width="138pt" height="75pt" viewBox="0 0 138 75" version="1.1">
<g id="surface141097">
<path style=" stroke:none;fill-rule:evenodd;fill:rgb(100%,100%,100%);fill-opacity:0.2;" d="M 69 33 C 52.125 33.121094 35.972656 39.875 24.039062 51.808594 L 46.667969 74.4375 C 48.113281 72.992188 49.691406 71.6875 51.386719 70.546875 L 51.433594 70.132812 L 51.488281 69.714844 L 51.542969 69.289062 L 51.601562 68.867188 L 51.667969 68.4375 L 51.734375 68.003906 L 51.808594 67.566406 L 51.886719 67.125 L 51.96875 66.683594 L 52.054688 66.234375 L 52.144531 65.78125 L 52.242188 65.328125 L 52.445312 64.40625 L 52.671875 63.46875 L 52.792969 62.992188 L 52.921875 62.515625 L 53.050781 62.035156 L 53.1875 61.550781 L 53.328125 61.058594 L 53.476562 60.566406 L 53.632812 60.070312 L 53.789062 59.570312 L 53.953125 59.066406 L 54.125 58.558594 L 54.300781 58.046875 L 54.484375 57.53125 L 54.675781 57.015625 L 54.871094 56.492188 L 55.070312 55.96875 L 55.28125 55.4375 L 55.496094 54.90625 L 55.714844 54.371094 L 55.945312 53.832031 L 56.179688 53.289062 L 56.421875 52.742188 L 56.671875 52.191406 L 56.925781 51.640625 L 57.191406 51.082031 L 57.460938 50.523438 L 57.738281 49.960938 L 58.027344 49.390625 L 58.320312 48.820312 L 58.621094 48.25 L 58.929688 47.671875 L 59.246094 47.09375 L 59.570312 46.511719 L 59.90625 45.925781 L 60.246094 45.335938 L 60.597656 44.746094 L 60.957031 44.152344 L 61.324219 43.554688 L 61.699219 42.953125 L 62.085938 42.351562 L 62.480469 41.746094 L 62.882812 41.136719 L 63.292969 40.523438 L 63.714844 39.910156 L 64.148438 39.292969 L 64.585938 38.675781 L 65.035156 38.054688 L 65.496094 37.429688 L 65.96875 36.804688 L 66.445312 36.175781 L 66.9375 35.542969 L 67.4375 34.910156 L 67.945312 34.277344 L 68.46875 33.640625 L 69 33 "/>
<path style=" stroke:none;fill-rule:evenodd;fill:rgb(100%,100%,100%);fill-opacity:0.2;" d="M 69 33 C 85.875 33.121094 102.027344 39.875 113.960938 51.808594 L 91.332031 74.4375 C 89.886719 72.992188 88.308594 71.6875 86.613281 70.542969 L 86.566406 70.132812 L 86.511719 69.714844 L 86.457031 69.289062 L 86.398438 68.867188 L 86.332031 68.4375 L 86.265625 68.003906 L 86.191406 67.566406 L 86.113281 67.125 L 86.03125 66.683594 L 85.945312 66.234375 L 85.855469 65.78125 L 85.757812 65.328125 L 85.554688 64.40625 L 85.328125 63.46875 L 85.207031 62.992188 L 85.078125 62.515625 L 84.949219 62.035156 L 84.8125 61.550781 L 84.671875 61.058594 L 84.523438 60.566406 L 84.367188 60.070312 L 84.210938 59.570312 L 84.046875 59.066406 L 83.875 58.558594 L 83.699219 58.046875 L 83.515625 57.53125 L 83.324219 57.015625 L 83.128906 56.492188 L 82.929688 55.96875 L 82.71875 55.4375 L 82.503906 54.90625 L 82.285156 54.371094 L 82.054688 53.832031 L 81.820312 53.289062 L 81.578125 52.742188 L 81.328125 52.191406 L 81.074219 51.640625 L 80.808594 51.082031 L 80.539062 50.523438 L 80.261719 49.960938 L 79.972656 49.390625 L 79.679688 48.820312 L 79.378906 48.25 L 79.070312 47.671875 L 78.753906 47.09375 L 78.429688 46.511719 L 78.09375 45.925781 L 77.753906 45.335938 L 77.402344 44.746094 L 77.042969 44.152344 L 76.675781 43.554688 L 76.300781 42.953125 L 75.914062 42.351562 L 75.519531 41.746094 L 75.117188 41.136719 L 74.707031 40.523438 L 74.285156 39.910156 L 73.851562 39.292969 L 73.414062 38.675781 L 72.964844 38.054688 L 72.503906 37.429688 L 72.03125 36.804688 L 71.554688 36.175781 L 71.0625 35.542969 L 70.5625 34.910156 L 70.054688 34.277344 L 69.53125 33.640625 L 69 33 "/>
<path style=" stroke:none;fill-rule:evenodd;fill:rgb(52.5%,36.9%,23.5%);fill-opacity:0.2;" d="M 69 33 L 69.53125 33.640625 L 70.054688 34.277344 L 70.5625 34.910156 L 71.0625 35.542969 L 71.554688 36.175781 L 72.03125 36.804688 L 72.503906 37.429688 L 72.964844 38.054688 L 73.414062 38.675781 L 73.851562 39.292969 L 74.285156 39.910156 L 74.707031 40.523438 L 75.117188 41.136719 L 75.519531 41.746094 L 75.914062 42.351562 L 76.300781 42.953125 L 76.675781 43.554688 L 77.042969 44.152344 L 77.402344 44.746094 L 77.753906 45.335938 L 78.09375 45.925781 L 78.429688 46.511719 L 78.753906 47.09375 L 79.070312 47.671875 L 79.378906 48.25 L 79.679688 48.820312 L 79.972656 49.390625 L 80.261719 49.960938 L 80.539062 50.523438 L 80.808594 51.082031 L 81.074219 51.640625 L 81.328125 52.191406 L 81.578125 52.742188 L 81.820312 53.289062 L 82.054688 53.832031 L 82.285156 54.371094 L 82.503906 54.90625 L 82.71875 55.4375 L 82.929688 55.96875 L 83.128906 56.492188 L 83.324219 57.015625 L 83.515625 57.53125 L 83.699219 58.046875 L 83.875 58.558594 L 84.046875 59.066406 L 84.210938 59.570312 L 84.367188 60.070312 L 84.523438 60.566406 L 84.671875 61.058594 L 84.8125 61.550781 L 84.949219 62.035156 L 85.078125 62.515625 L 85.207031 62.992188 L 85.328125 63.46875 L 85.554688 64.40625 L 85.757812 65.328125 L 85.855469 65.78125 L 85.945312 66.234375 L 86.03125 66.683594 L 86.113281 67.125 L 86.191406 67.566406 L 86.265625 68.003906 L 86.332031 68.4375 L 86.398438 68.867188 L 86.457031 69.289062 L 86.511719 69.714844 L 86.566406 70.132812 L 86.613281 70.546875 C 76.035156 63.152344 61.964844 63.152344 51.386719 70.546875 L 51.433594 70.132812 L 51.488281 69.714844 L 51.542969 69.289062 L 51.601562 68.867188 L 51.667969 68.4375 L 51.734375 68.003906 L 51.808594 67.566406 L 51.886719 67.125 L 51.96875 66.683594 L 52.054688 66.234375 L 52.144531 65.78125 L 52.242188 65.328125 L 52.445312 64.40625 L 52.671875 63.46875 L 52.792969 62.992188 L 52.921875 62.515625 L 53.050781 62.035156 L 53.1875 61.550781 L 53.328125 61.058594 L 53.476562 60.566406 L 53.632812 60.070312 L 53.789062 59.570312 L 53.953125 59.066406 L 54.125 58.558594 L 54.300781 58.046875 L 54.484375 57.53125 L 54.675781 57.015625 L 54.871094 56.492188 L 55.070312 55.96875 L 55.28125 55.4375 L 55.496094 54.90625 L 55.714844 54.371094 L 55.945312 53.832031 L 56.179688 53.289062 L 56.421875 52.742188 L 56.671875 52.191406 L 56.925781 51.640625 L 57.191406 51.082031 L 57.460938 50.523438 L 57.738281 49.960938 L 58.027344 49.390625 L 58.320312 48.820312 L 58.621094 48.25 L 58.929688 47.671875 L 59.246094 47.09375 L 59.570312 46.511719 L 59.90625 45.925781 L 60.246094 45.335938 L 60.597656 44.746094 L 60.957031 44.152344 L 61.324219 43.554688 L 61.699219 42.953125 L 62.085938 42.351562 L 62.480469 41.746094 L 62.882812 41.136719 L 63.292969 40.523438 L 63.714844 39.910156 L 64.148438 39.292969 L 64.585938 38.675781 L 65.035156 38.054688 L 65.496094 37.429688 L 65.96875 36.804688 L 66.445312 36.175781 L 66.9375 35.542969 L 67.4375 34.910156 L 67.945312 34.277344 L 68.46875 33.640625 Z M 69 33 "/>
<path style="fill:none;stroke-width:0.8;stroke-linecap:round;stroke-linejoin:round;stroke:rgb(17.3%,24.3%,31.4%);stroke-opacity:1;stroke-miterlimit:10;" d="M 256 320 L 256.53125 319.359375 L 257.054688 318.722656 L 257.5625 318.089844 L 258.0625 317.457031 L 258.554688 316.824219 L 259.03125 316.195312 L 259.503906 315.570312 L 259.964844 314.945312 L 260.414062 314.324219 L 260.851562 313.707031 L 261.285156 313.089844 L 261.707031 312.476562 L 262.117188 311.863281 L 262.519531 311.253906 L 262.914062 310.648438 L 263.300781 310.046875 L 263.675781 309.445312 L 264.042969 308.847656 L 264.402344 308.253906 L 264.753906 307.664062 L 265.09375 307.074219 L 265.429688 306.488281 L 265.753906 305.90625 L 266.070312 305.328125 L 266.378906 304.75 L 266.679688 304.179688 L 266.972656 303.609375 L 267.261719 303.039062 L 267.539062 302.476562 L 267.808594 301.917969 L 268.074219 301.359375 L 268.328125 300.808594 L 268.578125 300.257812 L 268.820312 299.710938 L 269.054688 299.167969 L 269.285156 298.628906 L 269.503906 298.09375 L 269.71875 297.5625 L 269.929688 297.03125 L 270.128906 296.507812 L 270.324219 295.984375 L 270.515625 295.46875 L 270.699219 294.953125 L 270.875 294.441406 L 271.046875 293.933594 L 271.210938 293.429688 L 271.367188 292.929688 L 271.523438 292.433594 L 271.671875 291.941406 L 271.8125 291.449219 L 271.949219 290.964844 L 272.078125 290.484375 L 272.207031 290.007812 L 272.328125 289.53125 L 272.554688 288.59375 L 272.757812 287.671875 L 272.855469 287.21875 L 272.945312 286.765625 L 273.03125 286.316406 L 273.113281 285.875 L 273.191406 285.433594 L 273.265625 284.996094 L 273.332031 284.5625 L 273.398438 284.132812 L 273.457031 283.710938 L 273.511719 283.285156 L 273.566406 282.867188 L 273.613281 282.453125 " transform="matrix(1,0,0,-1,-187,353)"/>
<path style=" stroke:none;fill-rule:evenodd;fill:rgb(100%,100%,100%);fill-opacity:0.5;" d="M 24.039062 51.808594 C 36.042969 39.808594 52.320312 33.066406 69.292969 33.066406 C 86.265625 33.066406 102.546875 39.808594 114.546875 51.808594 L 137.175781 29.183594 C 99.6875 -8.308594 38.902344 -8.308594 1.410156 29.183594 Z M 24.039062 51.808594 "/>
<path style="fill:none;stroke-width:1.2;stroke-linecap:round;stroke-linejoin:round;stroke:rgb(17.3%,24.3%,31.4%);stroke-opacity:1;stroke-miterlimit:10;" d="M 217.894531 307.136719 L 214.152344 312.125 " transform="matrix(1,0,0,-1,-187,353)"/>
<path style="fill-rule:evenodd;fill:rgb(17.3%,24.3%,31.4%);fill-opacity:1;stroke-width:1.2;stroke-linecap:round;stroke-linejoin:round;stroke:rgb(17.3%,24.3%,31.4%);stroke-opacity:1;stroke-miterlimit:10;" d="M 214.152344 312.125 L 215.152344 309.125 L 216.75 310.324219 Z M 214.152344 312.125 " transform="matrix(1,0,0,-1,-187,353)"/>
<path style="fill:none;stroke-width:1.2;stroke-linecap:round;stroke-linejoin:round;stroke:rgb(17.3%,24.3%,31.4%);stroke-opacity:1;stroke-miterlimit:10;" d="M 294.695312 307.136719 L 298.433594 312.125 " transform="matrix(1,0,0,-1,-187,353)"/>
<path style="fill-rule:evenodd;fill:rgb(17.3%,24.3%,31.4%);fill-opacity:1;stroke-width:1.2;stroke-linecap:round;stroke-linejoin:round;stroke:rgb(17.3%,24.3%,31.4%);stroke-opacity:1;stroke-miterlimit:10;" d="M 298.433594 312.125 L 295.835938 310.324219 L 297.433594 309.125 Z M 298.433594 312.125 " transform="matrix(1,0,0,-1,-187,353)"/>
<path style="fill:none;stroke-width:1.2;stroke-linecap:round;stroke-linejoin:round;stroke:rgb(17.3%,24.3%,31.4%);stroke-opacity:1;stroke-dasharray:2,3;stroke-miterlimit:10;" d="M 211.039062 301.191406 C 236.03125 326.183594 276.554688 326.183594 301.546875 301.191406 " transform="matrix(1,0,0,-1,-187,353)"/>
<path style="fill:none;stroke-width:0.8;stroke-linecap:round;stroke-linejoin:round;stroke:rgb(17.3%,24.3%,31.4%);stroke-opacity:1;stroke-miterlimit:10;" d="M 256 320 L 255.46875 319.359375 L 254.949219 318.722656 L 254.4375 318.089844 L 253.9375 317.457031 L 253.445312 316.824219 L 252.964844 316.195312 L 252.496094 315.570312 L 252.035156 314.945312 L 251.585938 314.324219 L 251.148438 313.707031 L 250.714844 313.089844 L 250.292969 312.476562 L 249.882812 311.863281 L 249.480469 311.253906 L 249.085938 310.648438 L 248.699219 310.046875 L 248.324219 309.445312 L 247.957031 308.847656 L 247.597656 308.253906 L 247.246094 307.664062 L 246.90625 307.074219 L 246.574219 306.488281 L 246.246094 305.90625 L 245.929688 305.328125 L 245.621094 304.75 L 245.320312 304.175781 L 245.027344 303.609375 L 244.738281 303.042969 L 244.460938 302.476562 L 244.191406 301.917969 L 243.925781 301.363281 L 243.671875 300.808594 L 243.421875 300.257812 L 243.179688 299.710938 L 242.945312 299.167969 L 242.714844 298.628906 L 242.496094 298.09375 L 242.28125 297.5625 L 242.070312 297.03125 L 241.871094 296.507812 L 241.675781 295.984375 L 241.484375 295.464844 L 241.300781 294.953125 L 241.125 294.441406 L 240.953125 293.933594 L 240.789062 293.429688 L 240.628906 292.929688 L 240.476562 292.433594 L 240.328125 291.941406 L 240.1875 291.453125 L 240.050781 290.964844 L 239.917969 290.484375 L 239.792969 290.007812 L 239.671875 289.53125 L 239.445312 288.59375 L 239.339844 288.132812 L 239.242188 287.671875 L 239.144531 287.21875 L 239.054688 286.765625 L 238.96875 286.316406 L 238.886719 285.875 L 238.808594 285.433594 L 238.734375 284.996094 L 238.667969 284.5625 L 238.601562 284.132812 L 238.542969 283.707031 L 238.488281 283.285156 L 238.433594 282.867188 L 238.386719 282.453125 " transform="matrix(1,0,0,-1,-187,353)"/>
<path style=" stroke:none;fill-rule:evenodd;fill:rgb(17.3%,24.3%,31.4%);fill-opacity:1;" d="M 70.800781 33 C 70.800781 30.601562 67.199219 30.601562 67.199219 33 C 67.199219 35.398438 70.800781 35.398438 70.800781 33 Z M 70.800781 33 "/>
</g>
</svg>
