<?xml version="1.0" encoding="UTF-8"?>
<svg xmlns="http://www.w3.org/2000/svg" xmlns:xlink="http://www.w3.org/1999/xlink" width="677pt" height="532pt" viewBox="0 0 677 532" version="1.1" bounds="[[390.98,380.464],[511.224,528.455]]">
<g id="shapes">
<circle style="fill:none;stroke-width:0.4;stroke-linecap:butt;stroke-linejoin:round;stroke:rgb(0%,0%,0%);stroke-opacity:1;stroke-dasharray:4;stroke-miterlimit:10;" cx="468.333" cy="451.102" r="53.471" transform="matrix(4.807716,0,0,-4.807716,-1835.658263,2439.598798)" necklace_id="N_0"/>
<path style="fill-rule:evenodd;fill:rgb(62%,83.9%,77.3%);fill-opacity:1;stroke-width:0.2;stroke-linecap:butt;stroke-linejoin:round;stroke:rgb(0%,0%,0%);stroke-opacity:1;stroke-miterlimit:10;" d="M 413.15378 455.006076 L 414.548836 453.276272 L 415.441769 453.052836 L 416.167327 451.601718 L 417.282884 449.20323 L 416.948136 446.635743 L 417.617633 447.193928 L 417.728945 446.413119 L 418.901376 446.301807 L 419.124 447.027366 L 420.072995 447.472614 L 420.575118 448.086861 L 420.463806 448.979794 L 421.355926 447.69605 L 422.248859 445.576248 L 423.029668 442.954324 L 423.587853 442.340077 L 423.978663 440.052089 L 424.146037 438.769158 L 423.922601 436.759855 L 424.424723 437.596726 L 424.424723 438.267035 L 425.373719 439.828652 L 424.982908 441.223708 L 424.536848 441.559269 L 424.536848 443.064823 L 423.756039 443.957756 L 423.08573 444.683315 L 422.807044 445.632311 L 423.309166 445.854934 L 423.309166 446.80393 L 423.643915 447.362114 L 423.253104 447.528676 L 422.919168 448.310297 L 421.690675 449.594041 L 421.468051 450.430911 L 420.965928 450.876972 L 421.524113 450.989096 L 421.411989 451.937279 L 421.746737 452.942336 L 422.304922 452.77415 L 423.029668 452.886274 L 423.029668 453.554958 L 423.699977 453.499709 L 423.811289 453.889707 L 424.536848 453.889707 L 424.59291 454.560016 L 424.926846 454.616078 L 425.03897 455.284762 L 425.763717 455.730822 L 425.597155 456.066383 L 425.206344 456.010321 L 425.03897 455.676385 L 424.258162 455.842947 L 423.867351 456.623755 L 422.807044 456.791942 L 423.029668 458.186997 L 422.192797 458.465684 L 421.746737 459.637303 L 421.858861 460.084175 L 420.965928 460.084175 L 420.129057 459.582053 L 420.240369 460.306799 L 419.905621 460.864984 L 420.18512 461.813979 L 421.07724 462.874286 L 420.965928 464.603278 L 420.575118 465.718835 L 420.129057 465.664397 L 419.514811 466.835204 L 418.790064 467.169952 L 418.455316 466.835204 L 418.790064 466.389144 L 418.23188 465.608335 L 418.734002 464.938026 L 417.226822 465.106213 L 415.999953 464.045093 L 416.167327 463.040848 L 415.609143 462.092665 L 415.887829 461.645793 L 415.329644 459.693365 L 414.158025 460.028113 L 414.436711 458.465684 L 414.102775 458.018811 L 414.436711 457.125878 L 414.046713 456.513256 L 413.433279 457.294064 L 413.824089 455.396886 L 413.265904 455.730822 Z M 413.15378 455.006076 " transform="matrix(4.807716,0,0,-4.807716,-1835.658263,2439.598798)" region_id="MMR" necklace_id="N_0"/>
<path style="fill-rule:evenodd;fill:rgb(83.1%,87.8%,35.3%);fill-opacity:1;stroke-width:0.2;stroke-linecap:butt;stroke-linejoin:round;stroke:rgb(0%,0%,0%);stroke-opacity:1;stroke-miterlimit:10;" d="M 423.922601 436.759855 L 423.699977 433.969744 L 424.314224 434.193181 L 425.429781 432.798125 L 426.54615 431.069134 L 426.824836 431.515194 L 428.107767 430.900947 L 427.995643 430.008014 L 428.553828 430.342762 L 429.0007 430.176201 L 429.502823 430.900947 L 428.553828 431.849942 L 427.941206 431.905192 L 426.65665 432.966312 L 426.6014 434.471867 L 426.211402 434.640053 L 425.987966 435.922984 L 425.261594 435.75561 L 424.982908 436.703793 L 425.095033 437.988349 L 425.485031 439.327342 L 426.043215 440.666336 L 425.763717 442.340077 L 426.434026 442.786137 L 427.158772 442.786137 L 427.048273 441.503206 L 428.16383 441.27977 L 429.168075 440.666336 L 429.782321 440.498149 L 429.782321 441.001084 L 429.390698 441.559269 L 429.0007 442.786137 L 429.390698 443.064823 L 429.893633 444.069881 L 430.953941 444.181193 L 432.460308 444.181193 L 432.961618 444.013819 L 433.353241 444.403817 L 433.297179 446.245745 L 432.795056 446.859992 L 432.348996 447.027366 L 431.902123 447.6408 L 431.734749 448.979794 L 430.228382 450.542223 L 429.390698 450.654348 L 429.056763 450.040101 L 428.443328 449.984039 L 427.885143 450.318787 L 426.65665 449.147168 L 426.321901 449.369792 L 426.54615 450.096163 L 426.377964 450.820909 L 426.490088 451.379094 L 426.15534 452.550713 L 425.206344 452.606776 L 424.982908 452.996774 L 425.206344 453.499709 L 424.536848 453.889707 L 423.811289 453.889707 L 423.699977 453.499709 L 423.029668 453.554958 L 423.029668 452.886274 L 422.304922 452.77415 L 421.746737 452.942336 L 421.411989 451.937279 L 421.524113 450.989096 L 420.965928 450.876972 L 421.468051 450.430911 L 421.690675 449.594041 L 422.919168 448.310297 L 423.253104 447.528676 L 423.643915 447.362114 L 423.309166 446.80393 L 423.309166 445.854934 L 422.807044 445.632311 L 423.08573 444.683315 L 423.756039 443.957756 L 424.536848 443.064823 L 424.536848 441.559269 L 424.982908 441.223708 L 425.373719 439.828652 L 424.424723 438.267035 L 424.424723 437.596726 Z M 423.922601 436.759855 " transform="matrix(4.807716,0,0,-4.807716,-1835.658263,2439.598798)" region_id="THA" necklace_id="N_0"/>
<path style="fill-rule:evenodd;fill:rgb(70.6%,59.2%,50.6%);fill-opacity:1;stroke-width:0.2;stroke-linecap:butt;stroke-linejoin:round;stroke:rgb(0%,0%,0%);stroke-opacity:1;stroke-miterlimit:10;" d="M 432.961618 444.013819 L 433.241117 443.566946 L 433.687989 443.735133 L 434.022738 443.23301 L 434.412736 443.566946 L 434.13405 444.069881 L 434.636172 444.403817 L 435.305669 444.013819 L 436.08729 444.459879 L 436.08729 445.074126 L 436.254664 445.688373 L 435.417793 446.469181 L 435.807791 446.859992 L 434.748297 447.584738 L 434.246174 448.421609 L 433.073742 449.705353 L 431.958186 451.21172 L 430.061008 452.159903 L 430.228382 452.77415 L 431.010003 452.77415 L 431.456063 453.443646 L 430.619192 453.945769 L 430.731317 454.447891 L 429.948883 454.894764 L 429.224137 454.560016 L 428.443328 455.006076 L 428.16383 456.177695 L 426.936148 457.294064 L 426.099277 457.460626 L 426.099277 456.959316 L 426.54615 456.066383 L 426.54615 455.396886 L 426.211402 455.2287 L 425.763717 455.730822 L 425.03897 455.284762 L 424.926846 454.616078 L 424.59291 454.560016 L 424.536848 453.889707 L 425.206344 453.499709 L 424.982908 452.996774 L 425.206344 452.606776 L 426.15534 452.550713 L 426.490088 451.379094 L 426.377964 450.820909 L 426.54615 450.096163 L 426.321901 449.369792 L 426.65665 449.147168 L 427.885143 450.318787 L 428.443328 449.984039 L 429.056763 450.040101 L 429.390698 450.654348 L 430.228382 450.542223 L 431.734749 448.979794 L 431.902123 447.6408 L 432.348996 447.027366 L 432.795056 446.859992 L 433.297179 446.245745 L 433.297179 445.29675 L 433.353241 444.403817 Z M 432.961618 444.013819 " transform="matrix(4.807716,0,0,-4.807716,-1835.658263,2439.598798)" region_id="LAO" necklace_id="N_0"/>
<path style="fill-rule:evenodd;fill:rgb(99.6%,85.9%,70.6%);fill-opacity:1;stroke-width:0.2;stroke-linecap:butt;stroke-linejoin:round;stroke:rgb(0%,0%,0%);stroke-opacity:1;stroke-miterlimit:10;" d="M 429.782321 440.498149 L 430.451818 438.713095 L 431.177377 437.932287 L 432.627682 437.652788 L 433.129805 437.932287 L 433.241117 438.545721 L 434.190112 438.600971 L 434.914858 438.433597 L 434.859608 438.769158 L 434.356673 439.159156 L 434.302236 439.661278 L 435.083045 439.828652 L 435.083045 440.164213 L 435.975978 440.722398 L 436.534163 440.832897 L 436.422038 441.893204 L 436.4781 442.898262 L 436.08729 443.455634 L 436.08729 444.459879 L 435.305669 444.013819 L 434.636172 444.403817 L 434.13405 444.069881 L 434.412736 443.566946 L 434.022738 443.23301 L 433.687989 443.735133 L 433.241117 443.566946 L 432.961618 444.013819 L 432.460308 444.181193 L 430.953941 444.181193 L 429.893633 444.069881 L 429.390698 443.064823 L 429.0007 442.786137 L 429.390698 441.559269 L 429.782321 441.001084 Z M 429.782321 440.498149 " transform="matrix(4.807716,0,0,-4.807716,-1835.658263,2439.598798)" region_id="KHM" necklace_id="N_0"/>
<path style="fill-rule:evenodd;fill:rgb(98%,71.4%,58%);fill-opacity:1;stroke-width:0.2;stroke-linecap:butt;stroke-linejoin:round;stroke:rgb(0%,0%,0%);stroke-opacity:1;stroke-miterlimit:10;" d="M 432.627682 437.652788 L 433.409303 437.039354 L 433.073742 436.481169 L 433.073742 434.695303 L 433.687989 434.806615 L 434.077987 435.644298 L 434.97092 435.979047 L 434.97092 436.313795 L 435.473043 436.257733 L 435.863853 437.374102 L 435.863853 437.876225 L 436.254664 437.484602 L 437.426283 438.154911 L 437.761031 438.600971 L 438.821339 439.103906 L 439.156087 440.108151 L 439.156087 441.781892 L 438.653964 443.791195 L 437.929218 445.910997 L 436.644662 447.24999 L 434.636172 448.923732 L 434.022738 450.152225 L 433.241117 450.654348 L 432.682932 451.713842 L 432.795056 453.221022 L 433.799301 454.72739 L 434.748297 455.006076 L 435.305669 455.730822 L 434.52486 455.899009 L 433.409303 456.623755 L 433.01768 457.350127 L 433.353241 458.074873 L 432.014248 458.074873 L 431.232627 458.799619 L 430.395756 458.409621 L 430.395756 458.018811 L 429.670197 457.908311 L 429.446761 457.572751 L 428.49939 457.740125 L 428.219892 457.350127 L 427.326959 457.740125 L 426.936148 457.294064 L 428.16383 456.177695 L 428.443328 455.006076 L 429.224137 454.560016 L 429.948883 454.894764 L 430.731317 454.447891 L 430.619192 453.945769 L 431.456063 453.443646 L 431.010003 452.77415 L 430.228382 452.77415 L 430.061008 452.159903 L 431.958186 451.21172 L 433.073742 449.705353 L 434.246174 448.421609 L 434.748297 447.584738 L 435.807791 446.859992 L 435.417793 446.469181 L 436.254664 445.688373 L 436.08729 445.074126 L 436.08729 443.455634 L 436.4781 442.898262 L 436.422038 441.893204 L 436.534163 440.832897 L 435.975978 440.722398 L 435.083045 440.164213 L 435.083045 439.828652 L 434.302236 439.661278 L 434.356673 439.159156 L 434.859608 438.769158 L 434.914858 438.433597 L 434.190112 438.600971 L 433.241117 438.545721 L 433.129805 437.932287 Z M 432.627682 437.652788 " transform="matrix(4.807716,0,0,-4.807716,-1835.658263,2439.598798)" region_id="VNM" necklace_id="N_0"/>
<path style="fill-rule:evenodd;fill:rgb(100%,80%,30.2%);fill-opacity:1;stroke-width:0.2;stroke-linecap:butt;stroke-linejoin:round;stroke:rgb(0%,0%,0%);stroke-opacity:1;stroke-miterlimit:10;" d="M 439.714272 453.276272 L 438.43134 453.221022 L 437.593657 452.942336 L 436.812849 452.215965 L 436.924161 451.099596 L 438.319216 450.262725 L 439.434773 451.21172 L 439.602147 452.104653 L 439.992958 452.830212 Z M 439.714272 453.276272 " transform="matrix(4.807716,0,0,-4.807716,-1835.658263,2439.598798)" region_id="CHN" necklace_id="N_0"/>
<path style="fill-rule:evenodd;fill:rgb(73.3%,71.8%,34.9%);fill-opacity:1;stroke-width:0.2;stroke-linecap:butt;stroke-linejoin:round;stroke:rgb(0%,0%,0%);stroke-opacity:1;stroke-miterlimit:10;" d="M 452.603707 461.645793 L 451.766836 459.413866 L 451.990272 458.018811 L 453.329266 456.401131 L 453.273203 457.460626 L 453.775326 458.409621 L 453.720076 460.306799 L 454.110074 460.808922 L 453.720076 461.757917 Z M 452.603707 461.645793 " transform="matrix(4.807716,0,0,-4.807716,-1835.658263,2439.598798)" region_id="TWN" necklace_id="N_0"/>
<path style="fill-rule:evenodd;fill:rgb(14.5%,73.7%,61.2%);fill-opacity:1;stroke-width:0.2;stroke-linecap:butt;stroke-linejoin:round;stroke:rgb(0%,0%,0%);stroke-opacity:1;stroke-miterlimit:10;" d="M 395.130996 500.482285 L 395.409682 499.644602 L 396.526051 499.031167 L 397.362922 498.585107 L 398.311917 498.472983 L 399.148788 498.082984 L 399.70616 497.077927 L 400.487781 496.799241 L 401.101216 495.906308 L 401.101216 494.734689 L 401.826774 494.121254 L 405.231132 493.897818 L 407.016186 492.782261 L 407.685682 492.670137 L 410.028921 490.214774 L 411.14529 490.214774 L 414.046713 489.936088 L 415.10702 490.214774 L 417.06026 489.768714 L 417.897131 489.377903 L 420.519056 488.653157 L 421.189365 488.875781 L 421.634612 488.428908 L 422.13836 488.428908 L 424.034725 489.490028 L 427.383021 489.712652 L 428.387266 490.158712 L 428.553828 491.275081 L 429.670197 491.777204 L 428.778077 492.614074 L 428.387266 493.897818 L 429.336261 493.897818 L 430.619192 493.450945 L 431.456063 493.785694 L 431.734749 494.678627 L 432.348996 494.343878 L 433.631927 494.958125 L 433.631927 495.96237 L 434.692234 496.184994 L 435.473043 496.631867 L 436.422038 496.575805 L 437.371033 496.353181 L 437.371033 496.855303 L 434.692234 498.585107 L 433.575865 498.641169 L 433.353241 498.082984 L 432.51637 498.472983 L 431.622625 498.194296 L 430.897878 498.585107 L 430.731317 499.811976 L 430.731317 501.597842 L 429.893633 501.765216 L 429.224137 501.54178 L 428.331204 502.043902 L 427.104335 502.212089 L 426.211402 501.54178 L 426.211402 501.095719 L 425.206344 501.039657 L 423.867351 500.538347 L 422.417046 500.538347 L 420.519056 500.817033 L 419.458748 501.765216 L 418.67794 501.765216 L 417.785007 502.323401 L 415.943891 502.546025 L 414.436711 502.043902 L 412.70772 502.37865 L 411.758725 503.104209 L 411.201352 503.94108 L 409.862359 504.165329 L 408.187805 504.555327 L 406.626188 505.112699 L 406.123253 504.219766 L 406.235377 503.382895 L 407.184373 502.602087 L 407.23881 501.87734 L 406.570126 501.485717 L 405.789317 501.709966 L 404.338199 501.765216 L 402.774957 501.87734 L 401.994149 502.658149 L 400.543031 502.658149 L 400.153033 503.104209 L 398.980601 502.992897 L 398.033231 502.212089 L 396.804737 501.933403 L 396.638176 501.207031 L 395.29837 500.873095 Z M 395.130996 500.482285 " transform="matrix(4.807716,0,0,-4.807716,-1835.658263,2439.598798)" region_id="MNG" necklace_id="N_0"/>
<path style="fill-rule:evenodd;fill:rgb(99.6%,85.9%,70.6%);fill-opacity:1;stroke-width:0.2;stroke-linecap:butt;stroke-linejoin:round;stroke:rgb(0%,0%,0%);stroke-opacity:1;stroke-miterlimit:10;" d="M 453.385328 482.180002 L 454.612197 480.728884 L 453.607952 480.841009 L 453.831388 480.226762 L 454.890883 479.111205 L 454.890883 477.772212 L 455.337756 476.59978 L 456.174626 476.767967 L 456.564624 477.436651 L 457.290996 477.716149 L 458.071804 477.492713 L 458.852613 477.994835 L 458.741301 479.277766 L 458.071804 480.394136 L 457.234934 481.621817 L 456.007252 482.738187 L 455.337756 483.462933 L 454.834821 483.128997 L 453.775326 483.128997 Z M 453.385328 482.180002 " transform="matrix(4.807716,0,0,-4.807716,-1835.658263,2439.598798)" region_id="KOR" necklace_id="N_0"/>
<path style="fill-rule:evenodd;fill:rgb(70.6%,59.2%,50.6%);fill-opacity:1;stroke-width:0.2;stroke-linecap:butt;stroke-linejoin:round;stroke:rgb(0%,0%,0%);stroke-opacity:1;stroke-miterlimit:10;" d="M 455.337756 483.462933 L 454.278261 484.189304 L 453.329266 484.635365 L 453.217141 485.304861 L 453.55189 485.919108 L 454.222199 485.974358 L 455.281693 487.202039 L 454.890883 488.03891 L 454.556947 488.428908 L 454.612197 489.099217 L 455.225631 489.657402 L 454.668259 490.158712 L 453.607952 490.660834 L 453.831388 489.768714 L 453.329266 489.768714 L 453.105829 489.155279 L 451.990272 489.043155 L 452.827143 488.428908 L 452.715019 487.982848 L 451.432088 488.206284 L 450.985215 488.707594 L 450.42703 488.707594 L 450.37178 487.648099 L 449.422785 486.699917 L 448.753289 485.63961 L 449.868846 485.248799 L 450.651279 484.914051 L 450.705716 483.965868 L 450.761779 482.96081 L 451.5434 482.402626 L 452.436333 482.292126 L 453.385328 482.180002 L 453.775326 483.128997 L 454.834821 483.128997 Z M 455.337756 483.462933 " transform="matrix(4.807716,0,0,-4.807716,-1835.658263,2439.598798)" region_id="PRK" necklace_id="N_0"/>
<path style="fill-rule:evenodd;fill:rgb(98%,71.4%,58%);fill-opacity:1;stroke-width:0.2;stroke-linecap:butt;stroke-linejoin:round;stroke:rgb(0%,0%,0%);stroke-opacity:1;stroke-miterlimit:10;" d="M 463.37334 471.242994 L 464.154149 471.913303 L 463.985962 474.311791 L 463.205154 474.982101 L 463.093842 475.428161 L 462.088784 475.706847 L 462.590907 476.041595 L 463.427777 475.931096 L 463.427777 476.711904 L 463.707276 476.433218 L 465.047082 476.879279 L 465.939202 477.270089 L 466.832135 477.214027 L 467.837193 477.046653 L 467.222946 476.59978 L 467.612944 475.651597 L 468.729313 475.204724 L 468.95275 476.321094 L 469.622246 476.767967 L 468.95275 477.157965 L 469.007999 477.884336 L 469.39881 477.214027 L 471.128614 477.157965 L 471.463362 477.884336 L 471.79811 477.884336 L 471.854173 477.214027 L 472.412357 477.046653 L 472.412357 477.548775 L 472.076796 478.10696 L 472.578919 478.274334 L 472.634981 478.775644 L 473.137104 478.496958 L 473.081854 477.884336 L 473.471852 477.492713 L 473.751351 478.050898 L 473.640039 478.441708 L 474.086099 478.831706 L 473.41579 479.445953 L 473.137104 480.841009 L 473.025792 481.789191 L 472.356295 482.570812 L 472.412357 483.184247 L 472.969729 483.072935 L 472.634981 483.63112 L 472.691043 484.524053 L 472.467607 485.192737 L 471.79811 486.029608 L 470.793865 486.867291 L 470.179618 488.094972 L 469.454872 488.763656 L 468.339315 489.211342 L 467.781131 489.657402 L 467.837193 490.048212 L 468.618001 489.60134 L 469.176186 489.99215 L 470.179618 489.712652 L 471.966297 488.987093 L 471.79811 489.545277 L 472.076796 490.550335 L 472.803168 490.550335 L 473.695288 491.107707 L 473.249228 491.275081 L 472.578919 491.777204 L 472.412357 492.726199 L 472.132859 492.111952 L 470.459117 492.558825 L 468.785375 493.395696 L 466.720823 494.567315 L 466.497387 494.00913 L 467.334258 493.507007 L 467.781131 492.390638 L 467.725068 491.777204 L 468.339315 490.996395 L 467.89163 490.829021 L 467.054759 491.219019 L 466.94426 490.829021 L 467.501632 490.606397 L 467.000322 490.270836 L 466.94426 489.712652 L 467.446382 489.211342 L 468.059817 488.875781 L 468.059817 488.317596 L 468.729313 487.982848 L 468.729313 488.653157 L 469.342748 488.597095 L 469.342748 488.150222 L 468.896687 487.760224 L 469.064062 487.145977 L 468.896687 486.699917 L 469.286685 486.141732 L 469.120124 485.63961 L 469.734371 485.472235 L 470.069119 484.189304 L 470.235681 482.570812 L 469.900932 482.347376 L 469.678308 481.455256 L 468.840625 480.897071 L 468.395377 480.618385 L 468.003754 481.008383 L 468.059817 481.733942 L 467.39032 481.565755 L 467.557694 480.841009 L 467.612944 480.170699 L 467.222946 479.613327 L 467.612944 478.720394 L 467.166884 478.55302 L 466.442137 478.887768 L 465.047082 478.55302 L 463.763338 478.609082 L 463.205154 478.274334 L 462.870405 477.604837 L 462.144846 476.655842 L 461.586662 476.767967 L 461.642724 476.097657 L 461.029289 475.484223 L 460.415043 475.148662 L 460.693729 474.311791 L 461.530599 474.033105 L 461.4201 474.647352 L 462.200909 473.809669 L 462.200909 472.694112 L 462.368283 471.689867 Z M 463.37334 471.242994 " transform="matrix(4.807716,0,0,-4.807716,-1835.658263,2439.598798)" region_id="JPN" necklace_id="N_0"/>
<path style="fill-rule:evenodd;fill:rgb(98%,71.4%,58%);fill-opacity:1;stroke-width:0.2;stroke-linecap:butt;stroke-linejoin:round;stroke:rgb(0%,0%,0%);stroke-opacity:1;stroke-miterlimit:10;" d="M 466.720823 474.814726 L 466.720823 475.428161 L 467.166884 475.818971 L 466.720823 476.377156 L 465.883953 476.711904 L 465.381018 476.59978 L 465.493142 476.15372 L 464.878895 476.041595 L 464.488897 476.321094 L 464.264648 475.651597 L 463.8194 475.094225 L 464.210211 475.094225 L 464.432835 474.647352 L 464.878895 474.089168 L 465.381018 474.089168 L 465.43708 475.094225 L 465.995264 475.260787 Z M 466.720823 474.814726 " transform="matrix(4.807716,0,0,-4.807716,-1835.658263,2439.598798)" region_id="JPN" necklace_id="N_0"/>
<path style="fill-rule:evenodd;fill:rgb(100%,80%,30.2%);fill-opacity:1;stroke-width:0.2;stroke-linecap:butt;stroke-linejoin:round;stroke:rgb(0%,0%,0%);stroke-opacity:1;stroke-miterlimit:10;" d="M 435.305669 455.730822 L 436.131977 456.194757 L 437.002973 455.75926 L 438.090905 455.686948 L 437.727719 455.106825 L 438.01778 454.16433 L 438.45409 453.72802 L 439.105712 453.72802 L 439.178837 454.16433 L 438.598715 454.671328 L 438.671027 454.961389 L 439.251961 455.469199 L 440.992328 456.194757 L 442.298009 456.121633 L 442.878131 456.992628 L 442.515757 458.081373 L 442.878131 458.225997 L 443.169004 457.499626 L 443.820626 457.28269 L 444.837058 457.718187 L 446.578237 458.008248 L 447.593044 459.023868 L 448.97185 460.547298 L 450.276718 462.796287 L 450.276718 463.593345 L 451.075402 465.116775 L 451.220026 466.204707 L 451.583212 466.784829 L 451.800961 466.71333 L 452.235646 467.003391 L 451.946398 467.438076 L 452.163334 469.541628 L 451.437775 469.61394 L 451.00309 469.904001 L 450.49528 469.977126 L 449.986657 469.687065 L 449.769721 470.12175 L 450.132094 470.12175 L 450.276718 470.557248 L 451.147714 471.065058 L 451.147714 471.428243 L 449.478847 472.443051 L 449.986657 472.587675 L 450.785341 472.370739 L 450.49528 472.806237 L 449.842033 473.240922 L 448.97185 473.821044 L 448.827226 474.401978 L 447.302983 476.433218 L 446.142739 477.085653 L 445.490305 477.303401 L 445.41718 477.955836 L 445.634929 478.753707 L 446.4328 479.55239 L 446.578237 480.204824 L 447.810793 481.002695 L 448.246291 480.640322 L 448.608664 480.858071 L 448.318603 481.582817 L 447.593044 481.728254 L 446.649737 481.728254 L 445.707241 482.236064 L 444.981683 481.946003 L 444.763934 481.219632 L 444.039187 481.219632 L 443.459065 481.509693 L 443.241316 482.090627 L 443.169004 482.526125 L 442.878131 482.816186 L 442.225696 482.743874 L 441.354701 482.96081 L 440.775391 483.904118 L 440.775391 484.557365 L 441.427825 484.267304 L 442.298009 484.48424 L 442.515757 484.846614 L 442.442633 485.209799 L 442.805819 485.863046 L 443.459065 485.935358 L 443.60369 486.806354 L 444.183812 487.313351 L 445.561805 486.733229 L 445.490305 486.00767 L 445.127119 485.355236 L 445.344868 484.846614 L 445.92499 484.775114 L 445.707241 484.411928 L 445.271744 483.977243 L 445.344868 483.687182 L 446.359676 483.977243 L 446.578237 484.775114 L 447.447608 485.49986 L 448.753289 485.63961 L 449.422785 486.699917 L 450.37178 487.648099 L 450.42703 488.707594 L 450.985215 488.707594 L 451.432088 488.206284 L 452.715019 487.982848 L 452.827143 488.428908 L 451.990272 489.043155 L 453.105829 489.155279 L 453.329266 489.768714 L 453.831388 489.768714 L 453.607952 490.660834 L 454.668259 490.158712 L 455.137069 490.433335 L 455.137069 491.375831 L 454.339198 492.536075 L 453.324391 493.697132 L 453.759076 493.841756 L 453.976825 494.421878 L 455.718004 493.987193 L 455.500255 494.567315 L 455.718004 496.01762 L 455.064757 497.614174 L 455.500255 498.04886 L 454.847008 498.55667 L 454.847008 498.992167 L 454.122262 499.209916 L 453.469015 498.919855 L 452.888893 498.919855 L 452.525707 498.194296 L 450.639904 498.121984 L 449.842033 498.919855 L 449.044162 499.934663 L 448.46404 500.007787 L 447.012922 500.87797 L 446.359676 500.805658 L 445.851866 501.312656 L 444.546997 501.241156 L 443.313628 502.473712 L 441.500138 504.214891 L 438.526403 506.390755 L 437.075285 506.753941 L 434.898608 507.334063 L 432.214934 506.753941 L 431.924873 505.95607 L 432.722744 505.738321 L 433.375991 505.012762 L 433.08593 504.360328 L 433.158242 502.4014 L 433.666052 502.039027 L 432.868181 501.602717 L 432.432683 501.022595 L 430.731317 501.597842 L 430.731317 499.811976 L 430.897878 498.585107 L 431.622625 498.194296 L 432.51637 498.472983 L 433.353241 498.082984 L 433.575865 498.641169 L 434.692234 498.585107 L 437.371033 496.855303 L 437.371033 496.353181 L 436.422038 496.575805 L 435.473043 496.631867 L 434.692234 496.184994 L 433.631927 495.96237 L 433.631927 494.958125 L 432.348996 494.343878 L 431.734749 494.678627 L 431.456063 493.785694 L 430.619192 493.450945 L 429.336261 493.897818 L 428.387266 493.897818 L 428.778077 492.614074 L 429.670197 491.777204 L 428.553828 491.275081 L 428.387266 490.158712 L 427.383021 489.712652 L 424.034725 489.490028 L 422.13836 488.428908 L 421.634612 488.428908 L 421.189365 488.875781 L 420.519056 488.653157 L 417.897131 489.377903 L 417.06026 489.768714 L 415.10702 490.214774 L 414.046713 489.936088 L 411.14529 490.214774 L 410.028921 490.214774 L 407.685682 492.670137 L 407.016186 492.782261 L 405.231132 493.897818 L 401.826774 494.121254 L 401.101216 494.734689 L 401.101216 495.906308 L 400.487781 496.799241 L 399.70616 497.077927 L 399.148788 498.082984 L 398.311917 498.472983 L 397.362922 498.585107 L 396.526051 499.031167 L 395.409682 499.644602 L 395.130996 500.482285 L 394.008939 500.552972 L 393.842377 499.436603 L 393.004694 499.270041 L 393.004694 498.43317 L 393.618128 497.372863 L 392.557821 496.703366 L 392.447322 497.038115 L 391.442264 496.982053 L 390.269833 497.428925 L 390.325895 494.806188 L 390.772767 494.52669 L 390.716705 494.08063 L 389.879834 493.969318 L 389.601148 494.470628 L 388.372655 494.02538 L 387.535784 493.745881 L 388.206093 493.523257 L 388.596091 492.406888 L 389.489024 491.179207 L 389.099026 490.56496 L 389.224963 489.660652 L 389.448399 489.159342 L 387.439097 488.210347 L 387.049099 487.484788 L 385.541919 487.484788 L 385.375357 486.369231 L 384.202926 486.313169 L 384.036364 486.926603 L 383.142618 486.313169 L 382.083124 485.922358 L 382.36181 485.196799 L 381.914937 484.805989 L 382.529184 483.57912 L 382.975244 483.689619 L 383.924239 483.410933 L 383.812115 482.908811 L 384.3703 482.518813 L 384.31505 482.07194 L 384.927672 481.681942 L 384.258988 481.011633 L 385.039796 480.956383 L 386.156166 480.230824 L 386.434852 479.337891 L 387.495159 479.003143 L 388.554654 478.444958 L 389.550774 478.496958 L 390.108958 477.270089 L 391.225328 476.265032 L 391.33664 475.316849 L 392.062199 474.814726 L 392.564321 474.033105 L 391.726638 473.419671 L 391.392702 473.977856 L 390.945829 473.753607 L 391.504014 472.862299 L 391.838762 471.745929 L 392.340885 471.857241 L 392.899069 471.355119 L 394.070688 470.68481 L 395.360119 469.892626 L 395.867929 469.748002 L 395.867929 470.255812 L 396.664988 470.255812 L 397.172798 469.67569 L 398.623916 468.877819 L 399.277162 468.15226 L 399.857284 468.370009 L 400.365094 467.789887 L 401.743087 466.918891 L 402.904144 466.338769 L 403.702015 466.484206 L 404.789947 466.12102 L 405.804754 466.194145 L 406.680625 466.501268 L 407.016186 465.216712 L 407.545933 466.265644 L 408.562366 466.847391 L 409.024676 466.445206 L 409.694172 466.333082 L 410.028921 466.501268 L 410.643168 466.333082 L 410.865792 465.943083 L 412.038223 466.109645 L 412.70772 467.504701 L 413.433279 467.560763 L 414.382274 468.397634 L 415.609143 468.006823 L 415.999953 468.62107 L 416.613388 468.62107 L 417.226822 467.672075 L 416.948136 467.003391 L 418.455316 466.835204 L 418.790064 467.169952 L 419.514811 466.835204 L 420.129057 465.664397 L 420.575118 465.718835 L 420.965928 464.603278 L 421.07724 462.874286 L 420.18512 461.813979 L 419.905621 460.864984 L 420.240369 460.306799 L 420.129057 459.582053 L 420.965928 460.084175 L 421.858861 460.084175 L 421.746737 459.637303 L 422.192797 458.465684 L 423.029668 458.186997 L 422.807044 456.791942 L 423.867351 456.623755 L 424.258162 455.842947 L 425.03897 455.676385 L 425.206344 456.010321 L 425.597155 456.066383 L 425.763717 455.730822 L 426.211402 455.2287 L 426.54615 455.396886 L 426.54615 456.066383 L 426.099277 456.959316 L 426.099277 457.460626 L 426.936148 457.294064 L 427.326959 457.740125 L 428.219892 457.350127 L 428.49939 457.740125 L 429.446761 457.572751 L 429.670197 457.908311 L 430.395756 458.018811 L 430.395756 458.409621 L 431.232627 458.799619 L 432.014248 458.074873 L 433.353241 458.074873 L 433.01768 457.350127 L 433.409303 456.623755 L 434.52486 455.899009 Z M 435.305669 455.730822 " transform="matrix(4.807716,0,0,-4.807716,-1835.658263,2439.598798)" region_id="CHN" necklace_id="N_0"/>
<path style="fill-rule:evenodd;fill:rgb(86.7%,52.9%,47.5%);fill-opacity:1;stroke-width:0.2;stroke-linecap:butt;stroke-linejoin:round;stroke:rgb(0%,0%,0%);stroke-opacity:1;stroke-miterlimit:10;" d="M 456.151064 450.893222 L 456.407813 450.378099 L 456.108002 449.862977 L 456.836811 448.746607 L 456.666186 447.501864 L 455.978815 446.816117 L 455.89269 445.828935 L 456.151064 444.754815 L 456.537 443.767632 L 457.266621 443.381697 L 457.266621 443.853757 L 457.867868 443.982944 L 458.898113 443.510884 L 459.626921 443.167198 L 460.01367 443.639258 L 460.399605 443.253323 L 460.271231 442.824325 L 459.799171 442.824325 L 459.197924 442.867387 L 459.626921 442.223078 L 460.142044 442.007766 L 460.271231 441.278957 L 461.731286 441.192833 L 462.160284 440.634648 L 462.417032 439.562154 L 462.760718 438.874782 L 461.944972 438.703345 L 461.688224 438.316597 L 462.031097 437.802287 L 462.675406 437.673101 L 462.889093 436.944292 L 463.232778 436.170796 L 463.661776 435.612611 L 463.92015 435.012176 L 463.618714 434.712365 L 464.090774 434.497054 L 464.39221 433.166998 L 464.306085 432.222065 L 464.004649 431.922254 L 463.877088 431.020384 L 463.361965 432.651063 L 463.104404 432.522689 L 462.803781 431.922254 L 463.061342 431.321007 L 463.232778 430.376887 L 462.846843 429.904015 L 462.503157 430.290763 L 461.343725 430.71976 L 460.828603 431.36407 L 460.657979 432.222065 L 461.130039 432.608814 L 460.786353 433.166998 L 459.928357 433.552934 L 459.885295 432.866375 L 459.413235 432.951687 L 458.984237 432.823312 L 458.984237 433.25231 L 458.639739 433.25231 L 458.296866 432.179003 L 458.38299 431.493257 L 457.95318 431.191821 L 457.610307 431.577756 L 457.781743 432.222065 L 457.91093 433.423747 L 458.296866 433.938869 L 459.154861 434.068056 L 459.197924 434.669303 L 459.541609 434.669303 L 459.669984 434.969114 L 460.314293 434.754615 L 460.442667 434.111118 L 460.871665 434.111118 L 461.043914 434.797678 L 461.515974 434.669303 L 461.645161 435.484237 L 462.031097 435.269738 L 462.117221 435.570361 L 462.760718 435.484237 L 462.417032 436.213858 L 462.417032 436.72898 L 461.386788 437.287165 L 461.300663 438.102911 L 461.130039 438.574971 L 460.914728 438.35966 L 460.614917 439.519091 L 460.700229 439.734403 L 461.086977 439.389904 L 461.130039 439.176218 L 461.343725 439.389904 L 461.386788 439.818902 L 460.700229 440.420149 L 460.442667 440.763835 L 459.756108 441.278957 L 459.626921 441.707955 L 459.111799 441.79408 L 458.768926 442.050829 L 458.682801 442.480639 L 458.167679 442.824325 L 458.039304 443.124136 L 457.695619 443.338635 L 457.781743 442.909637 L 458.039304 442.523701 L 457.91093 442.093891 L 457.610307 442.565951 L 457.095184 443.038824 L 456.493937 443.424759 L 456.194126 443.296385 L 456.108002 442.909637 L 455.679004 442.909637 L 454.949382 443.296385 L 454.863258 443.896819 L 455.120819 444.112131 L 455.206131 444.541129 L 454.734071 444.754815 L 454.734071 444.498066 L 454.820196 444.19663 L 454.520385 444.19663 L 454.089762 444.84094 L 453.617702 445.74281 L 453.274828 447.33124 L 453.789951 446.816117 L 454.175886 446.859179 L 453.9622 447.459614 L 453.919138 448.661295 L 453.746889 450.12135 L 453.9622 450.979346 L 454.562634 451.064658 L 455.335318 450.550348 L 455.89269 450.550348 Z M 456.151064 450.893222 " transform="matrix(4.807716,0,0,-4.807716,-1835.658263,2439.598798)" region_id="PHL" necklace_id="N_0"/>
<path style="fill-rule:evenodd;fill:rgb(86.7%,52.9%,47.5%);fill-opacity:1;stroke-width:0.2;stroke-linecap:butt;stroke-linejoin:round;stroke:rgb(0%,0%,0%);stroke-opacity:1;stroke-miterlimit:10;" d="M 453.660764 439.346842 L 453.49014 438.402722 L 453.49014 437.802287 L 452.716644 437.114916 L 451.94396 435.956297 L 451.342713 435.484237 L 450.743091 434.324805 L 451.514962 434.626241 L 452.159272 435.441174 L 452.674394 435.78486 L 453.103392 436.772043 L 453.53239 437.157978 L 453.9622 437.630038 L 454.218949 438.102911 L 454.005262 438.618033 Z M 453.660764 439.346842 " transform="matrix(4.807716,0,0,-4.807716,-1835.658263,2439.598798)" region_id="PHL" necklace_id="N_0"/>
<path style="fill-rule:evenodd;fill:rgb(86.7%,52.9%,47.5%);fill-opacity:1;stroke-width:0.2;stroke-linecap:butt;stroke-linejoin:round;stroke:rgb(0%,0%,0%);stroke-opacity:1;stroke-miterlimit:10;" d="M 454.691009 442.480639 L 455.292256 441.837142 L 455.764316 440.84996 L 456.407813 440.763835 L 456.493937 441.664893 L 456.237189 442.395327 L 455.077757 442.7382 Z M 454.691009 442.480639 " transform="matrix(4.807716,0,0,-4.807716,-1835.658263,2439.598798)" region_id="PHL" necklace_id="N_0"/>
<path style="fill-rule:evenodd;fill:rgb(86.7%,52.9%,47.5%);fill-opacity:1;stroke-width:0.2;stroke-linecap:butt;stroke-linejoin:round;stroke:rgb(0%,0%,0%);stroke-opacity:1;stroke-miterlimit:10;" d="M 457.052122 439.948089 L 457.438057 439.776652 L 457.438057 437.802287 L 457.781743 438.231285 L 458.210741 438.231285 L 458.553614 438.788657 L 458.898113 438.917844 L 458.898113 439.648278 L 458.124617 439.605216 L 457.524182 440.120338 Z M 457.052122 439.948089 " transform="matrix(4.807716,0,0,-4.807716,-1835.658263,2439.598798)" region_id="PHL" necklace_id="N_0"/>
<path style="fill-rule:evenodd;fill:rgb(86.7%,52.9%,47.5%);fill-opacity:1;stroke-width:0.2;stroke-linecap:butt;stroke-linejoin:round;stroke:rgb(0%,0%,0%);stroke-opacity:1;stroke-miterlimit:10;" d="M 458.811988 438.488846 L 458.596677 437.716163 L 458.768926 436.987354 L 458.124617 436.901229 L 458.124617 436.513669 L 458.898113 435.914047 L 459.068737 435.612611 L 459.413235 435.655673 L 459.370173 436.084671 L 459.197924 436.472232 L 459.456297 437.802287 L 459.456297 438.618033 Z M 458.811988 438.488846 " transform="matrix(4.807716,0,0,-4.807716,-1835.658263,2439.598798)" region_id="PHL" necklace_id="N_0"/>
<path style="fill-rule:evenodd;fill:rgb(86.7%,52.9%,47.5%);fill-opacity:1;stroke-width:0.2;stroke-linecap:butt;stroke-linejoin:round;stroke:rgb(0%,0%,0%);stroke-opacity:1;stroke-miterlimit:10;" d="M 460.700229 437.244103 L 460.271231 436.901229 L 460.271231 436.472232 L 460.871665 436.429169 L 461.173101 436.772043 L 461.086977 437.028791 Z M 460.700229 437.244103 " transform="matrix(4.807716,0,0,-4.807716,-1835.658263,2439.598798)" region_id="PHL" necklace_id="N_0"/>
<path style="fill-rule:evenodd;fill:rgb(86.7%,52.9%,47.5%);fill-opacity:1;stroke-width:0.2;stroke-linecap:butt;stroke-linejoin:round;stroke:rgb(0%,0%,0%);stroke-opacity:1;stroke-miterlimit:10;" d="M 460.203794 439.098218 L 459.87392 437.811225 L 459.510735 436.490106 L 459.609859 436.126921 L 459.907233 437.183166 L 460.269606 437.7121 Z M 460.203794 439.098218 " transform="matrix(4.807716,0,0,-4.807716,-1835.658263,2439.598798)" region_id="PHL" necklace_id="N_0"/>
<path style="fill-rule:evenodd;fill:rgb(86.7%,52.9%,47.5%);fill-opacity:1;stroke-width:0.2;stroke-linecap:butt;stroke-linejoin:round;stroke:rgb(0%,0%,0%);stroke-opacity:1;stroke-miterlimit:10;" d="M 458.982612 440.187775 L 459.313298 440.550961 L 460.137981 439.857902 L 460.104669 440.451837 L 459.279986 441.112396 L 458.982612 441.210708 Z M 458.982612 440.187775 " transform="matrix(4.807716,0,0,-4.807716,-1835.658263,2439.598798)" region_id="PHL" necklace_id="N_0"/>
<path style="fill-rule:evenodd;fill:rgb(14.5%,73.7%,61.2%);fill-opacity:1;stroke-width:0.2;stroke-linecap:butt;stroke-linejoin:round;stroke:rgb(0%,0%,0%);stroke-opacity:1;stroke-miterlimit:10;" d="M 426.54615 431.069134 L 426.949148 429.219081 L 427.673895 426.970092 L 428.761827 424.938852 L 430.937691 423.633171 L 432.098747 422.618364 L 433.114367 422.979924 L 432.244184 424.865727 L 431.518625 425.518974 L 431.518625 428.348085 L 430.937691 429.726078 L 429.502823 430.900947 L 429.0007 430.176201 L 428.553828 430.342762 L 427.995643 430.008014 L 428.107767 430.900947 L 426.824836 431.515194 Z M 426.54615 431.069134 " transform="matrix(4.807716,0,0,-4.807716,-1835.658263,2439.598798)" region_id="MYS" necklace_id="N_0"/>
<path style="fill-rule:evenodd;fill:rgb(56.1%,73.7%,75.7%);fill-opacity:1;stroke-width:0.2;stroke-linecap:butt;stroke-linejoin:round;stroke:rgb(0%,0%,0%);stroke-opacity:1;stroke-miterlimit:10;" d="M 446.823611 428.131149 L 447.766919 427.260153 L 447.840043 428.275773 L 448.56479 427.985712 L 448.274729 429.073644 Z M 446.823611 428.131149 " transform="matrix(4.807716,0,0,-4.807716,-1835.658263,2439.598798)" region_id="BRN" necklace_id="N_0"/>
<path style="fill-rule:evenodd;fill:rgb(14.5%,73.7%,61.2%);fill-opacity:1;stroke-width:0.2;stroke-linecap:butt;stroke-linejoin:round;stroke:rgb(0%,0%,0%);stroke-opacity:1;stroke-miterlimit:10;" d="M 446.823611 428.131149 L 445.881116 426.970092 L 445.373306 425.809035 L 443.125129 425.228913 L 442.617319 423.416235 L 441.674012 423.633171 L 441.020765 423.560859 L 440.440643 423.996357 L 441.09389 422.689863 L 441.674012 422.036617 L 442.471883 422.472927 L 443.705251 422.472927 L 444.503122 423.416235 L 445.227869 423.416235 L 446.171177 422.762988 L 446.823611 423.416235 L 447.694606 423.34311 L 447.984667 424.140981 L 447.984667 424.648791 L 448.49329 425.084289 L 448.420165 425.663598 L 448.854851 425.736723 L 449.218036 427.840275 L 451.322401 427.840275 L 452.191771 427.477902 L 453.352828 428.131149 L 452.627269 428.492709 L 452.700394 428.929019 L 453.42514 428.855895 L 454.223011 429.145956 L 454.150699 429.580641 L 453.569764 429.580641 L 452.771893 430.307013 L 452.264896 430.597074 L 451.90171 430.307013 L 451.90171 431.177196 L 451.249276 432.192816 L 450.379093 432.192816 L 450.015907 431.25032 L 449.218036 429.799203 L 448.710226 429.799203 L 448.274729 429.073644 L 448.56479 427.985712 L 447.840043 428.275773 L 447.766919 427.260153 Z M 446.823611 428.131149 " transform="matrix(4.807716,0,0,-4.807716,-1835.658263,2439.598798)" region_id="MYS" necklace_id="N_0"/>
<path style="fill-rule:evenodd;fill:rgb(100%,80%,30.2%);fill-opacity:1;stroke-width:0.2;stroke-linecap:butt;stroke-linejoin:round;stroke:rgb(0%,0%,0%);stroke-opacity:1;stroke-miterlimit:10;" d="M 461.91166 406.223821 L 461.984785 405.353638 L 463.43509 406.223821 L 464.813895 406.587007 L 465.249393 407.311753 L 463.579714 406.877068 L 462.420282 406.803943 Z M 461.91166 406.223821 " transform="matrix(4.807716,0,0,-4.807716,-1835.658263,2439.598798)" region_id="TLS" necklace_id="N_0"/>
<path style="fill-rule:evenodd;fill:rgb(73.3%,71.8%,34.9%);fill-opacity:1;stroke-width:0.2;stroke-linecap:butt;stroke-linejoin:round;stroke:rgb(0%,0%,0%);stroke-opacity:1;stroke-miterlimit:10;" d="M 461.91166 406.223821 L 460.679104 405.643699 L 459.735796 405.209014 L 459.881233 404.120269 L 461.186914 404.265706 L 461.984785 405.353638 Z M 461.91166 406.223821 " transform="matrix(4.807716,0,0,-4.807716,-1835.658263,2439.598798)" region_id="IDN" necklace_id="N_0"/>
<path style="fill-rule:evenodd;fill:rgb(73.3%,71.8%,34.9%);fill-opacity:1;stroke-width:0.2;stroke-linecap:butt;stroke-linejoin:round;stroke:rgb(0%,0%,0%);stroke-opacity:1;stroke-miterlimit:10;" d="M 419.912934 430.016952 L 421.073178 429.219081 L 423.17673 429.219081 L 423.829976 428.275773 L 423.974601 427.260153 L 425.353406 426.534594 L 426.441338 425.592099 L 426.949148 424.431042 L 428.03708 423.996357 L 428.03708 424.575666 L 428.980388 424.067856 L 429.488198 423.270798 L 430.358381 423.270798 L 431.156252 422.328303 L 432.025623 421.094121 L 431.590937 420.223938 L 431.808686 419.352943 L 432.896618 418.918257 L 433.114367 417.684888 L 433.839926 417.394827 L 434.347736 418.120386 L 435.217919 418.265011 L 435.652604 417.250203 L 436.378976 416.596956 L 436.305851 415.799085 L 435.798041 415.94371 L 435.00017 416.233771 L 435.363356 415.509024 L 435.00017 414.784278 L 434.927858 413.477785 L 434.927858 411.157296 L 435.798041 411.084172 L 436.959098 411.01186 L 437.683844 410.576362 L 438.410216 410.576362 L 438.844901 409.633054 L 440.07827 409.633054 L 441.383951 409.487617 L 441.891761 410.358613 L 442.254134 410.286301 L 442.471883 409.923927 L 443.052005 409.923927 L 443.705251 409.633054 L 446.678987 409.487617 L 445.95424 408.98062 L 444.647747 408.908308 L 444.720871 408.47281 L 445.445618 408.182749 L 446.896735 408.182749 L 447.042172 407.601814 L 447.766919 407.45719 L 448.130104 407.601814 L 448.783351 407.311753 L 449.218036 407.094817 L 449.798158 407.311753 L 450.232844 407.167129 L 450.88609 407.094817 L 451.539337 407.094817 L 451.683961 407.45719 L 452.118647 407.601814 L 452.845018 407.167129 L 453.498265 407.167129 L 454.150699 407.021692 L 455.020882 407.167129 L 455.745628 407.311753 L 457.922305 406.94938 L 458.213179 406.731631 L 458.8648 407.311753 L 460.533667 407.384878 L 462.274846 407.384878 L 462.130221 407.094817 L 460.823728 406.877068 L 459.591172 406.877068 L 458.50324 406.513882 L 456.834373 406.296946 L 454.657696 406.442382 L 454.005262 406.513882 L 452.989642 406.296946 L 451.103839 406.079197 L 449.871283 406.223821 L 448.783351 406.442382 L 448.05698 406.513882 L 446.606674 406.659319 L 444.937808 407.384878 L 444.067625 407.021692 L 442.181822 407.240253 L 440.368331 407.965 L 439.208087 408.255061 L 437.974718 408.255061 L 435.435668 408.689746 L 435.725729 409.270681 L 434.927858 409.633054 L 433.839926 409.633054 L 434.420048 410.140864 L 434.927858 410.867235 L 434.564672 411.301921 L 433.985363 411.664294 L 432.96893 411.228796 L 432.244184 412.099792 L 430.937691 413.33316 L 429.778259 414.203343 L 429.778259 414.855778 L 428.907263 415.3644 L 428.471766 416.379208 L 427.891643 416.814705 L 427.963956 417.467952 L 427.383834 418.628196 L 426.731399 419.933877 L 426.441338 420.150814 L 426.295901 420.80406 L 425.424906 421.238746 L 424.844784 423.416235 L 424.264662 423.996357 L 423.322166 424.504167 L 423.17673 425.228913 L 422.015673 426.896967 L 421.436363 427.043216 L 420.05837 428.275773 L 419.62206 429.653766 Z M 419.912934 430.016952 " transform="matrix(4.807716,0,0,-4.807716,-1835.658263,2439.598798)" region_id="IDN" necklace_id="N_0"/>
<path style="fill-rule:evenodd;fill:rgb(73.3%,71.8%,34.9%);fill-opacity:1;stroke-width:0.2;stroke-linecap:butt;stroke-linejoin:round;stroke:rgb(0%,0%,0%);stroke-opacity:1;stroke-miterlimit:10;" d="M 453.42514 404.91814 L 454.296136 404.772703 L 454.876258 404.047957 L 455.891065 404.411143 L 455.528692 405.062764 L 454.803133 405.571387 L 453.279703 405.571387 Z M 453.42514 404.91814 " transform="matrix(4.807716,0,0,-4.807716,-1835.658263,2439.598798)" region_id="IDN" necklace_id="N_0"/>
<path style="fill-rule:evenodd;fill:rgb(73.3%,71.8%,34.9%);fill-opacity:1;stroke-width:0.2;stroke-linecap:butt;stroke-linejoin:round;stroke:rgb(0%,0%,0%);stroke-opacity:1;stroke-miterlimit:10;" d="M 440.440643 423.996357 L 439.425023 422.8353 L 439.425023 420.948685 L 439.788209 420.369375 L 440.222894 418.482759 L 440.803016 418.772821 L 441.020765 417.902637 L 441.310826 415.726773 L 441.818636 415.94371 L 443.48669 416.089147 L 443.632127 415.291276 L 444.793184 415.145839 L 445.373306 415.799085 L 446.244301 415.218963 L 447.332233 415.218963 L 447.622294 414.131031 L 449.435785 414.855778 L 449.871283 414.203343 L 450.161344 415.074339 L 449.871283 415.726773 L 450.523717 417.104766 L 450.015907 418.048074 L 450.959215 418.845945 L 452.047147 419.499192 L 451.90171 420.587124 L 452.337208 422.182053 L 453.569764 422.036617 L 454.078387 422.399802 L 453.061954 423.270798 L 452.264896 423.923232 L 452.700394 424.575666 L 452.118647 425.156601 L 451.611649 425.953659 L 451.467025 426.462282 L 452.118647 426.752343 L 451.322401 427.840275 L 449.218036 427.840275 L 448.854851 425.736723 L 448.420165 425.663598 L 448.49329 425.084289 L 447.984667 424.648791 L 447.984667 424.140981 L 447.694606 423.34311 L 446.823611 423.416235 L 446.171177 422.762988 L 445.227869 423.416235 L 444.503122 423.416235 L 443.705251 422.472927 L 442.471883 422.472927 L 441.674012 422.036617 L 441.09389 422.689863 Z M 440.440643 423.996357 " transform="matrix(4.807716,0,0,-4.807716,-1835.658263,2439.598798)" region_id="IDN" necklace_id="N_0"/>
<path style="fill-rule:evenodd;fill:rgb(73.3%,71.8%,34.9%);fill-opacity:1;stroke-width:0.2;stroke-linecap:butt;stroke-linejoin:round;stroke:rgb(0%,0%,0%);stroke-opacity:1;stroke-miterlimit:10;" d="M 462.854968 423.197673 L 461.984785 421.891992 L 460.969165 421.094121 L 459.735796 421.457307 L 457.342183 421.529619 L 455.891065 421.529619 L 455.45638 420.441687 L 455.745628 419.28063 L 456.472 418.482759 L 456.906685 418.482759 L 457.632244 419.352943 L 458.574739 419.352943 L 459.881233 419.789253 L 460.315918 419.643816 L 460.315918 419.136006 L 459.591172 419.28063 L 458.720176 418.120386 L 457.994617 417.97495 L 457.922305 417.467952 L 457.342183 417.613389 L 458.067742 416.887018 L 458.430115 416.162271 L 458.8648 415.4359 L 458.430115 414.928902 L 459.155674 414.057907 L 459.735796 414.203343 L 459.808108 413.260036 L 459.518047 412.535289 L 459.808108 412.099792 L 459.445735 411.955167 L 459.227986 411.447357 L 458.793301 411.591982 L 458.574739 412.099792 L 458.574739 413.114599 L 459.445735 413.33316 L 458.8648 413.623221 L 458.284678 413.477785 L 458.284678 412.897663 L 457.415308 413.187724 L 457.415308 414.203343 L 456.544312 415.145839 L 456.762061 415.582149 L 456.834373 416.306895 L 455.674129 416.016834 L 455.891065 415.291276 L 455.818753 413.550097 L 455.745628 412.172104 L 455.745628 411.664294 L 454.657696 411.447357 L 454.078387 411.955167 L 454.657696 413.40466 L 454.586197 415.074339 L 453.788326 415.074339 L 453.498265 416.306895 L 453.93295 416.742393 L 454.367635 417.902637 L 454.296136 418.918257 L 455.094007 420.079314 L 455.094007 421.31187 L 455.601004 422.328303 L 456.398875 422.328303 L 456.616624 423.053049 L 457.486807 422.907612 L 457.632244 422.618364 L 459.37261 422.328303 L 460.896853 422.182053 L 461.693911 422.472927 L 462.057097 423.197673 L 462.637219 423.633171 Z M 462.854968 423.197673 " transform="matrix(4.807716,0,0,-4.807716,-1835.658263,2439.598798)" region_id="IDN" necklace_id="N_0"/>
<path style="fill-rule:evenodd;fill:rgb(73.3%,71.8%,34.9%);fill-opacity:1;stroke-width:0.2;stroke-linecap:butt;stroke-linejoin:round;stroke:rgb(0%,0%,0%);stroke-opacity:1;stroke-miterlimit:10;" d="M 465.176269 415.582149 L 463.8714 415.653649 L 463.798276 414.928902 L 464.886208 414.347968 L 465.901827 415.001214 L 465.757203 415.4359 Z M 465.176269 415.582149 " transform="matrix(4.807716,0,0,-4.807716,-1835.658263,2439.598798)" region_id="IDN" necklace_id="N_0"/>
<path style="fill-rule:evenodd;fill:rgb(73.3%,71.8%,34.9%);fill-opacity:1;stroke-width:0.2;stroke-linecap:butt;stroke-linejoin:round;stroke:rgb(0%,0%,0%);stroke-opacity:1;stroke-miterlimit:10;" d="M 467.933067 416.306895 L 466.916635 416.089147 L 467.352133 415.145839 L 468.077692 415.4359 L 468.876375 415.001214 L 469.745746 415.145839 L 470.833678 414.493405 L 470.833678 415.074339 L 470.254368 415.94371 L 469.237936 416.162271 L 468.367753 416.016834 Z M 467.933067 416.306895 " transform="matrix(4.807716,0,0,-4.807716,-1835.658263,2439.598798)" region_id="IDN" necklace_id="N_0"/>
<path style="fill-rule:evenodd;fill:rgb(73.3%,71.8%,34.9%);fill-opacity:1;stroke-width:0.2;stroke-linecap:butt;stroke-linejoin:round;stroke:rgb(0%,0%,0%);stroke-opacity:1;stroke-miterlimit:10;" d="M 467.498382 419.499192 L 466.845135 420.513999 L 466.916635 421.457307 L 468.150004 421.238746 L 468.077692 421.747368 L 467.352133 421.965117 L 467.933067 422.618364 L 467.933067 423.270798 L 467.279821 423.270798 L 466.845135 422.689863 L 466.845135 423.923232 L 467.643006 423.923232 L 468.005379 424.794228 L 467.78763 425.084289 L 467.062072 424.794228 L 466.118764 423.560859 L 465.97414 422.399802 L 465.97414 421.529619 L 466.337325 421.021809 L 466.48195 420.29625 L 465.538642 420.150814 L 465.97414 419.499192 L 466.772011 419.28063 Z M 467.498382 419.499192 " transform="matrix(4.807716,0,0,-4.807716,-1835.658263,2439.598798)" region_id="IDN" necklace_id="N_0"/>
<path style="fill-rule:evenodd;fill:rgb(73.3%,71.8%,34.9%);fill-opacity:1;stroke-width:0.2;stroke-linecap:butt;stroke-linejoin:round;stroke:rgb(0%,0%,0%);stroke-opacity:1;stroke-miterlimit:10;" d="M 485.560166 416.524644 L 484.253673 417.031642 L 483.745863 416.960142 L 482.440182 417.613389 L 480.845252 418.338135 L 479.82882 417.902637 L 480.192006 417.321703 L 478.8132 417.250203 L 478.377702 416.306895 L 477.579831 415.218963 L 476.855085 415.3644 L 476.274963 416.960142 L 476.057214 416.306895 L 475.694028 417.540264 L 475.767153 418.338135 L 475.767153 419.352943 L 474.75072 419.643816 L 473.445852 420.150814 L 472.430232 419.643816 L 471.414612 419.426067 L 471.3423 418.555884 L 471.994734 418.120386 L 472.792605 418.048074 L 472.720293 417.467952 L 473.445852 417.031642 L 475.477092 417.250203 L 475.113906 416.596956 L 474.316035 416.670081 L 473.662788 416.233771 L 472.647981 416.306895 L 472.864917 415.94371 L 473.301228 415.509024 L 473.445852 415.145839 L 473.518164 414.493405 L 474.38916 414.203343 L 474.606096 414.784278 L 475.040782 416.016834 L 475.040782 415.074339 L 475.838653 414.203343 L 476.999709 413.477785 L 478.233078 413.33316 L 479.684196 412.679914 L 481.135313 411.736606 L 481.642311 410.430925 L 481.86006 408.908308 L 481.062189 408.689746 L 480.408942 407.891875 L 480.047381 407.167129 L 481.062189 407.167129 L 481.787748 407.384878 L 482.513306 407.820376 L 483.382677 407.530315 L 483.963612 406.94938 L 484.833795 405.860635 L 485.19698 409.487617 L 484.906919 409.777678 L 485.19698 410.50405 Z M 485.560166 416.524644 " transform="matrix(4.807716,0,0,-4.807716,-1835.658263,2439.598798)" region_id="IDN" necklace_id="N_0"/>
<path style="fill-rule:evenodd;fill:rgb(83.1%,87.8%,35.3%);fill-opacity:1;stroke-width:0.2;stroke-linecap:butt;stroke-linejoin:round;stroke:rgb(0%,0%,0%);stroke-opacity:1;stroke-miterlimit:10;" d="M 484.833795 405.860635 L 486.792722 405.789136 L 488.316152 406.152321 L 487.662906 407.167129 L 488.533901 407.240253 L 489.186335 408.182749 L 490.128831 408.328186 L 492.160883 407.601814 L 492.596381 406.223821 L 494.192123 404.482642 L 496.223363 403.830208 L 498.470726 403.39471 L 498.689288 404.120269 L 497.23817 404.628079 L 497.818292 404.91814 L 496.367987 405.281326 L 496.584923 406.079197 L 495.641616 406.079197 L 495.280055 407.45719 L 493.828937 408.762871 L 493.684313 409.706179 L 494.989181 409.923927 L 494.482184 411.084172 L 492.233195 411.882043 L 492.160883 412.82535 L 490.492016 414.421092 L 488.170716 415.3644 L 485.560166 416.524644 L 485.19698 410.50405 L 484.906919 409.777678 L 485.19698 409.487617 Z M 484.833795 405.860635 " transform="matrix(4.807716,0,0,-4.807716,-1835.658263,2439.598798)" region_id="PNG" necklace_id="N_0"/>
<path style="fill-rule:evenodd;fill:rgb(83.1%,87.8%,35.3%);fill-opacity:1;stroke-width:0.2;stroke-linecap:butt;stroke-linejoin:round;stroke:rgb(0%,0%,0%);stroke-opacity:1;stroke-miterlimit:10;" d="M 494.916869 411.664294 L 496.658048 410.938735 L 497.528231 410.50405 L 499.123973 410.648674 L 500.429654 411.809731 L 501.155213 411.809731 L 501.082901 412.535289 L 501.663023 412.679914 L 501.663023 413.985595 L 500.501966 413.985595 L 500.719715 412.82535 L 499.850344 412.679914 L 499.414034 411.955167 L 498.25379 412.099792 L 497.165858 411.736606 L 495.641616 411.955167 Z M 494.916869 411.664294 " transform="matrix(4.807716,0,0,-4.807716,-1835.658263,2439.598798)" region_id="PNG" necklace_id="N_0"/>
</g>
</svg>
