<?xml version="1.0" encoding="UTF-8"?>
<svg xmlns="http://www.w3.org/2000/svg" xmlns:xlink="http://www.w3.org/1999/xlink" width="596pt" height="731pt" viewBox="0 0 596 731" version="1.1">
<g id="surface84617">
<path style="fill-rule:evenodd;fill:rgb(100%,100%,80%);fill-opacity:1;stroke-width:0.4;stroke-linecap:butt;stroke-linejoin:round;stroke:rgb(50.1%,50.1%,50.1%);stroke-opacity:1;stroke-miterlimit:10;" d="M 283.704755 98.386864 L 280.373854 100.251839 L 277.576392 99.186335 L 276.110466 97.053955 L 277.709408 95.455013 L 280.907292 94.255121 L 283.438722 92.923584 L 287.30306 92.124113 L 288.368564 90.392154 L 291.566448 90.259138 L 292.633323 92.923584 L 291.699464 94.522526 L 291.965498 97.453005 L 293.16539 99.452368 L 292.246615 100.549412 L 288.22732 99.221989 Z M 283.704755 98.386864 " transform="matrix(2.848563,0,0,-2.848563,-451.072872,973.667474)"/>
<path style="fill-rule:evenodd;fill:rgb(100%,100%,80%);fill-opacity:1;stroke-width:0.4;stroke-linecap:butt;stroke-linejoin:round;stroke:rgb(50.1%,50.1%,50.1%);stroke-opacity:1;stroke-miterlimit:10;" d="M 234.251374 190.845748 L 235.064558 191.964734 L 237.709806 194.711458 L 239.744823 196.643627 L 239.947776 199.696152 L 240.966656 200.916614 L 242.491547 200.916614 L 242.898825 199.187398 L 242.085641 198.271366 L 242.185746 197.559659 L 243.306102 196.543522 L 245.238271 197.662507 L 244.729517 199.390351 L 243.916333 200.916614 L 243.610532 202.748678 L 245.442596 203.867663 L 249.715583 203.766186 L 250.834568 202.951631 L 251.138998 200.816509 L 250.020013 198.882968 L 248.596598 198.475691 L 248.696703 197.662507 L 249.918536 197.255229 L 250.222966 195.424537 L 248.596598 194.812934 L 248.799551 193.186566 L 245.442596 192.982242 L 246.358628 191.760409 L 246.25578 189.726763 L 245.848502 189.319486 L 245.848502 188.099024 L 245.339748 187.59027 L 245.339748 186.064007 L 243.712009 185.96253 L 243.509056 186.980039 L 244.323611 187.59027 L 244.425087 188.810731 L 243.407579 189.218009 L 242.288594 189.726763 L 241.575515 189.82824 L 241.474039 190.947225 L 240.559378 190.947225 L 239.643346 190.845748 L 238.728686 190.845748 L 238.21856 189.929717 L 237.202423 189.82824 L 234.454327 189.82824 Z M 234.251374 190.845748 " transform="matrix(2.848563,0,0,-2.848563,-451.072872,973.667474)"/>
<path style="fill-rule:evenodd;fill:rgb(100%,100%,80%);fill-opacity:1;stroke-width:0.4;stroke-linecap:butt;stroke-linejoin:round;stroke:rgb(50.1%,50.1%,50.1%);stroke-opacity:1;stroke-miterlimit:10;" d="M 245.339748 186.064007 L 245.339748 187.59027 L 245.848502 188.099024 L 245.848502 189.319486 L 246.25578 189.726763 L 246.358628 191.760409 L 245.442596 192.982242 L 248.799551 193.186566 L 248.596598 194.812934 L 250.222966 195.424537 L 249.918536 197.255229 L 248.696703 197.662507 L 248.596598 198.475691 L 250.020013 198.882968 L 251.138998 200.816509 L 250.834568 202.951631 L 251.140369 203.797726 L 250.671383 204.893399 L 250.985412 205.676415 L 251.846591 205.754579 L 253.333086 205.676415 L 254.505552 205.59825 L 254.97591 204.424413 L 256.385612 204.737071 L 256.540569 206.45943 L 257.950271 206.928416 L 258.184764 208.258582 L 257.010927 209.588748 L 257.089091 210.215435 L 258.028435 210.99845 L 256.698269 212.56311 L 256.227912 214.205933 L 259.280437 213.266589 L 262.097098 213.266589 L 262.176634 212.56311 L 262.097098 211.85963 L 262.801949 211.153408 L 263.583593 210.606257 L 264.444773 209.901406 L 265.071459 209.666913 L 265.932639 210.371764 L 266.714283 210.449928 L 266.714283 209.588748 L 266.47979 208.885269 L 265.854475 208.649404 L 265.61861 208.024089 L 266.167132 207.475567 L 267.497298 207.475567 L 268.358478 208.024089 L 269.219658 208.649404 L 270.471659 209.041598 L 271.565961 209.510584 L 272.270812 210.137271 L 273.052456 210.137271 L 273.9918 210.528093 L 274.931144 211.467437 L 275.556459 211.936423 L 276.495803 211.467437 L 276.887996 210.606257 L 276.262681 210.215435 L 275.401502 209.354255 L 275.714159 208.807104 L 277.66964 208.649404 L 279.782822 207.397403 L 279.862358 205.520086 L 280.331344 203.955427 L 280.331344 201.684545 L 279.392 200.981065 L 279.392 200.277586 L 281.66151 198.319362 L 281.347481 197.22506 L 282.208661 195.580865 L 282.444525 194.407028 L 281.817839 193.38952 L 282.521318 192.764204 L 282.757183 191.354503 L 283.696527 190.807352 L 283.77332 187.98932 L 283.069841 186.973182 L 281.583346 187.834362 L 281.034824 187.756198 L 280.487673 186.58236 L 279.704657 186.58236 L 279.392 185.643016 L 277.983669 185.485316 L 276.495803 184.469179 L 274.774815 183.764328 L 272.975663 182.824984 L 272.114483 181.807476 L 272.114483 181.18216 L 272.975663 180.478681 L 273.444649 178.599993 L 273.913635 177.816977 L 274.85298 176.486811 L 276.495803 175.000316 L 277.749176 173.826479 L 278.843478 173.826479 L 279.862358 172.416777 L 279.782822 171.164776 L 278.218163 171.244311 L 278.061834 169.443788 L 276.417639 168.97343 L 275.323337 168.191786 L 275.401502 167.096113 L 276.262681 166.156769 L 276.887996 164.512574 L 276.026817 163.496437 L 274.462158 164.512574 L 273.28832 165.061096 L 271.175139 164.121752 L 270.313959 164.121752 L 268.905629 163.182408 L 267.575463 162.713421 L 266.47979 163.73093 L 264.993295 163.496437 L 264.444773 162.088106 L 263.897622 162.244435 L 263.3491 163.574601 L 261.026109 163.625339 L 260.122419 163.625339 L 259.461449 164.467321 L 257.233078 164.467321 L 255.849431 164.106667 L 253.139732 164.106667 L 251.063576 163.809094 L 250.985412 165.295589 L 251.688891 166.00044 L 251.688891 167.877757 L 252.628235 169.209294 L 252.471907 170.695789 L 254.663252 173.435657 L 254.11473 173.904643 L 252.001549 173.826479 L 251.219905 174.764452 L 248.167379 174.764452 L 247.071707 177.491978 L 247.276031 179.425518 L 245.749768 179.729948 L 245.443967 182.069395 L 246.562952 182.57952 L 246.767277 183.291228 L 246.767277 184.002935 L 245.851245 185.12192 Z M 245.339748 186.064007 " transform="matrix(2.848563,0,0,-2.848563,-451.072872,973.667474)"/>
<path style="fill-rule:evenodd;fill:rgb(100%,100%,80%);fill-opacity:1;stroke-width:0.4;stroke-linecap:butt;stroke-linejoin:round;stroke:rgb(50.1%,50.1%,50.1%);stroke-opacity:1;stroke-miterlimit:10;" d="M 234.251374 190.845748 L 234.454327 189.82824 L 237.202423 189.82824 L 238.21856 189.929717 L 238.728686 190.845748 L 239.643346 190.845748 L 240.559378 190.947225 L 241.474039 190.947225 L 241.575515 189.82824 L 242.288594 189.726763 L 243.407579 189.218009 L 244.425087 188.810731 L 244.323611 187.59027 L 243.509056 186.980039 L 243.712009 185.96253 L 245.339748 186.064007 L 245.851245 185.12192 L 246.767277 184.002935 L 246.767277 183.291228 L 246.562952 182.57952 L 245.443967 182.069395 L 244.833736 181.562012 L 244.324982 180.95041 L 243.917705 180.747457 L 243.714751 180.137226 L 243.613275 179.32267 L 244.223506 179.018241 L 244.324982 177.593455 L 243.003044 177.593455 L 242.087012 178.10358 L 240.663597 179.32267 L 239.747565 180.443027 L 239.238811 181.460535 L 238.018349 180.238702 L 237.306642 180.238702 L 237.203794 182.985427 L 235.780379 183.595658 L 235.168777 184.614537 L 233.745362 185.020444 L 233.642514 185.833628 L 232.82933 186.648183 L 231.404544 186.74966 L 230.59136 188.886153 L 232.523529 190.412416 Z M 234.251374 190.845748 " transform="matrix(2.848563,0,0,-2.848563,-451.072872,973.667474)"/>
<path style="fill-rule:evenodd;fill:rgb(100%,100%,80%);fill-opacity:1;stroke-width:0.4;stroke-linecap:butt;stroke-linejoin:round;stroke:rgb(50.1%,50.1%,50.1%);stroke-opacity:1;stroke-miterlimit:10;" d="M 230.59136 188.886153 L 231.404544 186.74966 L 232.82933 186.648183 L 233.642514 185.833628 L 233.745362 185.020444 L 235.168777 184.614537 L 235.780379 183.595658 L 237.203794 182.985427 L 237.306642 180.238702 L 238.018349 180.238702 L 239.238811 181.460535 L 239.747565 180.443027 L 240.663597 179.32267 L 242.087012 178.10358 L 243.003044 177.593455 L 244.324982 177.593455 L 245.342491 177.491978 L 247.071707 177.491978 L 248.167379 174.764452 L 251.219905 174.764452 L 252.001549 173.826479 L 254.11473 173.904643 L 254.663252 173.435657 L 252.471907 170.695789 L 252.628235 169.209294 L 251.688891 167.877757 L 251.688891 166.00044 L 250.985412 165.295589 L 251.063576 163.809094 L 250.358725 163.105615 L 249.419381 163.182408 L 249.106724 163.652765 L 248.401873 163.105615 L 248.636366 162.166271 L 247.384364 161.070598 L 246.368227 159.740432 L 245.663376 158.801088 L 244.724032 157.705415 L 244.097346 156.609742 L 243.864224 154.887382 L 244.803568 154.887382 L 244.958525 155.670398 L 246.368227 156.297084 L 247.071707 156.297084 L 247.384364 155.670398 L 247.698393 155.043711 L 247.620229 154.262067 L 248.167379 153.166394 L 248.71453 152.539708 L 247.385736 151.930848 L 249.117694 149.399419 L 248.585628 147.933493 L 246.453248 147.401427 L 246.720652 145.935502 L 248.319594 144.868626 L 247.118331 143.136668 L 247.385736 141.670742 L 249.117694 140.872643 L 250.849653 140.739626 L 251.117057 138.740263 L 250.051553 138.47423 L 249.651132 137.141321 L 247.919173 136.34185 L 246.187215 135.141958 L 244.854306 134.076454 L 242.989331 133.41 L 240.989968 134.076454 L 239.391026 135.542379 L 238.192505 136.474867 L 236.859596 136.34185 L 236.060126 136.074446 L 234.994621 136.7409 L 233.794729 136.875288 L 232.195787 136.875288 L 231.130283 136.074446 L 229.531341 135.675396 L 227.799383 135.542379 L 227.398962 134.076454 L 227.932399 131.945446 L 227.799383 130.346504 L 225.801391 130.079099 L 224.468482 129.946083 L 223.135574 130.47952 L 222.736524 130.612537 L 222.070069 129.680049 L 221.403615 130.87857 L 220.203723 132.078462 L 218.739169 132.477512 L 217.539277 133.677404 L 215.940335 134.342487 L 215.273881 133.943437 L 214.208376 133.143966 L 212.609435 133.677404 L 211.409542 134.475504 L 210.478426 135.008942 L 209.677584 135.008942 L 208.745096 135.808413 L 208.346047 136.074446 L 207.413559 136.34185 L 206.346683 137.008305 L 205.281179 138.206825 L 204.34732 139.140684 L 205.6816 140.206188 L 206.747105 141.005659 L 206.747105 142.870635 L 207.280542 145.802485 L 207.812609 148.06651 L 208.346047 149.665452 L 208.745096 152.063865 L 209.544567 153.129369 L 210.744459 153.396774 L 210.877476 153.930211 L 209.544567 154.995715 L 209.278534 155.795186 L 209.677584 156.860691 L 210.611443 156.727674 L 210.478426 157.794549 L 209.411551 158.326616 L 208.61208 158.99307 L 208.61208 159.526508 L 207.679592 160.725029 L 206.747105 162.190954 L 206.213667 163.655508 L 206.4797 164.8554 L 206.747105 165.654871 L 205.947634 166.720375 L 204.880758 167.253813 L 204.34732 168.58535 L 203.549221 168.985772 L 201.950279 170.31868 L 200.750387 170.852118 L 198.885412 171.784606 L 197.153453 172.183655 L 197.020437 173.117514 L 195.953561 173.649581 L 197.819907 173.782597 L 198.486362 174.316035 L 197.552503 174.716456 L 196.486999 175.647572 L 197.153453 176.581431 L 198.085941 176.980481 L 200.484354 177.113498 L 201.817262 177.113498 L 203.015783 177.246514 L 205.015146 177.246514 L 205.414196 176.047994 L 206.880121 175.115506 L 208.346047 175.115506 L 210.211022 174.982489 L 211.010493 175.78196 L 211.010493 178.845456 L 210.744459 180.045348 L 210.478426 181.511274 L 211.276526 182.04334 L 212.875468 182.04334 L 213.674939 180.710431 L 214.341393 179.912332 L 215.940335 179.245877 L 217.273244 178.978473 L 218.739169 178.978473 L 219.405623 179.779315 L 219.53864 180.577415 L 220.471128 181.243869 L 222.469119 181.777307 L 224.335466 182.04334 L 225.934408 182.977199 L 226.599491 183.643653 L 226.732507 185.375612 L 226.732507 187.373604 L 227.53335 188.173075 L 229.265308 188.706512 Z M 230.59136 188.886153 " transform="matrix(2.848563,0,0,-2.848563,-451.072872,973.667474)"/>
<path style="fill-rule:evenodd;fill:rgb(100%,100%,80%);fill-opacity:1;stroke-width:0.4;stroke-linecap:butt;stroke-linejoin:round;stroke:rgb(50.1%,50.1%,50.1%);stroke-opacity:1;stroke-miterlimit:10;" d="M 244.324982 177.593455 L 244.223506 179.018241 L 243.613275 179.32267 L 243.714751 180.137226 L 243.917705 180.747457 L 244.324982 180.95041 L 244.833736 181.562012 L 245.443967 182.069395 L 245.749768 179.729948 L 247.276031 179.425518 L 247.071707 177.491978 L 245.342491 177.491978 Z M 244.324982 177.593455 " transform="matrix(2.848563,0,0,-2.848563,-451.072872,973.667474)"/>
<path style="fill-rule:evenodd;fill:rgb(100%,100%,80%);fill-opacity:1;stroke-width:0.4;stroke-linecap:butt;stroke-linejoin:round;stroke:rgb(50.1%,50.1%,50.1%);stroke-opacity:1;stroke-miterlimit:10;" d="M 248.71453 152.539708 L 248.167379 153.166394 L 247.620229 154.262067 L 247.698393 155.043711 L 247.384364 155.670398 L 247.071707 156.297084 L 246.368227 156.297084 L 244.958525 155.670398 L 244.803568 154.887382 L 243.864224 154.887382 L 244.097346 156.609742 L 244.724032 157.705415 L 245.663376 158.801088 L 246.368227 159.740432 L 247.384364 161.070598 L 248.636366 162.166271 L 248.401873 163.105615 L 249.106724 163.652765 L 249.419381 163.182408 L 250.358725 163.105615 L 251.063576 163.809094 L 253.139732 164.106667 L 255.849431 164.106667 L 257.233078 164.467321 L 259.461449 164.467321 L 260.122419 163.625339 L 261.026109 163.625339 L 261.20575 163.263315 L 261.628112 162.842324 L 260.965771 162.300658 L 260.484443 161.879668 L 260.543409 161.15699 L 261.20575 160.254671 L 261.807753 160.194334 L 262.530431 159.471656 L 263.253108 158.990328 L 264.096461 159.954355 L 264.698464 159.954355 L 264.638127 158.68864 L 263.974415 158.26765 L 264.817768 157.425668 L 264.817768 156.763328 L 263.794774 157.304993 L 263.192771 157.365331 L 262.892455 156.282 L 261.747415 155.317972 L 260.363768 155.257635 L 260.063452 156.221662 L 259.520416 156.342337 L 258.799109 154.536328 L 258.076431 153.332322 L 257.714407 152.067979 L 255.608082 154.655632 L 255.006079 156.282 L 253.922748 155.317972 L 253.560723 153.81365 L 252.718742 152.790657 Z M 248.71453 152.539708 " transform="matrix(2.848563,0,0,-2.848563,-451.072872,973.667474)"/>
<path style="fill-rule:evenodd;fill:rgb(100%,100%,80%);fill-opacity:1;stroke-width:0.4;stroke-linecap:butt;stroke-linejoin:round;stroke:rgb(50.1%,50.1%,50.1%);stroke-opacity:1;stroke-miterlimit:10;" d="M 248.71453 152.539708 L 252.718742 152.790657 L 253.560723 153.81365 L 253.922748 155.317972 L 255.006079 156.282 L 255.608082 154.655632 L 257.714407 152.067979 L 258.076431 153.332322 L 258.799109 154.536328 L 259.520416 156.342337 L 260.063452 156.221662 L 260.363768 155.257635 L 261.747415 155.317972 L 262.892455 156.282 L 263.192771 157.365331 L 263.794774 157.304993 L 264.817768 156.763328 L 264.817768 157.425668 L 263.974415 158.26765 L 264.638127 158.68864 L 267.582319 158.877881 L 267.715336 159.677352 L 269.182632 159.544335 L 269.581682 160.077773 L 271.847078 160.476823 L 272.513533 159.810368 L 274.112475 157.945393 L 276.3765 157.812376 L 277.576392 157.413327 L 280.107821 157.145922 L 278.774913 156.080418 L 278.641896 154.747509 L 279.7074 154.747509 L 279.840417 154.481476 L 279.175334 153.815022 L 279.042317 153.414601 L 279.973433 153.148567 L 279.973433 151.81703 L 279.574383 151.81703 L 277.842425 151.416609 L 275.97745 150.0837 L 273.84507 149.817667 L 273.84507 148.885179 L 273.979458 147.286237 L 274.777558 146.35375 L 273.84507 144.354387 L 274.378508 141.28952 L 276.776921 139.424544 L 281.040309 136.627082 L 282.373217 132.629727 L 283.972159 129.431843 L 284.77163 129.431843 L 288.767614 126.100943 L 291.566448 126.499993 L 294.631315 126.499993 L 294.631315 125.434488 L 293.298406 124.635017 L 293.298406 123.169092 L 303.025074 119.838192 L 307.688884 116.507291 L 307.421479 113.575441 L 306.089942 113.442424 L 305.290471 115.307399 L 302.759041 116.507291 L 301.160099 117.306762 L 299.828562 117.439779 L 297.696182 111.577449 L 301.427504 109.712474 L 301.56052 106.91364 L 298.62867 105.447714 L 298.62867 102.116814 L 297.428778 101.583376 L 296.230257 98.652897 L 294.631315 98.785914 L 293.831844 99.718401 L 294.631315 101.317343 L 295.163381 102.783268 L 294.897348 104.116177 L 296.09724 104.782631 L 296.230257 106.248557 L 295.563803 107.314061 L 295.563803 108.911631 L 294.365282 111.178399 L 293.298406 113.442424 L 291.167398 113.309407 L 289.168035 114.108878 L 288.368564 117.439779 L 286.237556 116.507291 L 285.571101 118.373638 L 284.105176 118.771316 L 282.506234 120.637663 L 278.641896 120.770679 L 271.980095 127.299463 L 269.714699 128.632372 L 268.248773 129.965281 L 266.383798 131.697239 L 265.451311 133.829619 L 264.517452 135.294173 L 263.985385 137.958619 L 263.052898 139.957982 L 261.319568 140.224015 L 259.855014 141.423907 L 257.988668 141.957345 L 256.790147 142.489412 L 255.191205 141.156503 L 254.391734 139.690578 L 252.392371 138.226024 L 251.594271 138.226024 L 251.117057 138.740263 L 250.849653 140.739626 L 249.117694 140.872643 L 247.385736 141.670742 L 247.118331 143.136668 L 248.319594 144.868626 L 246.720652 145.935502 L 246.453248 147.401427 L 248.585628 147.933493 L 249.117694 149.399419 L 247.385736 151.930848 Z M 248.71453 152.539708 " transform="matrix(2.848563,0,0,-2.848563,-451.072872,973.667474)"/>
<path style="fill-rule:evenodd;fill:rgb(100%,100%,80%);fill-opacity:1;stroke-width:0.4;stroke-linecap:butt;stroke-linejoin:round;stroke:rgb(50.1%,50.1%,50.1%);stroke-opacity:1;stroke-miterlimit:10;" d="M 264.638127 158.68864 L 264.698464 159.954355 L 264.096461 159.954355 L 263.253108 158.990328 L 262.530431 159.471656 L 261.807753 160.194334 L 261.20575 160.254671 L 260.543409 161.15699 L 260.484443 161.879668 L 260.965771 162.300658 L 261.628112 162.842324 L 261.20575 163.263315 L 261.026109 163.625339 L 263.3491 163.574601 L 263.897622 162.244435 L 264.444773 162.088106 L 264.993295 163.496437 L 266.47979 163.73093 L 267.575463 162.713421 L 268.905629 163.182408 L 270.313959 164.121752 L 271.175139 164.121752 L 273.28832 165.061096 L 274.462158 164.512574 L 276.026817 163.496437 L 276.887996 164.512574 L 276.262681 166.156769 L 275.401502 167.096113 L 275.323337 168.191786 L 276.417639 168.97343 L 278.061834 169.443788 L 278.218163 171.244311 L 279.782822 171.164776 L 279.862358 172.416777 L 281.406447 171.706441 L 283.312562 171.706441 L 284.006442 172.39895 L 284.69758 173.4384 L 285.04452 174.303693 L 286.083969 174.303693 L 288.162868 174.130909 L 289.029533 173.4384 L 290.587336 173.4384 L 291.281216 174.130909 L 293.705684 173.265615 L 293.358744 171.359501 L 294.917918 169.453387 L 294.917918 167.028919 L 293.358744 165.642529 L 292.14651 164.431667 L 292.14651 163.218062 L 293.185959 162.351397 L 291.281216 160.619438 L 290.240396 159.408576 L 288.682593 158.714695 L 285.738401 158.367755 L 284.352011 156.463012 L 280.107821 157.145922 L 277.576392 157.413327 L 276.3765 157.812376 L 274.112475 157.945393 L 272.513533 159.810368 L 271.847078 160.476823 L 269.581682 160.077773 L 269.182632 159.544335 L 267.715336 159.677352 L 267.582319 158.877881 Z M 264.638127 158.68864 " transform="matrix(2.848563,0,0,-2.848563,-451.072872,973.667474)"/>
<path style="fill-rule:evenodd;fill:rgb(100%,100%,80%);fill-opacity:1;stroke-width:0.4;stroke-linecap:butt;stroke-linejoin:round;stroke:rgb(50.1%,50.1%,50.1%);stroke-opacity:1;stroke-miterlimit:10;" d="M 279.862358 172.416777 L 278.843478 173.826479 L 277.749176 173.826479 L 276.495803 175.000316 L 274.85298 176.486811 L 273.913635 177.816977 L 273.444649 178.599993 L 272.975663 180.478681 L 272.114483 181.18216 L 272.114483 181.807476 L 272.975663 182.824984 L 274.774815 183.764328 L 276.495803 184.469179 L 277.983669 185.485316 L 279.392 185.643016 L 279.704657 186.58236 L 280.487673 186.58236 L 281.034824 187.756198 L 281.583346 187.834362 L 283.069841 186.973182 L 283.77332 187.98932 L 284.136716 187.613582 L 287.31403 186.280673 L 288.852635 186.280673 L 289.978476 185.664957 L 289.465608 184.844917 L 290.184172 184.024876 L 290.901365 183.103359 L 291.618557 182.283318 L 292.541446 182.897663 L 292.541446 184.537744 L 293.565811 184.537744 L 295.205892 184.127724 L 295.924456 183.410531 L 296.538801 182.693339 L 297.870338 182.693339 L 298.587531 182.077623 L 300.126135 181.974775 L 301.457673 179.823197 L 300.126135 178.90168 L 298.793226 177.773096 L 298.896074 176.133014 L 296.744496 174.288609 L 294.89872 174.288609 L 293.705684 173.265615 L 291.281216 174.130909 L 290.587336 173.4384 L 289.029533 173.4384 L 288.162868 174.130909 L 286.083969 174.303693 L 285.04452 174.303693 L 284.69758 173.4384 L 284.006442 172.39895 L 283.312562 171.706441 L 281.406447 171.706441 Z M 279.862358 172.416777 " transform="matrix(2.848563,0,0,-2.848563,-451.072872,973.667474)"/>
<path style="fill-rule:evenodd;fill:rgb(100%,100%,80%);fill-opacity:1;stroke-width:0.4;stroke-linecap:butt;stroke-linejoin:round;stroke:rgb(50.1%,50.1%,50.1%);stroke-opacity:1;stroke-miterlimit:10;" d="M 283.77332 187.98932 L 283.696527 190.807352 L 282.757183 191.354503 L 282.521318 192.764204 L 281.817839 193.38952 L 282.444525 194.407028 L 282.208661 195.580865 L 281.347481 197.22506 L 281.66151 198.319362 L 279.392 200.277586 L 279.392 200.981065 L 280.331344 201.684545 L 280.331344 203.955427 L 279.862358 205.520086 L 279.782822 207.397403 L 282.488407 209.067652 L 284.22448 209.617546 L 285.564245 210.327882 L 287.298946 210.485582 L 288.560547 212.535683 L 289.584912 213.244648 L 292.343978 214.348549 L 293.368343 215.137049 L 295.34028 215.137049 L 296.917281 212.298448 L 299.676347 211.747183 L 301.331512 213.56142 L 308.034452 213.56142 L 309.611454 214.190849 L 311.975584 214.03452 L 312.37052 215.058885 L 315.051421 214.270385 L 315.838551 213.717749 L 316.153951 212.298448 L 317.574623 209.067652 L 318.598988 207.490651 L 319.228417 206.544451 L 319.228417 204.177578 L 317.257852 202.917348 L 317.178316 200.709547 L 319.228417 200.394147 L 319.497193 197.247001 L 319.701517 196.222636 L 320.214386 194.992575 L 322.571659 192.736778 L 321.957315 191.916738 L 323.084528 190.482353 L 322.98168 189.662312 L 320.111538 186.689322 L 318.575676 183.820552 L 318.36998 182.180471 L 318.881477 180.130369 L 319.497193 179.413177 L 318.267132 179.003156 L 315.295514 180.643237 L 312.322524 180.643237 L 311.298159 179.617501 L 308.428017 179.617501 L 306.583612 178.080268 L 304.327814 180.643237 L 303.097754 179.310329 L 301.457673 179.823197 L 300.126135 181.974775 L 298.587531 182.077623 L 297.870338 182.693339 L 296.538801 182.693339 L 295.924456 183.410531 L 295.205892 184.127724 L 293.565811 184.537744 L 292.541446 184.537744 L 292.541446 182.897663 L 291.618557 182.283318 L 290.901365 183.103359 L 290.184172 184.024876 L 289.465608 184.844917 L 289.978476 185.664957 L 288.852635 186.280673 L 287.31403 186.280673 L 284.136716 187.613582 Z M 283.77332 187.98932 " transform="matrix(2.848563,0,0,-2.848563,-451.072872,973.667474)"/>
<path style="fill-rule:evenodd;fill:rgb(100%,100%,80%);fill-opacity:1;stroke-width:0.4;stroke-linecap:butt;stroke-linejoin:round;stroke:rgb(50.1%,50.1%,50.1%);stroke-opacity:1;stroke-miterlimit:10;" d="M 262.097098 213.266589 L 259.280437 213.266589 L 256.227912 214.205933 L 256.84637 215.525129 L 256.84637 217.152868 L 255.524432 218.271853 L 255.320108 220.102546 L 255.930338 221.120054 L 255.218631 221.831762 L 255.218631 225.901796 L 256.439093 228.241242 L 258.16968 229.157274 L 260.203326 229.157274 L 261.119358 230.173411 L 261.628112 232.005475 L 263.051527 232.311276 L 264.069035 232.921507 L 264.170512 231.192291 L 264.170512 229.461704 L 263.154374 227.835336 L 263.458804 225.800319 L 264.069035 224.782811 L 265.289497 225.088612 L 265.595298 223.358024 L 264.27336 222.646317 L 263.154374 221.324379 L 261.932542 219.696639 L 261.119358 218.474806 L 261.119358 217.051392 L 261.01651 215.829559 L 260.71208 215.525129 L 260.813556 215.219328 L 262.238343 214.50762 Z M 262.097098 213.266589 " transform="matrix(2.848563,0,0,-2.848563,-451.072872,973.667474)"/>
<path style="fill-rule:evenodd;fill:rgb(100%,100%,80%);fill-opacity:1;stroke-width:0.4;stroke-linecap:butt;stroke-linejoin:round;stroke:rgb(50.1%,50.1%,50.1%);stroke-opacity:1;stroke-miterlimit:10;" d="M 263.661757 218.577654 L 264.680637 218.679131 L 265.595298 217.558775 L 265.696774 216.13536 L 265.289497 214.813421 L 264.069035 214.813421 L 262.747097 215.219328 L 262.035389 216.745591 L 262.238343 217.458669 L 262.95005 218.067529 Z M 263.661757 218.577654 " transform="matrix(2.848563,0,0,-2.848563,-451.072872,973.667474)"/>
<path style="fill-rule:evenodd;fill:rgb(100%,100%,80%);fill-opacity:1;stroke-width:0.4;stroke-linecap:butt;stroke-linejoin:round;stroke:rgb(50.1%,50.1%,50.1%);stroke-opacity:1;stroke-miterlimit:10;" d="M 266.552469 214.146967 L 266.962489 214.352663 L 267.78253 213.532622 L 268.704047 213.736947 L 269.011219 214.556987 L 269.011219 215.888525 L 268.191179 216.197068 L 266.962489 216.401393 L 266.552469 217.528606 L 266.449621 218.861515 L 267.269662 219.681555 L 268.395503 220.194423 L 269.215544 220.911616 L 269.934108 222.141677 L 270.855625 222.038829 L 271.368493 221.527332 L 271.881361 219.578707 L 271.265645 218.758667 L 270.548452 217.83715 L 271.574189 217.427129 L 271.778513 216.504241 L 270.855625 216.298545 L 271.061321 215.068484 L 271.471341 214.045491 L 270.445604 212.506886 L 269.421239 212.302562 L 267.576834 212.405409 L 266.653945 213.532622 Z M 266.552469 214.146967 " transform="matrix(2.848563,0,0,-2.848563,-451.072872,973.667474)"/>
<path style="fill-rule:evenodd;fill:rgb(100%,100%,80%);fill-opacity:1;stroke-width:0.4;stroke-linecap:butt;stroke-linejoin:round;stroke:rgb(50.1%,50.1%,50.1%);stroke-opacity:1;stroke-miterlimit:10;" d="M 204.34732 139.140684 L 205.281179 138.206825 L 206.346683 137.008305 L 207.413559 136.34185 L 208.346047 136.074446 L 208.745096 135.808413 L 209.677584 135.008942 L 210.478426 135.008942 L 211.409542 134.475504 L 212.609435 133.677404 L 214.208376 133.143966 L 215.273881 133.943437 L 215.940335 134.342487 L 217.539277 133.677404 L 218.739169 132.477512 L 220.203723 132.078462 L 221.403615 130.87857 L 222.070069 129.680049 L 222.736524 130.612537 L 223.135574 130.47952 L 224.468482 129.946083 L 225.801391 130.079099 L 227.799383 130.346504 L 228.151808 127.318662 L 228.050332 126.292925 L 227.640311 125.882905 L 226.00023 125.370037 L 224.770169 124.652844 L 223.744433 124.139976 L 223.02724 122.911287 L 220.15847 122.808439 L 217.698348 122.398419 L 216.262592 121.88555 L 214.929683 120.552642 L 214.929683 120.041145 L 214.828206 119.118256 L 214.21249 118.708236 L 213.290973 117.785348 L 211.958065 116.556658 L 210.626527 115.429445 L 209.600791 114.506557 L 208.883598 113.686516 L 207.653537 112.866476 L 207.55069 111.739263 L 207.55069 110.303506 L 208.166406 108.766273 L 208.883598 107.127563 L 208.986446 105.691807 L 208.267882 105.588959 L 206.730649 104.461746 L 205.603436 103.538858 L 204.476223 102.514493 L 203.963355 101.38728 L 203.860507 99.747199 L 203.143314 99.337178 L 201.400385 99.337178 L 199.761676 98.927158 L 197.814422 97.697097 L 196.994382 96.262712 L 195.968645 94.826955 L 194.328564 94.826955 L 191.766966 95.032651 L 189.51254 95.749844 L 188.076784 96.057016 L 185.71951 96.467036 L 183.566561 96.467036 L 181.723527 95.852692 L 180.083445 95.749844 L 178.134821 94.826955 L 177.827648 94.006915 L 176.187567 92.98255 L 175.060354 92.98255 L 173.523121 93.596895 L 172.29306 94.929803 L 171.88304 96.159864 L 171.88304 98.209965 L 171.677344 99.850046 L 171.063 101.38728 L 169.628614 102.411645 L 168.808574 103.027361 L 166.98748 103.660904 L 166.82978 105.711005 L 167.302881 106.73537 L 168.722182 107.840642 L 170.455511 108.865007 L 170.850447 109.258572 L 170.455511 109.731672 L 169.824711 110.521544 L 169.351611 111.308673 L 169.431146 112.492109 L 169.824711 112.96521 L 170.141482 113.752339 L 171.481248 114.384511 L 172.269748 114.935775 L 171.718484 116.039676 L 171.087683 116.670477 L 170.535047 117.616677 L 170.535047 118.720578 L 170.219647 119.351378 L 170.692747 119.824479 L 172.269748 119.824479 L 173.373649 120.060343 L 173.373649 120.928379 L 173.768585 122.188609 L 173.768585 122.978481 L 174.47755 123.60791 L 175.10835 124.001474 L 175.10835 125.184911 L 175.344215 126.051576 L 175.501915 127.235012 L 175.501915 128.338913 L 176.448115 128.496613 L 176.605815 129.442814 L 177.552016 129.915914 L 178.498217 130.151778 L 179.837982 131.177515 L 179.837982 131.964644 L 179.444417 132.281415 L 178.655917 132.595444 L 178.418681 134.014745 L 177.787881 134.725081 L 176.212251 135.040482 L 174.871114 135.355882 L 173.215949 135.276346 L 171.323548 135.434046 L 170.299183 136.302082 L 170.299183 137.168747 L 168.958046 137.404612 L 167.381045 136.931511 L 167.381045 138.035412 L 168.249081 138.667584 L 168.642646 140.007349 L 168.169546 141.58435 L 167.223345 143.554916 L 167.145181 145.131917 L 169.115746 145.998582 L 172.505613 145.920417 L 172.742849 147.417883 L 175.028814 147.812819 L 176.448115 147.575583 L 177.945581 145.920417 L 180.468782 145.131917 L 184.489449 145.211453 L 189.142288 142.688251 L 191.112854 141.821586 L 196.157886 141.58435 L 197.183622 140.244585 L 197.972122 140.165049 L 198.760623 141.189414 L 199.232352 140.874014 L 200.415788 139.771485 L 201.677389 139.218849 Z M 204.34732 139.140684 " transform="matrix(2.848563,0,0,-2.848563,-451.072872,973.667474)"/>
<path style="fill-rule:evenodd;fill:rgb(100%,100%,80%);fill-opacity:1;stroke-width:0.4;stroke-linecap:butt;stroke-linejoin:round;stroke:rgb(50.1%,50.1%,50.1%);stroke-opacity:1;stroke-miterlimit:10;" d="M 166.98748 103.660904 L 166.592545 103.267339 L 165.252779 102.794239 L 163.438542 102.872403 L 162.809113 103.504575 L 161.547513 104.05584 L 158.629375 104.37124 L 159.102475 105.475141 L 159.890976 107.288006 L 160.601312 108.391907 L 160.521776 110.048444 L 161.388441 112.412574 L 161.705213 113.831875 L 159.655111 113.989575 L 159.182011 115.566576 L 158.551211 116.828177 L 160.206376 119.587243 L 161.388441 121.084708 L 162.887278 123.056645 L 166.04128 128.574777 L 166.751616 130.151778 L 166.82978 131.88648 L 166.82978 133.30578 L 167.381045 136.931511 L 168.958046 137.404612 L 170.299183 137.168747 L 170.299183 136.302082 L 171.323548 135.434046 L 173.215949 135.276346 L 174.871114 135.355882 L 176.212251 135.040482 L 177.787881 134.725081 L 178.418681 134.014745 L 178.655917 132.595444 L 179.444417 132.281415 L 179.837982 131.964644 L 179.837982 131.177515 L 178.498217 130.151778 L 177.552016 129.915914 L 176.605815 129.442814 L 176.448115 128.496613 L 175.501915 128.338913 L 175.501915 127.235012 L 175.344215 126.051576 L 175.10835 125.184911 L 175.10835 124.001474 L 174.47755 123.60791 L 173.768585 122.978481 L 173.768585 122.188609 L 173.373649 120.928379 L 173.373649 120.060343 L 172.269748 119.824479 L 170.692747 119.824479 L 170.219647 119.351378 L 170.535047 118.720578 L 170.535047 117.616677 L 171.087683 116.670477 L 171.718484 116.039676 L 172.269748 114.935775 L 171.481248 114.384511 L 170.141482 113.752339 L 169.824711 112.96521 L 169.431146 112.492109 L 169.351611 111.308673 L 169.824711 110.521544 L 170.455511 109.731672 L 170.850447 109.258572 L 170.455511 108.865007 L 168.722182 107.840642 L 167.302881 106.73537 L 166.82978 105.711005 Z M 166.98748 103.660904 " transform="matrix(2.848563,0,0,-2.848563,-451.072872,973.667474)"/>
<path style="fill-rule:evenodd;fill:rgb(100%,100%,80%);fill-opacity:1;stroke-width:0.4;stroke-linecap:butt;stroke-linejoin:round;stroke:rgb(50.1%,50.1%,50.1%);stroke-opacity:1;stroke-miterlimit:10;" d="M 224.461626 112.559303 L 225.794534 112.559303 L 226.614575 111.636415 L 228.561828 110.919222 L 226.204555 108.459101 L 224.051605 109.279141 L 223.641585 110.406354 L 222.61722 110.099182 L 222.310048 110.919222 Z M 224.461626 112.559303 " transform="matrix(2.848563,0,0,-2.848563,-451.072872,973.667474)"/>
<path style="fill-rule:evenodd;fill:rgb(100%,100%,80%);fill-opacity:1;stroke-width:0.4;stroke-linecap:butt;stroke-linejoin:round;stroke:rgb(50.1%,50.1%,50.1%);stroke-opacity:1;stroke-miterlimit:10;" d="M 259.292779 130.682474 L 260.159444 130.162749 L 260.3336 128.776359 L 260.3336 126.179107 L 259.639719 123.406328 L 259.119994 121.501585 L 258.080545 121.3288 L 257.042467 122.36825 L 256.174431 124.792717 L 255.656077 127.044401 L 256.174431 129.297455 L 257.042467 129.643024 L 257.388036 130.682474 Z M 259.292779 130.682474 " transform="matrix(2.848563,0,0,-2.848563,-451.072872,973.667474)"/>
<path style="fill-rule:evenodd;fill:rgb(100%,100%,80%);fill-opacity:1;stroke-width:0.4;stroke-linecap:butt;stroke-linejoin:round;stroke:rgb(50.1%,50.1%,50.1%);stroke-opacity:1;stroke-miterlimit:10;" d="M 279.973433 151.81703 L 279.973433 153.148567 L 279.042317 153.414601 L 279.175334 153.815022 L 279.840417 154.481476 L 279.7074 154.747509 L 278.641896 154.747509 L 278.774913 156.080418 L 280.107821 157.145922 L 284.352011 156.463012 L 285.738401 158.367755 L 288.682593 158.714695 L 290.240396 159.408576 L 291.281216 160.619438 L 292.644294 158.503514 L 289.978476 155.839068 L 289.568456 153.481794 L 288.032594 152.457429 L 287.826898 150.407328 L 285.673949 150.407328 L 284.956757 151.431693 L 283.829544 150.407328 L 281.88229 150.407328 L 280.139361 149.997308 Z M 279.973433 151.81703 " transform="matrix(2.848563,0,0,-2.848563,-451.072872,973.667474)"/>
<path style="fill-rule:evenodd;fill:rgb(100%,100%,80%);fill-opacity:1;stroke-width:0.4;stroke-linecap:butt;stroke-linejoin:round;stroke:rgb(50.1%,50.1%,50.1%);stroke-opacity:1;stroke-miterlimit:10;" d="M 253.193213 118.106233 L 254.258717 117.705812 L 255.724643 117.439779 L 256.923163 118.771316 L 258.123056 120.371629 L 260.121047 119.705175 L 261.853006 117.705812 L 261.453956 114.908349 L 261.053535 111.710465 L 260.920518 108.512582 L 261.053535 106.381573 L 259.454593 104.515227 L 255.325593 104.515227 L 254.258717 105.447714 L 254.925172 111.577449 L 254.925172 113.841474 L 254.124329 115.041366 L 253.058825 116.773324 Z M 253.193213 118.106233 " transform="matrix(2.848563,0,0,-2.848563,-451.072872,973.667474)"/>
<path style="fill-rule:evenodd;fill:rgb(100%,100%,80%);fill-opacity:1;stroke-width:0.4;stroke-linecap:butt;stroke-linejoin:round;stroke:rgb(50.1%,50.1%,50.1%);stroke-opacity:1;stroke-miterlimit:10;" d="M 291.281216 160.619438 L 293.185959 162.351397 L 292.14651 163.218062 L 292.14651 164.431667 L 293.358744 165.642529 L 294.917918 167.028919 L 294.917918 169.453387 L 296.917281 167.674804 L 298.336582 167.201703 L 300.937948 167.281239 L 302.672649 167.754339 L 302.988049 169.804441 L 305.511251 170.277541 L 305.826651 171.301906 L 306.457451 171.537771 L 307.561352 170.671106 L 309.216518 172.248107 L 310.162718 174.140508 L 313.00132 174.218672 L 313.47442 175.007173 L 314.183385 175.007173 L 315.524522 173.903272 L 317.257852 174.298208 L 319.364176 173.372577 L 320.830102 171.773635 L 320.830102 170.573743 L 318.965127 169.907289 L 317.366185 167.108455 L 316.432326 162.178612 L 315.366822 159.38115 L 313.634863 158.448662 L 311.769888 157.782208 L 307.772533 157.649191 L 307.373483 156.317654 L 304.832455 155.285061 L 302.701446 153.952152 L 299.370546 153.952152 L 296.972133 154.88464 L 295.107158 157.017019 L 292.644294 158.503514 Z M 291.281216 160.619438 " transform="matrix(2.848563,0,0,-2.848563,-451.072872,973.667474)"/>
<path style="fill-rule:evenodd;fill:rgb(100%,100%,80%);fill-opacity:1;stroke-width:0.4;stroke-linecap:butt;stroke-linejoin:round;stroke:rgb(50.1%,50.1%,50.1%);stroke-opacity:1;stroke-miterlimit:10;" d="M 294.917918 169.453387 L 293.358744 171.359501 L 293.705684 173.265615 L 294.89872 174.288609 L 296.744496 174.288609 L 298.896074 176.133014 L 298.793226 177.773096 L 300.126135 178.90168 L 301.457673 179.823197 L 303.097754 179.310329 L 304.327814 180.643237 L 306.583612 178.080268 L 308.428017 179.617501 L 311.298159 179.617501 L 312.322524 180.643237 L 315.295514 180.643237 L 318.267132 179.003156 L 317.730952 176.190609 L 317.257852 174.298208 L 315.524522 173.903272 L 314.183385 175.007173 L 313.47442 175.007173 L 313.00132 174.218672 L 310.162718 174.140508 L 309.216518 172.248107 L 307.561352 170.671106 L 306.457451 171.537771 L 305.826651 171.301906 L 305.511251 170.277541 L 302.988049 169.804441 L 302.672649 167.754339 L 300.937948 167.281239 L 298.336582 167.201703 L 296.917281 167.674804 Z M 294.917918 169.453387 " transform="matrix(2.848563,0,0,-2.848563,-451.072872,973.667474)"/>
<path style="fill-rule:evenodd;fill:rgb(100%,100%,80%);fill-opacity:1;stroke-width:0.4;stroke-linecap:butt;stroke-linejoin:round;stroke:rgb(50.1%,50.1%,50.1%);stroke-opacity:1;stroke-miterlimit:10;" d="M 280.139361 149.997308 L 281.88229 150.407328 L 283.829544 150.407328 L 284.956757 151.431693 L 285.673949 150.407328 L 287.826898 150.407328 L 288.032594 152.457429 L 289.568456 153.481794 L 289.978476 155.839068 L 292.644294 158.503514 L 295.107158 157.017019 L 296.972133 154.88464 L 299.370546 153.952152 L 302.701446 153.952152 L 304.832455 155.285061 L 306.431397 150.888656 L 306.698801 148.488872 L 305.50028 148.222839 L 304.832455 149.42136 L 302.701446 149.688764 L 300.836471 149.02231 L 297.372554 149.02231 L 294.706737 149.688764 L 293.508216 148.756277 L 293.373828 147.955434 L 292.574357 148.222839 L 291.909274 149.02231 L 290.443349 149.155326 L 290.576365 145.691409 L 291.508853 145.691409 L 292.441341 144.624534 L 293.240812 142.227492 L 298.30367 138.230138 L 300.836471 135.16527 L 297.505571 136.764212 L 295.773612 137.430667 L 294.17467 137.6967 L 292.574357 137.430667 L 291.508853 138.629187 L 288.044936 141.0276 L 287.112448 143.025592 L 286.712027 146.090459 L 283.648531 149.155326 L 282.982077 147.024318 L 281.516152 145.425376 L 280.317631 147.423368 L 279.91721 148.889293 Z M 280.139361 149.997308 " transform="matrix(2.848563,0,0,-2.848563,-451.072872,973.667474)"/>
<path style="fill-rule:evenodd;fill:rgb(100%,100%,80%);fill-opacity:1;stroke-width:0.4;stroke-linecap:butt;stroke-linejoin:round;stroke:rgb(50.1%,50.1%,50.1%);stroke-opacity:1;stroke-miterlimit:10;" d="M 318.267132 179.003156 L 319.497193 179.413177 L 318.881477 180.130369 L 318.36998 182.180471 L 318.575676 183.820552 L 320.111538 186.689322 L 322.98168 189.662312 L 323.084528 190.482353 L 321.957315 191.916738 L 322.571659 192.736778 L 320.214386 194.992575 L 319.701517 196.222636 L 319.497193 197.247001 L 321.172928 197.046791 L 322.105416 197.846262 L 323.039274 199.712608 L 327.568696 200.377691 L 333.565413 200.911129 L 337.561397 200.377691 L 338.495256 201.044146 L 341.026685 201.044146 L 342.225206 202.242666 L 343.691131 200.911129 L 345.956528 202.510071 L 347.022032 202.909121 L 348.087536 201.7106 L 348.887007 201.7106 L 348.353569 203.575575 L 348.887007 207.172509 L 350.753353 208.372401 L 351.818858 208.904467 L 353.361576 208.527358 L 353.811364 208.977146 L 354.036258 211.22883 L 356.512835 211.003935 L 359.89036 212.804459 L 362.818097 210.327882 L 363.269256 207.626411 L 364.395098 206.500569 L 366.64541 206.950357 L 366.871675 170.021107 L 361.918521 173.173738 L 359.215678 171.371843 L 359.215678 167.54453 L 355.838153 164.167005 L 356.31811 160.856674 L 355.651656 161.790533 L 353.520647 161.656145 L 352.186367 159.79117 L 350.188376 159.658153 L 348.72245 161.390112 L 350.454409 161.122707 L 350.454409 163.12207 L 351.388268 164.987045 L 351.521284 167.119425 L 351.120863 167.651492 L 350.987847 168.452334 L 351.920334 169.117417 L 355.784672 168.9844 L 355.917689 169.650855 L 354.318747 171.916251 L 352.852822 171.916251 L 352.186367 172.848738 L 350.055359 175.114135 L 349.922342 177.246514 L 348.72245 178.578052 L 345.258533 178.845456 L 342.193666 179.776573 L 340.461708 179.776573 L 339.796625 178.978473 L 338.329328 178.711068 L 338.063295 177.778581 L 336.331336 176.713077 L 335.797898 175.380168 L 331.800544 173.781226 L 330.868056 172.316672 L 329.003081 173.515193 L 327.404139 172.848738 L 322.206892 172.981755 L 320.830102 171.773635 L 319.364176 173.372577 L 317.257852 174.298208 L 317.730952 176.190609 Z M 318.267132 179.003156 " transform="matrix(2.848563,0,0,-2.848563,-451.072872,973.667474)"/>
<path style="fill-rule:evenodd;fill:rgb(100%,100%,80%);fill-opacity:1;stroke-width:0.4;stroke-linecap:butt;stroke-linejoin:round;stroke:rgb(50.1%,50.1%,50.1%);stroke-opacity:1;stroke-miterlimit:10;" d="M 319.497193 197.247001 L 319.228417 200.394147 L 317.178316 200.709547 L 317.257852 202.917348 L 319.228417 204.177578 L 319.228417 206.544451 L 318.598988 207.490651 L 317.574623 209.067652 L 316.153951 212.298448 L 319.573986 213.169226 L 320.506474 213.03621 L 321.172928 214.367747 L 323.571341 216.099706 L 324.636845 215.700656 L 324.636845 216.633144 L 323.571341 217.299598 L 324.103407 218.365102 L 323.704357 219.430606 L 323.704357 220.497482 L 325.436316 221.696002 L 325.436316 222.895895 L 326.769225 223.294944 L 326.636208 223.961399 L 325.702349 224.627853 L 325.702349 226.226795 L 327.169646 227.958754 L 329.433671 227.958754 L 329.433671 229.823729 L 330.633563 231.023621 L 332.631555 231.289654 L 333.431026 230.091133 L 333.69843 231.023621 L 335.829438 231.023621 L 336.228488 229.158646 L 338.628272 231.023621 L 339.693777 231.422671 L 341.826156 230.22415 L 343.157694 227.425316 L 343.29071 224.76087 L 344.623619 224.493465 L 344.623619 223.427961 L 345.42309 223.028911 L 345.823511 222.22944 L 348.220553 221.562986 L 348.75399 219.698011 L 349.952511 220.097061 L 351.28542 220.097061 L 351.551453 219.164573 L 353.017378 218.49949 L 353.150395 217.166581 L 352.485312 216.76616 L 352.485312 216.232722 L 351.418436 215.700656 L 351.019387 215.034202 L 349.819495 215.567639 L 348.620974 215.301606 L 348.620974 213.835681 L 350.219916 212.635789 L 350.88637 210.104359 L 351.818858 208.904467 L 350.753353 208.372401 L 348.887007 207.172509 L 348.353569 203.575575 L 348.887007 201.7106 L 348.087536 201.7106 L 347.022032 202.909121 L 345.956528 202.510071 L 343.691131 200.911129 L 342.225206 202.242666 L 341.026685 201.044146 L 338.495256 201.044146 L 337.561397 200.377691 L 333.565413 200.911129 L 327.568696 200.377691 L 323.039274 199.712608 L 322.105416 197.846262 L 321.172928 197.046791 Z M 319.497193 197.247001 " transform="matrix(2.848563,0,0,-2.848563,-451.072872,973.667474)"/>
<path style="fill-rule:evenodd;fill:rgb(100%,100%,80%);fill-opacity:1;stroke-width:0.4;stroke-linecap:butt;stroke-linejoin:round;stroke:rgb(50.1%,50.1%,50.1%);stroke-opacity:1;stroke-miterlimit:10;" d="M 316.153951 212.298448 L 315.838551 213.717749 L 315.051421 214.270385 L 312.37052 215.058885 L 312.378747 218.099069 L 311.313243 218.89854 L 308.781814 218.89854 L 306.563042 219.900964 L 305.316525 221.429969 L 304.651442 223.562349 L 304.518426 225.294307 L 307.583293 227.824366 L 311.447631 228.09177 L 313.312606 228.758224 L 316.776523 228.625208 L 317.842028 230.091133 L 318.907532 228.758224 L 321.706366 229.025629 L 325.702349 226.226795 L 325.702349 224.627853 L 326.636208 223.961399 L 326.769225 223.294944 L 325.436316 222.895895 L 325.436316 221.696002 L 323.704357 220.497482 L 323.704357 219.430606 L 324.103407 218.365102 L 323.571341 217.299598 L 324.636845 216.633144 L 324.636845 215.700656 L 323.571341 216.099706 L 321.172928 214.367747 L 320.506474 213.03621 L 319.573986 213.169226 Z M 316.153951 212.298448 " transform="matrix(2.848563,0,0,-2.848563,-451.072872,973.667474)"/>
<path style="fill-rule:evenodd;fill:rgb(100%,100%,80%);fill-opacity:1;stroke-width:0.4;stroke-linecap:butt;stroke-linejoin:round;stroke:rgb(50.1%,50.1%,50.1%);stroke-opacity:1;stroke-miterlimit:10;" d="M 312.37052 215.058885 L 311.975584 214.03452 L 309.611454 214.190849 L 308.034452 213.56142 L 301.331512 213.56142 L 302.960623 217.424387 L 306.338148 217.424387 L 306.563042 219.900964 L 308.781814 218.89854 L 311.313243 218.89854 L 312.378747 218.099069 Z M 312.37052 215.058885 " transform="matrix(2.848563,0,0,-2.848563,-451.072872,973.667474)"/>
<path style="fill-rule:evenodd;fill:rgb(100%,100%,80%);fill-opacity:1;stroke-width:0.4;stroke-linecap:butt;stroke-linejoin:round;stroke:rgb(50.1%,50.1%,50.1%);stroke-opacity:1;stroke-miterlimit:10;" d="M 300.836471 135.16527 L 298.30367 138.230138 L 293.240812 142.227492 L 292.441341 144.624534 L 291.508853 145.691409 L 290.576365 145.691409 L 290.443349 149.155326 L 291.909274 149.02231 L 292.574357 148.222839 L 293.373828 147.955434 L 293.508216 148.756277 L 294.706737 149.688764 L 297.372554 149.02231 L 300.836471 149.02231 L 302.701446 149.688764 L 304.832455 149.42136 L 305.50028 148.222839 L 306.698801 148.488872 L 308.030339 148.62326 L 307.498272 146.090459 L 306.165363 145.691409 L 309.497635 143.426013 L 308.43076 142.360509 L 309.497635 141.428021 L 309.763668 139.694692 L 307.631289 139.295642 L 307.765677 137.430667 L 306.564413 137.430667 L 306.032347 136.230775 L 305.232876 135.16527 L 305.633297 131.83437 L 302.435413 133.566328 Z M 300.836471 135.16527 " transform="matrix(2.848563,0,0,-2.848563,-451.072872,973.667474)"/>
<path style="fill-rule:evenodd;fill:rgb(100%,100%,80%);fill-opacity:1;stroke-width:0.4;stroke-linecap:butt;stroke-linejoin:round;stroke:rgb(50.1%,50.1%,50.1%);stroke-opacity:1;stroke-miterlimit:10;" d="M 306.698801 148.488872 L 306.431397 150.888656 L 304.832455 155.285061 L 307.373483 156.317654 L 307.772533 157.649191 L 311.769888 157.782208 L 312.436342 156.317654 L 313.902268 155.516811 L 314.168301 154.185274 L 315.634226 152.586332 L 318.298672 151.919878 L 318.431689 149.654482 L 321.895606 148.188556 L 322.962481 150.320936 L 323.894969 149.388448 L 324.69444 147.256069 L 324.69444 145.657127 L 323.627564 145.258077 L 323.361531 143.792152 L 324.561423 142.859664 L 324.69444 141.393739 L 325.759944 141.393739 L 327.624919 139.66178 L 326.692432 137.529401 L 325.493911 137.396384 L 326.160365 135.265376 L 325.759944 133.399029 L 322.695077 133.132996 L 320.429681 131.800087 L 318.965127 131.534054 L 317.09878 129.268658 L 314.434334 132.732575 L 311.769888 133.532046 L 310.970417 132.067492 L 310.303963 130.734583 L 310.970417 127.935749 L 305.633297 131.83437 L 305.232876 135.16527 L 306.032347 136.230775 L 306.564413 137.430667 L 307.765677 137.430667 L 307.631289 139.295642 L 309.763668 139.694692 L 309.497635 141.428021 L 308.43076 142.360509 L 309.497635 143.426013 L 306.165363 145.691409 L 307.498272 146.090459 L 308.030339 148.62326 Z M 306.698801 148.488872 " transform="matrix(2.848563,0,0,-2.848563,-451.072872,973.667474)"/>
<path style="fill-rule:evenodd;fill:rgb(100%,100%,80%);fill-opacity:1;stroke-width:0.4;stroke-linecap:butt;stroke-linejoin:round;stroke:rgb(50.1%,50.1%,50.1%);stroke-opacity:1;stroke-miterlimit:10;" d="M 311.769888 157.782208 L 313.634863 158.448662 L 315.366822 159.38115 L 316.432326 162.178612 L 317.366185 167.108455 L 318.965127 169.907289 L 320.830102 170.573743 L 320.830102 171.773635 L 322.206892 172.981755 L 327.404139 172.848738 L 329.003081 173.515193 L 330.868056 172.316672 L 331.800544 173.781226 L 335.797898 175.380168 L 336.331336 176.713077 L 338.063295 177.778581 L 339.396203 177.246514 L 340.062658 176.179639 L 340.995145 174.44768 L 342.193666 172.981755 L 342.993137 172.981755 L 344.459062 170.982392 L 345.657583 170.982392 L 346.857475 168.9844 L 346.857475 167.252442 L 347.389542 166.452971 L 347.789963 164.187575 L 348.72245 161.390112 L 350.188376 159.658153 L 352.186367 159.79117 L 353.520647 161.656145 L 355.651656 161.790533 L 356.31811 160.856674 L 356.71716 158.325245 L 356.183722 157.791807 L 354.852185 157.926195 L 353.386259 158.592649 L 353.386259 157.65879 L 354.451764 156.327253 L 353.653664 156.460269 L 353.386259 152.462915 L 353.918326 149.531064 L 351.25388 149.665452 L 350.321392 150.463552 L 345.39155 150.463552 L 340.995145 147.533072 L 340.727741 146.33318 L 339.263187 145.134659 L 333.266469 144.73561 L 328.469643 144.73561 L 327.537156 144.335189 L 326.205618 144.73561 L 326.737685 146.200164 L 324.69444 147.256069 L 323.894969 149.388448 L 322.962481 150.320936 L 321.895606 148.188556 L 318.431689 149.654482 L 318.298672 151.919878 L 315.634226 152.586332 L 314.168301 154.185274 L 313.902268 155.516811 L 312.436342 156.317654 Z M 311.769888 157.782208 " transform="matrix(2.848563,0,0,-2.848563,-451.072872,973.667474)"/>
<path style="fill-rule:evenodd;fill:rgb(100%,100%,80%);fill-opacity:1;stroke-width:0.4;stroke-linecap:butt;stroke-linejoin:round;stroke:rgb(50.1%,50.1%,50.1%);stroke-opacity:1;stroke-miterlimit:10;" d="M 310.970417 127.935749 L 310.303963 130.734583 L 310.970417 132.067492 L 311.769888 133.532046 L 314.434334 132.732575 L 317.09878 129.268658 L 316.69973 126.471195 L 317.233168 125.803369 L 317.766606 123.805378 L 318.564705 122.87289 L 320.030631 122.472469 L 320.429681 121.273948 L 320.830102 120.341461 L 319.764598 119.54199 L 319.23116 118.742519 L 319.098143 116.877544 L 317.766606 116.211089 L 317.632218 115.677652 L 318.431689 115.012568 L 317.233168 112.880189 L 316.30068 112.880189 L 315.499838 115.544635 L 314.434334 116.211089 L 312.569359 116.744527 L 312.702376 118.476486 L 312.035921 119.408973 L 311.902905 123.273311 L 312.035921 126.336807 L 312.035921 127.802732 Z M 310.970417 127.935749 " transform="matrix(2.848563,0,0,-2.848563,-451.072872,973.667474)"/>
<path style="fill-rule:evenodd;fill:rgb(100%,100%,80%);fill-opacity:1;stroke-width:0.4;stroke-linecap:butt;stroke-linejoin:round;stroke:rgb(50.1%,50.1%,50.1%);stroke-opacity:1;stroke-miterlimit:10;" d="M 317.09878 129.268658 L 318.965127 131.534054 L 320.429681 131.800087 L 322.695077 133.132996 L 325.759944 133.399029 L 327.892324 132.067492 L 329.223861 131.000616 L 329.223861 127.403683 L 328.557407 125.803369 L 324.960473 125.138286 L 323.760581 123.273311 L 320.030631 122.472469 L 318.564705 122.87289 L 317.766606 123.805378 L 317.233168 125.803369 L 316.69973 126.471195 Z M 317.09878 129.268658 " transform="matrix(2.848563,0,0,-2.848563,-451.072872,973.667474)"/>
<path style="fill-rule:evenodd;fill:rgb(100%,100%,80%);fill-opacity:1;stroke-width:0.4;stroke-linecap:butt;stroke-linejoin:round;stroke:rgb(50.1%,50.1%,50.1%);stroke-opacity:1;stroke-miterlimit:10;" d="M 325.759944 133.399029 L 326.160365 135.265376 L 325.493911 137.396384 L 326.692432 137.529401 L 327.624919 139.66178 L 325.759944 141.393739 L 324.69444 141.393739 L 324.561423 142.859664 L 323.361531 143.792152 L 323.627564 145.258077 L 324.69444 145.657127 L 324.69444 147.256069 L 326.737685 146.200164 L 326.205618 144.73561 L 327.537156 144.335189 L 328.469643 144.73561 L 333.266469 144.73561 L 339.263187 145.134659 L 340.727741 146.33318 L 340.995145 147.533072 L 345.39155 150.463552 L 350.321392 150.463552 L 351.25388 149.665452 L 353.918326 149.531064 L 354.318747 148.598577 L 354.451764 147.666089 L 351.920334 146.067147 L 352.586789 142.202809 L 351.920334 142.069792 L 351.654301 140.871271 L 350.587425 140.736884 L 350.85483 139.671379 L 352.186367 139.671379 L 354.051343 137.272967 L 353.253243 136.739529 L 351.654301 136.473496 L 349.255888 136.872545 L 348.456417 135.407991 L 346.990492 135.541008 L 346.411801 133.532046 L 344.947247 133.132996 L 345.878363 131.800087 L 345.480685 130.46855 L 342.28143 129.534691 L 339.483967 129.667708 L 338.018042 130.068129 L 335.486612 130.068129 L 334.954546 129.135641 L 331.356241 128.203154 L 331.090208 127.403683 L 329.223861 127.403683 L 329.223861 131.000616 L 327.892324 132.067492 Z M 325.759944 133.399029 " transform="matrix(2.848563,0,0,-2.848563,-451.072872,973.667474)"/>
<path style="fill-rule:evenodd;fill:rgb(100%,100%,80%);fill-opacity:1;stroke-width:0.4;stroke-linecap:butt;stroke-linejoin:round;stroke:rgb(50.1%,50.1%,50.1%);stroke-opacity:1;stroke-miterlimit:10;" d="M 317.233168 112.880189 L 318.431689 115.012568 L 317.632218 115.677652 L 317.766606 116.211089 L 319.098143 116.877544 L 319.23116 118.742519 L 319.764598 119.54199 L 320.830102 120.341461 L 320.429681 121.273948 L 320.030631 122.472469 L 323.760581 123.273311 L 324.960473 125.138286 L 328.557407 125.803369 L 329.223861 127.403683 L 331.090208 127.403683 L 331.356241 128.203154 L 334.954546 129.135641 L 335.486612 130.068129 L 338.018042 130.068129 L 339.483967 129.667708 L 342.28143 129.534691 L 345.480685 130.46855 L 345.878363 131.800087 L 344.947247 133.132996 L 346.411801 133.532046 L 348.010743 132.999979 L 348.145131 131.26665 L 347.212643 130.335533 L 347.34566 129.135641 L 347.74471 128.469187 L 346.411801 126.471195 L 340.815504 127.270666 L 340.017405 126.070774 L 337.218571 126.070774 L 335.353596 123.273311 L 338.551479 121.007915 L 337.885025 120.341461 L 335.220579 122.073419 L 334.954546 120.874898 L 337.085554 119.408973 L 335.885662 119.141569 L 334.28672 120.474477 L 333.355604 120.474477 L 334.820158 118.875535 L 334.421108 118.476486 L 332.421745 120.208444 L 329.890315 121.940403 L 329.223861 121.408336 L 329.223861 118.210452 L 331.623645 115.945056 L 331.756662 115.411618 L 332.955183 115.145585 L 334.554125 113.28061 L 332.021324 113.67966 L 332.021324 112.346751 L 339.35095 110.214371 L 340.150421 108.482413 L 342.681851 106.883471 L 342.28143 105.817967 L 339.884388 107.283892 L 340.017405 103.552571 L 336.686504 105.551934 L 334.554125 103.952992 L 337.885025 101.554579 L 335.885662 99.955637 L 335.087562 101.022512 L 333.621637 101.288546 L 333.754654 100.22167 L 335.486612 98.090662 L 336.02005 95.291828 L 336.952537 93.827274 L 335.885662 94.492357 L 334.421108 95.291828 L 334.554125 96.224315 L 333.754654 96.224315 L 333.621637 93.293836 L 332.689149 93.426853 L 332.689149 94.759761 L 330.95582 96.624736 L 329.890315 96.757753 L 329.890315 95.025795 L 329.223861 94.892778 L 328.02534 96.49172 L 327.491903 97.957645 L 328.02534 98.356695 L 327.892324 99.422199 L 323.760581 102.221033 L 325.626927 104.086008 L 326.958465 104.219025 L 327.624919 105.817967 L 333.088199 104.486429 L 335.220579 105.68495 L 335.087562 106.218388 L 330.689786 107.150876 L 329.090844 106.218388 L 323.627564 105.817967 L 320.963118 108.749817 L 322.829465 109.283255 L 322.829465 109.948338 L 320.564068 109.815322 Z M 317.233168 112.880189 " transform="matrix(2.848563,0,0,-2.848563,-451.072872,973.667474)"/>
<path style="fill-rule:evenodd;fill:rgb(100%,100%,80%);fill-opacity:1;stroke-width:0.4;stroke-linecap:butt;stroke-linejoin:round;stroke:rgb(50.1%,50.1%,50.1%);stroke-opacity:1;stroke-miterlimit:10;" d="M 346.411801 126.471195 L 347.74471 128.469187 L 347.34566 129.135641 L 347.212643 130.335533 L 348.145131 131.26665 L 348.010743 132.999979 L 346.411801 133.532046 L 346.990492 135.541008 L 348.456417 135.407991 L 349.255888 136.872545 L 351.654301 136.473496 L 353.253243 136.739529 L 354.051343 137.272967 L 354.58478 136.358306 L 355.118218 135.29143 L 356.449755 134.759364 L 357.383614 134.091538 L 359.381606 134.091538 L 360.046689 133.426455 L 361.246581 133.293439 L 361.246581 133.958522 L 364.178432 134.491959 L 367.108911 134.624976 L 366.975894 103.179576 L 364.976531 102.913542 L 364.577482 101.981055 L 363.778011 101.981055 L 363.377589 102.647509 L 364.577482 104.379468 L 363.511977 104.379468 L 361.113565 103.046559 L 358.715152 102.913542 L 359.913672 104.379468 L 359.780656 105.045922 L 357.649647 105.045922 L 357.649647 109.442327 L 351.785946 110.241798 L 351.386896 112.907615 L 352.985838 111.574706 L 354.717797 111.440318 L 354.717797 112.507194 L 353.384888 112.641582 L 353.519276 113.840103 L 354.58478 114.77259 L 353.251872 115.304657 L 353.519276 116.637565 L 351.65293 117.837457 L 352.985838 118.769945 L 352.85145 119.968466 L 348.455046 117.970474 L 348.189013 121.833441 L 351.519913 125.431746 L 355.384251 125.965183 L 356.316739 127.163704 L 362.313457 127.429737 L 362.845523 128.097563 L 360.847531 128.895663 L 365.644357 131.161059 L 361.780019 131.827513 L 355.784672 130.627621 L 354.317376 130.627621 L 353.118855 127.830159 L 350.986475 126.364233 Z M 346.411801 126.471195 " transform="matrix(2.848563,0,0,-2.848563,-451.072872,973.667474)"/>
<path style="fill-rule:evenodd;fill:rgb(100%,100%,80%);fill-opacity:1;stroke-width:0.4;stroke-linecap:butt;stroke-linejoin:round;stroke:rgb(50.1%,50.1%,50.1%);stroke-opacity:1;stroke-miterlimit:10;" d="M 356.293427 89.67359 L 356.355135 88.156927 L 355.990368 87.672856 L 354.35303 87.127076 L 352.836366 86.822647 L 350.957678 86.21653 L 350.047131 85.610413 L 348.349455 85.731088 L 347.560955 86.581297 L 341.192613 86.641634 L 341.495672 88.521694 L 343.315394 88.521694 L 343.861173 89.127811 L 344.589336 88.036252 L 345.923616 88.156927 L 347.075513 88.764415 L 352.898075 89.249857 L 353.139425 87.915577 L 354.11168 87.915577 L 354.232355 88.582031 Z M 356.293427 89.67359 " transform="matrix(2.848563,0,0,-2.848563,-451.072872,973.667474)"/>
<path style="fill-rule:evenodd;fill:rgb(100%,100%,80%);fill-opacity:1;stroke-width:0.4;stroke-linecap:butt;stroke-linejoin:round;stroke:rgb(50.1%,50.1%,50.1%);stroke-opacity:1;stroke-miterlimit:10;" d="M 348.72245 161.390112 L 347.789963 164.187575 L 347.389542 166.452971 L 346.857475 167.252442 L 346.857475 168.9844 L 345.657583 170.982392 L 344.459062 170.982392 L 342.993137 172.981755 L 342.193666 172.981755 L 340.995145 174.44768 L 340.062658 176.179639 L 339.396203 177.246514 L 338.063295 177.778581 L 338.329328 178.711068 L 339.796625 178.978473 L 340.461708 179.776573 L 342.193666 179.776573 L 345.258533 178.845456 L 348.72245 178.578052 L 349.922342 177.246514 L 350.055359 175.114135 L 352.186367 172.848738 L 352.852822 171.916251 L 354.318747 171.916251 L 355.917689 169.650855 L 355.784672 168.9844 L 351.920334 169.117417 L 350.987847 168.452334 L 351.120863 167.651492 L 351.521284 167.119425 L 351.388268 164.987045 L 350.454409 163.12207 L 350.454409 161.122707 Z M 348.72245 161.390112 " transform="matrix(2.848563,0,0,-2.848563,-451.072872,973.667474)"/>
<path style="fill-rule:evenodd;fill:rgb(100%,100%,80%);fill-opacity:1;stroke-width:0.4;stroke-linecap:butt;stroke-linejoin:round;stroke:rgb(50.1%,50.1%,50.1%);stroke-opacity:1;stroke-miterlimit:10;" d="M 330.633563 231.023621 L 329.433671 229.823729 L 329.433671 227.958754 L 327.169646 227.958754 L 325.702349 226.226795 L 321.706366 229.025629 L 318.907532 228.758224 L 317.842028 230.091133 L 316.776523 228.625208 L 313.312606 228.758224 L 311.447631 228.09177 L 307.583293 227.824366 L 304.518426 225.294307 L 303.532457 227.21962 L 303.705242 229.991028 L 304.397751 231.895771 L 305.091631 235.533844 L 307.688884 236.918862 L 310.287507 234.841335 L 311.672525 233.454945 L 313.404484 232.762436 L 315.136442 235.014119 L 314.443933 239.517485 L 315.830323 241.076659 L 319.813965 240.556935 L 320.680629 239.34333 L 322.412588 238.997761 L 325.183996 239.691641 L 327.261523 238.65082 L 327.608464 235.359688 L 329.687362 233.627729 Z M 330.633563 231.023621 " transform="matrix(2.848563,0,0,-2.848563,-451.072872,973.667474)"/>
<path style="fill-rule:evenodd;fill:rgb(100%,100%,80%);fill-opacity:1;stroke-width:0.4;stroke-linecap:butt;stroke-linejoin:round;stroke:rgb(50.1%,50.1%,50.1%);stroke-opacity:1;stroke-miterlimit:10;" d="M 351.818858 208.904467 L 350.88637 210.104359 L 350.219916 212.635789 L 348.620974 213.835681 L 348.620974 215.301606 L 349.819495 215.567639 L 351.019387 215.034202 L 351.418436 215.700656 L 352.485312 216.232722 L 352.485312 216.76616 L 353.150395 217.166581 L 353.017378 218.49949 L 351.551453 219.164573 L 351.28542 220.097061 L 349.952511 220.097061 L 348.75399 219.698011 L 348.220553 221.562986 L 345.823511 222.22944 L 345.42309 223.028911 L 344.623619 223.427961 L 344.623619 224.493465 L 343.29071 224.76087 L 343.157694 227.425316 L 341.826156 230.22415 L 339.693777 231.422671 L 338.628272 231.023621 L 336.228488 229.158646 L 335.829438 231.023621 L 333.69843 231.023621 L 333.431026 230.091133 L 332.631555 231.289654 L 330.633563 231.023621 L 329.687362 233.627729 L 327.608464 235.359688 L 327.261523 238.65082 L 325.183996 239.691641 L 325.183996 241.076659 L 326.39623 242.116109 L 324.664271 244.367792 L 323.452037 247.658925 L 323.797606 249.390883 L 324.664271 252.8548 L 327.239582 257.164813 L 331.068267 258.290654 L 322.051935 259.615335 L 328.98114 274.68598 L 328.98114 279.189346 L 327.075026 281.09546 L 322.9186 282.480479 L 323.091384 283.692713 L 324.303618 284.904946 L 323.958049 286.811061 L 321.87915 287.50357 L 321.359426 289.928037 L 319.627467 290.620547 L 318.760802 294.60556 L 318.933587 296.163362 L 319.280527 297.376968 L 318.241077 299.454495 L 317.201628 299.628651 L 315.124101 303.092568 L 314.604376 303.265352 L 314.77716 307.77009 L 315.46967 308.462599 L 315.296885 310.020402 L 312.872417 312.100672 L 310.273794 312.965966 L 309.407129 314.179571 L 310.099638 316.084314 L 309.06156 317.643488 L 310.099638 318.508781 L 310.966303 318.681566 L 310.966303 320.413524 L 312.178537 322.146854 L 312.178537 323.359088 L 314.084651 323.359088 L 313.564927 324.918262 L 318.810169 326.297795 L 320.385799 322.470482 L 324.664271 324.722165 L 328.041796 324.722165 L 337.724582 321.569535 L 343.35379 319.76764 L 346.281527 315.940327 L 346.056633 310.985801 L 342.679108 307.158488 L 333.44611 306.032646 L 322.186323 308.284329 L 332.320268 301.52928 L 332.320268 297.92549 L 334.571952 295.673806 L 335.248005 293.197229 L 339.301583 292.296282 L 344.704526 290.945546 L 346.056633 292.747441 L 343.803578 295.448912 L 342.452843 294.772859 L 339.301583 296.799648 L 339.751371 299.051331 L 342.227949 299.727385 L 344.029844 298.150384 L 346.281527 298.826437 L 348.98437 298.150384 L 351.234682 299.952279 L 351.234682 302.203962 L 348.758104 301.979068 L 346.95758 303.779592 L 346.95758 307.608276 L 348.758104 310.084853 L 349.659052 313.462378 L 353.261471 314.589591 L 355.739419 313.237484 L 355.514525 315.490538 L 354.838472 317.74085 L 352.811683 320.893481 L 351.910735 319.992534 L 350.784893 322.245588 L 350.784893 324.722165 L 348.98437 327.873425 L 348.98437 330.126479 L 352.811683 331.477215 L 355.964313 328.09969 L 353.71263 325.171953 L 353.71263 322.921642 L 357.991102 321.344641 L 361.818415 323.37143 L 359.791626 328.324584 L 362.269575 329.67532 L 361.593521 331.252321 L 363.845205 335.079634 L 364.07147 337.331317 L 367.222729 341.609789 L 366.64541 206.950357 L 364.395098 206.500569 L 363.269256 207.626411 L 362.818097 210.327882 L 359.89036 212.804459 L 356.512835 211.003935 L 354.036258 211.22883 L 353.811364 208.977146 L 353.361576 208.527358 Z M 351.818858 208.904467 " transform="matrix(2.848563,0,0,-2.848563,-451.072872,973.667474)"/>
<path style="fill-rule:evenodd;fill:rgb(100%,100%,80%);fill-opacity:1;stroke-width:0.4;stroke-linecap:butt;stroke-linejoin:round;stroke:rgb(50.1%,50.1%,50.1%);stroke-opacity:1;stroke-miterlimit:10;" d="M 325.183996 239.691641 L 322.412588 238.997761 L 320.680629 239.34333 L 319.813965 240.556935 L 315.830323 241.076659 L 314.443933 239.517485 L 314.271149 241.943324 L 313.751424 242.634462 L 312.193621 241.943324 L 310.807232 242.981402 L 309.420842 247.831709 L 312.53919 250.257548 L 315.657538 250.950057 L 316.177263 252.162291 L 321.545923 251.989507 L 324.664271 252.8548 L 323.797606 249.390883 L 323.452037 247.658925 L 324.664271 244.367792 L 326.39623 242.116109 L 325.183996 241.076659 Z M 325.183996 239.691641 " transform="matrix(2.848563,0,0,-2.848563,-451.072872,973.667474)"/>
<path style="fill-rule:evenodd;fill:rgb(100%,100%,80%);fill-opacity:1;stroke-width:0.4;stroke-linecap:butt;stroke-linejoin:round;stroke:rgb(50.1%,50.1%,50.1%);stroke-opacity:1;stroke-miterlimit:10;" d="M 309.248058 242.288893 L 309.593627 243.155558 L 306.996374 243.328343 L 305.091631 241.769169 L 304.74332 241.076659 L 305.956925 239.170545 Z M 309.248058 242.288893 " transform="matrix(2.848563,0,0,-2.848563,-451.072872,973.667474)"/>
<path style="fill-rule:evenodd;fill:rgb(100%,100%,80%);fill-opacity:1;stroke-width:0.4;stroke-linecap:butt;stroke-linejoin:round;stroke:rgb(50.1%,50.1%,50.1%);stroke-opacity:1;stroke-miterlimit:10;" d="M 293.312119 236.053568 L 295.044078 236.053568 L 295.044078 232.589651 L 293.831844 231.203262 L 292.792395 231.376046 L 292.445454 234.147454 Z M 293.312119 236.053568 " transform="matrix(2.848563,0,0,-2.848563,-451.072872,973.667474)"/>
<path style="fill-rule:evenodd;fill:rgb(100%,100%,80%);fill-opacity:1;stroke-width:0.4;stroke-linecap:butt;stroke-linejoin:round;stroke:rgb(50.1%,50.1%,50.1%);stroke-opacity:1;stroke-miterlimit:10;" d="M 310.099638 318.508781 L 309.06156 317.643488 L 310.099638 316.084314 L 309.407129 314.179571 L 310.273794 312.965966 L 312.872417 312.100672 L 315.296885 310.020402 L 315.46967 308.462599 L 314.77716 307.77009 L 314.604376 303.265352 L 315.124101 303.092568 L 317.201628 299.628651 L 318.241077 299.454495 L 319.280527 297.376968 L 318.933587 296.163362 L 318.760802 294.60556 L 319.627467 290.620547 L 321.359426 289.928037 L 321.87915 287.50357 L 323.958049 286.811061 L 324.303618 284.904946 L 323.091384 283.692713 L 322.9186 282.480479 L 327.075026 281.09546 L 328.98114 279.189346 L 328.98114 274.68598 L 322.051935 259.615335 L 317.548568 257.883377 L 316.16355 256.151418 L 314.431591 256.325574 L 312.699633 254.246675 L 306.635721 252.340561 L 300.573181 256.671143 L 300.227612 263.600348 L 298.668438 265.332307 L 298.841222 267.58399 L 297.801773 268.796224 L 297.974557 271.047907 L 298.147342 273.819315 L 300.400396 275.204333 L 301.439846 278.669621 L 303.171804 279.709071 L 303.517373 281.268245 L 304.038469 283.172988 L 305.076547 284.386593 L 305.770428 287.15663 L 306.982661 287.50357 L 307.502386 288.715804 L 306.635721 289.409684 L 306.115996 291.834152 L 302.479295 292.526661 L 302.479295 293.738895 L 300.573181 295.990578 L 300.573181 300.495316 L 299.015378 302.05449 L 298.495653 304.478957 L 298.147342 307.77009 L 295.204521 310.367342 L 293.472562 310.541498 L 293.125622 311.234007 L 289.313393 314.179571 L 290.007274 316.084314 L 291.046723 316.257098 L 292.778682 314.352355 L 293.125622 313.658475 L 294.683425 312.446241 L 296.415383 312.446241 L 297.628988 314.179571 L 300.573181 312.965966 L 301.26569 313.658475 L 301.26569 314.870709 L 302.479295 315.911529 L 301.61263 317.122392 L 301.61263 321.280189 L 302.997648 322.839363 L 305.770428 324.745478 L 306.808506 323.704657 L 309.581285 322.839363 L 309.581285 320.413524 Z M 310.099638 318.508781 " transform="matrix(2.848563,0,0,-2.848563,-451.072872,973.667474)"/>
<path style="fill-rule:evenodd;fill:rgb(100%,100%,80%);fill-opacity:1;stroke-width:0.4;stroke-linecap:butt;stroke-linejoin:round;stroke:rgb(50.1%,50.1%,50.1%);stroke-opacity:1;stroke-miterlimit:10;" d="M 310.099638 318.508781 L 309.581285 320.413524 L 309.581285 322.839363 L 306.808506 323.704657 L 305.770428 324.745478 L 302.997648 322.839363 L 301.61263 321.280189 L 301.61263 317.122392 L 302.479295 315.911529 L 301.26569 314.870709 L 301.26569 313.658475 L 300.573181 312.965966 L 297.628988 314.179571 L 296.415383 312.446241 L 294.683425 312.446241 L 293.125622 313.658475 L 292.778682 314.352355 L 291.046723 316.257098 L 290.007274 316.084314 L 289.313393 314.179571 L 287.928375 313.83263 L 288.4481 312.100672 L 287.40865 308.982324 L 283.597793 309.847617 L 283.07944 308.635384 L 283.425009 306.903425 L 282.906655 305.691191 L 281.173325 305.863976 L 279.961092 304.651742 L 279.961092 302.919783 L 278.921642 302.05449 L 278.921642 300.6681 L 280.133876 299.108926 L 277.362468 295.298069 L 277.362468 292.352505 L 274.938 291.487212 L 275.110785 285.597455 L 272.859102 280.921305 L 274.418276 279.536286 L 274.245491 277.110447 L 270.434634 276.937663 L 268.354364 272.261512 L 269.048244 265.852031 L 269.567969 263.253408 L 269.048244 262.213958 L 269.740754 260.309216 L 271.299928 258.577257 L 271.646868 256.498358 L 269.395185 255.458909 L 270.954359 252.513345 L 270.780203 249.049428 L 268.354364 248.184135 L 268.354364 246.27802 L 268.52852 243.506612 L 268.008795 241.082145 L 266.622405 242.641319 L 263.852369 245.932451 L 263.158488 241.947438 L 261.253745 241.427714 L 256.056499 236.059054 L 253.112306 234.672664 L 251.207563 235.019604 L 248.954509 237.271287 L 247.049766 238.830461 L 246.530041 241.600498 L 248.262 241.774654 L 248.60894 244.373277 L 245.837532 243.679397 L 245.663376 245.759667 L 245.663376 247.66441 L 247.916431 250.261662 L 246.010316 251.475267 L 245.145023 252.167776 L 245.317807 254.593615 L 245.663376 258.057532 L 245.663376 261.001725 L 247.56949 263.773133 L 252.592582 268.276499 L 257.788457 271.914572 L 261.77347 274.511824 L 264.544878 280.05464 L 266.969346 281.786598 L 264.197938 283.000203 L 267.316286 283.000203 L 268.702676 284.904946 L 269.048244 290.102193 L 275.110785 302.05449 L 275.110785 304.998682 L 276.497175 304.132017 L 278.401917 307.77009 L 277.362468 307.77009 L 274.245491 306.903425 L 269.567969 303.612292 L 269.567969 304.998682 L 272.166593 307.250365 L 274.418276 307.942874 L 274.418276 309.502048 L 273.031886 309.502048 L 273.031886 310.714282 L 274.59106 311.234007 L 277.536624 314.52514 L 277.709408 312.620397 L 279.614151 313.658475 L 279.441367 315.217649 L 280.826385 317.122392 L 282.212775 317.122392 L 284.117518 321.972698 L 286.196416 323.359088 L 287.755591 318.163212 L 288.4481 322.492423 L 290.872567 320.760465 L 290.872567 326.130496 L 293.298406 326.823005 L 296.069814 327.515514 L 296.415383 329.941353 L 298.495653 329.594413 L 298.668438 331.153587 L 299.880672 331.326371 L 298.495653 324.745478 L 299.360947 324.571322 L 301.092905 330.633862 L 301.95957 327.169945 L 302.997648 327.862454 L 302.824864 332.193036 L 306.462937 331.500527 L 312.525477 329.594413 L 309.754069 325.610771 L 313.564927 324.918262 L 314.084651 323.359088 L 312.178537 323.359088 L 312.178537 322.146854 L 310.966303 320.413524 L 310.966303 318.681566 Z M 310.099638 318.508781 " transform="matrix(2.848563,0,0,-2.848563,-451.072872,973.667474)"/>
<path style="fill-rule:evenodd;fill:rgb(100%,100%,80%);fill-opacity:1;stroke-width:0.4;stroke-linecap:butt;stroke-linejoin:round;stroke:rgb(50.1%,50.1%,50.1%);stroke-opacity:1;stroke-miterlimit:10;" d="M 289.313393 314.179571 L 293.125622 311.234007 L 293.472562 310.541498 L 295.204521 310.367342 L 298.147342 307.77009 L 298.495653 304.478957 L 299.015378 302.05449 L 300.573181 300.495316 L 300.573181 295.990578 L 302.479295 293.738895 L 302.479295 292.526661 L 299.360947 292.006936 L 297.628988 292.352505 L 297.628988 289.409684 L 296.069814 289.061373 L 295.89703 286.118551 L 295.030365 285.077731 L 295.377305 283.692713 L 296.762323 282.133538 L 295.722874 280.74852 L 295.89703 278.322681 L 294.683425 276.590723 L 292.778682 276.937663 L 292.605897 275.031549 L 290.872567 273.993471 L 288.79504 270.702338 L 287.40865 267.58399 L 286.023632 266.891481 L 286.370572 261.694234 L 286.023632 260.827569 L 286.023632 255.804478 L 287.755591 254.593615 L 291.913388 251.301111 L 293.472562 249.049428 L 292.086173 246.970529 L 292.258957 245.065786 L 292.086173 243.506612 L 290.354214 242.294379 L 289.313393 243.159672 L 287.063081 241.082145 L 286.196416 226.878165 L 284.638614 223.241463 L 280.30666 223.414248 L 280.30666 221.855074 L 279.094427 221.335349 L 278.921642 217.524492 L 274.938 217.177552 L 273.724395 220.123115 L 271.819652 223.067308 L 273.724395 225.146206 L 273.204671 225.838716 L 270.260478 229.822357 L 269.221029 233.80737 L 268.87546 237.444072 L 267.48907 238.483521 L 266.622405 242.641319 L 268.008795 241.082145 L 268.52852 243.506612 L 268.354364 246.27802 L 268.354364 248.184135 L 270.780203 249.049428 L 270.954359 252.513345 L 269.395185 255.458909 L 271.646868 256.498358 L 271.299928 258.577257 L 269.740754 260.309216 L 269.048244 262.213958 L 269.567969 263.253408 L 269.048244 265.852031 L 268.354364 272.261512 L 270.434634 276.937663 L 274.245491 277.110447 L 274.418276 279.536286 L 272.859102 280.921305 L 275.110785 285.597455 L 274.938 291.487212 L 277.362468 292.352505 L 277.362468 295.298069 L 280.133876 299.108926 L 278.921642 300.6681 L 278.921642 302.05449 L 279.961092 302.919783 L 279.961092 304.651742 L 281.173325 305.863976 L 282.906655 305.691191 L 283.425009 306.903425 L 283.07944 308.635384 L 283.597793 309.847617 L 287.40865 308.982324 L 288.4481 312.100672 L 287.928375 313.83263 Z M 289.313393 314.179571 " transform="matrix(2.848563,0,0,-2.848563,-451.072872,973.667474)"/>
<path style="fill-rule:evenodd;fill:rgb(100%,100%,80%);fill-opacity:1;stroke-width:0.4;stroke-linecap:butt;stroke-linejoin:round;stroke:rgb(50.1%,50.1%,50.1%);stroke-opacity:1;stroke-miterlimit:10;" d="M 355.514525 341.160001 L 359.566732 341.160001 L 359.566732 338.683424 L 358.890679 336.656635 L 356.414101 335.755687 L 355.289631 338.45853 Z M 355.514525 341.160001 " transform="matrix(2.848563,0,0,-2.848563,-451.072872,973.667474)"/>
<path style="fill-rule:evenodd;fill:rgb(100%,100%,80%);fill-opacity:1;stroke-width:0.4;stroke-linecap:butt;stroke-linejoin:round;stroke:rgb(50.1%,50.1%,50.1%);stroke-opacity:1;stroke-miterlimit:10;" d="M 174.292423 289.198503 L 172.214896 291.277402 L 170.655722 291.624342 L 169.963213 293.703241 L 168.749608 295.08963 L 164.765966 296.300493 L 164.765966 297.514098 L 166.32514 297.339942 L 167.884314 297.859667 L 167.884314 299.073272 L 167.190434 300.631075 L 168.05847 301.670524 L 168.231254 302.190249 L 164.247613 303.923579 L 164.593181 305.134441 L 168.749608 304.096363 L 169.096548 305.481382 L 171.175447 305.828322 L 169.790428 307.56028 L 165.979571 308.080005 L 165.458475 309.811963 L 167.364589 310.157532 L 168.404039 311.889491 L 169.790428 312.583371 L 171.002662 310.331688 L 172.04074 309.984748 L 171.002662 313.275881 L 172.560465 313.275881 L 173.599914 312.063647 L 173.599914 310.157532 L 174.813519 308.94667 L 173.254345 307.733065 L 173.081561 304.788872 L 176.892418 305.655537 L 177.065203 307.905849 L 177.930496 308.080005 L 178.797161 305.655537 L 179.48967 305.655537 L 179.48967 306.520831 L 181.394413 307.21334 L 184.85833 304.614717 L 185.552211 305.134441 L 188.323619 304.614717 L 188.323619 307.387496 L 190.228362 306.348046 L 190.402517 303.923579 L 193.173925 304.441932 L 191.614751 302.882758 L 192.308632 300.11135 L 194.04059 297.686883 L 192.308632 293.530456 L 190.576673 292.316851 L 187.63111 290.584893 L 186.9386 291.451558 L 183.126372 289.892384 L 178.277436 290.065168 L 177.237987 289.198503 Z M 174.292423 289.198503 " transform="matrix(2.848563,0,0,-2.848563,-451.072872,973.667474)"/>
<path style="fill-rule:evenodd;fill:rgb(100%,100%,80%);fill-opacity:1;stroke-width:0.4;stroke-linecap:butt;stroke-linejoin:round;stroke:rgb(50.1%,50.1%,50.1%);stroke-opacity:1;stroke-miterlimit:10;" d="M 197.172651 214.743485 L 195.53257 217.716475 L 194.916854 217.716475 L 194.30251 216.076394 L 193.175297 216.076394 L 191.125195 218.536515 L 192.559581 219.356556 L 192.662428 220.586617 L 193.995337 220.586617 L 195.53257 222.431022 L 196.045439 222.021002 L 196.762631 222.021002 L 199.221381 223.045367 L 200.348594 221.610982 L 200.657138 219.663728 L 199.938574 218.023647 L 201.578655 217.613627 L 201.374331 216.076394 L 199.427077 215.359201 L 199.221381 214.436313 L 198.09554 214.640637 Z M 197.172651 214.743485 " transform="matrix(2.848563,0,0,-2.848563,-451.072872,973.667474)"/>
<path style="fill-rule:evenodd;fill:rgb(100%,100%,80%);fill-opacity:1;stroke-width:0.4;stroke-linecap:butt;stroke-linejoin:round;stroke:rgb(50.1%,50.1%,50.1%);stroke-opacity:1;stroke-miterlimit:10;" d="M 195.53257 222.431022 L 193.995337 220.586617 L 192.662428 220.586617 L 192.559581 219.356556 L 191.125195 218.536515 L 193.175297 216.076394 L 194.30251 216.076394 L 194.916854 217.716475 L 195.53257 217.716475 L 197.172651 214.743485 L 197.479824 213.3091 L 197.582672 208.28738 L 197.069804 206.748775 L 196.455459 205.417238 L 195.019702 203.777157 L 195.12255 202.445619 L 194.506834 202.239924 L 193.995337 203.161441 L 189.587962 203.059964 L 188.153577 201.93138 L 187.229317 201.52136 L 184.564871 201.009863 L 181.28608 201.009863 L 180.157496 201.625579 L 179.953171 202.649944 L 177.697374 203.880005 L 177.697374 204.597197 L 180.363192 205.31439 L 180.363192 205.72441 L 178.621634 205.827258 L 179.235979 206.954471 L 180.46604 206.134431 L 181.387557 207.467339 L 185.487759 207.87736 L 185.384912 208.594552 L 182.106121 208.491704 L 182.310445 209.208897 L 183.950526 209.824613 L 183.847678 211.157522 L 186.103476 211.567542 L 186.000628 212.181887 L 183.74483 212.283363 L 183.233334 213.411948 L 182.413293 214.027664 L 182.413293 215.153505 L 183.130486 215.359201 L 183.33481 216.179241 L 184.564871 216.383566 L 184.564871 216.793586 L 183.233334 216.999282 L 182.207597 218.023647 L 183.540506 218.229343 L 183.643354 218.74084 L 183.847678 219.663728 L 186.000628 219.663728 L 186.923516 218.639363 L 189.383638 218.229343 L 189.075094 218.946535 L 190.408003 219.253708 L 190.715175 220.176596 L 188.767922 220.689464 L 189.689439 221.713829 L 190.9195 221.713829 L 191.125195 223.148215 L 192.14956 223.762559 L 196.352611 223.968255 L 196.865479 223.148215 Z M 195.53257 222.431022 " transform="matrix(2.848563,0,0,-2.848563,-451.072872,973.667474)"/>
<path style="fill-rule:evenodd;fill:rgb(100%,100%,80%);fill-opacity:1;stroke-width:0.4;stroke-linecap:butt;stroke-linejoin:round;stroke:rgb(50.1%,50.1%,50.1%);stroke-opacity:1;stroke-miterlimit:10;" d="M 226.174386 191.686359 L 223.922703 191.923594 L 222.078297 192.949331 L 224.128399 193.256503 L 224.435571 194.999432 L 226.1785 195.613777 L 227.510037 196.639513 L 227.920058 197.97105 L 228.124382 200.738344 L 227.510037 201.865557 L 225.562784 202.58275 L 223.512683 202.58275 L 223.001186 201.558385 L 221.771125 201.865557 L 221.771125 203.301314 L 222.898338 203.812811 L 222.282622 206.580105 L 222.488318 210.373135 L 220.028196 214.164794 L 218.592439 214.677662 L 217.876618 217.650652 L 217.466598 220.21225 L 216.133689 222.979544 L 214.80078 225.029646 L 211.726314 225.542514 L 213.469243 226.156858 L 214.186436 228.20696 L 216.339385 230.154213 L 217.568074 232.511487 L 218.696659 234.151568 L 219.106679 235.894497 L 213.776415 237.123186 L 210.496253 236.714537 L 211.419142 238.456095 L 212.546355 239.686156 L 215.416496 241.427714 L 215.313648 243.067795 L 210.700578 242.86347 L 209.267564 244.297855 L 208.138979 242.146278 L 206.704594 241.223389 L 207.217462 239.686156 L 205.371685 239.07044 L 204.244473 237.123186 L 202.194371 238.456095 L 201.580026 237.020339 L 202.398696 235.484477 L 204.448797 234.868761 L 203.731604 233.844396 L 203.628757 232.101467 L 202.297219 232.818659 L 201.988675 230.768558 L 200.861463 229.744193 L 203.014412 229.641345 L 204.34732 231.178578 L 205.064513 230.358538 L 203.731604 229.231325 L 202.707239 225.64399 L 201.580026 223.799585 L 201.887199 222.262352 L 202.707239 222.262352 L 202.707239 223.286717 L 203.424432 224.413929 L 203.9373 223.286717 L 204.448797 223.492412 L 204.654493 226.054011 L 205.781706 225.952534 L 205.987402 222.569524 L 203.11726 219.80223 L 203.834452 218.675017 L 204.551645 218.879342 L 205.678858 217.546433 L 206.498898 218.366473 L 207.934655 217.956453 L 210.906273 218.366473 L 208.447523 215.804875 L 210.086233 213.344754 L 211.623466 213.447601 L 211.009121 211.294652 L 209.573365 211.3975 L 209.573365 210.884632 L 210.599101 209.860267 L 209.983385 207.810166 L 205.735081 207.796453 L 204.348692 209.007315 L 203.136458 208.314806 L 204.348692 207.102572 L 202.616733 206.410063 L 202.789518 205.370614 L 205.042572 205.370614 L 204.868416 201.732541 L 198.97866 199.827798 L 199.325601 197.748899 L 202.097009 197.748899 L 203.310614 197.40333 L 205.388141 194.803335 L 210.238448 195.844156 L 207.639824 193.245533 L 202.616733 194.112198 L 196.901133 188.914951 L 194.995019 188.222441 L 196.726977 187.182992 L 198.286151 188.049657 L 201.230344 188.396597 L 203.828967 187.355777 L 204.695632 189.781616 L 206.947315 189.781616 L 211.276526 188.396597 L 211.450682 189.434675 L 215.434323 188.914951 L 217.686007 188.914951 L 221.842433 188.222441 L 223.575763 188.742166 L 224.442427 189.60746 L 225.654661 190.128556 Z M 226.174386 191.686359 " transform="matrix(2.848563,0,0,-2.848563,-451.072872,973.667474)"/>
<path style="fill-rule:evenodd;fill:rgb(100%,100%,80%);fill-opacity:1;stroke-width:0.4;stroke-linecap:butt;stroke-linejoin:round;stroke:rgb(50.1%,50.1%,50.1%);stroke-opacity:1;stroke-miterlimit:10;" d="M 204.233502 244.599543 L 204.899956 244.200493 L 204.500907 242.335518 L 203.167998 240.869592 L 200.636568 240.337526 L 200.636568 242.867584 L 202.102494 242.867584 Z M 204.233502 244.599543 " transform="matrix(2.848563,0,0,-2.848563,-451.072872,973.667474)"/>
<path style="fill-rule:evenodd;fill:rgb(100%,100%,80%);fill-opacity:1;stroke-width:0.4;stroke-linecap:butt;stroke-linejoin:round;stroke:rgb(50.1%,50.1%,50.1%);stroke-opacity:1;stroke-miterlimit:10;" d="M 327.309519 266.54454 L 329.388418 270.529553 L 335.105389 268.623439 L 338.742091 266.026187 L 338.742091 264.639797 L 338.222366 260.483371 L 337.010132 261.695605 L 335.796527 261.521449 L 334.758449 259.269766 L 333.891784 259.096982 L 330.255083 264.292857 Z M 327.309519 266.54454 " transform="matrix(2.848563,0,0,-2.848563,-451.072872,973.667474)"/>
<path style="fill-rule:evenodd;fill:rgb(100%,100%,80%);fill-opacity:1;stroke-width:0.4;stroke-linecap:butt;stroke-linejoin:round;stroke:rgb(50.1%,50.1%,50.1%);stroke-opacity:1;stroke-miterlimit:10;" d="M 353.291639 268.797595 L 355.370538 269.31732 L 355.717478 268.450655 L 356.582772 267.238421 L 353.464424 267.065636 Z M 353.291639 268.797595 " transform="matrix(2.848563,0,0,-2.848563,-451.072872,973.667474)"/>
<path style="fill-rule:evenodd;fill:rgb(100%,100%,80%);fill-opacity:1;stroke-width:0.4;stroke-linecap:butt;stroke-linejoin:round;stroke:rgb(50.1%,50.1%,50.1%);stroke-opacity:1;stroke-miterlimit:10;" d="M 359.008611 262.388114 L 359.528336 261.001725 L 360.220845 260.310587 L 361.605863 259.096982 L 363.684762 258.924197 L 363.684762 257.192239 L 362.472528 255.805849 L 360.220845 256.672514 L 357.276652 258.230317 L 360.220845 258.404473 L 359.355551 259.616706 L 357.449437 261.001725 Z M 359.008611 262.388114 " transform="matrix(2.848563,0,0,-2.848563,-451.072872,973.667474)"/>
<path style="fill-rule:evenodd;fill:rgb(100%,100%,80%);fill-opacity:1;stroke-width:0.4;stroke-linecap:butt;stroke-linejoin:round;stroke:rgb(50.1%,50.1%,50.1%);stroke-opacity:1;stroke-miterlimit:10;" d="M 345.49714 270.355398 L 346.18965 271.567632 L 344.977416 272.954021 L 343.419613 273.300961 L 340.82099 274.68598 L 340.646834 276.417938 L 339.607384 279.016562 L 340.993774 278.151268 L 342.206008 276.937663 L 343.072673 278.496837 L 346.362434 274.860135 L 347.748824 274.68598 L 347.403255 271.567632 L 347.23047 270.355398 Z M 345.49714 270.355398 " transform="matrix(2.848563,0,0,-2.848563,-451.072872,973.667474)"/>
</g>
<g><path style="fill-rule:evenodd;fill:rgb(0%,0%,100%);fill-opacity:1;stroke-width:0.4;stroke-linecap:butt;stroke-linejoin:round;stroke:rgb(0%,0%,0%);stroke-opacity:1;stroke-miterlimit:10;" d="M 181.194203 299.344791 C 181.194203 300.418523 180.323424 301.289301 179.248321 301.289301 C 178.174589 301.289301 177.30381 300.418523 177.30381 299.344791 C 177.30381 298.271059 178.174589 297.40028 179.248321 297.40028 C 180.323424 297.40028 181.194203 298.271059 181.194203 299.344791 Z M 181.194203 299.344791 " transform="matrix(2.848563,0,0,-2.848563,-451.072872,973.667474)"/>
<path style="fill-rule:evenodd;fill:rgb(0%,0%,100%);fill-opacity:1;stroke-width:0.4;stroke-linecap:butt;stroke-linejoin:round;stroke:rgb(0%,0%,0%);stroke-opacity:1;stroke-miterlimit:10;" d="M 257.944786 256.000574 C 257.944786 257.074306 257.074007 257.945085 256.000275 257.945085 C 254.925172 257.945085 254.054393 257.074306 254.054393 256.000574 C 254.054393 254.925471 254.925172 254.054692 256.000275 254.054692 C 257.074007 254.054692 257.944786 254.925471 257.944786 256.000574 Z M 257.944786 256.000574 " transform="matrix(2.848563,0,0,-2.848563,-451.072872,973.667474)"/>
<path style="fill-rule:evenodd;fill:rgb(0%,0%,100%);fill-opacity:1;stroke-width:0.4;stroke-linecap:butt;stroke-linejoin:round;stroke:rgb(0%,0%,0%);stroke-opacity:1;stroke-miterlimit:10;" d="M 281.170583 262.59381 C 281.170583 263.667542 280.299804 264.538321 279.226072 264.538321 C 278.150969 264.538321 277.28019 263.667542 277.28019 262.59381 C 277.28019 261.520078 278.150969 260.649299 279.226072 260.649299 C 280.299804 260.649299 281.170583 261.520078 281.170583 262.59381 Z M 281.170583 262.59381 " transform="matrix(2.848563,0,0,-2.848563,-451.072872,973.667474)"/>
<path style="fill-rule:evenodd;fill:rgb(0%,0%,100%);fill-opacity:1;stroke-width:0.4;stroke-linecap:butt;stroke-linejoin:round;stroke:rgb(0%,0%,0%);stroke-opacity:1;stroke-miterlimit:10;" d="M 315.155641 274.053808 C 315.155641 275.12754 314.284862 275.998319 313.21113 275.998319 C 312.136026 275.998319 311.265248 275.12754 311.265248 274.053808 C 311.265248 272.980076 312.136026 272.109297 313.21113 272.109297 C 314.284862 272.109297 315.155641 272.980076 315.155641 274.053808 Z M 315.155641 274.053808 " transform="matrix(2.848563,0,0,-2.848563,-451.072872,973.667474)"/>
<path style="fill-rule:evenodd;fill:rgb(0%,0%,100%);fill-opacity:1;stroke-width:0.4;stroke-linecap:butt;stroke-linejoin:round;stroke:rgb(0%,0%,0%);stroke-opacity:1;stroke-miterlimit:10;" d="M 352.696493 258.246772 C 352.696493 259.320504 351.825714 260.191283 350.751982 260.191283 C 349.67825 260.191283 348.807471 259.320504 348.807471 258.246772 C 348.807471 257.17304 349.67825 256.302262 350.751982 256.302262 C 351.825714 256.302262 352.696493 257.17304 352.696493 258.246772 Z M 352.696493 258.246772 " transform="matrix(2.848563,0,0,-2.848563,-451.072872,973.667474)"/>
<path style="fill-rule:evenodd;fill:rgb(0%,0%,100%);fill-opacity:1;stroke-width:0.4;stroke-linecap:butt;stroke-linejoin:round;stroke:rgb(0%,0%,0%);stroke-opacity:1;stroke-miterlimit:10;" d="M 319.502678 245.996903 C 319.502678 247.070635 318.631899 247.941414 317.558167 247.941414 C 316.483064 247.941414 315.612285 247.070635 315.612285 245.996903 C 315.612285 244.923171 316.483064 244.052392 317.558167 244.052392 C 318.631899 244.052392 319.502678 244.923171 319.502678 245.996903 Z M 319.502678 245.996903 " transform="matrix(2.848563,0,0,-2.848563,-451.072872,973.667474)"/>
<path style="fill-rule:evenodd;fill:rgb(0%,0%,100%);fill-opacity:1;stroke-width:0.4;stroke-linecap:butt;stroke-linejoin:round;stroke:rgb(0%,0%,0%);stroke-opacity:1;stroke-miterlimit:10;" d="M 321.082422 234.141969 C 321.082422 235.215701 320.211643 236.08648 319.137911 236.08648 C 318.064179 236.08648 317.1934 235.215701 317.1934 234.141969 C 317.1934 233.068237 318.064179 232.197458 319.137911 232.197458 C 320.211643 232.197458 321.082422 233.068237 321.082422 234.141969 Z M 321.082422 234.141969 " transform="matrix(2.848563,0,0,-2.848563,-451.072872,973.667474)"/>
<path style="fill-rule:evenodd;fill:rgb(0%,0%,100%);fill-opacity:1;stroke-width:0.4;stroke-linecap:butt;stroke-linejoin:round;stroke:rgb(0%,0%,0%);stroke-opacity:1;stroke-miterlimit:10;" d="M 319.107742 222.287035 C 319.107742 223.360767 318.236963 224.231546 317.163231 224.231546 C 316.088128 224.231546 315.217349 223.360767 315.217349 222.287035 C 315.217349 221.213303 316.088128 220.342524 317.163231 220.342524 C 318.236963 220.342524 319.107742 221.213303 319.107742 222.287035 Z M 319.107742 222.287035 " transform="matrix(2.848563,0,0,-2.848563,-451.072872,973.667474)"/>
<path style="fill-rule:evenodd;fill:rgb(0%,0%,100%);fill-opacity:1;stroke-width:0.4;stroke-linecap:butt;stroke-linejoin:round;stroke:rgb(0%,0%,0%);stroke-opacity:1;stroke-miterlimit:10;" d="M 351.90525 189.09322 C 351.90525 190.166952 351.034471 191.037731 349.960739 191.037731 C 348.887007 191.037731 348.016228 190.166952 348.016228 189.09322 C 348.016228 188.019488 348.887007 187.148709 349.960739 187.148709 C 351.034471 187.148709 351.90525 188.019488 351.90525 189.09322 Z M 351.90525 189.09322 " transform="matrix(2.848563,0,0,-2.848563,-451.072872,973.667474)"/>
<path style="fill-rule:evenodd;fill:rgb(0%,0%,100%);fill-opacity:1;stroke-width:0.4;stroke-linecap:butt;stroke-linejoin:round;stroke:rgb(0%,0%,0%);stroke-opacity:1;stroke-miterlimit:10;" d="M 192.654201 211.221973 C 192.654201 212.295705 191.783422 213.166484 190.708319 213.166484 C 189.634587 213.166484 188.763808 212.295705 188.763808 211.221973 C 188.763808 210.148241 189.634587 209.277462 190.708319 209.277462 C 191.783422 209.277462 192.654201 210.148241 192.654201 211.221973 Z M 192.654201 211.221973 " transform="matrix(2.848563,0,0,-2.848563,-451.072872,973.667474)"/>
<path style="fill-rule:evenodd;fill:rgb(0%,0%,100%);fill-opacity:1;stroke-width:0.4;stroke-linecap:butt;stroke-linejoin:round;stroke:rgb(0%,0%,0%);stroke-opacity:1;stroke-miterlimit:10;" d="M 217.15394 208.45605 C 217.15394 209.529782 216.283161 210.400561 215.208058 210.400561 C 214.134326 210.400561 213.263547 209.529782 213.263547 208.45605 C 213.263547 207.382318 214.134326 206.51154 215.208058 206.51154 C 216.283161 206.51154 217.15394 207.382318 217.15394 208.45605 Z M 217.15394 208.45605 " transform="matrix(2.848563,0,0,-2.848563,-451.072872,973.667474)"/>
<path style="fill-rule:evenodd;fill:rgb(0%,0%,100%);fill-opacity:1;stroke-width:0.4;stroke-linecap:butt;stroke-linejoin:round;stroke:rgb(0%,0%,0%);stroke-opacity:1;stroke-miterlimit:10;" d="M 168.15309 121.124476 C 168.15309 122.198208 167.282311 123.068987 166.208579 123.068987 C 165.133476 123.068987 164.262697 122.198208 164.262697 121.124476 C 164.262697 120.049373 165.133476 119.178594 166.208579 119.178594 C 167.282311 119.178594 168.15309 120.049373 168.15309 121.124476 Z M 168.15309 121.124476 " transform="matrix(2.848563,0,0,-2.848563,-451.072872,973.667474)"/>
<path style="fill-rule:evenodd;fill:rgb(0%,0%,100%);fill-opacity:1;stroke-width:0.4;stroke-linecap:butt;stroke-linejoin:round;stroke:rgb(0%,0%,0%);stroke-opacity:1;stroke-miterlimit:10;" d="M 194.235316 119.938297 C 194.235316 121.012029 193.364537 121.882808 192.289433 121.882808 C 191.215701 121.882808 190.344923 121.012029 190.344923 119.938297 C 190.344923 118.864565 191.215701 117.993786 192.289433 117.993786 C 193.364537 117.993786 194.235316 118.864565 194.235316 119.938297 Z M 194.235316 119.938297 " transform="matrix(2.848563,0,0,-2.848563,-451.072872,973.667474)"/>
<path style="fill-rule:evenodd;fill:rgb(0%,0%,100%);fill-opacity:1;stroke-width:0.4;stroke-linecap:butt;stroke-linejoin:round;stroke:rgb(0%,0%,0%);stroke-opacity:1;stroke-miterlimit:10;" d="M 229.008874 159.4552 C 229.008874 160.528932 228.138095 161.399711 227.064363 161.399711 C 225.98926 161.399711 225.118481 160.528932 225.118481 159.4552 C 225.118481 158.381468 225.98926 157.510689 227.064363 157.510689 C 228.138095 157.510689 229.008874 158.381468 229.008874 159.4552 Z M 229.008874 159.4552 " transform="matrix(2.848563,0,0,-2.848563,-451.072872,973.667474)"/>
<path style="fill-rule:evenodd;fill:rgb(0%,0%,100%);fill-opacity:1;stroke-width:0.4;stroke-linecap:butt;stroke-linejoin:round;stroke:rgb(0%,0%,0%);stroke-opacity:1;stroke-miterlimit:10;" d="M 240.863808 186.327298 C 240.863808 187.40103 239.993029 188.271808 238.919297 188.271808 C 237.844194 188.271808 236.973415 187.40103 236.973415 186.327298 C 236.973415 185.253566 237.844194 184.382787 238.919297 184.382787 C 239.993029 184.382787 240.863808 185.253566 240.863808 186.327298 Z M 240.863808 186.327298 " transform="matrix(2.848563,0,0,-2.848563,-451.072872,973.667474)"/>
<path style="fill-rule:evenodd;fill:rgb(0%,0%,100%);fill-opacity:1;stroke-width:0.4;stroke-linecap:butt;stroke-linejoin:round;stroke:rgb(0%,0%,0%);stroke-opacity:1;stroke-miterlimit:10;" d="M 244.026038 194.625066 C 244.026038 195.698798 243.155259 196.569577 242.080156 196.569577 C 241.006424 196.569577 240.135645 195.698798 240.135645 194.625066 C 240.135645 193.551334 241.006424 192.680555 242.080156 192.680555 C 243.155259 192.680555 244.026038 193.551334 244.026038 194.625066 Z M 244.026038 194.625066 " transform="matrix(2.848563,0,0,-2.848563,-451.072872,973.667474)"/>
<path style="fill-rule:evenodd;fill:rgb(0%,0%,100%);fill-opacity:1;stroke-width:0.4;stroke-linecap:butt;stroke-linejoin:round;stroke:rgb(0%,0%,0%);stroke-opacity:1;stroke-miterlimit:10;" d="M 255.089728 159.850136 C 255.089728 160.923868 254.21895 161.794647 253.145218 161.794647 C 252.070114 161.794647 251.199335 160.923868 251.199335 159.850136 C 251.199335 158.776404 252.070114 157.905625 253.145218 157.905625 C 254.21895 157.905625 255.089728 158.776404 255.089728 159.850136 Z M 255.089728 159.850136 " transform="matrix(2.848563,0,0,-2.848563,-451.072872,973.667474)"/>
<path style="fill-rule:evenodd;fill:rgb(0%,0%,100%);fill-opacity:1;stroke-width:0.4;stroke-linecap:butt;stroke-linejoin:round;stroke:rgb(0%,0%,0%);stroke-opacity:1;stroke-miterlimit:10;" d="M 264.969983 187.512105 C 264.969983 188.585837 264.099204 189.456616 263.0241 189.456616 C 261.950368 189.456616 261.07959 188.585837 261.07959 187.512105 C 261.07959 186.438373 261.950368 185.567595 263.0241 185.567595 C 264.099204 185.567595 264.969983 186.438373 264.969983 187.512105 Z M 264.969983 187.512105 " transform="matrix(2.848563,0,0,-2.848563,-451.072872,973.667474)"/>
<path style="fill-rule:evenodd;fill:rgb(0%,0%,100%);fill-opacity:1;stroke-width:0.4;stroke-linecap:butt;stroke-linejoin:round;stroke:rgb(0%,0%,0%);stroke-opacity:1;stroke-miterlimit:10;" d="M 261.807753 221.892099 C 261.807753 222.965831 260.936974 223.83661 259.863242 223.83661 C 258.788139 223.83661 257.91736 222.965831 257.91736 221.892099 C 257.91736 220.818367 258.788139 219.947588 259.863242 219.947588 C 260.936974 219.947588 261.807753 220.818367 261.807753 221.892099 Z M 261.807753 221.892099 " transform="matrix(2.848563,0,0,-2.848563,-451.072872,973.667474)"/>
<path style="fill-rule:evenodd;fill:rgb(0%,0%,100%);fill-opacity:1;stroke-width:0.4;stroke-linecap:butt;stroke-linejoin:round;stroke:rgb(0%,0%,0%);stroke-opacity:1;stroke-miterlimit:10;" d="M 303.695643 196.601117 C 303.695643 197.674849 302.824864 198.545627 301.751132 198.545627 C 300.676029 198.545627 299.80525 197.674849 299.80525 196.601117 C 299.80525 195.527385 300.676029 194.656606 301.751132 194.656606 C 302.824864 194.656606 303.695643 195.527385 303.695643 196.601117 Z M 303.695643 196.601117 " transform="matrix(2.848563,0,0,-2.848563,-451.072872,973.667474)"/>
<path style="fill-rule:evenodd;fill:rgb(0%,0%,100%);fill-opacity:1;stroke-width:0.4;stroke-linecap:butt;stroke-linejoin:round;stroke:rgb(0%,0%,0%);stroke-opacity:1;stroke-miterlimit:10;" d="M 306.066629 174.8673 C 306.066629 175.941032 305.195851 176.811811 304.122119 176.811811 C 303.047015 176.811811 302.176236 175.941032 302.176236 174.8673 C 302.176236 173.793568 303.047015 172.922789 304.122119 172.922789 C 305.195851 172.922789 306.066629 173.793568 306.066629 174.8673 Z M 306.066629 174.8673 " transform="matrix(2.848563,0,0,-2.848563,-451.072872,973.667474)"/>
<path style="fill-rule:evenodd;fill:rgb(0%,0%,100%);fill-opacity:1;stroke-width:0.4;stroke-linecap:butt;stroke-linejoin:round;stroke:rgb(0%,0%,0%);stroke-opacity:1;stroke-miterlimit:10;" d="M 287.493671 179.214337 C 287.493671 180.288069 286.622892 181.158848 285.54916 181.158848 C 284.474057 181.158848 283.603278 180.288069 283.603278 179.214337 C 283.603278 178.139234 284.474057 177.269827 285.54916 177.269827 C 286.622892 177.269827 287.493671 178.139234 287.493671 179.214337 Z M 287.493671 179.214337 " transform="matrix(2.848563,0,0,-2.848563,-451.072872,973.667474)"/>
<path style="fill-rule:evenodd;fill:rgb(0%,0%,100%);fill-opacity:1;stroke-width:0.4;stroke-linecap:butt;stroke-linejoin:round;stroke:rgb(0%,0%,0%);stroke-opacity:1;stroke-miterlimit:10;" d="M 283.54157 163.802238 C 283.54157 164.87597 282.670791 165.746749 281.597059 165.746749 C 280.521955 165.746749 279.651177 164.87597 279.651177 163.802238 C 279.651177 162.728506 280.521955 161.857727 281.597059 161.857727 C 282.670791 161.857727 283.54157 162.728506 283.54157 163.802238 Z M 283.54157 163.802238 " transform="matrix(2.848563,0,0,-2.848563,-451.072872,973.667474)"/>
<path style="fill-rule:evenodd;fill:rgb(0%,0%,100%);fill-opacity:1;stroke-width:0.4;stroke-linecap:butt;stroke-linejoin:round;stroke:rgb(0%,0%,0%);stroke-opacity:1;stroke-miterlimit:10;" d="M 278.009724 132.584474 C 278.009724 133.658206 277.138945 134.528985 276.065213 134.528985 C 274.99011 134.528985 274.119331 133.658206 274.119331 132.584474 C 274.119331 131.509371 274.99011 130.638592 276.065213 130.638592 C 277.138945 130.638592 278.009724 131.509371 278.009724 132.584474 Z M 278.009724 132.584474 " transform="matrix(2.848563,0,0,-2.848563,-451.072872,973.667474)"/>
<path style="fill-rule:evenodd;fill:rgb(0%,0%,100%);fill-opacity:1;stroke-width:0.4;stroke-linecap:butt;stroke-linejoin:round;stroke:rgb(0%,0%,0%);stroke-opacity:1;stroke-miterlimit:10;" d="M 302.509464 142.858293 C 302.509464 143.932025 301.638685 144.802804 300.564953 144.802804 C 299.491221 144.802804 298.620442 143.932025 298.620442 142.858293 C 298.620442 141.784561 299.491221 140.913782 300.564953 140.913782 C 301.638685 140.913782 302.509464 141.784561 302.509464 142.858293 Z M 302.509464 142.858293 " transform="matrix(2.848563,0,0,-2.848563,-451.072872,973.667474)"/>
<path style="fill-rule:evenodd;fill:rgb(0%,0%,100%);fill-opacity:1;stroke-width:0.4;stroke-linecap:butt;stroke-linejoin:round;stroke:rgb(0%,0%,0%);stroke-opacity:1;stroke-miterlimit:10;" d="M 307.252808 162.61743 C 307.252808 163.691162 306.38203 164.561941 305.308298 164.561941 C 304.233194 164.561941 303.362416 163.691162 303.362416 162.61743 C 303.362416 161.542327 304.233194 160.671548 305.308298 160.671548 C 306.38203 160.671548 307.252808 161.542327 307.252808 162.61743 Z M 307.252808 162.61743 " transform="matrix(2.848563,0,0,-2.848563,-451.072872,973.667474)"/>
<path style="fill-rule:evenodd;fill:rgb(0%,0%,100%);fill-opacity:1;stroke-width:0.4;stroke-linecap:butt;stroke-linejoin:round;stroke:rgb(0%,0%,0%);stroke-opacity:1;stroke-miterlimit:10;" d="M 334.913407 159.850136 C 334.913407 160.923868 334.042628 161.794647 332.968896 161.794647 C 331.895164 161.794647 331.024385 160.923868 331.024385 159.850136 C 331.024385 158.776404 331.895164 157.905625 332.968896 157.905625 C 334.042628 157.905625 334.913407 158.776404 334.913407 159.850136 Z M 334.913407 159.850136 " transform="matrix(2.848563,0,0,-2.848563,-451.072872,973.667474)"/>
<path style="fill-rule:evenodd;fill:rgb(0%,0%,100%);fill-opacity:1;stroke-width:0.4;stroke-linecap:butt;stroke-linejoin:round;stroke:rgb(0%,0%,0%);stroke-opacity:1;stroke-miterlimit:10;" d="M 339.65538 138.511255 C 339.65538 139.584987 338.784601 140.455766 337.710869 140.455766 C 336.637137 140.455766 335.766358 139.584987 335.766358 138.511255 C 335.766358 137.437523 336.637137 136.566744 337.710869 136.566744 C 338.784601 136.566744 339.65538 137.437523 339.65538 138.511255 Z M 339.65538 138.511255 " transform="matrix(2.848563,0,0,-2.848563,-451.072872,973.667474)"/>
<path style="fill-rule:evenodd;fill:rgb(0%,0%,100%);fill-opacity:1;stroke-width:0.4;stroke-linecap:butt;stroke-linejoin:round;stroke:rgb(0%,0%,0%);stroke-opacity:1;stroke-miterlimit:10;" d="M 328.195382 113.221644 C 328.195382 114.295376 327.324603 115.166155 326.250871 115.166155 C 325.177139 115.166155 324.30636 114.295376 324.30636 113.221644 C 324.30636 112.146541 325.177139 111.275762 326.250871 111.275762 C 327.324603 111.275762 328.195382 112.146541 328.195382 113.221644 Z M 328.195382 113.221644 " transform="matrix(2.848563,0,0,-2.848563,-451.072872,973.667474)"/>
</g>
</svg>
