<?xml version="1.0" encoding="UTF-8"?>
<svg xmlns="http://www.w3.org/2000/svg" xmlns:xlink="http://www.w3.org/1999/xlink" width="287pt" height="180pt" viewBox="0 0 287 180" version="1.1">
<g id="surface86152">
<path style="fill-rule:evenodd;fill:rgb(100%,100%,80%);fill-opacity:1;stroke-width:0.4;stroke-linecap:butt;stroke-linejoin:round;stroke:rgb(50.1%,50.1%,50.1%);stroke-opacity:1;stroke-miterlimit:10;" d="M 241.509406 295.175 L 261.439094 289.073438 L 255.946906 269.346875 L 277.708625 236.194531 L 278.118781 233.346875 L 279.337531 231.514844 L 277.915656 228.667188 L 276.693 225.823438 L 275.271125 224.194531 L 275.064094 222.975781 L 276.083625 221.14375 L 273.845344 219.721875 L 261.032844 221.346875 L 261.439094 224.600781 L 258.185187 230.702344 L 256.353156 231.311719 L 255.743781 233.753125 L 253.302375 234.3625 L 250.864875 237.007031 L 245.575813 240.057813 L 245.982063 244.124219 L 241.712531 254.092969 L 243.134406 256.940625 L 241.09925 259.178906 L 241.509406 263.651563 L 242.931281 262.432813 L 242.931281 265.686719 L 244.353156 265.686719 L 242.728156 266.499219 L 241.509406 265.889844 L 239.677375 267.108594 L 239.47425 269.346875 L 238.048469 274.225781 L 238.66175 279.311719 L 237.642219 284.600781 L 240.896125 290.089063 Z M 241.509406 295.175 " transform="matrix(1,0,0,-1,-237.443,339.05)"/>
<path style="fill-rule:evenodd;fill:rgb(100%,100%,80%);fill-opacity:1;stroke-width:0.4;stroke-linecap:butt;stroke-linejoin:round;stroke:rgb(50.1%,50.1%,50.1%);stroke-opacity:1;stroke-miterlimit:10;" d="M 261.439094 289.073438 L 276.489875 285.413281 L 279.173469 296.983594 L 280.282844 299.944531 L 279.173469 301.151563 L 279.634406 302.815625 L 281.673469 305.038281 L 283.337531 307.628125 L 284.91175 309.573438 L 282.876594 312.444531 L 279.798469 313.077344 L 274.314094 314.288281 L 271.251594 314.503125 L 268.618781 314.3625 L 266.196906 314.3625 L 264.415656 314.717969 L 262.708625 314.788281 L 261.071906 315.999219 L 258.509406 315.960156 L 257.306281 316.053906 L 255.454719 316.885938 L 255.271125 318.460156 L 255.177375 320.495313 L 253.8805 321.885938 L 252.864875 322.440625 L 251.568 321.698438 L 250.919563 321.05 L 250.364875 318.827344 L 249.622688 316.885938 L 248.696906 315.034375 L 248.048469 313.272656 L 247.403938 311.792188 L 246.7555 310.311719 L 245.919563 308.366406 L 245.028938 306.39375 L 244.564094 304.542188 L 243.083625 303.432813 L 242.068 301.210156 L 241.696906 299.264844 L 241.509406 297.135938 L 241.509406 295.175 Z M 261.439094 289.073438 " transform="matrix(1,0,0,-1,-237.443,339.05)"/>
<path style="fill-rule:evenodd;fill:rgb(100%,100%,80%);fill-opacity:1;stroke-width:0.4;stroke-linecap:butt;stroke-linejoin:round;stroke:rgb(50.1%,50.1%,50.1%);stroke-opacity:1;stroke-miterlimit:10;" d="M 276.489875 285.413281 L 291.185187 282.100781 L 284.298469 247.839063 L 283.517219 244.397656 L 283.048469 242.20625 L 282.267219 241.425 L 280.544562 242.678906 L 279.607062 242.835156 L 279.138312 241.1125 L 278.825812 239.077344 L 278.982062 236.577344 L 277.708625 236.194531 L 255.946906 269.346875 L 261.439094 289.073438 Z M 276.489875 285.413281 " transform="matrix(1,0,0,-1,-237.443,339.05)"/>
<path style="fill-rule:evenodd;fill:rgb(100%,100%,80%);fill-opacity:1;stroke-width:0.4;stroke-linecap:butt;stroke-linejoin:round;stroke:rgb(50.1%,50.1%,50.1%);stroke-opacity:1;stroke-miterlimit:10;" d="M 282.876594 312.444531 L 283.290656 314.417188 L 283.290656 315.624219 L 284.2555 319.835156 L 287.263312 331.9875 L 262.110969 338.850781 L 261.868781 338.007031 L 263.677375 336.803906 L 262.591437 336.323438 L 262.110969 335.721875 L 262.591437 334.155469 L 262.470344 332.229688 L 261.868781 331.026563 L 260.907844 331.389844 L 259.22425 329.464063 L 258.3805 329.464063 L 258.982062 330.905469 L 260.665656 332.350781 L 260.665656 333.553906 L 258.982062 333.913281 L 256.575812 335.120313 L 254.771125 336.444531 L 253.325813 337.284375 L 251.759406 336.202344 L 252.001594 334.878125 L 252.122688 332.108594 L 252.122688 329.944531 L 252.603156 328.378125 L 252.243781 327.296094 L 251.8805 326.092969 L 251.8805 324.647656 L 252.864875 322.440625 L 253.8805 321.885938 L 255.177375 320.495313 L 255.271125 318.460156 L 255.454719 316.885938 L 257.306281 316.053906 L 258.509406 315.960156 L 261.071906 315.999219 L 262.708625 314.788281 L 264.415656 314.717969 L 266.196906 314.3625 L 268.618781 314.3625 L 271.251594 314.503125 L 274.314094 314.288281 L 279.798469 313.077344 Z M 282.876594 312.444531 " transform="matrix(1,0,0,-1,-237.443,339.05)"/>
<path style="fill-rule:evenodd;fill:rgb(100%,100%,80%);fill-opacity:1;stroke-width:0.4;stroke-linecap:butt;stroke-linejoin:round;stroke:rgb(50.1%,50.1%,50.1%);stroke-opacity:1;stroke-miterlimit:10;" d="M 276.489875 285.413281 L 291.185187 282.100781 L 306.079719 279.342969 L 309.028937 297.33125 L 307.677375 298.089063 L 306.837531 297.20625 L 303.3805 297.753125 L 301.821906 297.499219 L 300.134406 297.20625 L 299.6305 298.260938 L 299.251594 300.069531 L 298.071906 300.491406 L 298.071906 301.671094 L 298.157844 302.346875 L 297.903937 302.811719 L 297.607062 303.6125 L 297.439094 304.409375 L 296.84925 306.811719 L 294.700812 306.010938 L 293.8805 306.870313 L 293.8805 308.092969 L 294.513312 309.272656 L 294.892219 310.577344 L 295.146125 311.760938 L 296.028937 313.866406 L 295.103156 314.499219 L 293.837531 315.803906 L 293.376594 316.729688 L 292.357062 319.030469 L 291.388312 320.038281 L 291.177375 320.8 L 291.345344 322.440625 L 290.673469 323.620313 L 290.333625 325.010938 L 290.712531 326.909375 L 291.220344 329.26875 L 291.470344 330.952344 L 287.263312 331.9875 L 283.290656 315.624219 L 283.290656 314.417188 L 282.876594 312.444531 L 284.91175 309.573438 L 283.337531 307.628125 L 281.673469 305.038281 L 279.634406 302.815625 L 279.173469 301.151563 L 280.282844 299.944531 L 279.173469 296.983594 Z M 276.489875 285.413281 " transform="matrix(1,0,0,-1,-237.443,339.05)"/>
<path style="fill-rule:evenodd;fill:rgb(100%,100%,80%);fill-opacity:1;stroke-width:0.4;stroke-linecap:butt;stroke-linejoin:round;stroke:rgb(50.1%,50.1%,50.1%);stroke-opacity:1;stroke-miterlimit:10;" d="M 291.470344 330.952344 L 299.712531 329.491406 L 305.84925 328.124219 L 312.587531 327.026563 L 318.997687 325.823438 L 325.571906 324.999219 L 330.501594 324.342969 L 336.142219 323.577344 L 340.634406 322.917188 L 346.220344 322.151563 L 344.466437 301.6125 L 343.7555 295.366406 L 336.907844 295.913281 L 330.993781 296.788281 L 326.173469 297.39375 L 321.298469 298.159375 L 317.025031 298.70625 L 313.790656 299.147656 L 309.794562 299.694531 L 309.028937 297.33125 L 307.677375 298.089063 L 306.837531 297.20625 L 303.3805 297.753125 L 300.134406 297.20625 L 299.6305 298.260938 L 299.251594 300.069531 L 298.071906 300.491406 L 298.157844 302.346875 L 297.607062 303.6125 L 297.439094 304.409375 L 296.84925 306.811719 L 294.700812 306.010938 L 293.8805 306.870313 L 293.8805 308.092969 L 294.513312 309.272656 L 294.892219 310.577344 L 295.146125 311.760938 L 296.028937 313.866406 L 295.103156 314.499219 L 293.837531 315.803906 L 293.376594 316.729688 L 292.357062 319.030469 L 291.388312 320.038281 L 291.177375 320.8 L 291.345344 322.440625 L 290.673469 323.620313 L 290.333625 325.010938 Z M 291.470344 330.952344 " transform="matrix(1,0,0,-1,-237.443,339.05)"/>
<path style="fill-rule:evenodd;fill:rgb(100%,100%,80%);fill-opacity:1;stroke-width:0.4;stroke-linecap:butt;stroke-linejoin:round;stroke:rgb(50.1%,50.1%,50.1%);stroke-opacity:1;stroke-miterlimit:10;" d="M 346.220344 322.151563 L 377.657844 320.342969 L 378.028937 318.460156 L 377.743781 317.178906 L 377.814094 315.1125 L 378.384406 313.83125 L 378.950812 311.339063 L 379.095344 308.846875 L 379.306281 306.854688 L 379.3805 305.14375 L 379.665656 303.221875 L 380.306281 302.225781 L 380.376594 299.874219 L 376.888312 299.659375 L 372.685187 300.01875 L 364.923469 300.585156 L 358.798469 300.585156 L 353.59925 301.155469 L 348.544562 301.440625 L 344.466437 301.6125 Z M 346.220344 322.151563 " transform="matrix(1,0,0,-1,-237.443,339.05)"/>
<path style="fill-rule:evenodd;fill:rgb(100%,100%,80%);fill-opacity:1;stroke-width:0.4;stroke-linecap:butt;stroke-linejoin:round;stroke:rgb(50.1%,50.1%,50.1%);stroke-opacity:1;stroke-miterlimit:10;" d="M 291.185187 282.100781 L 306.079719 279.342969 L 305.060187 272.632031 L 315.056281 270.686719 L 311.263312 243.159375 L 284.298469 247.839063 Z M 291.185187 282.100781 " transform="matrix(1,0,0,-1,-237.443,339.05)"/>
<path style="fill-rule:evenodd;fill:rgb(100%,100%,80%);fill-opacity:1;stroke-width:0.4;stroke-linecap:butt;stroke-linejoin:round;stroke:rgb(50.1%,50.1%,50.1%);stroke-opacity:1;stroke-miterlimit:10;" d="M 315.056281 270.686719 L 340.884406 267.632031 L 351.329719 266.546094 L 351.329719 259.835156 L 349.700812 239.089063 L 344.0055 239.292188 L 311.263312 243.159375 Z M 315.056281 270.686719 " transform="matrix(1,0,0,-1,-237.443,339.05)"/>
<path style="fill-rule:evenodd;fill:rgb(100%,100%,80%);fill-opacity:1;stroke-width:0.4;stroke-linecap:butt;stroke-linejoin:round;stroke:rgb(50.1%,50.1%,50.1%);stroke-opacity:1;stroke-miterlimit:10;" d="M 311.263312 243.159375 L 305.568 204.514844 L 294.583625 205.936719 L 273.845344 219.721875 L 276.083625 221.14375 L 275.064094 222.975781 L 275.271125 224.194531 L 276.693 225.823438 L 277.915656 228.667188 L 279.337531 231.514844 L 278.118781 233.346875 L 277.708625 236.194531 L 278.982062 236.577344 L 278.825812 239.077344 L 279.138312 241.1125 L 279.607062 242.835156 L 280.544562 242.678906 L 282.267219 241.425 L 283.048469 242.20625 L 283.517219 244.397656 L 284.298469 247.839063 Z M 311.263312 243.159375 " transform="matrix(1,0,0,-1,-237.443,339.05)"/>
<path style="fill-rule:evenodd;fill:rgb(100%,100%,80%);fill-opacity:1;stroke-width:0.4;stroke-linecap:butt;stroke-linejoin:round;stroke:rgb(50.1%,50.1%,50.1%);stroke-opacity:1;stroke-miterlimit:10;" d="M 311.263312 243.159375 L 344.0055 239.292188 L 343.653937 235.913281 L 340.884406 205.225781 L 320.064094 207.030469 L 319.821906 206.069531 L 314.528937 206.671094 L 310.677375 207.030469 L 310.196906 204.022656 L 305.568 204.514844 Z M 311.263312 243.159375 " transform="matrix(1,0,0,-1,-237.443,339.05)"/>
<path style="fill-rule:evenodd;fill:rgb(100%,100%,80%);fill-opacity:1;stroke-width:0.4;stroke-linecap:butt;stroke-linejoin:round;stroke:rgb(50.1%,50.1%,50.1%);stroke-opacity:1;stroke-miterlimit:10;" d="M 342.642219 281.51875 L 340.884406 267.632031 L 351.329719 266.546094 L 351.329719 259.835156 L 385.872687 258.561719 L 385.403937 260.124219 L 384.622687 260.596875 L 384.306281 262.315625 L 383.368781 263.725781 L 383.368781 267.792188 L 382.431281 269.358594 L 382.431281 270.921094 L 381.646125 272.796094 L 381.021125 274.20625 L 379.403937 276.960156 L 377.735969 277.796094 L 374.958625 278.721875 L 372.735969 278.073438 L 368.84925 279.7375 L 358.84925 280.385938 Z M 342.642219 281.51875 " transform="matrix(1,0,0,-1,-237.443,339.05)"/>
<path style="fill-rule:evenodd;fill:rgb(100%,100%,80%);fill-opacity:1;stroke-width:0.4;stroke-linecap:butt;stroke-linejoin:round;stroke:rgb(50.1%,50.1%,50.1%);stroke-opacity:1;stroke-miterlimit:10;" d="M 351.329719 259.835156 L 349.700812 239.089063 L 390.1305 237.448438 L 390.1305 252.311719 L 388.720344 253.186719 L 388.3805 254.194531 L 388.087531 254.702344 L 387.540656 255.163281 L 387.372687 255.671094 L 387.790656 256.346875 L 388.087531 256.850781 L 388.044562 257.272656 L 387.032844 257.905469 L 385.872687 258.561719 Z M 351.329719 259.835156 " transform="matrix(1,0,0,-1,-237.443,339.05)"/>
<path style="fill-rule:evenodd;fill:rgb(100%,100%,80%);fill-opacity:1;stroke-width:0.4;stroke-linecap:butt;stroke-linejoin:round;stroke:rgb(50.1%,50.1%,50.1%);stroke-opacity:1;stroke-miterlimit:10;" d="M 349.700812 239.089063 L 344.0055 239.292188 L 343.653937 235.913281 L 360.185187 235.01875 L 360.185187 229.120313 L 359.825812 225.389844 L 359.583625 221.897656 L 360.907844 220.815625 L 361.872687 220.092969 L 363.556281 220.214063 L 364.400031 218.889844 L 367.165656 218.046094 L 368.247687 217.686719 L 369.454719 217.928906 L 370.415656 217.928906 L 370.657844 216.964063 L 371.618781 216.241406 L 373.064094 216.846875 L 374.025031 216.120313 L 375.470344 216.003125 L 377.638312 216.3625 L 378.478156 216.003125 L 379.079719 215.639844 L 380.165656 215.038281 L 381.489875 215.522656 L 382.693 216.120313 L 385.216437 216.120313 L 386.903937 216.3625 L 388.228156 215.639844 L 390.271125 214.557813 L 390.993781 214.319531 L 390.153937 234.175 L 390.1305 237.448438 Z M 349.700812 239.089063 " transform="matrix(1,0,0,-1,-237.443,339.05)"/>
<path style="fill-rule:evenodd;fill:rgb(100%,100%,80%);fill-opacity:1;stroke-width:0.4;stroke-linecap:butt;stroke-linejoin:round;stroke:rgb(50.1%,50.1%,50.1%);stroke-opacity:1;stroke-miterlimit:10;" d="M 343.653937 235.913281 L 360.185187 235.01875 L 360.185187 229.120313 L 359.825812 225.389844 L 359.583625 221.897656 L 360.907844 220.815625 L 361.872687 220.092969 L 363.556281 220.214063 L 364.400031 218.889844 L 367.165656 218.046094 L 368.247687 217.686719 L 369.454719 217.928906 L 370.415656 217.928906 L 370.657844 216.964063 L 371.618781 216.241406 L 373.064094 216.846875 L 374.025031 216.120313 L 375.470344 216.003125 L 377.638312 216.3625 L 378.478156 216.003125 L 379.079719 215.639844 L 380.165656 215.038281 L 381.489875 215.522656 L 382.693 216.120313 L 385.216437 216.120313 L 386.903937 216.3625 L 388.228156 215.639844 L 390.271125 214.557813 L 390.993781 214.319531 L 391.919562 213.753125 L 393.181281 213.714063 L 393.435187 209.921094 L 393.478156 203.053906 L 394.825812 201.409375 L 395.03675 199.764844 L 395.708625 198.260938 L 396.423469 196.741406 L 396.298469 195.014844 L 395.833625 193.749219 L 395.497687 192.948438 L 395.41175 191.725781 L 395.540656 190.714063 L 395.540656 189.917188 L 394.064094 187.178906 L 392.6305 186.964063 L 391.53675 186.374219 L 390.693 186.038281 L 389.892219 186.335156 L 388.798469 187.007031 L 388.290656 186.335156 L 388.040656 183.932813 L 387.743781 182.921094 L 387.407844 181.995313 L 386.818 181.108594 L 386.056281 180.647656 L 385.048469 180.139844 L 384.458625 179.846875 L 383.739875 179.507031 L 382.982062 179.042188 L 381.720344 178.370313 L 381.212531 179.171094 L 381.548469 180.014844 L 380.708625 179.803906 L 379.696906 179.421094 L 379.232062 178.624219 L 379.064094 178.159375 L 378.220344 177.7375 L 377.165656 177.022656 L 376.450812 175.885938 L 375.989875 174.913281 L 375.525031 174.073438 L 374.259406 173.651563 L 374.427375 171.124219 L 373.040656 170.100781 L 373.821906 169.007031 L 373.196906 167.284375 L 373.821906 164.471875 L 374.290656 163.217969 L 374.759406 161.026563 L 373.353156 161.339063 L 371.47425 161.964063 L 368.814094 162.280469 L 366.626594 163.061719 L 364.903937 163.530469 L 362.400031 165.721875 L 361.306281 167.128125 L 360.294562 169.952344 L 359.646125 173.100781 L 358.810187 174.120313 L 357.329719 175.510938 L 356.497687 177.26875 L 355.384406 178.655469 L 354.739875 179.76875 L 353.997687 182.08125 L 352.888312 184.4875 L 351.868781 185.971875 L 350.478156 187.358594 L 348.720344 189.303906 L 342.610969 189.764844 L 341.591437 189.39375 L 340.575812 188.378125 L 339.927375 187.08125 L 338.259406 184.397656 L 337.243781 184.303906 L 335.482062 184.952344 L 333.446906 186.710156 L 331.501594 188.655469 L 330.853156 189.39375 L 329.837531 191.526563 L 329.466437 194.210156 L 328.775031 196.776563 L 325.927375 199.624219 L 324.064094 201.70625 L 322.857062 203.022656 L 322.2555 203.405469 L 321.489875 204.6125 L 319.821906 206.069531 L 320.064094 207.030469 L 340.884406 205.225781 Z M 343.653937 235.913281 " transform="matrix(1,0,0,-1,-237.443,339.05)"/>
<path style="fill-rule:evenodd;fill:rgb(100%,100%,80%);fill-opacity:1;stroke-width:0.4;stroke-linecap:butt;stroke-linejoin:round;stroke:rgb(50.1%,50.1%,50.1%);stroke-opacity:1;stroke-miterlimit:10;" d="M 377.657844 320.342969 L 386.712531 320.276563 L 387.282844 320.702344 L 387.282844 322.839063 L 387.778937 323.053906 L 388.560187 322.409375 L 389.345344 320.417188 L 389.915656 319.20625 L 390.415656 318.565625 L 392.478156 318.70625 L 393.759406 317.925 L 394.47425 317.495313 L 395.681281 318.139844 L 396.251594 318.210156 L 397.747687 318.065625 L 398.958625 317.710156 L 400.239875 317.139844 L 401.310187 316.214063 L 402.802375 315.858594 L 403.587531 315.288281 L 404.798469 314.436719 L 405.72425 314.3625 L 406.579719 314.8625 L 407.790656 315.003125 L 408.78675 314.721875 L 410.708625 314.507031 L 412.204719 314.292188 L 411.134406 312.585156 L 410.282844 312.014844 L 409.28675 311.870313 L 408.571906 311.303906 L 408.001594 310.659375 L 407.5055 309.807813 L 406.579719 309.022656 L 405.794562 308.311719 L 404.728156 307.600781 L 403.872687 306.95625 L 402.876594 306.245313 L 402.165656 305.249219 L 401.310187 305.108594 L 400.954719 304.608594 L 400.8805 302.542188 L 400.739875 300.55 L 399.458625 299.835156 L 398.888312 299.479688 L 398.388312 298.628125 L 397.962531 297.702344 L 398.388312 297.202344 L 398.747687 296.702344 L 399.173469 296.276563 L 399.103156 295.635938 L 398.818 294.710156 L 398.888312 293.714063 L 398.818 292.788281 L 398.673469 292.003125 L 399.173469 290.936719 L 399.814094 290.436719 L 400.810187 289.655469 L 402.306281 289.440625 L 403.091437 288.229688 L 404.228156 287.303906 L 405.013312 286.878125 L 405.939094 285.878125 L 406.720344 284.952344 L 406.790656 283.741406 L 406.364875 283.245313 L 380.513312 282.885938 L 380.513312 289.272656 L 380.884406 295.292188 L 378.939094 297.05 L 380.376594 299.874219 L 380.306281 302.225781 L 379.665656 303.221875 L 379.3805 305.14375 L 379.306281 306.854688 L 379.095344 308.846875 L 378.950812 311.339063 L 378.384406 313.83125 L 377.814094 315.1125 L 377.743781 317.178906 L 378.028937 318.460156 Z M 377.657844 320.342969 " transform="matrix(1,0,0,-1,-237.443,339.05)"/>
<path style="fill-rule:evenodd;fill:rgb(100%,100%,80%);fill-opacity:1;stroke-width:0.4;stroke-linecap:butt;stroke-linejoin:round;stroke:rgb(50.1%,50.1%,50.1%);stroke-opacity:1;stroke-miterlimit:10;" d="M 380.446906 282.839063 L 379.864875 282.425 L 380.513312 280.296094 L 379.403937 276.960156 L 381.021125 274.20625 L 381.646125 272.796094 L 382.431281 270.921094 L 382.431281 269.358594 L 383.368781 267.792188 L 383.368781 263.725781 L 384.306281 262.315625 L 396.021125 262.811719 L 404.708625 262.882031 L 406.415656 261.45625 L 407.056281 262.882031 L 407.626594 263.307813 L 407.982062 263.522656 L 408.052375 264.163281 L 408.341437 264.874219 L 408.696906 265.444531 L 408.837531 265.870313 L 408.767219 266.370313 L 408.552375 266.655469 L 408.41175 266.870313 L 408.126594 267.366406 L 408.052375 267.936719 L 408.41175 268.721875 L 409.263312 268.932813 L 409.978156 269.147656 L 411.044562 269.573438 L 411.544562 269.932813 L 411.829719 270.428906 L 411.970344 271.069531 L 412.470344 271.569531 L 412.540656 272.069531 L 412.540656 273.635938 L 412.396125 274.061719 L 411.900031 274.276563 L 411.544562 274.846875 L 410.97425 275.413281 L 410.47425 276.124219 L 409.833625 277.124219 L 409.122687 277.620313 L 408.341437 277.694531 L 407.982062 278.05 L 407.771125 278.475781 L 407.626594 278.905469 L 407.341437 280.257031 L 407.271125 281.1125 L 407.056281 281.608594 L 406.915656 282.678906 L 406.364875 283.245313 Z M 380.446906 282.839063 " transform="matrix(1,0,0,-1,-237.443,339.05)"/>
<path style="fill-rule:evenodd;fill:rgb(100%,100%,80%);fill-opacity:1;stroke-width:0.4;stroke-linecap:butt;stroke-linejoin:round;stroke:rgb(50.1%,50.1%,50.1%);stroke-opacity:1;stroke-miterlimit:10;" d="M 384.306281 262.315625 L 384.622687 260.596875 L 385.403937 260.124219 L 385.872687 258.561719 L 387.032844 257.905469 L 388.044562 257.272656 L 388.087531 256.850781 L 387.790656 256.346875 L 387.372687 255.671094 L 387.540656 255.163281 L 388.087531 254.702344 L 388.3805 254.194531 L 388.720344 253.186719 L 390.1305 252.311719 L 390.1305 237.448438 L 390.153937 234.175 L 393.087531 234.276563 L 398.017219 234.33125 L 402.728156 234.495313 L 406.669562 234.604688 L 408.204719 234.76875 L 410.72425 234.76875 L 413.517219 234.823438 L 414.560187 234.714063 L 415.16175 233.616406 L 414.943 233.069531 L 414.778937 232.467969 L 414.173469 232.030469 L 413.903937 231.534375 L 414.009406 231.315625 L 415.271125 231.589063 L 416.532844 231.483594 L 417.298469 231.753125 L 417.735969 233.397656 L 418.228156 235.042188 L 419.103156 235.425 L 419.708625 236.139844 L 420.091437 236.905469 L 419.982062 237.944531 L 419.59925 238.9875 L 418.665656 239.042188 L 418.228156 239.589063 L 417.845344 240.354688 L 417.790656 241.124219 L 417.845344 242.272656 L 417.462531 243.202344 L 416.970344 243.753125 L 416.146125 244.573438 L 415.3805 245.120313 L 414.778937 245.175 L 413.954719 245.725781 L 413.243781 246.436719 L 412.860969 246.764844 L 412.751594 247.421094 L 413.243781 248.464063 L 413.243781 249.120313 L 413.735969 250.491406 L 413.407844 251.421094 L 412.259406 251.749219 L 411.653937 251.639844 L 411.271125 251.530469 L 410.72425 252.186719 L 410.560187 253.065625 L 410.177375 254.214063 L 409.079719 255.034375 L 408.204719 256.022656 L 407.220344 256.678906 L 407.001594 257.39375 L 406.72425 258.214063 L 406.450812 258.925 L 406.28675 259.58125 L 406.177375 260.405469 L 406.415656 261.45625 L 404.708625 262.882031 L 396.021125 262.811719 Z M 384.306281 262.315625 " transform="matrix(1,0,0,-1,-237.443,339.05)"/>
<path style="fill-rule:evenodd;fill:rgb(100%,100%,80%);fill-opacity:1;stroke-width:0.4;stroke-linecap:butt;stroke-linejoin:round;stroke:rgb(50.1%,50.1%,50.1%);stroke-opacity:1;stroke-miterlimit:10;" d="M 390.153937 234.175 L 390.993781 214.319531 L 391.919562 213.753125 L 393.181281 213.714063 L 393.435187 209.921094 L 402.318 210.132031 L 409.900031 210.253125 L 410.290656 211.725781 L 409.931281 212.436719 L 409.720344 213.721875 L 409.646125 214.932813 L 410.001594 215.64375 L 410.431281 216.639844 L 410.78675 217.565625 L 411.212531 218.635938 L 411.782844 219.561719 L 412.497687 220.198438 L 412.853156 220.4875 L 412.853156 221.624219 L 413.138312 222.479688 L 413.778937 223.264844 L 414.989875 224.757031 L 415.415656 225.897656 L 415.271125 226.964063 L 416.126594 228.530469 L 416.626594 229.741406 L 417.169562 230.819531 L 416.532844 231.483594 L 415.271125 231.589063 L 414.009406 231.315625 L 413.903937 231.534375 L 414.173469 232.030469 L 414.778937 232.467969 L 414.943 233.069531 L 415.16175 233.616406 L 414.560187 234.714063 L 413.517219 234.823438 L 410.72425 234.76875 L 408.204719 234.76875 L 406.669562 234.604688 L 402.728156 234.495313 L 398.017219 234.33125 L 393.087531 234.276563 Z M 390.153937 234.175 " transform="matrix(1,0,0,-1,-237.443,339.05)"/>
<path style="fill-rule:evenodd;fill:rgb(100%,100%,80%);fill-opacity:1;stroke-width:0.4;stroke-linecap:butt;stroke-linejoin:round;stroke:rgb(50.1%,50.1%,50.1%);stroke-opacity:1;stroke-miterlimit:10;" d="M 393.435187 209.921094 L 393.478156 203.053906 L 394.825812 201.409375 L 395.03675 199.764844 L 395.708625 198.260938 L 396.423469 196.741406 L 396.298469 195.014844 L 395.833625 193.749219 L 395.497687 192.948438 L 395.41175 191.725781 L 395.540656 190.714063 L 395.540656 189.917188 L 394.064094 187.178906 L 397.2555 187.436719 L 398.900031 187.546094 L 400.708625 187.163281 L 401.966437 186.780469 L 403.775031 186.507031 L 404.321906 186.616406 L 404.818 186.835156 L 405.364875 187.9875 L 405.802375 188.151563 L 406.677375 187.932813 L 407.665656 187.382031 L 409.528937 186.342969 L 410.568 185.135938 L 411.060187 184.534375 L 412.267219 184.370313 L 413.142219 184.042188 L 414.896125 184.20625 L 415.989875 184.20625 L 417.087531 184.370313 L 417.470344 184.917188 L 418.071906 185.905469 L 418.564094 186.069531 L 419.8805 185.303906 L 420.810187 184.589063 L 422.017219 183.604688 L 422.728156 183.546094 L 423.329719 184.370313 L 422.946906 185.026563 L 422.235969 185.573438 L 421.251594 186.069531 L 420.591437 186.397656 L 420.044562 187.163281 L 419.935187 187.9875 L 420.700812 188.534375 L 421.525031 189.190625 L 421.798469 190.120313 L 421.798469 190.835156 L 420.868781 191.053906 L 420.427375 190.503125 L 419.716437 190.014844 L 419.114875 190.014844 L 418.017219 191.108594 L 417.196906 190.616406 L 416.704719 190.503125 L 415.8805 190.503125 L 415.114875 190.889844 L 415.22425 191.874219 L 416.157844 192.530469 L 417.853156 192.585156 L 419.607062 192.038281 L 420.09925 192.092969 L 419.66175 192.971875 L 419.060187 193.628125 L 418.677375 194.175 L 418.564094 194.776563 L 418.896125 195.819531 L 418.896125 196.749219 L 417.087531 196.803906 L 414.896125 196.749219 L 412.814094 196.749219 L 410.294562 196.311719 L 407.993781 196.530469 L 407.884406 197.296094 L 407.829719 198.120313 L 408.321906 198.667188 L 408.540656 199.651563 L 408.540656 200.257031 L 408.814094 200.858594 L 409.200812 201.678906 L 409.583625 202.557813 L 410.294562 203.159375 L 410.732062 203.596875 L 410.732062 204.3625 L 411.278937 204.745313 L 411.497687 205.077344 L 411.114875 206.061719 L 410.677375 206.772656 L 410.513312 207.542188 L 410.458625 208.526563 L 410.392219 209.346875 L 409.900031 210.253125 L 402.318 210.132031 Z M 393.435187 209.921094 " transform="matrix(1,0,0,-1,-237.443,339.05)"/>
<path style="fill-rule:evenodd;fill:rgb(100%,100%,80%);fill-opacity:1;stroke-width:0.4;stroke-linecap:butt;stroke-linejoin:round;stroke:rgb(50.1%,50.1%,50.1%);stroke-opacity:1;stroke-miterlimit:10;" d="M 251.72425 178.296094 L 252.325813 178.296094 L 252.982063 177.58125 L 253.970344 177.475781 L 253.970344 178.022656 L 253.47425 178.186719 L 252.982063 178.350781 L 252.763313 178.842969 L 252.435188 179.116406 L 251.888313 179.171094 L 251.614875 179.225781 L 251.614875 178.733594 L 251.450813 178.842969 Z M 251.72425 178.296094 " transform="matrix(1,0,0,-1,-237.443,339.05)"/>
<path style="fill-rule:evenodd;fill:rgb(100%,100%,80%);fill-opacity:1;stroke-width:0.4;stroke-linecap:butt;stroke-linejoin:round;stroke:rgb(50.1%,50.1%,50.1%);stroke-opacity:1;stroke-miterlimit:10;" d="M 253.806281 172.432813 L 254.954719 172.378125 L 255.450813 172.05 L 255.450813 171.503125 L 254.790656 171.010938 L 254.079719 171.6125 L 253.860969 171.940625 Z M 253.806281 172.432813 " transform="matrix(1,0,0,-1,-237.443,339.05)"/>
<path style="fill-rule:evenodd;fill:rgb(100%,100%,80%);fill-opacity:1;stroke-width:0.4;stroke-linecap:butt;stroke-linejoin:round;stroke:rgb(50.1%,50.1%,50.1%);stroke-opacity:1;stroke-miterlimit:10;" d="M 253.091438 161.8625 L 252.653938 161.64375 L 251.833625 161.315625 L 251.5055 161.096875 L 250.903938 161.042188 L 250.462531 160.874219 L 250.079719 160.655469 L 249.806281 160.382031 L 249.696906 160.163281 L 249.915656 159.999219 L 250.298469 159.999219 L 250.517219 160.491406 L 250.958625 160.604688 L 251.28675 160.604688 L 251.614875 160.710156 L 252.216438 160.764844 L 253.03675 160.9875 L 253.47425 161.260938 L 253.696906 161.425 L 253.2555 161.807813 Z M 253.091438 161.8625 " transform="matrix(1,0,0,-1,-237.443,339.05)"/>
<path style="fill-rule:evenodd;fill:rgb(100%,100%,80%);fill-opacity:1;stroke-width:0.4;stroke-linecap:butt;stroke-linejoin:round;stroke:rgb(50.1%,50.1%,50.1%);stroke-opacity:1;stroke-miterlimit:10;" d="M 246.189094 160.272656 L 245.314094 160.163281 L 244.876594 160.327344 L 244.493781 160.604688 L 244.275031 160.604688 L 243.837531 160.327344 L 244.001594 160.108594 L 244.876594 159.889844 L 245.478156 159.671094 L 245.915656 159.725781 L 246.302375 160.108594 Z M 246.189094 160.272656 " transform="matrix(1,0,0,-1,-237.443,339.05)"/>
<path style="fill-rule:evenodd;fill:rgb(100%,100%,80%);fill-opacity:1;stroke-width:0.4;stroke-linecap:butt;stroke-linejoin:round;stroke:rgb(50.1%,50.1%,50.1%);stroke-opacity:1;stroke-miterlimit:10;" d="M 239.954719 161.182813 L 240.228156 160.854688 L 240.669563 160.741406 L 241.271125 160.522656 L 241.763313 160.467969 L 241.818 160.303906 L 241.763313 160.194531 L 241.489875 160.030469 L 240.943 160.249219 L 240.392219 160.413281 L 240.118781 160.467969 L 239.954719 160.909375 Z M 239.954719 161.182813 " transform="matrix(1,0,0,-1,-237.443,339.05)"/>
<path style="fill-rule:evenodd;fill:rgb(100%,100%,80%);fill-opacity:1;stroke-width:0.4;stroke-linecap:butt;stroke-linejoin:round;stroke:rgb(50.1%,50.1%,50.1%);stroke-opacity:1;stroke-miterlimit:10;" d="M 265.064094 191.866406 L 262.47425 190.569531 L 261.454719 189.921094 L 260.622687 189.089063 L 259.8805 188.350781 L 258.122687 188.073438 L 257.845344 187.2375 L 257.845344 186.034375 L 258.864875 185.108594 L 259.8805 183.999219 L 261.083625 182.51875 L 260.16175 181.870313 L 259.325812 182.053906 L 258.306281 182.979688 L 257.3805 182.979688 L 256.548469 182.425 L 256.177375 182.053906 L 256.177375 180.944531 L 256.364875 180.108594 L 257.290656 179.276563 L 259.419562 179.092969 L 260.900031 178.999219 L 260.345344 177.796094 L 259.790656 177.053906 L 258.864875 176.870313 L 258.122687 176.499219 L 256.919562 175.944531 L 256.087531 175.389844 L 255.806281 174.647656 L 256.177375 173.260938 L 256.458625 171.964063 L 256.732062 171.132031 L 258.216437 170.944531 L 258.771125 170.296094 L 258.306281 168.999219 L 260.435187 168.999219 L 260.716437 168.632031 L 262.290656 168.632031 L 262.103156 166.964063 L 262.009406 166.409375 L 261.083625 165.667188 L 259.696906 164.835156 L 258.587531 164.464063 L 256.919562 163.909375 L 255.716438 163.260938 L 254.884406 162.8 L 254.603156 162.151563 L 254.790656 162.057813 L 256.087531 162.522656 L 257.66175 163.077344 L 259.048469 163.538281 L 260.068 164.003125 L 261.732062 164.741406 L 263.028937 165.483594 L 264.509406 166.315625 L 265.712531 167.796094 L 265.900031 168.815625 L 265.712531 169.647656 L 266.360969 170.483594 L 267.47425 171.132031 L 267.841437 170.1125 L 268.212531 169.464063 L 268.489875 168.999219 L 269.8805 170.296094 L 270.622687 170.760938 L 270.896125 172.057813 L 271.360969 172.241406 L 273.028937 171.964063 L 274.59925 170.944531 L 276.360969 170.854688 L 277.09925 170.854688 L 278.302375 170.01875 L 279.59925 169.280469 L 281.079719 168.538281 L 282.564094 168.444531 L 283.950812 168.260938 L 285.431281 166.592969 L 287.09925 164.464063 L 287.931281 163.632031 L 288.763312 164.651563 L 288.025031 165.760938 L 286.728156 166.686719 L 284.693 168.260938 L 283.579719 169.741406 L 281.915656 170.20625 L 280.153937 170.20625 L 278.118781 170.944531 L 277.657844 171.870313 L 277.009406 173.909375 L 276.821906 175.573438 L 276.732062 177.241406 L 276.083625 181.034375 L 276.083625 183.257031 L 275.806281 186.034375 L 275.247687 188.628125 L 274.415656 189.276563 L 270.989875 189.460156 L 267.3805 190.569531 Z M 265.064094 191.866406 " transform="matrix(1,0,0,-1,-237.443,339.05)"/>
<path style="fill-rule:evenodd;fill:rgb(100%,100%,80%);fill-opacity:1;stroke-width:0.4;stroke-linecap:butt;stroke-linejoin:round;stroke:rgb(50.1%,50.1%,50.1%);stroke-opacity:1;stroke-miterlimit:10;" d="M 265.622687 166.780469 L 265.626594 166.100781 L 265.446906 166.135938 L 265.263312 166.315625 L 264.923469 166.100781 L 264.798469 165.874219 L 264.810187 165.678906 L 265.001594 165.303906 L 265.025031 165.057813 L 265.821906 165.057813 L 266.126594 165.260938 L 266.28675 165.499219 L 266.544562 165.553906 L 266.864875 165.917188 L 267.068 166.135938 L 266.876594 166.350781 L 266.864875 166.620313 L 266.716437 166.975781 L 267.001594 167.167188 L 267.407844 167.257031 L 267.372687 167.608594 L 267.114875 168.096875 L 267.009406 167.882031 L 266.829719 167.835156 L 266.646125 167.608594 L 266.419562 167.39375 L 266.306281 167.100781 L 265.954719 166.792188 Z M 265.622687 166.780469 " transform="matrix(1,0,0,-1,-237.443,339.05)"/>
<path style="fill-rule:evenodd;fill:rgb(100%,100%,80%);fill-opacity:1;stroke-width:0.4;stroke-linecap:butt;stroke-linejoin:round;stroke:rgb(50.1%,50.1%,50.1%);stroke-opacity:1;stroke-miterlimit:10;" d="M 304.239875 175.89375 L 303.556281 175.503125 L 303.267219 174.788281 L 303.427375 173.850781 L 304.239875 173.589063 L 305.372687 174.565625 L 304.821906 175.342969 Z M 304.239875 175.89375 " transform="matrix(1,0,0,-1,-237.443,339.05)"/>
<path style="fill-rule:evenodd;fill:rgb(100%,100%,80%);fill-opacity:1;stroke-width:0.4;stroke-linecap:butt;stroke-linejoin:round;stroke:rgb(50.1%,50.1%,50.1%);stroke-opacity:1;stroke-miterlimit:10;" d="M 310.689094 173.202344 L 309.716437 172.425 L 310.200812 171.51875 L 311.66175 171.55 L 311.368781 172.260938 Z M 310.689094 173.202344 " transform="matrix(1,0,0,-1,-237.443,339.05)"/>
<path style="fill-rule:evenodd;fill:rgb(100%,100%,80%);fill-opacity:1;stroke-width:0.4;stroke-linecap:butt;stroke-linejoin:round;stroke:rgb(50.1%,50.1%,50.1%);stroke-opacity:1;stroke-miterlimit:10;" d="M 315.778937 171.51875 L 313.704719 171.385938 L 313.41175 170.546094 L 314.708625 170.448438 L 316.360969 170.089063 L 316.716437 169.249219 L 317.78675 168.471875 L 318.368781 167.952344 L 319.310187 169.475781 L 317.982062 170.089063 Z M 315.778937 171.51875 " transform="matrix(1,0,0,-1,-237.443,339.05)"/>
<path style="fill-rule:evenodd;fill:rgb(100%,100%,80%);fill-opacity:1;stroke-width:0.4;stroke-linecap:butt;stroke-linejoin:round;stroke:rgb(50.1%,50.1%,50.1%);stroke-opacity:1;stroke-miterlimit:10;" d="M 319.47425 166.784375 L 319.407844 164.776563 L 319.407844 163.70625 L 319.829719 162.89375 L 319.700812 161.565625 L 320.673469 161.307813 L 321.384406 161.1125 L 322.09925 162.764844 L 323.200812 162.991406 L 324.138312 163.444531 L 323.946906 164.678906 L 322.681281 165.749219 L 320.251594 166.589063 Z M 319.47425 166.784375 " transform="matrix(1,0,0,-1,-237.443,339.05)"/>
<path style="fill-rule:evenodd;fill:rgb(100%,100%,80%);fill-opacity:1;stroke-width:0.4;stroke-linecap:butt;stroke-linejoin:round;stroke:rgb(50.1%,50.1%,50.1%);stroke-opacity:1;stroke-miterlimit:10;" d="M 414.989875 224.757031 L 416.482062 224.553906 L 420.044562 224.839063 L 422.607062 225.053906 L 426.239875 225.194531 L 426.454719 225.194531 L 426.8805 222.417188 L 427.025031 207.464063 L 427.025031 193.221875 L 423.247687 193.077344 L 421.966437 192.436719 L 420.09925 192.092969 L 419.66175 192.971875 L 419.060187 193.628125 L 418.677375 194.175 L 418.564094 194.776563 L 418.896125 195.819531 L 418.896125 196.749219 L 417.087531 196.803906 L 414.896125 196.749219 L 412.814094 196.749219 L 410.294562 196.311719 L 407.993781 196.530469 L 407.884406 197.296094 L 407.829719 198.120313 L 408.321906 198.667188 L 408.540656 199.651563 L 408.540656 200.257031 L 408.814094 200.858594 L 409.200812 201.678906 L 409.583625 202.557813 L 410.294562 203.159375 L 410.732062 203.596875 L 410.732062 204.3625 L 411.278937 204.745313 L 411.497687 205.077344 L 411.114875 206.061719 L 410.677375 206.772656 L 410.513312 207.542188 L 410.458625 208.526563 L 410.392219 209.346875 L 409.900031 210.253125 L 410.290656 211.725781 L 409.931281 212.436719 L 409.720344 213.721875 L 409.646125 214.932813 L 410.001594 215.64375 L 410.431281 216.639844 L 410.78675 217.565625 L 411.212531 218.635938 L 411.782844 219.561719 L 412.497687 220.198438 L 412.853156 220.4875 L 412.853156 221.624219 L 413.138312 222.479688 L 413.778937 223.264844 Z M 414.989875 224.757031 " transform="matrix(1,0,0,-1,-237.443,339.05)"/>
<path style="fill-rule:evenodd;fill:rgb(100%,100%,80%);fill-opacity:1;stroke-width:0.4;stroke-linecap:butt;stroke-linejoin:round;stroke:rgb(50.1%,50.1%,50.1%);stroke-opacity:1;stroke-miterlimit:10;" d="M 426.454719 225.194531 L 440.716437 226.405469 L 444.001594 215.14375 L 445.720344 210.135938 L 446.5055 208.100781 L 446.032844 207.007031 L 446.032844 204.971875 L 446.345344 202.471875 L 446.818 198.870313 L 437.114875 198.245313 L 431.954719 197.464063 L 431.798469 196.522656 L 432.735969 195.272656 L 433.204719 194.335156 L 433.048469 192.925 L 430.544562 192.3 L 429.294562 196.210156 L 428.353156 193.08125 L 427.025031 193.221875 L 427.025031 207.464063 L 426.8805 222.417188 Z M 426.454719 225.194531 " transform="matrix(1,0,0,-1,-237.443,339.05)"/>
<path style="fill-rule:evenodd;fill:rgb(100%,100%,80%);fill-opacity:1;stroke-width:0.4;stroke-linecap:butt;stroke-linejoin:round;stroke:rgb(50.1%,50.1%,50.1%);stroke-opacity:1;stroke-miterlimit:10;" d="M 446.818 198.870313 L 447.759406 197.58125 L 454.22425 197.58125 L 459.97425 197.964063 L 463.204719 198.073438 L 464.247687 197.14375 L 465.232062 197.089063 L 465.068 198.346875 L 464.739875 199.663281 L 465.560187 199.991406 L 466.821906 199.827344 L 467.587531 199.717969 L 469.778937 193.964063 L 471.150031 191.225781 L 472.735969 188.760938 L 473.943 187.335156 L 475.091437 185.803906 L 475.364875 184.432813 L 475.583625 183.229688 L 476.790656 180.928906 L 478.103156 178.464063 L 478.927375 177.147656 L 479.747687 175.561719 L 480.243781 173.971875 L 480.626594 170.741406 L 480.790656 168.440625 L 480.517219 167.288281 L 480.34925 166.030469 L 480.462531 164.878125 L 480.845344 163.780469 L 478.818 163.397656 L 477.446906 162.686719 L 476.079719 162.249219 L 475.091437 162.303906 L 474.763312 163.124219 L 474.489875 164.385938 L 473.560187 165.753125 L 472.845344 166.467969 L 472.134406 166.796094 L 471.368781 166.905469 L 470.821906 167.561719 L 469.560187 169.807813 L 469.068 170.409375 L 468.462531 171.944531 L 467.587531 172.874219 L 466.603156 173.370313 L 466.001594 174.135938 L 465.013312 175.010938 L 464.083625 176.217969 L 463.97425 178.135938 L 463.919562 179.284375 L 463.314094 179.448438 L 462.603156 179.39375 L 462.384406 180.436719 L 462.493781 181.639844 L 462.220344 183.448438 L 461.837531 184.596875 L 461.673469 186.460156 L 461.341437 187.667188 L 460.138312 188.378125 L 459.044562 188.925 L 457.728156 189.967969 L 457.181281 190.678906 L 456.521125 191.827344 L 454.716437 193.198438 L 453.071906 193.526563 L 452.032844 193.471875 L 450.989875 192.596875 L 450.333625 191.827344 L 449.181281 191.444531 L 447.978156 190.897656 L 446.935187 190.514844 L 445.677375 190.350781 L 445.239875 191.116406 L 444.802375 191.885938 L 444.032844 192.323438 L 443.157844 192.596875 L 442.0055 192.925 L 440.200812 193.690625 L 439.431281 194.073438 L 438.610969 194.733594 L 437.458625 194.678906 L 436.419562 194.350781 L 435.376594 194.186719 L 434.720344 194.514844 L 433.204719 194.335156 L 432.735969 195.272656 L 431.798469 196.522656 L 431.954719 197.464063 L 437.114875 198.245313 Z M 446.818 198.870313 " transform="matrix(1,0,0,-1,-237.443,339.05)"/>
<path style="fill-rule:evenodd;fill:rgb(100%,100%,80%);fill-opacity:1;stroke-width:0.4;stroke-linecap:butt;stroke-linejoin:round;stroke:rgb(50.1%,50.1%,50.1%);stroke-opacity:1;stroke-miterlimit:10;" d="M 410.47425 276.124219 L 424.03675 276.885938 L 426.443 271.608594 L 426.720344 266.979688 L 426.814094 262.444531 L 427.275031 259.667188 L 427.462531 256.053906 L 426.997687 254.389844 L 427.552375 252.538281 L 427.646125 251.51875 L 427.181281 249.854688 L 426.34925 247.999219 L 425.517219 246.057813 L 425.794562 245.038281 L 425.333625 243.835156 L 425.146125 242.167188 L 424.126594 241.796094 L 423.482062 241.335156 L 423.571906 239.577344 L 423.017219 239.3 L 420.888312 239.854688 L 419.59925 238.9875 L 418.665656 239.042188 L 418.228156 239.589063 L 417.845344 240.354688 L 417.790656 241.124219 L 417.845344 242.272656 L 417.462531 243.202344 L 416.970344 243.753125 L 416.146125 244.573438 L 415.3805 245.120313 L 414.778937 245.175 L 413.954719 245.725781 L 413.243781 246.436719 L 412.860969 246.764844 L 412.751594 247.421094 L 413.243781 248.464063 L 413.243781 249.120313 L 413.735969 250.491406 L 413.407844 251.421094 L 412.259406 251.749219 L 411.653937 251.639844 L 411.271125 251.530469 L 410.72425 252.186719 L 410.560187 253.065625 L 410.177375 254.214063 L 409.079719 255.034375 L 408.204719 256.022656 L 407.220344 256.678906 L 407.001594 257.39375 L 406.72425 258.214063 L 406.450812 258.925 L 406.28675 259.58125 L 406.177375 260.405469 L 406.415656 261.45625 L 407.056281 262.882031 L 407.626594 263.307813 L 407.982062 263.522656 L 408.052375 264.163281 L 408.341437 264.874219 L 408.696906 265.444531 L 408.837531 265.870313 L 408.767219 266.370313 L 408.552375 266.655469 L 408.41175 266.870313 L 408.126594 267.366406 L 408.052375 267.936719 L 408.41175 268.721875 L 409.263312 268.932813 L 409.978156 269.147656 L 411.044562 269.573438 L 411.544562 269.932813 L 411.829719 270.428906 L 411.970344 271.069531 L 412.470344 271.569531 L 412.540656 272.069531 L 412.540656 273.635938 L 412.396125 274.061719 L 411.900031 274.276563 L 411.544562 274.846875 L 410.97425 275.413281 Z M 410.47425 276.124219 " transform="matrix(1,0,0,-1,-237.443,339.05)"/>
<path style="fill-rule:evenodd;fill:rgb(100%,100%,80%);fill-opacity:1;stroke-width:0.4;stroke-linecap:butt;stroke-linejoin:round;stroke:rgb(50.1%,50.1%,50.1%);stroke-opacity:1;stroke-miterlimit:10;" d="M 419.103156 235.425 L 423.208625 235.499219 L 426.165656 235.499219 L 426.001594 236.702344 L 427.696906 236.596875 L 430.107062 236.702344 L 434.16175 237.198438 L 438.052375 237.964063 L 440.025031 238.01875 L 442.653937 238.346875 L 446.157844 238.729688 L 449.060187 239.003125 L 453.22425 239.499219 L 455.306281 239.882031 L 461.0055 240.592969 L 461.169562 238.346875 L 460.235969 237.3625 L 459.579719 236.596875 L 458.372687 236.210156 L 457.607062 235.499219 L 457.060187 235.061719 L 455.689094 234.897656 L 455.142219 234.405469 L 454.650031 233.526563 L 453.497687 232.596875 L 452.513312 231.936719 L 451.747687 231.444531 L 450.595344 231.389844 L 449.610969 230.569531 L 449.282844 229.694531 L 449.060187 229.089063 L 447.966437 228.542188 L 447.91175 227.448438 L 444.462531 226.952344 L 440.716437 226.405469 L 426.454719 225.194531 L 422.607062 225.053906 L 420.044562 224.839063 L 416.482062 224.553906 L 414.989875 224.757031 L 415.415656 225.897656 L 415.271125 226.964063 L 416.126594 228.530469 L 416.626594 229.741406 L 417.169562 230.819531 L 416.532844 231.483594 L 417.298469 231.753125 L 417.735969 233.397656 L 418.228156 235.042188 Z M 419.103156 235.425 " transform="matrix(1,0,0,-1,-237.443,339.05)"/>
<path style="fill-rule:evenodd;fill:rgb(100%,100%,80%);fill-opacity:1;stroke-width:0.4;stroke-linecap:butt;stroke-linejoin:round;stroke:rgb(50.1%,50.1%,50.1%);stroke-opacity:1;stroke-miterlimit:10;" d="M 440.716437 226.405469 L 447.91175 227.448438 L 452.646125 227.823438 L 454.407844 227.823438 L 453.943 226.342969 L 455.052375 225.323438 L 456.443 224.491406 L 457.739875 223.100781 L 458.665656 221.714063 L 459.958625 220.600781 L 461.626594 219.397656 L 462.923469 217.639844 L 463.478156 216.714063 L 464.775031 215.882031 L 465.978156 214.95625 L 466.16175 214.030469 L 466.903937 212.3625 L 467.552375 212.45625 L 468.107062 211.714063 L 468.384406 210.417188 L 469.310187 209.8625 L 469.864875 209.124219 L 469.310187 207.55 L 468.939094 205.604688 L 468.384406 204.214063 L 467.919562 202.64375 L 467.552375 201.530469 L 467.587531 199.717969 L 466.821906 199.827344 L 465.560187 199.991406 L 464.739875 199.663281 L 465.068 198.346875 L 465.232062 197.089063 L 464.247687 197.14375 L 463.204719 198.073438 L 459.97425 197.964063 L 454.22425 197.58125 L 447.759406 197.58125 L 446.818 198.870313 L 446.345344 202.471875 L 446.032844 204.971875 L 446.032844 207.007031 L 446.5055 208.100781 L 445.720344 210.135938 L 444.001594 215.14375 Z M 440.716437 226.405469 " transform="matrix(1,0,0,-1,-237.443,339.05)"/>
<path style="fill-rule:evenodd;fill:rgb(100%,100%,80%);fill-opacity:1;stroke-width:0.4;stroke-linecap:butt;stroke-linejoin:round;stroke:rgb(50.1%,50.1%,50.1%);stroke-opacity:1;stroke-miterlimit:10;" d="M 454.407844 227.823438 L 455.704719 229.382031 L 458.103156 230.257031 L 462.157844 230.647656 L 466.6305 230.51875 L 468.247687 228.604688 L 473.501594 228.960156 L 476.22425 227.339063 L 479.72425 224.780469 L 481.083625 223.807813 L 480.888312 222.542188 L 479.204719 220.534375 L 478.329719 219.108594 L 477.907844 217.4875 L 475.575812 215.186719 L 473.208625 212.917188 L 470.001594 212.659375 L 469.771125 210.628125 L 469.310187 209.8625 L 468.384406 210.417188 L 468.107062 211.714063 L 467.552375 212.45625 L 466.903937 212.3625 L 466.16175 214.030469 L 465.978156 214.95625 L 464.775031 215.882031 L 463.478156 216.714063 L 462.923469 217.639844 L 461.626594 219.397656 L 459.958625 220.600781 L 458.665656 221.714063 L 457.739875 223.100781 L 456.443 224.491406 L 455.052375 225.323438 L 453.943 226.342969 Z M 454.407844 227.823438 " transform="matrix(1,0,0,-1,-237.443,339.05)"/>
<path style="fill-rule:evenodd;fill:rgb(100%,100%,80%);fill-opacity:1;stroke-width:0.4;stroke-linecap:butt;stroke-linejoin:round;stroke:rgb(50.1%,50.1%,50.1%);stroke-opacity:1;stroke-miterlimit:10;" d="M 410.47425 276.124219 L 424.03675 276.885938 L 424.075812 279.889844 L 423.653937 282.374219 L 424.747687 287.260938 L 425.212531 292.108594 L 425.970344 294.592969 L 423.864875 292.444531 L 422.935187 291.811719 L 422.513312 291.389844 L 423.146125 293.413281 L 424.114875 295.311719 L 423.568 296.573438 L 422.978156 297.460156 L 422.431281 299.061719 L 421.884406 299.944531 L 419.943 301.124219 L 417.669562 301.417188 L 414.970344 301.714063 L 412.864875 302.557813 L 411.853156 302.89375 L 410.5055 304.241406 L 410.3805 304.538281 L 407.767219 304.538281 L 407.72425 306.432813 L 406.6305 306.51875 L 404.607062 304.999219 L 403.216437 304.452344 L 402.247687 304.538281 L 402.165656 305.249219 L 401.310187 305.108594 L 400.954719 304.608594 L 400.8805 302.542188 L 400.739875 300.55 L 399.458625 299.835156 L 398.888312 299.479688 L 398.388312 298.628125 L 397.962531 297.702344 L 398.388312 297.202344 L 398.747687 296.702344 L 399.173469 296.276563 L 399.103156 295.635938 L 398.818 294.710156 L 398.888312 293.714063 L 398.818 292.788281 L 398.673469 292.003125 L 399.173469 290.936719 L 399.814094 290.436719 L 400.810187 289.655469 L 402.306281 289.440625 L 403.091437 288.229688 L 404.228156 287.303906 L 405.013312 286.878125 L 405.939094 285.878125 L 406.720344 284.952344 L 406.790656 283.741406 L 406.364875 283.245313 L 406.915656 282.678906 L 407.056281 281.608594 L 407.271125 281.1125 L 407.341437 280.257031 L 407.626594 278.905469 L 407.771125 278.475781 L 407.982062 278.05 L 408.341437 277.694531 L 409.122687 277.620313 L 409.833625 277.124219 Z M 410.47425 276.124219 " transform="matrix(1,0,0,-1,-237.443,339.05)"/>
<path style="fill-rule:evenodd;fill:rgb(100%,100%,80%);fill-opacity:1;stroke-width:0.4;stroke-linecap:butt;stroke-linejoin:round;stroke:rgb(50.1%,50.1%,50.1%);stroke-opacity:1;stroke-miterlimit:10;" d="M 410.3805 304.538281 L 411.739875 305.467969 L 412.778937 306.178906 L 414.095344 306.561719 L 415.735969 307.33125 L 417.872687 309.026563 L 420.064094 310.889844 L 421.16175 311.436719 L 421.927375 311.163281 L 421.325812 310.178906 L 420.939094 309.467969 L 420.228156 308.807813 L 419.298469 308.096875 L 418.915656 307.33125 L 419.021125 306.397656 L 420.446906 307.057813 L 421.982062 307.057813 L 423.407844 306.178906 L 424.720344 304.921094 L 426.747687 304.757031 L 427.78675 304.757031 L 430.200812 306.671094 L 432.060187 306.999219 L 434.634406 307.604688 L 435.290656 307.55 L 435.458625 306.452344 L 436.8805 306.069531 L 439.017219 305.960156 L 439.564094 304.757031 L 440.716437 303.495313 L 440.388312 302.620313 L 438.579719 302.620313 L 437.759406 302.124219 L 437.09925 301.960156 L 435.017219 302.784375 L 433.431281 302.2375 L 432.552375 301.632031 L 430.470344 301.030469 L 429.868781 300.592969 L 429.048469 299.276563 L 428.228156 300.374219 L 427.403937 300.042188 L 426.747687 299.55 L 425.927375 297.964063 L 425.376594 296.866406 L 426.364875 295.991406 L 425.970344 294.592969 L 423.864875 292.444531 L 422.935187 291.811719 L 422.513312 291.389844 L 423.146125 293.413281 L 424.114875 295.311719 L 423.568 296.573438 L 422.978156 297.460156 L 422.431281 299.061719 L 421.884406 299.944531 L 419.943 301.124219 L 417.669562 301.417188 L 414.970344 301.714063 L 412.864875 302.557813 L 411.853156 302.89375 Z M 410.3805 304.538281 " transform="matrix(1,0,0,-1,-237.443,339.05)"/>
<path style="fill-rule:evenodd;fill:rgb(100%,100%,80%);fill-opacity:1;stroke-width:0.4;stroke-linecap:butt;stroke-linejoin:round;stroke:rgb(50.1%,50.1%,50.1%);stroke-opacity:1;stroke-miterlimit:10;" d="M 426.443 271.608594 L 428.325812 271.854688 L 430.392219 272.995313 L 433.810187 272.995313 L 438.009406 273.20625 L 440.290656 273.139844 L 442.142219 255.264844 L 442.142219 253.057813 L 440.716437 252.202344 L 439.294562 252.342969 L 439.079719 251.132031 L 438.439094 250.276563 L 437.798469 248.995313 L 436.943 248.14375 L 436.657844 246.788281 L 435.446906 246.932813 L 434.450812 247.428906 L 433.810187 246.858594 L 433.239875 245.932813 L 432.814094 245.792188 L 432.028937 246.3625 L 431.173469 245.792188 L 430.462531 245.010938 L 428.825812 245.507031 L 427.259406 245.436719 L 425.794562 245.038281 L 425.517219 246.057813 L 426.34925 247.999219 L 427.181281 249.854688 L 427.646125 251.51875 L 427.552375 252.538281 L 426.997687 254.389844 L 427.462531 256.053906 L 427.275031 259.667188 L 426.814094 262.444531 L 426.720344 266.979688 Z M 426.443 271.608594 " transform="matrix(1,0,0,-1,-237.443,339.05)"/>
<path style="fill-rule:evenodd;fill:rgb(100%,100%,80%);fill-opacity:1;stroke-width:0.4;stroke-linecap:butt;stroke-linejoin:round;stroke:rgb(50.1%,50.1%,50.1%);stroke-opacity:1;stroke-miterlimit:10;" d="M 437.247687 300.553906 L 439.915656 300.217969 L 441.72425 299.065625 L 443.583625 298.682813 L 444.243781 297.917188 L 444.571906 296.819531 L 444.517219 295.561719 L 445.228156 294.354688 L 445.614875 292.659375 L 445.173469 291.671094 L 444.681281 290.467969 L 444.079719 289.917188 L 443.583625 289.096875 L 443.146125 288.057813 L 443.310187 287.233594 L 444.298469 287.233594 L 445.228156 288.714063 L 446.103156 289.917188 L 447.2555 290.249219 L 448.407844 289.698438 L 449.337531 288.221875 L 449.775031 286.850781 L 450.048469 285.538281 L 450.653937 284.55 L 451.03675 283.510938 L 450.763312 281.210156 L 449.775031 280.440625 L 449.337531 279.784375 L 449.173469 278.745313 L 448.790656 277.483594 L 448.513312 276.389844 L 448.021125 275.073438 L 447.419562 274.14375 L 444.517219 273.596875 L 442.052375 273.4875 L 440.290656 273.139844 L 438.009406 273.20625 L 433.810187 272.995313 L 430.392219 272.995313 L 430.985969 274.854688 L 431.478156 277.374219 L 431.97425 279.182813 L 431.802375 282.108594 L 430.892219 283.698438 L 430.083625 285.448438 L 430.052375 287.100781 L 430.376594 288.624219 L 430.603156 290.538281 L 431.087531 293.225781 L 432.126594 294.878125 L 433.485969 295.624219 L 434.165656 294.233594 L 434.525031 295.753125 L 434.685187 297.147656 L 436.306281 297.991406 L 435.982062 300.163281 Z M 437.247687 300.553906 " transform="matrix(1,0,0,-1,-237.443,339.05)"/>
<path style="fill-rule:evenodd;fill:rgb(100%,100%,80%);fill-opacity:1;stroke-width:0.4;stroke-linecap:butt;stroke-linejoin:round;stroke:rgb(50.1%,50.1%,50.1%);stroke-opacity:1;stroke-miterlimit:10;" d="M 440.290656 273.139844 L 442.142219 255.264844 L 444.134406 255.280469 L 445.485969 253.784375 L 445.841437 253.288281 L 447.407844 253.288281 L 447.978156 252.788281 L 449.329719 253.214063 L 450.329719 252.647656 L 452.251594 253.64375 L 453.177375 252.788281 L 454.314094 251.792188 L 455.09925 251.721875 L 456.025031 252.788281 L 456.165656 253.858594 L 456.165656 255.565625 L 457.376594 256.065625 L 458.091437 256.846875 L 458.587531 258.342969 L 459.302375 259.198438 L 460.72425 259.553906 L 461.794562 260.694531 L 462.364875 261.975781 L 462.646125 264.608594 L 462.790656 265.749219 L 463.146125 267.885938 L 463.146125 269.2375 L 462.790656 271.51875 L 462.364875 273.440625 L 462.150031 274.8625 L 461.935187 276.358594 L 461.864875 277.358594 L 460.22425 277.499219 L 459.228156 276.432813 L 458.446906 275.8625 L 457.521125 275.147656 L 456.735969 274.507031 L 456.025031 273.936719 L 454.743781 273.651563 L 453.318 273.510938 L 452.747687 272.940625 L 451.2555 272.870313 L 449.47425 273.155469 L 447.419562 274.14375 L 444.517219 273.596875 L 442.052375 273.4875 Z M 440.290656 273.139844 " transform="matrix(1,0,0,-1,-237.443,339.05)"/>
<path style="fill-rule:evenodd;fill:rgb(100%,100%,80%);fill-opacity:1;stroke-width:0.4;stroke-linecap:butt;stroke-linejoin:round;stroke:rgb(50.1%,50.1%,50.1%);stroke-opacity:1;stroke-miterlimit:10;" d="M 454.314094 251.792188 L 454.743781 249.655469 L 455.384406 248.585156 L 456.165656 247.733594 L 457.021125 246.807813 L 458.302375 245.7375 L 456.806281 244.526563 L 456.165656 243.815625 L 454.884406 242.675 L 454.314094 241.678906 L 453.747687 240.823438 L 453.22425 239.499219 L 449.060187 239.003125 L 446.157844 238.729688 L 442.653937 238.346875 L 440.025031 238.01875 L 438.052375 237.964063 L 434.16175 237.198438 L 430.107062 236.702344 L 427.696906 236.596875 L 426.001594 236.702344 L 426.165656 235.499219 L 423.208625 235.499219 L 419.103156 235.425 L 419.708625 236.139844 L 420.091437 236.905469 L 419.982062 237.944531 L 419.59925 238.9875 L 420.888312 239.854688 L 423.017219 239.3 L 423.571906 239.577344 L 423.482062 241.335156 L 424.126594 241.796094 L 425.146125 242.167188 L 425.333625 243.835156 L 425.794562 245.038281 L 427.259406 245.436719 L 428.825812 245.507031 L 430.462531 245.010938 L 431.173469 245.792188 L 432.028937 246.3625 L 432.814094 245.792188 L 433.239875 245.932813 L 433.810187 246.858594 L 434.450812 247.428906 L 435.446906 246.932813 L 436.657844 246.788281 L 436.943 248.14375 L 437.798469 248.995313 L 438.439094 250.276563 L 439.079719 251.132031 L 439.294562 252.342969 L 440.716437 252.202344 L 442.142219 253.057813 L 442.142219 255.264844 L 444.134406 255.280469 L 445.485969 253.784375 L 445.841437 253.288281 L 447.407844 253.288281 L 447.978156 252.788281 L 449.329719 253.214063 L 450.329719 252.647656 L 452.251594 253.64375 L 453.177375 252.788281 Z M 454.314094 251.792188 " transform="matrix(1,0,0,-1,-237.443,339.05)"/>
<path style="fill-rule:evenodd;fill:rgb(100%,100%,80%);fill-opacity:1;stroke-width:0.4;stroke-linecap:butt;stroke-linejoin:round;stroke:rgb(50.1%,50.1%,50.1%);stroke-opacity:1;stroke-miterlimit:10;" d="M 461.0055 240.592969 L 488.923469 245.241406 L 490.419562 245.667188 L 492.556281 245.667188 L 493.056281 243.600781 L 492.485969 242.39375 L 491.845344 241.608594 L 490.489875 241.182813 L 488.997687 242.178906 L 489.282844 240.467969 L 490.278937 239.901563 L 491.915656 240.182813 L 493.267219 239.6125 L 494.548469 238.405469 L 493.837531 236.694531 L 493.056281 236.409375 L 490.775031 236.409375 L 489.993781 236.124219 L 490.919562 235.624219 L 490.775031 234.132031 L 491.6305 233.632031 L 492.415656 232.921094 L 491.985969 231.995313 L 490.419562 231.284375 L 488.282844 230.214063 L 487.216437 229.358594 L 486.290656 228.221875 L 485.5055 226.866406 L 484.653937 225.370313 L 483.157844 224.303906 L 481.083625 223.807813 L 479.72425 224.780469 L 476.22425 227.339063 L 473.501594 228.960156 L 468.247687 228.604688 L 466.6305 230.51875 L 462.157844 230.647656 L 458.103156 230.257031 L 455.704719 229.382031 L 454.407844 227.823438 L 452.646125 227.823438 L 447.91175 227.448438 L 447.966437 228.542188 L 449.060187 229.089063 L 449.282844 229.694531 L 449.610969 230.569531 L 450.595344 231.389844 L 451.747687 231.444531 L 452.513312 231.936719 L 453.497687 232.596875 L 454.650031 233.526563 L 455.142219 234.405469 L 455.689094 234.897656 L 457.060187 235.061719 L 457.607062 235.499219 L 458.372687 236.210156 L 459.579719 236.596875 L 460.235969 237.3625 L 461.169562 238.346875 Z M 461.0055 240.592969 " transform="matrix(1,0,0,-1,-237.443,339.05)"/>
<path style="fill-rule:evenodd;fill:rgb(100%,100%,80%);fill-opacity:1;stroke-width:0.4;stroke-linecap:butt;stroke-linejoin:round;stroke:rgb(50.1%,50.1%,50.1%);stroke-opacity:1;stroke-miterlimit:10;" d="M 309.028937 297.33125 L 306.079719 279.342969 L 305.060187 272.632031 L 315.056281 270.686719 L 340.884406 267.632031 L 342.642219 281.51875 L 343.7555 295.366406 L 336.907844 295.913281 L 330.993781 296.788281 L 326.173469 297.39375 L 321.298469 298.159375 L 317.025031 298.70625 L 313.790656 299.147656 L 309.794562 299.694531 Z M 309.028937 297.33125 " transform="matrix(1,0,0,-1,-237.443,339.05)"/>
<path style="fill-rule:evenodd;fill:rgb(100%,100%,80%);fill-opacity:1;stroke-width:0.4;stroke-linecap:butt;stroke-linejoin:round;stroke:rgb(50.1%,50.1%,50.1%);stroke-opacity:1;stroke-miterlimit:10;" d="M 344.466437 301.6125 L 348.544562 301.440625 L 353.59925 301.155469 L 358.798469 300.585156 L 364.923469 300.585156 L 372.685187 300.01875 L 376.888312 299.659375 L 380.376594 299.874219 L 378.939094 297.05 L 380.884406 295.292188 L 380.513312 289.272656 L 380.513312 282.885938 L 379.864875 282.425 L 380.513312 280.296094 L 379.403937 276.960156 L 377.735969 277.796094 L 374.958625 278.721875 L 372.735969 278.073438 L 368.84925 279.7375 L 358.84925 280.385938 L 342.642219 281.51875 Z M 344.466437 301.6125 " transform="matrix(1,0,0,-1,-237.443,339.05)"/>
<path style="fill-rule:evenodd;fill:rgb(100%,100%,80%);fill-opacity:1;stroke-width:0.4;stroke-linecap:butt;stroke-linejoin:round;stroke:rgb(50.1%,50.1%,50.1%);stroke-opacity:1;stroke-miterlimit:10;" d="M 467.169562 282.475781 L 469.392219 284.878125 L 468.001594 287.659375 L 470.41175 289.046094 L 472.540656 289.788281 L 475.1305 289.323438 L 476.888312 289.694531 L 479.017219 290.249219 L 480.407844 292.288281 L 481.982062 292.932813 L 481.056281 294.600781 L 481.517219 295.526563 L 480.407844 296.358594 L 481.427375 297.932813 L 483.833625 302.100781 L 486.146125 303.397656 L 492.903937 304.878125 L 493.739875 302.471875 L 494.294562 300.339063 L 493.829719 298.675 L 494.7555 296.913281 L 495.310187 295.432813 L 496.146125 293.952344 L 496.884406 291.729688 L 496.794562 289.878125 L 496.978156 285.065625 L 497.903937 278.8625 L 496.607062 277.198438 L 491.517219 279.139844 L 489.943 279.975781 L 488.923469 282.010938 L 487.071906 282.842969 L 483.185187 281.917188 L 473.743781 280.159375 L 465.782844 278.678906 L 464.669562 279.975781 Z M 467.169562 282.475781 " transform="matrix(1,0,0,-1,-237.443,339.05)"/>
<path style="fill-rule:evenodd;fill:rgb(100%,100%,80%);fill-opacity:1;stroke-width:0.4;stroke-linecap:butt;stroke-linejoin:round;stroke:rgb(50.1%,50.1%,50.1%);stroke-opacity:1;stroke-miterlimit:10;" d="M 492.903937 304.878125 L 501.482062 307.135938 L 501.482062 305.573438 L 502.419562 303.850781 L 501.169562 302.444531 L 500.388312 301.190625 L 500.075812 296.026563 L 500.544562 291.022656 L 496.794562 289.878125 L 496.884406 291.729688 L 496.146125 293.952344 L 495.310187 295.432813 L 494.7555 296.913281 L 493.829719 298.675 L 494.294562 300.339063 L 493.739875 302.471875 Z M 492.903937 304.878125 " transform="matrix(1,0,0,-1,-237.443,339.05)"/>
<path style="fill-rule:evenodd;fill:rgb(100%,100%,80%);fill-opacity:1;stroke-width:0.4;stroke-linecap:butt;stroke-linejoin:round;stroke:rgb(50.1%,50.1%,50.1%);stroke-opacity:1;stroke-miterlimit:10;" d="M 503.337531 309.389844 L 505.189094 310.503125 L 505.653937 312.167188 L 506.021125 314.296094 L 505.931281 320.315625 L 505.837531 322.257031 L 507.318 325.870313 L 507.966437 326.33125 L 508.982062 325.311719 L 510.556281 324.850781 L 511.763312 325.960156 L 512.41175 326.796094 L 515.185187 325.776563 L 516.946906 321.053906 L 517.778937 317.444531 L 518.427375 316.241406 L 519.907844 315.870313 L 520.650031 314.202344 L 522.314094 313.741406 L 523.704719 312.167188 L 524.165656 311.147656 L 522.501594 310.315625 L 521.204719 309.296094 L 520.001594 307.909375 L 518.798469 306.6125 L 516.114875 307.354688 L 515.833625 305.964063 L 515.278937 304.760938 L 515.001594 303.557813 L 514.075812 302.632031 L 512.501594 301.245313 L 511.575812 301.335156 L 510.837531 300.503125 L 510.095344 297.448438 L 508.982062 295.413281 L 507.966437 296.245313 L 506.853156 298.651563 L 505.931281 301.057813 L 505.282844 303.464063 L 504.357062 306.70625 Z M 503.337531 309.389844 " transform="matrix(1,0,0,-1,-237.443,339.05)"/>
<path style="fill-rule:evenodd;fill:rgb(100%,100%,80%);fill-opacity:1;stroke-width:0.4;stroke-linecap:butt;stroke-linejoin:round;stroke:rgb(50.1%,50.1%,50.1%);stroke-opacity:1;stroke-miterlimit:10;" d="M 501.482062 307.135938 L 501.814094 308.6125 L 503.337531 309.389844 L 504.357062 306.70625 L 505.282844 303.464063 L 505.931281 301.057813 L 506.853156 298.651563 L 507.966437 296.245313 L 508.982062 295.413281 L 508.552375 293.659375 L 506.251594 292.2375 L 503.896125 291.686719 L 500.544562 291.022656 L 500.075812 296.026563 L 500.388312 301.190625 L 501.169562 302.444531 L 502.419562 303.850781 L 501.482062 305.573438 Z M 501.482062 307.135938 " transform="matrix(1,0,0,-1,-237.443,339.05)"/>
<path style="fill-rule:evenodd;fill:rgb(100%,100%,80%);fill-opacity:1;stroke-width:0.4;stroke-linecap:butt;stroke-linejoin:round;stroke:rgb(50.1%,50.1%,50.1%);stroke-opacity:1;stroke-miterlimit:10;" d="M 508.552375 293.659375 L 510.068 292.51875 L 509.232062 290.1125 L 510.157844 289.741406 L 511.732062 288.073438 L 513.028937 287.147656 L 514.325812 287.147656 L 515.251594 288.538281 L 515.157844 286.409375 L 513.122687 285.296094 L 511.825812 286.038281 L 510.622687 285.202344 L 509.232062 285.1125 L 507.751594 287.6125 L 503.310187 286.776563 L 496.978156 285.065625 L 496.794562 289.878125 L 500.544562 291.022656 L 503.896125 291.686719 L 506.251594 292.2375 Z M 508.552375 293.659375 " transform="matrix(1,0,0,-1,-237.443,339.05)"/>
<path style="fill-rule:evenodd;fill:rgb(100%,100%,80%);fill-opacity:1;stroke-width:0.4;stroke-linecap:butt;stroke-linejoin:round;stroke:rgb(50.1%,50.1%,50.1%);stroke-opacity:1;stroke-miterlimit:10;" d="M 507.751594 287.6125 L 503.310187 286.776563 L 505.622687 285.667188 L 506.364875 281.964063 L 508.771125 283.354688 L 508.677375 284.647656 L 509.232062 285.1125 Z M 507.751594 287.6125 " transform="matrix(1,0,0,-1,-237.443,339.05)"/>
<path style="fill-rule:evenodd;fill:rgb(100%,100%,80%);fill-opacity:1;stroke-width:0.4;stroke-linecap:butt;stroke-linejoin:round;stroke:rgb(50.1%,50.1%,50.1%);stroke-opacity:1;stroke-miterlimit:10;" d="M 503.310187 286.776563 L 496.978156 285.065625 L 497.903937 278.8625 L 499.419562 278.815625 L 500.810187 280.022656 L 502.290656 281.038281 L 504.696906 281.409375 L 506.364875 281.964063 L 505.622687 285.667188 Z M 503.310187 286.776563 " transform="matrix(1,0,0,-1,-237.443,339.05)"/>
<path style="fill-rule:evenodd;fill:rgb(100%,100%,80%);fill-opacity:1;stroke-width:0.4;stroke-linecap:butt;stroke-linejoin:round;stroke:rgb(50.1%,50.1%,50.1%);stroke-opacity:1;stroke-miterlimit:10;" d="M 491.517219 279.139844 L 490.34925 276.225781 L 490.071906 273.819531 L 491.735969 272.335156 L 493.310187 270.948438 L 492.571906 269.467969 L 490.810187 267.70625 L 491.181281 265.671094 L 493.771125 263.725781 L 495.068 263.171094 L 496.364875 265.948438 L 497.200812 267.8 L 497.568 269.928906 L 497.7555 271.780469 L 497.013312 273.448438 L 496.181281 274.186719 L 496.607062 277.198438 Z M 491.517219 279.139844 " transform="matrix(1,0,0,-1,-237.443,339.05)"/>
<path style="fill-rule:evenodd;fill:rgb(100%,100%,80%);fill-opacity:1;stroke-width:0.4;stroke-linecap:butt;stroke-linejoin:round;stroke:rgb(50.1%,50.1%,50.1%);stroke-opacity:1;stroke-miterlimit:10;" d="M 496.607062 277.198438 L 498.771125 277.241406 L 502.568 278.83125 L 504.485969 279.815625 L 506.34925 279.815625 L 506.677375 278.885938 L 505.689094 278.557813 L 503.66175 278.061719 L 502.622687 277.132031 L 500.978156 276.749219 L 499.392219 275.815625 L 498.403937 274.995313 L 496.181281 274.186719 Z M 496.607062 277.198438 " transform="matrix(1,0,0,-1,-237.443,339.05)"/>
<path style="fill-rule:evenodd;fill:rgb(100%,100%,80%);fill-opacity:1;stroke-width:0.4;stroke-linecap:butt;stroke-linejoin:round;stroke:rgb(50.1%,50.1%,50.1%);stroke-opacity:1;stroke-miterlimit:10;" d="M 464.669562 279.975781 L 462.798469 278.885938 L 461.864875 277.358594 L 461.935187 276.358594 L 462.150031 274.8625 L 462.364875 273.440625 L 462.790656 271.51875 L 463.146125 269.2375 L 463.146125 267.885938 L 462.790656 265.749219 L 463.607062 265.714063 L 463.821906 264.077344 L 464.247687 262.510938 L 465.028937 262.510938 L 468.946906 263.010938 L 473.431281 264.007031 L 475.357062 264.007031 L 476.439094 264.64375 L 478.575812 264.917188 L 482.739875 265.682813 L 486.462531 266.284375 L 488.927375 267.053906 L 490.810187 267.70625 L 492.571906 269.467969 L 493.310187 270.948438 L 491.735969 272.335156 L 490.071906 273.819531 L 490.34925 276.225781 L 491.517219 279.139844 L 489.943 279.975781 L 488.923469 282.010938 L 487.071906 282.842969 L 483.185187 281.917188 L 473.743781 280.159375 L 465.782844 278.678906 Z M 464.669562 279.975781 " transform="matrix(1,0,0,-1,-237.443,339.05)"/>
<path style="fill-rule:evenodd;fill:rgb(100%,100%,80%);fill-opacity:1;stroke-width:0.4;stroke-linecap:butt;stroke-linejoin:round;stroke:rgb(50.1%,50.1%,50.1%);stroke-opacity:1;stroke-miterlimit:10;" d="M 458.302375 245.7375 L 456.806281 244.526563 L 456.165656 243.815625 L 454.884406 242.675 L 454.314094 241.678906 L 453.747687 240.823438 L 453.22425 239.499219 L 455.306281 239.882031 L 461.0055 240.592969 L 488.923469 245.241406 L 490.419562 245.667188 L 492.556281 245.667188 L 492.103156 247.366406 L 489.087531 246.70625 L 488.759406 248.132031 L 489.306281 249.39375 L 488.814094 251.639844 L 488.376594 253.335156 L 487.173469 255.089063 L 483.829719 255.690625 L 482.790656 256.514844 L 482.735969 258.4875 L 482.517219 260.292188 L 481.146125 260.729688 L 479.665656 261.499219 L 478.900031 261.061719 L 477.587531 261.116406 L 476.325812 261.772656 L 475.712531 262.510938 L 475.571906 260.159375 L 474.642219 258.307813 L 473.075812 256.95625 L 472.22425 254.889844 L 471.439094 254.39375 L 470.157844 255.104688 L 467.665656 247.128125 L 465.669562 246.557813 L 464.103156 245.135938 L 462.466437 244.780469 L 461.396125 243.995313 L 459.833625 244.350781 Z M 458.302375 245.7375 " transform="matrix(1,0,0,-1,-237.443,339.05)"/>
<path style="fill-rule:evenodd;fill:rgb(100%,100%,80%);fill-opacity:1;stroke-width:0.4;stroke-linecap:butt;stroke-linejoin:round;stroke:rgb(50.1%,50.1%,50.1%);stroke-opacity:1;stroke-miterlimit:10;" d="M 465.028937 262.510938 L 464.247687 262.510938 L 463.821906 264.077344 L 463.607062 265.714063 L 462.790656 265.749219 L 462.646125 264.608594 L 462.364875 261.975781 L 461.794562 260.694531 L 460.72425 259.553906 L 459.302375 259.198438 L 458.587531 258.342969 L 458.091437 256.846875 L 457.376594 256.065625 L 456.165656 255.565625 L 456.165656 253.858594 L 456.025031 252.788281 L 455.09925 251.721875 L 454.314094 251.792188 L 454.743781 249.655469 L 455.384406 248.585156 L 456.165656 247.733594 L 457.021125 246.807813 L 458.302375 245.7375 L 459.833625 244.350781 L 461.396125 243.995313 L 462.466437 244.780469 L 464.103156 245.135938 L 465.669562 246.557813 L 467.665656 247.128125 L 470.157844 255.104688 L 471.439094 254.39375 L 472.22425 254.889844 L 473.075812 256.95625 L 474.642219 258.307813 L 475.571906 260.159375 L 475.712531 262.510938 L 477.587531 261.116406 L 478.900031 261.061719 L 479.665656 261.499219 L 481.146125 260.729688 L 481.142219 262.346875 L 479.646125 262.846875 L 477.009406 262.9875 L 475.798469 263.417188 L 474.946906 262.917188 L 473.306281 262.417188 L 471.954719 261.635938 L 470.603156 260.710156 L 469.818 261.635938 L 468.181281 261.921094 L 466.470344 262.061719 Z M 465.028937 262.510938 " transform="matrix(1,0,0,-1,-237.443,339.05)"/>
<path style="fill-rule:evenodd;fill:rgb(100%,100%,80%);fill-opacity:1;stroke-width:0.4;stroke-linecap:butt;stroke-linejoin:round;stroke:rgb(50.1%,50.1%,50.1%);stroke-opacity:1;stroke-miterlimit:10;" d="M 493.247687 255.510938 L 492.03675 255.014844 L 491.325812 252.803906 L 491.110969 251.026563 L 491.966437 249.245313 L 493.318 249.315625 L 493.532844 250.741406 L 493.818 252.948438 L 493.673469 255.014844 Z M 493.247687 255.510938 " transform="matrix(1,0,0,-1,-237.443,339.05)"/>
<path style="fill-rule:evenodd;fill:rgb(100%,100%,80%);fill-opacity:1;stroke-width:0.4;stroke-linecap:butt;stroke-linejoin:round;stroke:rgb(50.1%,50.1%,50.1%);stroke-opacity:1;stroke-miterlimit:10;" d="M 488.927375 267.053906 L 489.544562 263.628125 L 490.185187 260.639844 L 490.825812 258.288281 L 493.603156 257.647656 L 494.388312 258.147656 L 494.743781 259.354688 L 494.743781 260.069531 L 493.462531 261.850781 L 492.251594 263.4875 L 491.181281 265.671094 L 490.810187 267.70625 Z M 488.927375 267.053906 " transform="matrix(1,0,0,-1,-237.443,339.05)"/>
<path style="fill-rule:evenodd;fill:rgb(100%,100%,80%);fill-opacity:1;stroke-width:0.4;stroke-linecap:butt;stroke-linejoin:round;stroke:rgb(50.1%,50.1%,50.1%);stroke-opacity:1;stroke-miterlimit:10;" d="M 487.763312 256.651563 L 487.478156 258.073438 L 486.552375 259.854688 L 485.982062 261.921094 L 486.056281 263.272656 L 487.263312 263.842969 L 488.189094 262.561719 L 488.47425 261.20625 L 488.97425 258.288281 L 489.259406 257.077344 L 490.185187 256.721875 L 490.681281 256.151563 L 490.825812 254.729688 L 492.03675 255.014844 L 493.247687 255.510938 L 493.673469 255.014844 L 494.458625 256.010938 L 494.458625 257.147656 L 493.603156 257.647656 L 490.825812 258.288281 L 490.185187 260.639844 L 489.544562 263.628125 L 488.927375 267.053906 L 486.462531 266.284375 L 482.739875 265.682813 L 478.575812 264.917188 L 476.439094 264.64375 L 475.357062 264.007031 L 473.431281 264.007031 L 468.946906 263.010938 L 465.028937 262.510938 L 466.470344 262.061719 L 468.181281 261.921094 L 469.818 261.635938 L 470.603156 260.710156 L 471.954719 261.635938 L 473.306281 262.417188 L 474.946906 262.917188 L 475.798469 263.417188 L 477.009406 262.9875 L 479.646125 262.846875 L 481.142219 262.346875 L 481.146125 260.729688 L 482.517219 260.292188 L 482.735969 258.4875 L 482.790656 256.514844 L 483.829719 255.690625 L 487.173469 255.089063 L 488.903937 255.58125 Z M 487.763312 256.651563 " transform="matrix(1,0,0,-1,-237.443,339.05)"/>
</g>
<g id="nodes">
<path style="fill-rule:evenodd;fill:rgb(0%,0%,100%);fill-opacity:1;stroke-width:0.4;stroke-linecap:butt;stroke-linejoin:round;stroke:rgb(0%,0%,0%);stroke-opacity:1;stroke-miterlimit:10;" d="M 274.177375 324.995313 C 274.177375 327.866406 269.868781 327.866406 269.868781 324.995313 C 269.868781 322.120313 274.177375 322.120313 274.177375 324.995313 Z M 274.177375 324.995313 " transform="matrix(1,0,0,-1,-237.443,339.05)" node_id="WA"/>
<path style="fill-rule:evenodd;fill:rgb(0%,0%,100%);fill-opacity:1;stroke-width:0.4;stroke-linecap:butt;stroke-linejoin:round;stroke:rgb(0%,0%,0%);stroke-opacity:1;stroke-miterlimit:10;" d="M 263.388312 304.276563 C 263.388312 307.151563 259.079719 307.151563 259.079719 304.276563 C 259.079719 301.405469 263.388312 301.405469 263.388312 304.276563 Z M 263.388312 304.276563 " transform="matrix(1,0,0,-1,-237.443,339.05)" node_id="OR"/>
<path style="fill-rule:evenodd;fill:rgb(0%,0%,100%);fill-opacity:1;stroke-width:0.4;stroke-linecap:butt;stroke-linejoin:round;stroke:rgb(0%,0%,0%);stroke-opacity:1;stroke-miterlimit:10;" d="M 293.771125 298.667188 C 293.771125 301.538281 289.462531 301.538281 289.462531 298.667188 C 289.462531 295.796094 293.771125 295.796094 293.771125 298.667188 Z M 293.771125 298.667188 " transform="matrix(1,0,0,-1,-237.443,339.05)" node_id="ID" />
<path style="fill-rule:evenodd;fill:rgb(0%,0%,100%);fill-opacity:1;stroke-width:0.4;stroke-linecap:butt;stroke-linejoin:round;stroke:rgb(0%,0%,0%);stroke-opacity:1;stroke-miterlimit:10;" d="M 320.884406 312.503125 C 320.884406 315.378125 316.575812 315.378125 316.575812 312.503125 C 316.575812 309.632031 320.884406 309.632031 320.884406 312.503125 Z M 320.884406 312.503125 " transform="matrix(1,0,0,-1,-237.443,339.05)" node_id="MT" />
<path style="fill-rule:evenodd;fill:rgb(0%,0%,100%);fill-opacity:1;stroke-width:0.4;stroke-linecap:butt;stroke-linejoin:round;stroke:rgb(0%,0%,0%);stroke-opacity:1;stroke-miterlimit:10;" d="M 326.263312 285.995313 C 326.263312 288.866406 321.954719 288.866406 321.954719 285.995313 C 321.954719 283.120313 326.263312 283.120313 326.263312 285.995313 Z M 326.263312 285.995313 " transform="matrix(1,0,0,-1,-237.443,339.05)" node_id="WY" />
<path style="fill-rule:evenodd;fill:rgb(0%,0%,100%);fill-opacity:1;stroke-width:0.4;stroke-linecap:butt;stroke-linejoin:round;stroke:rgb(0%,0%,0%);stroke-opacity:1;stroke-miterlimit:10;" d="M 364.28675 310.690625 C 364.28675 313.565625 359.978156 313.565625 359.978156 310.690625 C 359.978156 307.819531 364.28675 307.819531 364.28675 310.690625 Z M 364.28675 310.690625 " transform="matrix(1,0,0,-1,-237.443,339.05)" node_id="ND" />
<path style="fill-rule:evenodd;fill:rgb(0%,0%,100%);fill-opacity:1;stroke-width:0.4;stroke-linecap:butt;stroke-linejoin:round;stroke:rgb(0%,0%,0%);stroke-opacity:1;stroke-miterlimit:10;" d="M 363.396125 291.217969 C 363.396125 294.089063 359.087531 294.089063 359.087531 291.217969 C 359.087531 288.346875 363.396125 288.346875 363.396125 291.217969 Z M 363.396125 291.217969 " transform="matrix(1,0,0,-1,-237.443,339.05)" node_id="SD" />
<path style="fill-rule:evenodd;fill:rgb(0%,0%,100%);fill-opacity:1;stroke-width:0.4;stroke-linecap:butt;stroke-linejoin:round;stroke:rgb(0%,0%,0%);stroke-opacity:1;stroke-miterlimit:10;" d="M 393.466437 302.104688 C 393.466437 304.975781 389.157844 304.975781 389.157844 302.104688 C 389.157844 299.233594 393.466437 299.233594 393.466437 302.104688 Z M 393.466437 302.104688 " transform="matrix(1,0,0,-1,-237.443,339.05)" node_id="MN" />
<path style="fill-rule:evenodd;fill:rgb(0%,0%,100%);fill-opacity:1;stroke-width:0.4;stroke-linecap:butt;stroke-linejoin:round;stroke:rgb(0%,0%,0%);stroke-opacity:1;stroke-miterlimit:10;" d="M 414.716437 290.991406 C 414.716437 293.8625 410.407844 293.8625 410.407844 290.991406 C 410.407844 288.116406 414.716437 288.116406 414.716437 290.991406 Z M 414.716437 290.991406 " transform="matrix(1,0,0,-1,-237.443,339.05)" node_id="WI" />
<path style="fill-rule:evenodd;fill:rgb(0%,0%,100%);fill-opacity:1;stroke-width:0.4;stroke-linecap:butt;stroke-linejoin:round;stroke:rgb(0%,0%,0%);stroke-opacity:1;stroke-miterlimit:10;" d="M 276.216437 266.964063 C 276.216437 269.835156 271.91175 269.835156 271.91175 266.964063 C 271.91175 264.089063 276.216437 264.089063 276.216437 266.964063 Z M 276.216437 266.964063 " transform="matrix(1,0,0,-1,-237.443,339.05)" node_id="NV" />
<path style="fill-rule:evenodd;fill:rgb(0%,0%,100%);fill-opacity:1;stroke-width:0.4;stroke-linecap:butt;stroke-linejoin:round;stroke:rgb(0%,0%,0%);stroke-opacity:1;stroke-miterlimit:10;" d="M 258.153937 255.999219 C 258.153937 258.874219 253.845344 258.874219 253.845344 255.999219 C 253.845344 253.128125 258.153937 253.128125 258.153937 255.999219 Z M 258.153937 255.999219 " transform="matrix(1,0,0,-1,-237.443,339.05)" node_id="CA" />
<path style="fill-rule:evenodd;fill:rgb(0%,0%,100%);fill-opacity:1;stroke-width:0.4;stroke-linecap:butt;stroke-linejoin:round;stroke:rgb(0%,0%,0%);stroke-opacity:1;stroke-miterlimit:10;" d="M 301.970344 261.389844 C 301.970344 264.264844 297.66175 264.264844 297.66175 261.389844 C 297.66175 258.51875 301.970344 258.51875 301.970344 261.389844 Z M 301.970344 261.389844 " transform="matrix(1,0,0,-1,-237.443,339.05)" node_id="UT" />
<path style="fill-rule:evenodd;fill:rgb(0%,0%,100%);fill-opacity:1;stroke-width:0.4;stroke-linecap:butt;stroke-linejoin:round;stroke:rgb(0%,0%,0%);stroke-opacity:1;stroke-miterlimit:10;" d="M 296.114875 227.135938 C 296.114875 230.007031 291.806281 230.007031 291.806281 227.135938 C 291.806281 224.260938 296.114875 224.260938 296.114875 227.135938 Z M 296.114875 227.135938 " transform="matrix(1,0,0,-1,-237.443,339.05)" node_id="AZ" />
<path style="fill-rule:evenodd;fill:rgb(0%,0%,100%);fill-opacity:1;stroke-width:0.4;stroke-linecap:butt;stroke-linejoin:round;stroke:rgb(0%,0%,0%);stroke-opacity:1;stroke-miterlimit:10;" d="M 327.282844 223.452344 C 327.282844 226.323438 322.97425 226.323438 322.97425 223.452344 C 322.97425 220.577344 327.282844 220.577344 327.282844 223.452344 Z M 327.282844 223.452344 " transform="matrix(1,0,0,-1,-237.443,339.05)" node_id="NM" />
<path style="fill-rule:evenodd;fill:rgb(0%,0%,100%);fill-opacity:1;stroke-width:0.4;stroke-linecap:butt;stroke-linejoin:round;stroke:rgb(0%,0%,0%);stroke-opacity:1;stroke-miterlimit:10;" d="M 335.400031 252.139844 C 335.400031 255.010938 331.091437 255.010938 331.091437 252.139844 C 331.091437 249.26875 335.400031 249.26875 335.400031 252.139844 Z M 335.400031 252.139844 " transform="matrix(1,0,0,-1,-237.443,339.05)" node_id="CO" />
<path style="fill-rule:evenodd;fill:rgb(0%,0%,100%);fill-opacity:1;stroke-width:0.4;stroke-linecap:butt;stroke-linejoin:round;stroke:rgb(0%,0%,0%);stroke-opacity:1;stroke-miterlimit:10;" d="M 365.306281 269.940625 C 365.306281 272.811719 360.997687 272.811719 360.997687 269.940625 C 360.997687 267.065625 365.306281 267.065625 365.306281 269.940625 Z M 365.306281 269.940625 " transform="matrix(1,0,0,-1,-237.443,339.05)" node_id="NE" />
<path style="fill-rule:evenodd;fill:rgb(0%,0%,100%);fill-opacity:1;stroke-width:0.4;stroke-linecap:butt;stroke-linejoin:round;stroke:rgb(0%,0%,0%);stroke-opacity:1;stroke-miterlimit:10;" d="M 372.200812 248.507031 C 372.200812 251.378125 367.892219 251.378125 367.892219 248.507031 C 367.892219 245.632031 372.200812 245.632031 372.200812 248.507031 Z M 372.200812 248.507031 " transform="matrix(1,0,0,-1,-237.443,339.05)" node_id="KS" />
<path style="fill-rule:evenodd;fill:rgb(0%,0%,100%);fill-opacity:1;stroke-width:0.4;stroke-linecap:butt;stroke-linejoin:round;stroke:rgb(0%,0%,0%);stroke-opacity:1;stroke-miterlimit:10;" d="M 397.704719 273.069531 C 397.704719 275.940625 393.396125 275.940625 393.396125 273.069531 C 393.396125 270.194531 397.704719 270.194531 397.704719 273.069531 Z M 397.704719 273.069531 " transform="matrix(1,0,0,-1,-237.443,339.05)" node_id="IA" />
<path style="fill-rule:evenodd;fill:rgb(0%,0%,100%);fill-opacity:1;stroke-width:0.4;stroke-linecap:butt;stroke-linejoin:round;stroke:rgb(0%,0%,0%);stroke-opacity:1;stroke-miterlimit:10;" d="M 404.095344 249.471875 C 404.095344 252.342969 399.78675 252.342969 399.78675 249.471875 C 399.78675 246.596875 404.095344 246.596875 404.095344 249.471875 Z M 404.095344 249.471875 " transform="matrix(1,0,0,-1,-237.443,339.05)" node_id="MO" />
<path style="fill-rule:evenodd;fill:rgb(0%,0%,100%);fill-opacity:1;stroke-width:0.4;stroke-linecap:butt;stroke-linejoin:round;stroke:rgb(0%,0%,0%);stroke-opacity:1;stroke-miterlimit:10;" d="M 420.556281 259.565625 C 420.556281 262.440625 416.247687 262.440625 416.247687 259.565625 C 416.247687 256.694531 420.556281 256.694531 420.556281 259.565625 Z M 420.556281 259.565625 " transform="matrix(1,0,0,-1,-237.443,339.05)" node_id="IL" />
<path style="fill-rule:evenodd;fill:rgb(0%,0%,100%);fill-opacity:1;stroke-width:0.4;stroke-linecap:butt;stroke-linejoin:round;stroke:rgb(0%,0%,0%);stroke-opacity:1;stroke-miterlimit:10;" d="M 441.845344 285.194531 C 441.845344 288.069531 437.540656 288.069531 437.540656 285.194531 C 437.540656 282.323438 441.845344 282.323438 441.845344 285.194531 Z M 441.845344 285.194531 " transform="matrix(1,0,0,-1,-237.443,339.05)" node_id="MI" />
<path style="fill-rule:evenodd;fill:rgb(0%,0%,100%);fill-opacity:1;stroke-width:0.4;stroke-linecap:butt;stroke-linejoin:round;stroke:rgb(0%,0%,0%);stroke-opacity:1;stroke-miterlimit:10;" d="M 435.59925 259.819531 C 435.59925 262.694531 431.290656 262.694531 431.290656 259.819531 C 431.290656 256.948438 435.59925 256.948438 435.59925 259.819531 Z M 435.59925 259.819531 " transform="matrix(1,0,0,-1,-237.443,339.05)" node_id="IN" />
<path style="fill-rule:evenodd;fill:rgb(0%,0%,100%);fill-opacity:1;stroke-width:0.4;stroke-linecap:butt;stroke-linejoin:round;stroke:rgb(0%,0%,0%);stroke-opacity:1;stroke-miterlimit:10;" d="M 453.915656 264.639844 C 453.915656 267.510938 449.607062 267.510938 449.607062 264.639844 C 449.607062 261.764844 453.915656 261.764844 453.915656 264.639844 Z M 453.915656 264.639844 " transform="matrix(1,0,0,-1,-237.443,339.05)" node_id="OH" />
<path style="fill-rule:evenodd;fill:rgb(0%,0%,100%);fill-opacity:1;stroke-width:0.4;stroke-linecap:butt;stroke-linejoin:round;stroke:rgb(0%,0%,0%);stroke-opacity:1;stroke-miterlimit:10;" d="M 479.564094 271.89375 C 479.564094 274.764844 475.2555 274.764844 475.2555 271.89375 C 475.2555 269.022656 479.564094 269.022656 479.564094 271.89375 Z M 479.564094 271.89375 " transform="matrix(1,0,0,-1,-237.443,339.05)" node_id="PA" />
<path style="fill-rule:evenodd;fill:rgb(0%,0%,100%);fill-opacity:1;stroke-width:0.4;stroke-linecap:butt;stroke-linejoin:round;stroke:rgb(0%,0%,0%);stroke-opacity:1;stroke-miterlimit:10;" d="M 487.239875 289.307813 C 487.239875 292.178906 482.931281 292.178906 482.931281 289.307813 C 482.931281 286.432813 487.239875 286.432813 487.239875 289.307813 Z M 487.239875 289.307813 " transform="matrix(1,0,0,-1,-237.443,339.05)" node_id="NY" />
<path style="fill-rule:evenodd;fill:rgb(0%,0%,100%);fill-opacity:1;stroke-width:0.4;stroke-linecap:butt;stroke-linejoin:round;stroke:rgb(0%,0%,0%);stroke-opacity:1;stroke-miterlimit:10;" d="M 499.806281 296.186719 C 499.806281 299.057813 495.497687 299.057813 495.497687 296.186719 C 495.497687 293.315625 499.806281 293.315625 499.806281 296.186719 Z M 499.806281 296.186719 " transform="matrix(1,0,0,-1,-237.443,339.05)" node_id="VT" />
<path style="fill-rule:evenodd;fill:rgb(0%,0%,100%);fill-opacity:1;stroke-width:0.4;stroke-linecap:butt;stroke-linejoin:round;stroke:rgb(0%,0%,0%);stroke-opacity:1;stroke-miterlimit:10;" d="M 505.696906 299.866406 C 505.696906 302.741406 501.388312 302.741406 501.388312 299.866406 C 501.388312 296.995313 505.696906 296.995313 505.696906 299.866406 Z M 505.696906 299.866406 " transform="matrix(1,0,0,-1,-237.443,339.05)" node_id="NH" />
<path style="fill-rule:evenodd;fill:rgb(0%,0%,100%);fill-opacity:1;stroke-width:0.4;stroke-linecap:butt;stroke-linejoin:round;stroke:rgb(0%,0%,0%);stroke-opacity:1;stroke-miterlimit:10;" d="M 514.1305 312.460156 C 514.1305 315.33125 509.821906 315.33125 509.821906 312.460156 C 509.821906 309.585156 514.1305 309.585156 514.1305 312.460156 Z M 514.1305 312.460156 " transform="matrix(1,0,0,-1,-237.443,339.05)" node_id="ME" />
<path style="fill-rule:evenodd;fill:rgb(0%,0%,100%);fill-opacity:1;stroke-width:0.4;stroke-linecap:butt;stroke-linejoin:round;stroke:rgb(0%,0%,0%);stroke-opacity:1;stroke-miterlimit:10;" d="M 507.103156 289.382031 C 507.103156 292.257031 502.794562 292.257031 502.794562 289.382031 C 502.794562 286.510938 507.103156 286.510938 507.103156 289.382031 Z M 507.103156 289.382031 " transform="matrix(1,0,0,-1,-237.443,339.05)" node_id="MA" />
<path style="fill-rule:evenodd;fill:rgb(0%,0%,100%);fill-opacity:1;stroke-width:0.4;stroke-linecap:butt;stroke-linejoin:round;stroke:rgb(0%,0%,0%);stroke-opacity:1;stroke-miterlimit:10;" d="M 509.091437 285.198438 C 509.091437 288.069531 504.782844 288.069531 504.782844 285.198438 C 504.782844 282.327344 509.091437 282.327344 509.091437 285.198438 Z M 509.091437 285.198438 " transform="matrix(1,0,0,-1,-237.443,339.05)" node_id="RI" />
<path style="fill-rule:evenodd;fill:rgb(0%,0%,100%);fill-opacity:1;stroke-width:0.4;stroke-linecap:butt;stroke-linejoin:round;stroke:rgb(0%,0%,0%);stroke-opacity:1;stroke-miterlimit:10;" d="M 503.489875 282.811719 C 503.489875 285.686719 499.181281 285.686719 499.181281 282.811719 C 499.181281 279.940625 503.489875 279.940625 503.489875 282.811719 Z M 503.489875 282.811719 " transform="matrix(1,0,0,-1,-237.443,339.05)" node_id="CT" />
<path style="fill-rule:evenodd;fill:rgb(0%,0%,100%);fill-opacity:1;stroke-width:0.4;stroke-linecap:butt;stroke-linejoin:round;stroke:rgb(0%,0%,0%);stroke-opacity:1;stroke-miterlimit:10;" d="M 496.739875 271.89375 C 496.739875 274.764844 492.431281 274.764844 492.431281 271.89375 C 492.431281 269.022656 496.739875 269.022656 496.739875 271.89375 Z M 496.739875 271.89375 " transform="matrix(1,0,0,-1,-237.443,339.05)" node_id="NJ" />
<path style="fill-rule:evenodd;fill:rgb(0%,0%,100%);fill-opacity:1;stroke-width:0.4;stroke-linecap:butt;stroke-linejoin:round;stroke:rgb(0%,0%,0%);stroke-opacity:1;stroke-miterlimit:10;" d="M 493.427375 262.815625 C 493.427375 265.686719 489.118781 265.686719 489.118781 262.815625 C 489.118781 259.940625 493.427375 259.940625 493.427375 262.815625 Z M 493.427375 262.815625 " transform="matrix(1,0,0,-1,-237.443,339.05)" node_id="DE" />
<path style="fill-rule:evenodd;fill:rgb(0%,0%,100%);fill-opacity:1;stroke-width:0.4;stroke-linecap:butt;stroke-linejoin:round;stroke:rgb(0%,0%,0%);stroke-opacity:1;stroke-miterlimit:10;" d="M 486.556281 260.604688 C 486.556281 263.479688 482.247687 263.479688 482.247687 260.604688 C 482.247687 257.733594 486.556281 257.733594 486.556281 260.604688 Z M 486.556281 260.604688 " transform="matrix(1,0,0,-1,-237.443,339.05)" node_id="MD" />
<path style="fill-rule:evenodd;fill:rgb(0%,0%,100%);fill-opacity:1;stroke-width:0.4;stroke-linecap:butt;stroke-linejoin:round;stroke:rgb(0%,0%,0%);stroke-opacity:1;stroke-miterlimit:10;" d="M 466.900031 254.58125 C 466.900031 257.452344 462.591437 257.452344 462.591437 254.58125 C 462.591437 251.70625 466.900031 251.70625 466.900031 254.58125 Z M 466.900031 254.58125 " transform="matrix(1,0,0,-1,-237.443,339.05)" node_id="WV" />
<path style="fill-rule:evenodd;fill:rgb(0%,0%,100%);fill-opacity:1;stroke-width:0.4;stroke-linecap:butt;stroke-linejoin:round;stroke:rgb(0%,0%,0%);stroke-opacity:1;stroke-miterlimit:10;" d="M 477.681281 249.315625 C 477.681281 252.186719 473.372687 252.186719 473.372687 249.315625 C 473.372687 246.444531 477.681281 246.444531 477.681281 249.315625 Z M 477.681281 249.315625 " transform="matrix(1,0,0,-1,-237.443,339.05)" node_id="VA" />
<path style="fill-rule:evenodd;fill:rgb(0%,0%,100%);fill-opacity:1;stroke-width:0.4;stroke-linecap:butt;stroke-linejoin:round;stroke:rgb(0%,0%,0%);stroke-opacity:1;stroke-miterlimit:10;" d="M 477.450812 235.20625 C 477.450812 238.077344 473.142219 238.077344 473.142219 235.20625 C 473.142219 232.335156 477.450812 232.335156 477.450812 235.20625 Z M 477.450812 235.20625 " transform="matrix(1,0,0,-1,-237.443,339.05)" node_id="NC" />
<path style="fill-rule:evenodd;fill:rgb(0%,0%,100%);fill-opacity:1;stroke-width:0.4;stroke-linecap:butt;stroke-linejoin:round;stroke:rgb(0%,0%,0%);stroke-opacity:1;stroke-miterlimit:10;" d="M 442.747687 244.151563 C 442.747687 247.026563 438.439094 247.026563 438.439094 244.151563 C 438.439094 241.280469 442.747687 241.280469 442.747687 244.151563 Z M 442.747687 244.151563 " transform="matrix(1,0,0,-1,-237.443,339.05)" node_id="KY" />
<path style="fill-rule:evenodd;fill:rgb(0%,0%,100%);fill-opacity:1;stroke-width:0.4;stroke-linecap:butt;stroke-linejoin:round;stroke:rgb(0%,0%,0%);stroke-opacity:1;stroke-miterlimit:10;" d="M 438.653937 232.225781 C 438.653937 235.100781 434.345344 235.100781 434.345344 232.225781 C 434.345344 229.354688 438.653937 229.354688 438.653937 232.225781 Z M 438.653937 232.225781 " transform="matrix(1,0,0,-1,-237.443,339.05)" node_id="TN" />
<path style="fill-rule:evenodd;fill:rgb(0%,0%,100%);fill-opacity:1;stroke-width:0.4;stroke-linecap:butt;stroke-linejoin:round;stroke:rgb(0%,0%,0%);stroke-opacity:1;stroke-miterlimit:10;" d="M 470.2555 222.378125 C 470.2555 225.249219 465.946906 225.249219 465.946906 222.378125 C 465.946906 219.503125 470.2555 219.503125 470.2555 222.378125 Z M 470.2555 222.378125 " transform="matrix(1,0,0,-1,-237.443,339.05)" node_id="SC" />
<path style="fill-rule:evenodd;fill:rgb(0%,0%,100%);fill-opacity:1;stroke-width:0.4;stroke-linecap:butt;stroke-linejoin:round;stroke:rgb(0%,0%,0%);stroke-opacity:1;stroke-miterlimit:10;" d="M 457.03675 211.651563 C 457.03675 214.522656 452.728156 214.522656 452.728156 211.651563 C 452.728156 208.776563 457.03675 208.776563 457.03675 211.651563 Z M 457.03675 211.651563 " transform="matrix(1,0,0,-1,-237.443,339.05)" node_id="GA" />
<path style="fill-rule:evenodd;fill:rgb(0%,0%,100%);fill-opacity:1;stroke-width:0.4;stroke-linecap:butt;stroke-linejoin:round;stroke:rgb(0%,0%,0%);stroke-opacity:1;stroke-miterlimit:10;" d="M 469.564094 186.964063 C 469.564094 189.839063 465.2555 189.839063 465.2555 186.964063 C 465.2555 184.092969 469.564094 184.092969 469.564094 186.964063 Z M 469.564094 186.964063 " transform="matrix(1,0,0,-1,-237.443,339.05)" node_id="FL" />
<path style="fill-rule:evenodd;fill:rgb(0%,0%,100%);fill-opacity:1;stroke-width:0.4;stroke-linecap:butt;stroke-linejoin:round;stroke:rgb(0%,0%,0%);stroke-opacity:1;stroke-miterlimit:10;" d="M 436.544562 208.835156 C 436.544562 211.70625 432.235969 211.70625 432.235969 208.835156 C 432.235969 205.964063 436.544562 205.964063 436.544562 208.835156 Z M 436.544562 208.835156 " transform="matrix(1,0,0,-1,-237.443,339.05)" node_id="AL" />
<path style="fill-rule:evenodd;fill:rgb(0%,0%,100%);fill-opacity:1;stroke-width:0.4;stroke-linecap:butt;stroke-linejoin:round;stroke:rgb(0%,0%,0%);stroke-opacity:1;stroke-miterlimit:10;" d="M 421.110969 209.089063 C 421.110969 211.964063 416.802375 211.964063 416.802375 209.089063 C 416.802375 206.217969 421.110969 206.217969 421.110969 209.089063 Z M 421.110969 209.089063 " transform="matrix(1,0,0,-1,-237.443,339.05)" node_id="MS" />
<path style="fill-rule:evenodd;fill:rgb(0%,0%,100%);fill-opacity:1;stroke-width:0.4;stroke-linecap:butt;stroke-linejoin:round;stroke:rgb(0%,0%,0%);stroke-opacity:1;stroke-miterlimit:10;" d="M 404.345344 223.284375 C 404.345344 226.155469 400.03675 226.155469 400.03675 223.284375 C 400.03675 220.409375 404.345344 220.409375 404.345344 223.284375 Z M 404.345344 223.284375 " transform="matrix(1,0,0,-1,-237.443,339.05)" node_id="AR" />
<path style="fill-rule:evenodd;fill:rgb(0%,0%,100%);fill-opacity:1;stroke-width:0.4;stroke-linecap:butt;stroke-linejoin:round;stroke:rgb(0%,0%,0%);stroke-opacity:1;stroke-miterlimit:10;" d="M 375.943 228.198438 C 375.943 231.069531 371.634406 231.069531 371.634406 228.198438 C 371.634406 225.327344 375.943 225.327344 375.943 228.198438 Z M 375.943 228.198438 " transform="matrix(1,0,0,-1,-237.443,339.05)" node_id="OK" />
<path style="fill-rule:evenodd;fill:rgb(0%,0%,100%);fill-opacity:1;stroke-width:0.4;stroke-linecap:butt;stroke-linejoin:round;stroke:rgb(0%,0%,0%);stroke-opacity:1;stroke-miterlimit:10;" d="M 364.708625 199.725781 C 364.708625 202.596875 360.400031 202.596875 360.400031 199.725781 C 360.400031 196.854688 364.708625 196.854688 364.708625 199.725781 Z M 364.708625 199.725781 " transform="matrix(1,0,0,-1,-237.443,339.05)" node_id="TX" />
<path style="fill-rule:evenodd;fill:rgb(0%,0%,100%);fill-opacity:1;stroke-width:0.4;stroke-linecap:butt;stroke-linejoin:round;stroke:rgb(0%,0%,0%);stroke-opacity:1;stroke-miterlimit:10;" d="M 406.278937 196.745313 C 406.278937 199.616406 401.970344 199.616406 401.970344 196.745313 C 401.970344 193.874219 406.278937 193.874219 406.278937 196.745313 Z M 406.278937 196.745313 " transform="matrix(1,0,0,-1,-237.443,339.05)" node_id="LA" />
</g>
</svg>
