<?xml version="1.0" encoding="UTF-8"?>
<svg xmlns="http://www.w3.org/2000/svg" xmlns:xlink="http://www.w3.org/1999/xlink" width="482pt" height="555pt" viewBox="0 0 482 555" version="1.1" bounds="[[-51.21,132.41],[430.79,687.41]]">
<g id="shapes">
<path style="fill-rule:evenodd;fill:rgb(70.6%,59.2%,50.6%);fill-opacity:1;stroke-width:0.5;stroke-linecap:butt;stroke-linejoin:round;stroke:rgb(0%,0%,0%);stroke-opacity:1;stroke-miterlimit:10;" d="M 183.46304 665.606643 L 179.638821 666.243362 L 178.201321 667.360549 L 168.798978 666.403518 L 164.498196 669.114456 L 163.064603 671.505081 L 159.716946 671.024612 L 154.615384 658.915237 L 151.271634 655.887893 L 142.345853 651.903518 L 137.724759 646.801956 L 136.927884 642.977737 L 132.783353 634.532424 L 134.377103 628.794143 L 127.365384 618.911331 L 121.470853 614.770706 L 112.064603 612.059768 L 110.631009 609.829299 L 139.634915 609.829299 L 140.115384 617.798049 L 149.834134 624.649612 L 153.818509 624.489456 L 154.935696 626.083206 L 162.107571 627.360549 L 164.658353 631.024612 L 173.103665 634.688674 L 172.146634 640.266799 L 177.724759 641.383987 L 178.201321 642.977737 L 188.720853 643.294143 L 189.677884 646.485549 L 186.330228 652.856643 L 185.693509 663.059768 Z M 183.46304 665.606643 " transform="matrix(1,0,0,-1,-51.21304,687.407424)" region_id="MA" necklace_id="N_africa"/>
<path style="fill-rule:evenodd;fill:rgb(100%,80%,30.2%);fill-opacity:1;stroke-width:0.5;stroke-linecap:butt;stroke-linejoin:round;stroke:rgb(0%,0%,0%);stroke-opacity:1;stroke-miterlimit:10;" d="M 183.46304 665.606643 L 186.21304 665.985549 L 188.912259 667.579299 L 194.552884 671.747268 L 196.756009 670.887893 L 198.720853 673.462112 L 204.357571 676.528518 L 214.166165 677.262893 L 216.49429 678.610549 L 219.802884 678.489456 L 221.15054 679.348831 L 227.771634 679.348831 L 230.591946 677.508987 L 235.740384 679.102737 L 237.334134 680.942581 L 241.134915 679.223831 L 243.220853 680.817581 L 246.65054 679.348831 L 250.818509 679.348831 L 248.857571 676.403518 L 248.857571 671.380081 L 249.470853 666.966018 L 248.123196 661.571487 L 243.830228 657.157424 L 245.548978 651.641799 L 248.365384 649.680862 L 249.103665 646.247268 L 253.759915 642.692581 L 256.701321 629.454299 L 255.599759 627.981643 L 258.666165 620.993362 L 259.40054 611.063674 L 258.052884 606.774612 L 259.154446 601.626174 L 255.724759 599.051956 L 259.892728 592.063674 L 259.892728 588.508987 L 262.466946 585.934768 L 264.302884 586.423049 L 269.943509 584.219924 L 272.517728 578.579299 L 243.271634 558.657424 L 232.236478 548.114456 L 221.939603 545.661331 L 216.177884 544.680862 L 214.705228 545.661331 L 215.318509 550.809768 L 210.170071 552.524612 L 202.201321 558.044143 L 202.080228 560.372268 L 163.709134 590.040237 L 139.68179 606.587112 L 139.634915 609.829299 L 140.115384 617.798049 L 149.834134 624.649612 L 153.818509 624.489456 L 154.935696 626.083206 L 162.107571 627.360549 L 164.658353 631.024612 L 173.103665 634.688674 L 172.146634 640.266799 L 177.724759 641.383987 L 178.201321 642.977737 L 188.720853 643.294143 L 189.677884 646.485549 L 186.330228 652.856643 L 185.693509 663.059768 Z M 183.46304 665.606643 " transform="matrix(1,0,0,-1,-51.21304,687.407424)" region_id="DZ" necklace_id="N_africa"/>
<path style="fill-rule:evenodd;fill:rgb(53.3%,78%,39.6%);fill-opacity:1;stroke-width:0.5;stroke-linecap:butt;stroke-linejoin:round;stroke:rgb(0%,0%,0%);stroke-opacity:1;stroke-miterlimit:10;" d="M 250.818509 679.348831 L 252.631009 679.962112 L 256.779446 682.508987 L 258.666165 682.411331 L 261.02554 681.469924 L 260.740384 678.829299 L 261.966946 678.075393 L 265.552884 680.528518 L 266.58804 679.020706 L 262.814603 675.059768 L 262.912259 672.321487 L 265.834134 669.872268 L 266.115384 665.911331 L 263.381009 661.571487 L 259.705228 659.497268 L 259.892728 657.235549 L 262.627103 654.876174 L 264.138821 654.876174 L 264.138821 653.747268 L 266.209134 654.688674 L 267.154446 651.954299 L 269.228665 651.294143 L 268.853665 648.087112 L 269.513821 645.919143 L 263.759915 642.243362 L 260.365384 638.657424 L 261.40054 634.130081 L 258.763821 629.887893 L 256.701321 629.454299 L 253.759915 642.692581 L 249.103665 646.247268 L 248.365384 649.680862 L 245.548978 651.641799 L 243.830228 657.157424 L 248.123196 661.571487 L 249.470853 666.966018 L 248.857571 676.403518 Z M 250.818509 679.348831 " transform="matrix(1,0,0,-1,-51.21304,687.407424)" region_id="TN" necklace_id="N_africa"/>
<path style="fill-rule:evenodd;fill:rgb(73.3%,71.8%,34.9%);fill-opacity:1;stroke-width:0.5;stroke-linecap:butt;stroke-linejoin:round;stroke:rgb(0%,0%,0%);stroke-opacity:1;stroke-miterlimit:10;" d="M 269.228665 651.294143 L 271.658353 650.493362 L 275.580228 648.411331 L 279.748196 649.391799 L 284.408353 648.411331 L 288.943509 645.712112 L 292.990384 645.098831 L 295.197415 638.481643 L 302.920071 636.520706 L 311.86929 633.087112 L 317.998196 629.286331 L 322.90054 632.473831 L 324.127103 637.008987 L 322.533353 641.665237 L 326.334134 646.817581 L 333.322415 649.391799 L 336.998196 649.266799 L 342.271634 647.305862 L 343.61929 643.997268 L 347.787259 643.262893 L 354.283353 642.403518 L 355.509915 639.094924 L 353.916165 637.130081 L 355.142728 632.473831 L 353.427884 628.919143 L 355.634915 621.196487 L 357.27554 567.255081 L 357.396634 552.423049 L 351.146634 552.298049 L 351.021634 548.622268 L 298.43179 578.290237 L 292.05679 574.731643 L 287.154446 572.036331 L 282.127103 576.325393 L 272.517728 578.579299 L 269.943509 584.219924 L 264.302884 586.423049 L 262.466946 585.934768 L 259.892728 588.508987 L 259.892728 592.063674 L 255.724759 599.051956 L 259.154446 601.626174 L 258.052884 606.774612 L 259.40054 611.063674 L 258.666165 620.993362 L 255.599759 627.981643 L 256.701321 629.454299 L 258.763821 629.887893 L 261.40054 634.130081 L 260.365384 638.657424 L 263.759915 642.243362 L 269.513821 645.919143 L 268.853665 648.087112 Z M 269.228665 651.294143 " transform="matrix(1,0,0,-1,-51.21304,687.407424)" region_id="LY" necklace_id="N_africa"/>
<path style="fill-rule:evenodd;fill:rgb(53.3%,78%,39.6%);fill-opacity:1;stroke-width:0.5;stroke-linecap:butt;stroke-linejoin:round;stroke:rgb(0%,0%,0%);stroke-opacity:1;stroke-miterlimit:10;" d="M 355.509915 639.094924 L 357.888821 638.848831 L 360.709134 639.829299 L 369.779446 637.743362 L 370.759915 636.274612 L 378.115384 635.294143 L 381.302884 633.575393 L 386.330228 636.887893 L 388.166165 637.130081 L 389.638821 638.723831 L 393.80679 639.337112 L 396.748196 638.481643 L 398.955228 638.848831 L 401.654446 636.149612 L 405.943509 636.274612 L 408.884915 635.661331 L 413.298978 637.130081 L 418.693509 623.770706 L 417.345853 620.458206 L 416.365384 612.489456 L 414.892728 610.774612 L 410.845853 614.329299 L 408.517728 616.415237 L 407.783353 620.091018 L 404.841946 623.524612 L 403.615384 627.571487 L 402.267728 624.626174 L 404.103665 622.419143 L 404.595853 618.864456 L 410.724759 611.387893 L 411.091946 608.567581 L 414.279446 603.419143 L 414.158353 601.825393 L 423.841946 584.173049 L 426.783353 581.598831 L 424.701321 581.844924 L 425.927884 575.591018 L 423.841946 573.262893 L 421.759915 573.630081 L 420.287259 569.462112 L 416.853665 568.727737 L 415.873196 565.540237 L 412.80679 565.294143 L 410.478665 567.008987 L 357.27554 567.255081 L 355.634915 621.196487 L 353.427884 628.919143 L 355.142728 632.473831 L 353.916165 637.130081 Z M 355.509915 639.094924 " transform="matrix(1,0,0,-1,-51.21304,687.407424)" region_id="EG" necklace_id="N_africa"/>
<path style="fill-rule:evenodd;fill:rgb(61.9%,83.9%,77.2%);fill-opacity:1;stroke-width:0.5;stroke-linecap:butt;stroke-linejoin:round;stroke:rgb(0%,0%,0%);stroke-opacity:1;stroke-miterlimit:10;" d="M 110.631009 609.829299 L 108.240384 603.212112 L 101.732571 598.872268 L 98.998196 592.462112 L 98.716946 587.747268 L 92.021634 581.145706 L 87.40054 569.829299 L 85.513821 568.981643 L 83.627103 562.286331 L 109.748196 562.380081 L 109.466946 574.165237 L 112.955228 576.903518 L 117.009915 578.223831 L 117.670071 597.270706 L 139.170071 597.364456 L 139.68179 606.587112 L 139.634915 609.829299 Z M 110.631009 609.829299 " transform="matrix(1,0,0,-1,-51.21304,687.407424)" region_id="EH" necklace_id="N_africa"/>
<path style="fill-rule:evenodd;fill:rgb(83.1%,87.8%,35.2%);fill-opacity:1;stroke-width:0.5;stroke-linecap:butt;stroke-linejoin:round;stroke:rgb(0%,0%,0%);stroke-opacity:1;stroke-miterlimit:10;" d="M 83.627103 562.286331 L 83.201321 557.719924 L 84.18179 560.169143 L 86.142728 556.614456 L 87.002103 557.594924 L 88.595853 552.692581 L 87.002103 549.872268 L 86.509915 546.809768 L 88.470853 544.235549 L 88.96304 534.426956 L 85.408353 525.844924 L 85.283353 522.536331 L 87.002103 525.844924 L 90.802884 525.844924 L 95.459134 527.071487 L 99.752103 526.825393 L 103.060696 523.270706 L 105.634915 523.270706 L 109.68179 515.669143 L 113.724759 512.606643 L 116.177884 513.708206 L 116.545071 518.735549 L 118.752103 519.102737 L 122.060696 515.794143 L 123.533353 517.876174 L 126.474759 518.001174 L 129.295071 517.387893 L 132.115384 518.981643 L 133.830228 518.368362 L 157.611478 518.368362 L 158.83804 524.618362 L 157.24429 525.969924 L 152.46304 589.716018 L 163.709134 590.040237 L 139.68179 606.587112 L 139.170071 597.364456 L 117.670071 597.270706 L 117.009915 578.223831 L 112.955228 576.903518 L 109.466946 574.165237 L 109.748196 562.380081 Z M 83.627103 562.286331 " transform="matrix(1,0,0,-1,-51.21304,687.407424)" region_id="MR" necklace_id="N_africa"/>
<path style="fill-rule:evenodd;fill:rgb(99.6%,96.4%,60.7%);fill-opacity:1;stroke-width:0.5;stroke-linecap:butt;stroke-linejoin:round;stroke:rgb(0%,0%,0%);stroke-opacity:1;stroke-miterlimit:10;" d="M 113.724759 512.606643 L 113.615384 509.883987 L 115.209134 505.594924 L 114.349759 504.489456 L 116.923978 502.282424 L 118.517728 499.341018 L 118.27554 495.294143 L 117.904446 493.091018 L 119.377103 492.110549 L 121.095853 493.579299 L 123.05679 491.372268 L 125.384915 493.704299 L 129.060696 492.231643 L 132.248196 495.786331 L 134.334134 494.926956 L 135.314603 489.657424 L 138.134915 487.204299 L 136.416165 484.508987 L 138.502103 484.755081 L 138.86929 480.708206 L 141.197415 478.622268 L 142.545071 480.219924 L 144.017728 480.094924 L 147.080228 478.380081 L 149.779446 481.809768 L 152.353665 482.180862 L 152.599759 478.747268 L 157.134915 480.462112 L 157.502103 484.876174 L 159.095853 487.696487 L 158.482571 490.758987 L 162.77554 492.352737 L 164.36929 497.501174 L 165.83804 497.993362 L 165.470853 500.446487 L 167.43179 502.774612 L 170.61929 500.813674 L 172.334134 502.161331 L 172.334134 504.614456 L 174.420071 504.614456 L 174.787259 506.942581 L 177.607571 509.149612 L 180.427884 508.169143 L 180.670071 510.130081 L 188.884915 515.157424 L 195.259915 514.051956 L 200.287259 514.419143 L 202.49429 516.747268 L 216.591946 517.360549 L 219.533353 519.938674 L 221.373196 525.083206 L 221.939603 545.661331 L 216.177884 544.680862 L 214.705228 545.661331 L 215.318509 550.809768 L 210.170071 552.524612 L 202.201321 558.044143 L 202.080228 560.372268 L 163.709134 590.040237 L 152.46304 589.716018 L 157.24429 525.969924 L 158.83804 524.618362 L 157.611478 518.368362 L 133.830228 518.368362 L 132.115384 518.981643 L 129.295071 517.387893 L 126.474759 518.001174 L 123.533353 517.876174 L 122.060696 515.794143 L 118.752103 519.102737 L 116.545071 518.735549 L 116.177884 513.708206 Z M 113.724759 512.606643 " transform="matrix(1,0,0,-1,-51.21304,687.407424)" region_id="ML" necklace_id="N_africa"/>
<path style="fill-rule:evenodd;fill:rgb(86.6%,52.9%,47.4%);fill-opacity:1;stroke-width:0.5;stroke-linecap:butt;stroke-linejoin:round;stroke:rgb(0%,0%,0%);stroke-opacity:1;stroke-miterlimit:10;" d="M 84.205228 503.962112 L 91.560696 503.962112 L 92.662259 505.555862 L 95.728665 505.555862 L 98.916165 503.102737 L 101.24429 503.837112 L 102.959134 502.735549 L 99.896634 501.262893 L 93.888821 503.716018 L 93.154446 502.243362 L 89.474759 502.243362 L 89.232571 500.774612 L 83.103665 500.774612 L 83.103665 502.735549 Z M 84.205228 503.962112 " transform="matrix(1,0,0,-1,-51.21304,687.407424)" region_id="GM" necklace_id="N_africa"/>
<path style="fill-rule:evenodd;fill:rgb(99.6%,85.8%,70.5%);fill-opacity:1;stroke-width:0.5;stroke-linecap:butt;stroke-linejoin:round;stroke:rgb(0%,0%,0%);stroke-opacity:1;stroke-miterlimit:10;" d="M 85.283353 522.536331 L 84.701321 519.087112 L 80.271634 513.426956 L 78.951321 512.673049 L 80.646634 511.731643 L 83.193509 507.298049 L 84.205228 503.962112 L 91.560696 503.962112 L 92.662259 505.555862 L 95.728665 505.555862 L 98.916165 503.102737 L 101.24429 503.837112 L 102.959134 502.735549 L 99.896634 501.262893 L 93.888821 503.716018 L 93.154446 502.243362 L 89.474759 502.243362 L 89.232571 500.774612 L 83.103665 500.774612 L 82.720853 497.868362 L 83.099759 494.755081 L 85.173978 494.755081 L 87.060696 495.512893 L 90.736478 495.321487 L 93.189603 497.208206 L 103.091946 497.208206 L 107.146634 496.735549 L 108.560696 495.794143 L 112.427884 494.473831 L 118.27554 495.294143 L 118.517728 499.341018 L 116.923978 502.282424 L 114.349759 504.489456 L 115.209134 505.594924 L 113.615384 509.883987 L 113.724759 512.606643 L 109.68179 515.669143 L 105.634915 523.270706 L 103.060696 523.270706 L 99.752103 526.825393 L 95.459134 527.071487 L 90.802884 525.844924 L 87.002103 525.844924 Z M 85.283353 522.536331 " transform="matrix(1,0,0,-1,-51.21304,687.407424)" region_id="SN" necklace_id="N_africa"/>
<path style="fill-rule:evenodd;fill:rgb(98%,71.3%,58%);fill-opacity:1;stroke-width:0.5;stroke-linecap:butt;stroke-linejoin:round;stroke:rgb(0%,0%,0%);stroke-opacity:1;stroke-miterlimit:10;" d="M 83.099759 494.755081 L 85.646634 492.680862 L 86.68179 490.985549 L 88.947415 490.137893 L 91.77554 491.548049 L 93.377103 491.266799 L 91.115384 490.137893 L 91.490384 487.872268 L 92.904446 485.891799 L 94.224759 484.477737 L 95.357571 485.798049 L 96.111478 488.059768 L 99.318509 489.380081 L 102.334134 489.852737 L 102.99429 492.305862 L 101.677884 493.532424 L 103.466946 494.946487 L 103.091946 497.208206 L 93.189603 497.208206 L 90.736478 495.321487 L 87.060696 495.512893 L 85.173978 494.755081 Z M 83.099759 494.755081 " transform="matrix(1,0,0,-1,-51.21304,687.407424)" region_id="GW" necklace_id="N_africa"/>
<path style="fill-rule:evenodd;fill:rgb(53.3%,78%,39.6%);fill-opacity:1;stroke-width:0.5;stroke-linecap:butt;stroke-linejoin:round;stroke:rgb(0%,0%,0%);stroke-opacity:1;stroke-miterlimit:10;" d="M 94.224759 484.477737 L 96.111478 484.290237 L 96.584134 482.024612 L 98.091946 478.630081 L 101.959134 475.801956 L 103.466946 475.235549 L 103.560696 473.446487 L 106.295071 469.579299 L 108.560696 471.653518 L 111.107571 476.180862 L 113.841946 476.368362 L 115.068509 477.028518 L 119.310696 476.841018 L 122.892728 471.368362 L 123.740384 467.313674 L 122.611478 464.391799 L 124.966946 465.524612 L 129.021634 465.805862 L 130.341946 464.204299 L 131.381009 459.395706 L 130.720853 457.321487 L 132.322415 457.415237 L 133.076321 456.001174 L 134.86929 456.848831 L 136.189603 459.770706 L 138.830228 458.829299 L 140.52554 462.411331 L 138.736478 464.485549 L 139.396634 465.712112 L 142.131009 465.145706 L 142.318509 467.126174 L 140.716946 468.165237 L 141.658353 470.426956 L 140.904446 472.407424 L 139.396634 473.727737 L 139.396634 476.649612 L 141.197415 478.622268 L 138.86929 480.708206 L 138.502103 484.755081 L 136.416165 484.508987 L 138.134915 487.204299 L 135.314603 489.657424 L 134.334134 494.926956 L 132.248196 495.786331 L 129.060696 492.231643 L 125.384915 493.704299 L 123.05679 491.372268 L 121.095853 493.579299 L 119.377103 492.110549 L 117.904446 493.091018 L 118.27554 495.294143 L 112.427884 494.473831 L 108.560696 495.794143 L 107.146634 496.735549 L 103.091946 497.208206 L 103.466946 494.946487 L 101.677884 493.532424 L 102.99429 492.305862 L 102.334134 489.852737 L 99.318509 489.380081 L 96.111478 488.059768 L 95.357571 485.798049 Z M 94.224759 484.477737 " transform="matrix(1,0,0,-1,-51.21304,687.407424)" region_id="GN" necklace_id="N_africa"/>
<path style="fill-rule:evenodd;fill:rgb(99.6%,96.4%,60.7%);fill-opacity:1;stroke-width:0.5;stroke-linecap:butt;stroke-linejoin:round;stroke:rgb(0%,0%,0%);stroke-opacity:1;stroke-miterlimit:10;" d="M 106.295071 469.579299 L 105.920071 466.844924 L 106.295071 463.825393 L 107.615384 463.356643 L 108.18179 460.618362 L 110.353665 459.110549 L 107.99429 459.016799 L 110.916165 457.696487 L 113.935696 455.903518 L 117.517728 453.829299 L 118.365384 456.188674 L 123.177884 460.524612 L 123.271634 462.505081 L 125.345853 463.544143 L 124.966946 465.524612 L 122.611478 464.391799 L 123.740384 467.313674 L 122.892728 471.368362 L 119.310696 476.841018 L 115.068509 477.028518 L 113.841946 476.368362 L 111.107571 476.180862 L 108.560696 471.653518 Z M 106.295071 469.579299 " transform="matrix(1,0,0,-1,-51.21304,687.407424)" region_id="SL" necklace_id="N_africa"/>
<path style="fill-rule:evenodd;fill:rgb(70.5%,59.2%,50.5%);fill-opacity:1;stroke-width:0.5;stroke-linecap:butt;stroke-linejoin:round;stroke:rgb(0%,0%,0%);stroke-opacity:1;stroke-miterlimit:10;" d="M 117.517728 453.829299 L 118.412259 451.700393 L 121.33804 450.380081 L 123.033353 448.208206 L 124.447415 448.114456 L 129.822415 442.458206 L 133.595853 438.969924 L 139.252103 435.856643 L 143.02554 434.630081 L 143.02554 438.216018 L 143.970853 441.985549 L 143.970853 445.192581 L 141.517728 447.079299 L 141.138821 448.774612 L 138.689603 449.247268 L 136.330228 450.755081 L 138.123196 452.923049 L 138.404446 455.094924 L 137.46304 457.641799 L 136.189603 459.770706 L 134.86929 456.848831 L 133.076321 456.001174 L 132.322415 457.415237 L 130.720853 457.321487 L 131.381009 459.395706 L 130.341946 464.204299 L 129.021634 465.805862 L 124.966946 465.524612 L 125.345853 463.544143 L 123.271634 462.505081 L 123.177884 460.524612 L 118.365384 456.188674 Z M 117.517728 453.829299 " transform="matrix(1,0,0,-1,-51.21304,687.407424)" region_id="LR" necklace_id="N_africa"/>
<path style="fill-rule:evenodd;fill:rgb(100%,80%,30.1%);fill-opacity:1;stroke-width:0.5;stroke-linecap:butt;stroke-linejoin:round;stroke:rgb(0%,0%,0%);stroke-opacity:1;stroke-miterlimit:10;" d="M 143.02554 434.630081 L 145.138821 435.321487 L 151.267728 438.137893 L 155.068509 439.856643 L 161.322415 440.712112 L 168.30679 441.079299 L 170.881009 440.344924 L 171.986478 441.692581 L 172.845853 439.856643 L 174.68179 439.731643 L 175.052884 443.899612 L 173.826321 444.270706 L 171.986478 450.520706 L 171.986478 453.583206 L 174.314603 457.141799 L 174.560696 460.450393 L 176.767728 463.516799 L 176.27554 468.419143 L 175.416165 470.258987 L 175.416165 472.833206 L 172.599759 476.020706 L 169.412259 476.630081 L 164.631009 474.180862 L 160.951321 476.020706 L 159.115384 479.208206 L 157.134915 480.462112 L 152.599759 478.747268 L 152.353665 482.180862 L 149.779446 481.809768 L 147.080228 478.380081 L 144.017728 480.094924 L 142.545071 480.219924 L 141.197415 478.622268 L 139.396634 476.649612 L 139.396634 473.727737 L 140.904446 472.407424 L 141.658353 470.426956 L 140.716946 468.165237 L 142.318509 467.126174 L 142.131009 465.145706 L 139.396634 465.712112 L 138.736478 464.485549 L 140.52554 462.411331 L 138.830228 458.829299 L 136.189603 459.770706 L 137.46304 457.641799 L 138.404446 455.094924 L 138.123196 452.923049 L 136.330228 450.755081 L 138.689603 449.247268 L 141.138821 448.774612 L 141.517728 447.079299 L 143.970853 445.192581 L 143.970853 441.985549 L 143.02554 438.216018 Z M 143.02554 434.630081 " transform="matrix(1,0,0,-1,-51.21304,687.407424)" region_id="CI" necklace_id="N_africa"/>
<path style="fill-rule:evenodd;fill:rgb(73.3%,71.7%,34.9%);fill-opacity:1;stroke-width:0.5;stroke-linecap:butt;stroke-linejoin:round;stroke:rgb(0%,0%,0%);stroke-opacity:1;stroke-miterlimit:10;" d="M 175.416165 472.833206 L 175.052884 479.208206 L 174.193509 481.903518 L 175.052884 484.602737 L 188.412259 484.602737 L 189.517728 483.989456 L 191.966946 485.704299 L 193.80679 485.212112 L 197.240384 484.477737 L 199.689603 484.602737 L 203.24429 487.786331 L 206.923978 487.786331 L 209.252103 490.239456 L 209.498196 491.712112 L 207.412259 494.653518 L 208.396634 495.633987 L 207.045071 497.473831 L 205.209134 496.614456 L 200.18179 500.048049 L 200.18179 501.887893 L 201.896634 502.376174 L 198.834134 504.583206 L 196.502103 506.911331 L 196.381009 509.364456 L 194.787259 510.833206 L 195.259915 514.051956 L 188.884915 515.157424 L 180.670071 510.130081 L 180.427884 508.169143 L 177.607571 509.149612 L 174.787259 506.942581 L 174.420071 504.614456 L 172.334134 504.614456 L 172.334134 502.161331 L 170.61929 500.813674 L 167.43179 502.774612 L 165.470853 500.446487 L 165.83804 497.993362 L 164.36929 497.501174 L 162.77554 492.352737 L 158.482571 490.758987 L 159.095853 487.696487 L 157.502103 484.876174 L 157.134915 480.462112 L 159.115384 479.208206 L 160.951321 476.020706 L 164.631009 474.180862 L 169.412259 476.630081 L 172.599759 476.020706 Z M 175.416165 472.833206 " transform="matrix(1,0,0,-1,-51.21304,687.407424)" region_id="BF" necklace_id="N_africa"/>
<path style="fill-rule:evenodd;fill:rgb(98%,71.4%,58%);fill-opacity:1;stroke-width:0.5;stroke-linecap:butt;stroke-linejoin:round;stroke:rgb(0%,0%,0%);stroke-opacity:1;stroke-miterlimit:10;" d="M 174.68179 439.731643 L 178.115384 438.630081 L 179.709134 437.403518 L 182.529446 439.489456 L 186.205228 440.712112 L 187.920071 440.958206 L 191.478665 443.778518 L 193.439603 444.024612 L 194.541165 445.126174 L 199.447415 445.247268 L 201.162259 447.946487 L 198.709134 450.028518 L 197.240384 454.567581 L 197.482571 457.141799 L 196.748196 458.489456 L 197.482571 463.758987 L 198.095853 464.739456 L 196.134915 467.313674 L 196.99429 472.708206 L 195.279446 473.075393 L 195.892728 479.208206 L 193.072415 482.270706 L 193.80679 485.212112 L 191.966946 485.704299 L 189.517728 483.989456 L 188.412259 484.602737 L 175.052884 484.602737 L 174.193509 481.903518 L 175.052884 479.208206 L 175.416165 472.833206 L 175.416165 470.258987 L 176.27554 468.419143 L 176.767728 463.516799 L 174.560696 460.450393 L 174.314603 457.141799 L 171.986478 453.583206 L 171.986478 450.520706 L 173.826321 444.270706 L 175.052884 443.899612 Z M 174.68179 439.731643 " transform="matrix(1,0,0,-1,-51.21304,687.407424)" region_id="GH" necklace_id="N_africa"/>
<path style="fill-rule:evenodd;fill:rgb(99.6%,85.9%,70.6%);fill-opacity:1;stroke-width:0.5;stroke-linecap:butt;stroke-linejoin:round;stroke:rgb(0%,0%,0%);stroke-opacity:1;stroke-miterlimit:10;" d="M 201.162259 447.946487 L 205.330228 449.048049 L 204.228665 451.380081 L 204.228665 466.704299 L 204.103665 470.626174 L 202.509915 472.587112 L 202.263821 477.001174 L 198.58804 480.063674 L 198.834134 482.270706 L 199.689603 484.602737 L 197.240384 484.477737 L 193.80679 485.212112 L 193.072415 482.270706 L 195.892728 479.208206 L 195.279446 473.075393 L 196.99429 472.708206 L 196.134915 467.313674 L 198.095853 464.739456 L 197.482571 463.758987 L 196.748196 458.489456 L 197.482571 457.141799 L 197.240384 454.567581 L 198.709134 450.028518 Z M 201.162259 447.946487 " transform="matrix(1,0,0,-1,-51.21304,687.407424)" region_id="TG" necklace_id="N_africa"/>
<path style="fill-rule:evenodd;fill:rgb(56.1%,73.7%,75.7%);fill-opacity:1;stroke-width:0.5;stroke-linecap:butt;stroke-linejoin:round;stroke:rgb(0%,0%,0%);stroke-opacity:1;stroke-miterlimit:10;" d="M 205.330228 449.048049 L 211.459134 449.661331 L 211.705228 452.235549 L 211.580228 454.934768 L 211.705228 460.204299 L 211.21304 461.555862 L 211.951321 469.766799 L 214.158353 470.133987 L 214.52554 473.075393 L 215.99429 475.895706 L 217.58804 476.508987 L 217.466946 479.821487 L 219.18179 480.798049 L 218.447415 485.091018 L 216.732571 487.298049 L 216.853665 488.891799 L 217.58804 490.239456 L 215.259915 491.712112 L 212.318509 494.899612 L 211.21304 494.040237 L 209.61929 494.040237 L 209.498196 491.712112 L 209.252103 490.239456 L 206.923978 487.786331 L 203.24429 487.786331 L 199.689603 484.602737 L 198.834134 482.270706 L 198.58804 480.063674 L 202.263821 477.001174 L 202.509915 472.587112 L 204.103665 470.626174 L 204.228665 451.380081 Z M 205.330228 449.048049 " transform="matrix(1,0,0,-1,-51.21304,687.407424)" region_id="BJ" necklace_id="N_africa"/>
<path style="fill-rule:evenodd;fill:rgb(62%,83.9%,77.3%);fill-opacity:1;stroke-width:0.5;stroke-linecap:butt;stroke-linejoin:round;stroke:rgb(0%,0%,0%);stroke-opacity:1;stroke-miterlimit:10;" d="M 217.58804 490.239456 L 217.966946 495.790237 L 221.029446 500.079299 L 221.154446 502.653518 L 223.849759 504.860549 L 228.384915 504.985549 L 230.103665 506.208206 L 235.252103 504.372268 L 239.787259 499.344924 L 241.256009 500.571487 L 243.095853 500.571487 L 245.423978 502.165237 L 253.02554 498.239456 L 257.560696 498.118362 L 260.134915 501.305862 L 265.283353 502.407424 L 271.537259 501.673049 L 275.826321 500.079299 L 279.506009 503.758987 L 280.853665 503.758987 L 283.552884 504.985549 L 282.568509 510.501174 L 284.041165 511.481643 L 284.533353 514.055862 L 289.189603 521.286331 L 295.685696 528.766799 L 296.666165 545.438674 L 297.279446 552.426956 L 298.752103 554.630081 L 296.05679 557.942581 L 296.05679 559.657424 L 293.482571 563.825393 L 292.74429 571.673049 L 292.05679 574.731643 L 287.154446 572.036331 L 282.127103 576.325393 L 272.517728 578.579299 L 243.271634 558.657424 L 232.236478 548.114456 L 221.939603 545.661331 L 221.373196 525.083206 L 219.533353 519.938674 L 216.591946 517.360549 L 202.49429 516.747268 L 200.287259 514.419143 L 195.259915 514.051956 L 194.787259 510.833206 L 196.381009 509.364456 L 196.502103 506.911331 L 198.834134 504.583206 L 201.896634 502.376174 L 200.18179 501.887893 L 200.18179 500.048049 L 205.209134 496.614456 L 207.045071 497.473831 L 208.396634 495.633987 L 207.412259 494.653518 L 209.498196 491.712112 L 209.61929 494.040237 L 211.21304 494.040237 L 212.318509 494.899612 L 215.259915 491.712112 Z M 217.58804 490.239456 " transform="matrix(1,0,0,-1,-51.21304,687.407424)" region_id="NE" necklace_id="N_africa"/>
<path style="fill-rule:evenodd;fill:rgb(53.3%,78%,39.6%);fill-opacity:1;stroke-width:0.5;stroke-linecap:butt;stroke-linejoin:round;stroke:rgb(0%,0%,0%);stroke-opacity:1;stroke-miterlimit:10;" d="M 211.459134 449.661331 L 217.490384 450.149612 L 222.517728 449.661331 L 226.318509 445.981643 L 229.259915 439.606643 L 231.220853 435.684768 L 234.166165 433.969924 L 238.822415 434.583206 L 244.33804 435.684768 L 249.486478 436.176956 L 251.693509 440.466018 L 251.939603 445.368362 L 257.580228 450.887893 L 258.193509 452.602737 L 260.642728 454.196487 L 263.216946 453.583206 L 263.584134 455.055862 L 266.404446 452.602737 L 266.896634 450.395706 L 268.736478 450.395706 L 270.084134 453.216018 L 271.920071 455.544143 L 271.552884 456.403518 L 273.271634 460.204299 L 274.49429 464.860549 L 278.052884 467.559768 L 278.662259 472.216018 L 280.99429 473.688674 L 281.482571 477.856643 L 283.322415 482.270706 L 286.263821 486.559768 L 289.818509 488.032424 L 290.310696 493.055862 L 287.490384 494.774612 L 286.388821 500.044143 L 283.552884 504.985549 L 280.853665 503.758987 L 279.506009 503.758987 L 275.826321 500.079299 L 271.537259 501.673049 L 265.283353 502.407424 L 260.134915 501.305862 L 257.560696 498.118362 L 253.02554 498.239456 L 245.423978 502.165237 L 243.095853 500.571487 L 241.256009 500.571487 L 239.787259 499.344924 L 235.252103 504.372268 L 230.103665 506.208206 L 228.384915 504.985549 L 223.849759 504.860549 L 221.154446 502.653518 L 221.029446 500.079299 L 217.966946 495.790237 L 217.58804 490.239456 L 216.853665 488.891799 L 216.732571 487.298049 L 218.447415 485.091018 L 219.18179 480.798049 L 217.466946 479.821487 L 217.58804 476.508987 L 215.99429 475.895706 L 214.52554 473.075393 L 214.158353 470.133987 L 211.951321 469.766799 L 211.21304 461.555862 L 211.705228 460.204299 L 211.580228 454.934768 L 211.705228 452.235549 Z M 211.459134 449.661331 " transform="matrix(1,0,0,-1,-51.21304,687.407424)" region_id="NG" necklace_id="N_africa"/>
<path style="fill-rule:evenodd;fill:rgb(14.5%,73.7%,61.1%);fill-opacity:1;stroke-width:0.5;stroke-linecap:butt;stroke-linejoin:round;stroke:rgb(0%,0%,0%);stroke-opacity:1;stroke-miterlimit:10;" d="M 286.388821 500.044143 L 288.99429 500.106643 L 289.951321 497.235549 L 291.865384 495.962112 L 293.138821 491.020706 L 292.978665 485.126174 L 294.412259 479.708206 L 297.283353 476.837112 L 291.545071 476.360549 L 287.720853 476.997268 L 286.127103 474.290237 L 289.314603 469.825393 L 294.412259 465.364456 L 296.326321 458.192581 L 299.033353 458.032424 L 303.017728 460.583206 L 304.295071 458.989456 L 307.162259 459.786331 L 309.552884 461.700393 L 316.564603 462.497268 L 320.072415 466.958206 L 318.478665 468.231643 L 319.591946 469.348831 L 328.677884 470.622268 L 332.662259 474.446487 L 337.123196 479.227737 L 337.123196 481.778518 L 341.74429 484.329299 L 344.771634 483.852737 L 345.252103 487.196487 L 342.861478 488.790237 L 341.904446 493.411331 L 341.427884 496.758987 L 338.40054 496.919143 L 337.759915 498.829299 L 340.631009 501.860549 L 339.513821 505.524612 L 342.224759 508.235549 L 341.427884 511.262893 L 343.18179 512.376174 L 345.252103 516.520706 L 344.615384 518.434768 L 346.685696 519.868362 L 351.627103 519.868362 L 351.021634 548.622268 L 298.43179 578.290237 L 292.05679 574.731643 L 292.74429 571.673049 L 293.482571 563.825393 L 296.05679 559.657424 L 296.05679 557.942581 L 298.752103 554.630081 L 297.279446 552.426956 L 296.666165 545.438674 L 295.685696 528.766799 L 289.189603 521.286331 L 284.533353 514.055862 L 284.041165 511.481643 L 282.568509 510.501174 L 283.552884 504.985549 Z M 286.388821 500.044143 " transform="matrix(1,0,0,-1,-51.21304,687.407424)" region_id="TD" necklace_id="N_africa"/>
<path style="fill-rule:evenodd;fill:rgb(83.1%,87.8%,35.2%);fill-opacity:1;stroke-width:0.5;stroke-linecap:butt;stroke-linejoin:round;stroke:rgb(0%,0%,0%);stroke-opacity:1;stroke-miterlimit:10;" d="M 344.771634 483.852737 L 350.138821 475.290237 L 349.724759 471.352737 L 348.689603 469.903518 L 349.517728 467.415237 L 354.076321 466.794143 L 353.455228 464.102737 L 358.013821 463.067581 L 360.912259 460.372268 L 360.912259 457.680862 L 368.36929 451.462112 L 368.36929 448.977737 L 371.892728 445.872268 L 373.96304 444.212112 L 374.377103 440.485549 L 377.90054 436.755081 L 381.83804 434.270706 L 384.322415 435.926956 L 387.638821 434.684768 L 388.881009 436.755081 L 390.537259 436.548049 L 392.404446 433.024612 L 395.716946 430.747268 L 396.33804 429.087112 L 398.205228 428.469924 L 400.27554 430.126174 L 404.420071 429.919143 L 406.697415 428.262893 L 408.978665 429.919143 L 416.228665 430.126174 L 418.920071 433.438674 L 421.615384 436.341018 L 431.560696 436.548049 L 430.521634 438.825393 L 430.732571 442.141799 L 427.830228 442.348831 L 425.552884 445.454299 L 423.685696 451.669143 L 420.166165 454.571487 L 417.677884 458.923049 L 412.084134 460.372268 L 412.912259 462.653518 L 413.11929 465.344924 L 417.884915 464.930862 L 419.541165 468.247268 L 419.127103 474.462112 L 420.580228 478.395706 L 419.955228 481.091018 L 422.029446 483.368362 L 423.892728 482.333206 L 425.345853 490.622268 L 429.486478 497.251174 L 431.974759 497.251174 L 432.388821 501.395706 L 434.459134 509.473831 L 433.631009 515.274612 L 436.947415 524.805862 L 436.115384 526.669143 L 437.154446 529.778518 L 440.052884 530.399612 L 440.259915 532.262893 L 445.232571 534.333206 L 447.099759 537.028518 L 444.197415 539.305862 L 441.916165 542.001174 L 439.224759 543.036331 L 436.740384 555.880081 L 436.947415 561.266799 L 434.873196 564.790237 L 434.459134 567.688674 L 429.90054 572.040237 L 427.623196 572.661331 L 425.927884 575.591018 L 423.841946 573.262893 L 421.759915 573.630081 L 420.287259 569.462112 L 416.853665 568.727737 L 415.873196 565.540237 L 412.80679 565.294143 L 410.478665 567.008987 L 357.27554 567.255081 L 357.396634 552.423049 L 351.146634 552.298049 L 351.021634 548.622268 L 351.627103 519.868362 L 346.685696 519.868362 L 344.615384 518.434768 L 345.252103 516.520706 L 343.18179 512.376174 L 341.427884 511.262893 L 342.224759 508.235549 L 339.513821 505.524612 L 340.631009 501.860549 L 337.759915 498.829299 L 338.40054 496.919143 L 341.427884 496.758987 L 341.904446 493.411331 L 342.861478 488.790237 L 345.252103 487.196487 Z M 344.771634 483.852737 " transform="matrix(1,0,0,-1,-51.21304,687.407424)" region_id="SD" necklace_id="N_africa"/>
<path style="fill-rule:evenodd;fill:rgb(56%,73.7%,75.6%);fill-opacity:1;stroke-width:0.5;stroke-linecap:butt;stroke-linejoin:round;stroke:rgb(0%,0%,0%);stroke-opacity:1;stroke-miterlimit:10;" d="M 434.459134 509.473831 L 439.017728 510.094924 L 441.295071 507.817581 L 443.36929 513.618362 L 446.888821 510.094924 L 451.240384 511.337112 L 457.455228 510.508987 L 462.841946 507.817581 L 468.021634 502.016799 L 473.408353 495.798049 L 475.896634 494.969924 L 478.381009 497.251174 L 476.103665 498.907424 L 473.201321 501.395706 L 465.330228 511.751174 L 459.943509 514.860549 L 457.662259 515.067581 L 457.455228 517.344924 L 453.314603 518.587112 L 451.654446 524.598831 L 449.377103 531.848831 L 447.099759 537.028518 L 445.232571 534.333206 L 440.259915 532.262893 L 440.052884 530.399612 L 437.154446 529.778518 L 436.115384 526.669143 L 436.947415 524.805862 L 433.631009 515.274612 Z M 434.459134 509.473831 " transform="matrix(1,0,0,-1,-51.21304,687.407424)" region_id="ER" necklace_id="N_africa"/>
<path style="fill-rule:evenodd;fill:rgb(86.6%,52.9%,47.4%);fill-opacity:1;stroke-width:0.5;stroke-linecap:butt;stroke-linejoin:round;stroke:rgb(0%,0%,0%);stroke-opacity:1;stroke-miterlimit:10;" d="M 473.408353 495.798049 L 469.474759 489.583206 L 469.888821 483.989456 L 474.65054 484.821487 L 477.138821 484.403518 L 479.209134 487.719924 L 474.857571 488.755081 L 476.517728 490.622268 L 480.24429 492.485549 L 478.381009 497.251174 L 475.896634 494.969924 Z M 473.408353 495.798049 " transform="matrix(1,0,0,-1,-51.21304,687.407424)" region_id="DJ" necklace_id="N_africa"/>
<path style="fill-rule:evenodd;fill:rgb(61.9%,83.9%,77.2%);fill-opacity:1;stroke-width:0.5;stroke-linecap:butt;stroke-linejoin:round;stroke:rgb(0%,0%,0%);stroke-opacity:1;stroke-miterlimit:10;" d="M 431.560696 436.548049 L 433.154446 435.153518 L 438.435696 435.059768 L 446.263821 429.024612 L 455.693509 427.704299 L 458.142728 431.098831 L 464.084134 434.114456 L 466.631009 431.571487 L 471.158353 431.665237 L 472.759915 433.360549 L 478.041165 434.493362 L 480.115384 437.227737 L 484.736478 438.923049 L 491.52554 438.641799 L 499.916165 449.391799 L 511.045071 462.028518 L 504.728665 462.028518 L 485.017728 469.477737 L 481.341946 472.497268 L 479.170071 476.266799 L 475.58804 481.641799 L 477.138821 484.403518 L 474.65054 484.821487 L 469.888821 483.989456 L 469.474759 489.583206 L 473.408353 495.798049 L 468.021634 502.016799 L 462.841946 507.817581 L 457.455228 510.508987 L 451.240384 511.337112 L 446.888821 510.094924 L 443.36929 513.618362 L 441.295071 507.817581 L 439.017728 510.094924 L 434.459134 509.473831 L 432.388821 501.395706 L 431.974759 497.251174 L 429.486478 497.251174 L 425.345853 490.622268 L 423.892728 482.333206 L 422.029446 483.368362 L 419.955228 481.091018 L 420.580228 478.395706 L 419.127103 474.462112 L 419.541165 468.247268 L 417.884915 464.930862 L 413.11929 465.344924 L 412.912259 462.653518 L 412.084134 460.372268 L 417.677884 458.923049 L 420.166165 454.571487 L 423.685696 451.669143 L 425.552884 445.454299 L 427.830228 442.348831 L 430.732571 442.141799 L 430.521634 438.825393 Z M 431.560696 436.548049 " transform="matrix(1,0,0,-1,-51.21304,687.407424)" region_id="ET" necklace_id="N_africa"/>
<path style="fill-rule:evenodd;fill:rgb(99.6%,96.4%,60.7%);fill-opacity:1;stroke-width:0.5;stroke-linecap:butt;stroke-linejoin:round;stroke:rgb(0%,0%,0%);stroke-opacity:1;stroke-miterlimit:10;" d="M 471.158353 431.665237 L 467.52554 425.114456 L 465.455228 423.044143 L 465.611478 395.313674 L 469.439603 389.258987 L 474.697415 398.024612 L 488.560696 413.001174 L 494.77554 416.829299 L 501.470853 422.883987 L 512.146634 436.587112 L 518.841946 448.063674 L 519.158353 452.048049 L 526.65054 466.071487 L 529.83804 472.286331 L 531.111478 480.575393 L 530.951321 487.903518 L 532.068509 490.774612 L 528.24429 492.048049 L 526.170071 489.341018 L 516.927884 486.313674 L 514.537259 487.266799 L 510.236478 485.356643 L 506.888821 485.993362 L 500.990384 482.325393 L 495.572415 483.442581 L 490.314603 480.255081 L 486.330228 480.255081 L 482.345853 483.602737 L 480.720853 486.899612 L 479.209134 487.719924 L 477.138821 484.403518 L 475.58804 481.641799 L 479.170071 476.266799 L 481.341946 472.497268 L 485.017728 469.477737 L 504.728665 462.028518 L 511.045071 462.028518 L 499.916165 449.391799 L 491.52554 438.641799 L 484.736478 438.923049 L 480.115384 437.227737 L 478.041165 434.493362 L 472.759915 433.360549 Z M 471.158353 431.665237 " transform="matrix(1,0,0,-1,-51.21304,687.407424)" region_id="SO" necklace_id="N_africa"/>
<path style="fill-rule:evenodd;fill:rgb(100%,80%,30.2%);fill-opacity:1;stroke-width:0.5;stroke-linecap:butt;stroke-linejoin:round;stroke:rgb(0%,0%,0%);stroke-opacity:1;stroke-miterlimit:10;" d="M 249.486478 436.176956 L 250.939603 435.606643 L 252.162259 436.645706 L 253.013821 432.305862 L 255.748196 430.985549 L 256.408353 432.493362 L 257.634915 432.305862 L 256.974759 429.571487 L 259.142728 425.329299 L 258.197415 419.200393 L 259.896634 418.067581 L 268.478665 418.067581 L 269.420071 419.294143 L 280.736478 418.915237 L 282.05679 418.067581 L 289.884915 418.067581 L 293.560696 416.747268 L 297.521634 416.368362 L 299.974759 414.485549 L 300.634915 415.614456 L 299.783353 417.313674 L 300.728665 418.915237 L 300.162259 423.442581 L 298.748196 425.329299 L 297.521634 425.798049 L 293.279446 431.458206 L 292.99429 434.946487 L 290.826321 436.454299 L 290.545071 440.700393 L 289.599759 441.641799 L 290.072415 443.149612 L 289.978665 446.169143 L 288.845853 447.489456 L 291.298978 449.184768 L 293.279446 452.958206 L 294.220853 456.165237 L 296.326321 458.192581 L 294.412259 465.364456 L 289.314603 469.825393 L 286.127103 474.290237 L 287.720853 476.997268 L 291.545071 476.360549 L 297.283353 476.837112 L 294.412259 479.708206 L 292.978665 485.126174 L 293.138821 491.020706 L 291.865384 495.962112 L 289.951321 497.235549 L 288.99429 500.106643 L 286.388821 500.044143 L 287.490384 494.774612 L 290.310696 493.055862 L 289.818509 488.032424 L 286.263821 486.559768 L 283.322415 482.270706 L 281.482571 477.856643 L 280.99429 473.688674 L 278.662259 472.216018 L 278.052884 467.559768 L 274.49429 464.860549 L 273.271634 460.204299 L 271.552884 456.403518 L 271.920071 455.544143 L 270.084134 453.216018 L 268.736478 450.395706 L 266.896634 450.395706 L 266.404446 452.602737 L 263.584134 455.055862 L 263.216946 453.583206 L 260.642728 454.196487 L 258.193509 452.602737 L 257.580228 450.887893 L 251.939603 445.368362 L 251.693509 440.466018 Z M 249.486478 436.176956 " transform="matrix(1,0,0,-1,-51.21304,687.407424)" region_id="CM" necklace_id="N_africa"/>
<path style="fill-rule:evenodd;fill:rgb(70.5%,59.2%,50.5%);fill-opacity:1;stroke-width:0.5;stroke-linecap:butt;stroke-linejoin:round;stroke:rgb(0%,0%,0%);stroke-opacity:1;stroke-miterlimit:10;" d="M 300.728665 418.915237 L 302.795071 422.895706 L 303.27554 427.997268 L 309.330228 429.430862 L 312.834134 428.473831 L 316.818509 429.110549 L 316.978665 434.372268 L 321.439603 440.110549 L 324.947415 440.426956 L 329.568509 435.329299 L 333.873196 434.212112 L 342.318509 432.938674 L 345.029446 437.876174 L 348.373196 436.442581 L 355.705228 440.266799 L 358.256009 439.313674 L 361.603665 439.630081 L 362.55679 442.341018 L 370.845853 439.790237 L 374.377103 440.485549 L 373.96304 444.212112 L 368.36929 448.977737 L 368.36929 451.462112 L 360.912259 457.680862 L 360.912259 460.372268 L 358.013821 463.067581 L 353.455228 464.102737 L 354.076321 466.794143 L 349.517728 467.415237 L 348.689603 469.903518 L 349.724759 471.352737 L 350.138821 475.290237 L 344.771634 483.852737 L 341.74429 484.329299 L 337.123196 481.778518 L 337.123196 479.227737 L 332.662259 474.446487 L 328.677884 470.622268 L 319.591946 469.348831 L 318.478665 468.231643 L 320.072415 466.958206 L 316.564603 462.497268 L 309.552884 461.700393 L 307.162259 459.786331 L 304.295071 458.989456 L 303.017728 460.583206 L 299.033353 458.032424 L 296.326321 458.192581 L 294.220853 456.165237 L 293.279446 452.958206 L 291.298978 449.184768 L 288.845853 447.489456 L 289.978665 446.169143 L 290.072415 443.149612 L 289.599759 441.641799 L 290.545071 440.700393 L 290.826321 436.454299 L 292.99429 434.946487 L 293.279446 431.458206 L 297.521634 425.798049 L 298.748196 425.329299 L 300.162259 423.442581 Z M 300.728665 418.915237 " transform="matrix(1,0,0,-1,-51.21304,687.407424)" region_id="CF" necklace_id="N_africa"/>
<path style="fill-rule:evenodd;fill:rgb(86.7%,52.9%,47.5%);fill-opacity:1;stroke-width:0.5;stroke-linecap:butt;stroke-linejoin:round;stroke:rgb(0%,0%,0%);stroke-opacity:1;stroke-miterlimit:10;" d="M 258.197415 419.200393 L 258.033353 415.469924 L 255.334134 410.567581 L 257.173978 409.583206 L 268.451321 409.341018 L 268.478665 418.067581 L 259.896634 418.067581 Z M 258.197415 419.200393 " transform="matrix(1,0,0,-1,-51.21304,687.407424)" region_id="GQ" necklace_id="N_africa"/>
<path style="fill-rule:evenodd;fill:rgb(99.6%,85.9%,70.6%);fill-opacity:1;stroke-width:0.5;stroke-linecap:butt;stroke-linejoin:round;stroke:rgb(0%,0%,0%);stroke-opacity:1;stroke-miterlimit:10;" d="M 257.173978 409.583206 L 257.052884 405.907424 L 255.334134 406.274612 L 255.459134 404.434768 L 259.502103 403.087112 L 255.091946 402.966018 L 254.845853 398.551956 L 251.658353 396.098831 L 253.986478 389.848831 L 258.888821 381.755081 L 263.18179 377.344924 L 267.349759 372.196487 L 267.716946 374.278518 L 269.677884 375.383987 L 271.638821 373.790237 L 272.498196 377.098831 L 270.779446 378.200393 L 271.638821 379.305862 L 270.045071 381.020706 L 270.045071 384.454299 L 276.173978 384.208206 L 275.80679 387.641799 L 277.646634 387.762893 L 279.974759 383.962112 L 283.041165 383.719924 L 284.634915 385.680862 L 285.736478 383.106643 L 287.084134 383.227737 L 287.943509 387.028518 L 289.170071 388.376174 L 289.537259 397.450393 L 285.490384 399.899612 L 285.615384 403.825393 L 289.291165 408.360549 L 287.943509 411.915237 L 284.877103 412.528518 L 280.955228 411.301956 L 280.58804 414.856643 L 282.05679 418.067581 L 280.736478 418.915237 L 269.420071 419.294143 L 268.478665 418.067581 L 268.451321 409.341018 Z M 257.173978 409.583206 " transform="matrix(1,0,0,-1,-51.21304,687.407424)" region_id="GA" necklace_id="N_africa"/>
<path style="fill-rule:evenodd;fill:rgb(83.1%,87.8%,35.2%);fill-opacity:1;stroke-width:0.5;stroke-linecap:butt;stroke-linejoin:round;stroke:rgb(0%,0%,0%);stroke-opacity:1;stroke-miterlimit:10;" d="M 267.349759 372.196487 L 271.490384 367.169143 L 273.24429 363.505081 L 278.02554 368.762893 L 282.330228 365.415237 L 284.877103 367.966018 L 289.021634 369.239456 L 289.021634 365.255081 L 291.095853 365.098831 L 296.513821 371.630081 L 298.74429 372.110549 L 300.974759 376.251174 L 301.134915 385.973831 L 307.029446 393.622268 L 309.90054 395.536331 L 311.810696 408.762893 L 313.404446 418.325393 L 316.912259 425.657424 L 316.818509 429.110549 L 312.834134 428.473831 L 309.330228 429.430862 L 303.27554 427.997268 L 302.795071 422.895706 L 300.728665 418.915237 L 299.783353 417.313674 L 300.634915 415.614456 L 299.974759 414.485549 L 297.521634 416.368362 L 293.560696 416.747268 L 289.884915 418.067581 L 282.05679 418.067581 L 280.58804 414.856643 L 280.955228 411.301956 L 284.877103 412.528518 L 287.943509 411.915237 L 289.291165 408.360549 L 285.615384 403.825393 L 285.490384 399.899612 L 289.537259 397.450393 L 289.170071 388.376174 L 287.943509 387.028518 L 287.084134 383.227737 L 285.736478 383.106643 L 284.634915 385.680862 L 283.041165 383.719924 L 279.974759 383.962112 L 277.646634 387.762893 L 275.80679 387.641799 L 276.173978 384.208206 L 270.045071 384.454299 L 270.045071 381.020706 L 271.638821 379.305862 L 270.779446 378.200393 L 272.498196 377.098831 L 271.638821 373.790237 L 269.677884 375.383987 L 267.716946 374.278518 Z M 267.349759 372.196487 " transform="matrix(1,0,0,-1,-51.21304,687.407424)" region_id="CG" necklace_id="N_africa"/>
<path style="fill-rule:evenodd;fill:rgb(14.5%,73.7%,61.1%);fill-opacity:1;stroke-width:0.5;stroke-linecap:butt;stroke-linejoin:round;stroke:rgb(0%,0%,0%);stroke-opacity:1;stroke-miterlimit:10;" d="M 275.373196 356.098831 L 282.072415 336.489456 L 279.584134 334.212112 L 284.349759 320.122268 L 284.142728 310.801956 L 276.271634 300.856643 L 271.506009 282.208206 L 271.298978 272.059768 L 279.170071 273.716018 L 282.486478 273.508987 L 286.423978 270.817581 L 315.013821 270.817581 L 318.11929 267.501174 L 335.732571 266.466018 L 347.541165 268.950393 L 338.631009 279.102737 L 338.631009 303.755081 L 351.892728 303.755081 L 352.02554 319.446487 L 343.103665 318.489456 L 340.71304 317.532424 L 341.029446 324.864456 L 337.845853 329.325393 L 338.638821 338.571487 L 337.365384 342.235549 L 337.845853 347.016799 L 329.396634 347.176956 L 329.873196 349.727737 L 322.861478 349.087112 L 321.427884 341.438674 L 317.127103 341.915237 L 309.795071 340.801956 L 305.810696 347.176956 L 302.943509 357.376174 L 278.877103 357.536331 Z M 275.373196 356.098831 " transform="matrix(1,0,0,-1,-51.21304,687.407424)" region_id="AO" necklace_id="N_africa"/>
<path style="fill-rule:evenodd;fill:rgb(14.5%,73.7%,61.1%);fill-opacity:1;stroke-width:0.5;stroke-linecap:butt;stroke-linejoin:round;stroke:rgb(0%,0%,0%);stroke-opacity:1;stroke-miterlimit:10;" d="M 273.24429 363.505081 L 274.361478 358.563674 L 276.271634 358.563674 L 276.271634 363.821487 L 280.099759 367.169143 L 278.02554 368.762893 Z M 273.24429 363.505081 " transform="matrix(1,0,0,-1,-51.21304,687.407424)" region_id="AO" necklace_id="N_africa"/>
<path style="fill-rule:evenodd;fill:rgb(100%,80%,30.1%);fill-opacity:1;stroke-width:0.5;stroke-linecap:butt;stroke-linejoin:round;stroke:rgb(0%,0%,0%);stroke-opacity:1;stroke-miterlimit:10;" d="M 418.920071 433.438674 L 421.935696 429.161331 L 422.095853 425.657424 L 425.11929 420.079299 L 424.166165 410.516799 L 418.58804 402.387893 L 418.58804 394.262893 L 443.767728 378.645706 L 443.287259 375.454299 L 454.127103 366.212112 L 459.545071 377.208206 L 460.502103 382.149612 L 464.486478 383.583206 L 469.439603 389.258987 L 465.611478 395.313674 L 465.455228 423.044143 L 467.52554 425.114456 L 471.158353 431.665237 L 466.631009 431.571487 L 464.084134 434.114456 L 458.142728 431.098831 L 455.693509 427.704299 L 446.263821 429.024612 L 438.435696 435.059768 L 433.154446 435.153518 L 431.560696 436.548049 L 421.615384 436.341018 Z M 418.920071 433.438674 " transform="matrix(1,0,0,-1,-51.21304,687.407424)" region_id="KE" necklace_id="N_africa"/>
<path style="fill-rule:evenodd;fill:rgb(98%,71.4%,58%);fill-opacity:1;stroke-width:0.5;stroke-linecap:butt;stroke-linejoin:round;stroke:rgb(0%,0%,0%);stroke-opacity:1;stroke-miterlimit:10;" d="M 398.205228 428.469924 L 397.552884 424.860549 L 397.552884 420.239456 L 401.05679 418.005081 L 395.955228 411.153518 L 391.974759 407.809768 L 390.220853 399.997268 L 389.90054 391.391799 L 392.611478 390.915237 L 395.798978 394.102737 L 418.58804 394.262893 L 418.58804 402.387893 L 424.166165 410.516799 L 425.11929 420.079299 L 422.095853 425.657424 L 421.935696 429.161331 L 418.920071 433.438674 L 416.228665 430.126174 L 408.978665 429.919143 L 406.697415 428.262893 L 404.420071 429.919143 L 400.27554 430.126174 Z M 398.205228 428.469924 " transform="matrix(1,0,0,-1,-51.21304,687.407424)" region_id="UG" necklace_id="N_africa"/>
<path style="fill-rule:evenodd;fill:rgb(56.1%,73.7%,75.7%);fill-opacity:1;stroke-width:0.5;stroke-linecap:butt;stroke-linejoin:round;stroke:rgb(0%,0%,0%);stroke-opacity:1;stroke-miterlimit:10;" d="M 389.90054 391.391799 L 386.873196 388.044143 L 387.033353 385.497268 L 384.802884 383.266799 L 385.759915 381.512893 L 391.49429 381.032424 L 392.134915 384.063674 L 395.955228 383.903518 L 398.189603 384.219924 L 397.709134 389.001174 L 395.798978 394.102737 L 392.611478 390.915237 Z M 389.90054 391.391799 " transform="matrix(1,0,0,-1,-51.21304,687.407424)" region_id="RW" necklace_id="N_africa"/>
<path style="fill-rule:evenodd;fill:rgb(86.7%,52.9%,47.5%);fill-opacity:1;stroke-width:0.5;stroke-linecap:butt;stroke-linejoin:round;stroke:rgb(0%,0%,0%);stroke-opacity:1;stroke-miterlimit:10;" d="M 385.759915 381.512893 L 387.670071 377.368362 L 388.466946 368.286331 L 391.177884 368.442581 L 394.365384 372.270706 L 398.029446 377.528518 L 397.552884 379.438674 L 395.318509 380.079299 L 395.955228 383.903518 L 392.134915 384.063674 L 391.49429 381.032424 Z M 385.759915 381.512893 " transform="matrix(1,0,0,-1,-51.21304,687.407424)" region_id="BI" necklace_id="N_africa"/>
<path style="fill-rule:evenodd;fill:rgb(53.3%,78%,39.6%);fill-opacity:1;stroke-width:0.5;stroke-linecap:butt;stroke-linejoin:round;stroke:rgb(0%,0%,0%);stroke-opacity:1;stroke-miterlimit:10;" d="M 388.466946 368.286331 L 387.892728 364.126174 L 390.381009 358.118362 L 388.720853 356.044143 L 390.58804 350.864456 L 394.728665 347.758987 L 397.216946 339.887893 L 399.701321 336.985549 L 412.756009 330.149612 L 417.935696 329.114456 L 419.177884 330.149612 L 421.86929 326.419143 L 422.697415 318.337112 L 424.978665 314.610549 L 428.705228 314.610549 L 430.365384 315.645706 L 433.888821 313.575393 L 436.99429 314.403518 L 440.93179 313.575393 L 443.830228 316.887893 L 447.767728 316.059768 L 452.947415 317.923049 L 461.439603 322.688674 L 456.677884 326.626174 L 453.77554 338.848831 L 454.810696 342.165237 L 453.77554 344.028518 L 455.43179 348.794143 L 453.982571 351.489456 L 450.666165 354.387893 L 450.252103 357.290237 L 454.127103 366.212112 L 443.287259 375.454299 L 443.767728 378.645706 L 418.58804 394.262893 L 395.798978 394.102737 L 397.709134 389.001174 L 398.189603 384.219924 L 395.955228 383.903518 L 395.318509 380.079299 L 397.552884 379.438674 L 398.029446 377.528518 L 394.365384 372.270706 L 391.177884 368.442581 Z M 388.466946 368.286331 " transform="matrix(1,0,0,-1,-51.21304,687.407424)" region_id="TZ" necklace_id="N_africa"/>
<path style="fill-rule:evenodd;fill:rgb(99.6%,96.5%,60.8%);fill-opacity:1;stroke-width:0.5;stroke-linecap:butt;stroke-linejoin:round;stroke:rgb(0%,0%,0%);stroke-opacity:1;stroke-miterlimit:10;" d="M 274.361478 358.563674 L 275.373196 356.098831 L 278.877103 357.536331 L 302.943509 357.376174 L 305.810696 347.176956 L 309.795071 340.801956 L 317.127103 341.915237 L 321.427884 341.438674 L 322.861478 349.087112 L 329.873196 349.727737 L 329.396634 347.176956 L 337.845853 347.016799 L 337.365384 342.235549 L 338.638821 338.571487 L 337.845853 329.325393 L 341.029446 324.864456 L 340.71304 317.532424 L 343.103665 318.489456 L 352.02554 319.446487 L 354.736478 318.012893 L 354.736478 315.622268 L 360.951321 317.216018 L 360.951321 314.505081 L 366.209134 312.274612 L 371.15054 311.954299 L 373.189603 314.665237 L 376.091946 309.485549 L 381.271634 307.829299 L 385.205228 300.782424 L 389.970853 301.407424 L 390.177884 310.106643 L 387.279446 308.243362 L 381.685696 312.801956 L 383.134915 321.087112 L 382.099759 332.067581 L 385.205228 337.868362 L 397.216946 339.887893 L 394.728665 347.758987 L 390.58804 350.864456 L 388.720853 356.044143 L 390.381009 358.118362 L 387.892728 364.126174 L 388.466946 368.286331 L 387.670071 377.368362 L 385.759915 381.512893 L 384.802884 383.266799 L 387.033353 385.497268 L 386.873196 388.044143 L 389.90054 391.391799 L 390.220853 399.997268 L 391.974759 407.809768 L 395.955228 411.153518 L 401.05679 418.005081 L 397.552884 420.239456 L 397.552884 424.860549 L 398.205228 428.469924 L 396.33804 429.087112 L 395.716946 430.747268 L 392.404446 433.024612 L 390.537259 436.548049 L 388.881009 436.755081 L 387.638821 434.684768 L 384.322415 435.926956 L 381.83804 434.270706 L 377.90054 436.755081 L 374.377103 440.485549 L 370.845853 439.790237 L 362.55679 442.341018 L 361.603665 439.630081 L 358.256009 439.313674 L 355.705228 440.266799 L 348.373196 436.442581 L 345.029446 437.876174 L 342.318509 432.938674 L 333.873196 434.212112 L 329.568509 435.329299 L 324.947415 440.426956 L 321.439603 440.110549 L 316.978665 434.372268 L 316.818509 429.110549 L 316.912259 425.657424 L 313.404446 418.325393 L 311.810696 408.762893 L 309.90054 395.536331 L 307.029446 393.622268 L 301.134915 385.973831 L 300.974759 376.251174 L 298.74429 372.110549 L 296.513821 371.630081 L 291.095853 365.098831 L 289.021634 365.255081 L 289.021634 369.239456 L 284.877103 367.966018 L 282.330228 365.415237 L 280.099759 367.169143 L 276.271634 363.821487 L 276.271634 358.563674 Z M 274.361478 358.563674 " transform="matrix(1,0,0,-1,-51.21304,687.407424)" region_id="CD" necklace_id="N_africa"/>
<path style="fill-rule:evenodd;fill:rgb(62%,83.9%,77.3%);fill-opacity:1;stroke-width:0.5;stroke-linecap:butt;stroke-linejoin:round;stroke:rgb(0%,0%,0%);stroke-opacity:1;stroke-miterlimit:10;" d="M 347.541165 268.950393 L 356.447415 269.985549 L 359.763821 267.501174 L 369.084134 266.051956 L 375.509915 271.438674 L 377.166165 274.751174 L 383.381009 277.860549 L 383.58804 281.380081 L 390.631009 284.489456 L 393.947415 283.868362 L 392.912259 288.841018 L 412.384915 296.298049 L 409.693509 298.575393 L 411.55679 306.243362 L 414.873196 308.727737 L 413.420071 311.216018 L 413.627103 320.536331 L 416.322415 322.610549 L 412.756009 330.149612 L 399.701321 336.985549 L 397.216946 339.887893 L 385.205228 337.868362 L 382.099759 332.067581 L 383.134915 321.087112 L 381.685696 312.801956 L 387.279446 308.243362 L 390.177884 310.106643 L 389.970853 301.407424 L 385.205228 300.782424 L 381.271634 307.829299 L 376.091946 309.485549 L 373.189603 314.665237 L 371.15054 311.954299 L 366.209134 312.274612 L 360.951321 314.505081 L 360.951321 317.216018 L 354.736478 315.622268 L 354.736478 318.012893 L 352.02554 319.446487 L 351.892728 303.755081 L 338.631009 303.755081 L 338.631009 279.102737 Z M 347.541165 268.950393 " transform="matrix(1,0,0,-1,-51.21304,687.407424)" region_id="ZM" necklace_id="N_africa"/>
<path style="fill-rule:evenodd;fill:rgb(99.6%,85.9%,70.6%);fill-opacity:1;stroke-width:0.5;stroke-linecap:butt;stroke-linejoin:round;stroke:rgb(0%,0%,0%);stroke-opacity:1;stroke-miterlimit:10;" d="M 412.384915 296.298049 L 415.287259 292.153518 L 420.673978 293.399612 L 421.08804 286.559768 L 418.80679 282.001174 L 424.818509 272.887893 L 426.267728 280.344924 L 429.373196 281.380081 L 428.959134 293.813674 L 421.916165 301.063674 L 420.673978 310.180862 L 422.123196 315.102737 L 424.978665 314.610549 L 422.697415 318.337112 L 421.86929 326.419143 L 419.177884 330.149612 L 417.935696 329.114456 L 412.756009 330.149612 L 416.322415 322.610549 L 413.627103 320.536331 L 413.420071 311.216018 L 414.873196 308.727737 L 411.55679 306.243362 L 409.693509 298.575393 Z M 412.384915 296.298049 " transform="matrix(1,0,0,-1,-51.21304,687.407424)" region_id="MW" necklace_id="N_africa"/>
<path style="fill-rule:evenodd;fill:rgb(98%,71.4%,58%);fill-opacity:1;stroke-width:0.5;stroke-linecap:butt;stroke-linejoin:round;stroke:rgb(0%,0%,0%);stroke-opacity:1;stroke-miterlimit:10;" d="M 393.947415 283.868362 L 394.076321 281.157424 L 399.334134 281.317581 L 410.170071 275.899612 L 410.170071 262.352737 L 408.576321 259.005081 L 409.853665 251.676956 L 405.86929 246.255081 L 405.86929 241.157424 L 398.060696 233.348831 L 399.334134 224.903518 L 402.361478 217.411331 L 401.24429 206.098831 L 402.201321 205.778518 L 401.884915 199.880081 L 406.666165 199.723831 L 407.46304 204.501174 L 405.388821 206.415237 L 407.939603 210.559768 L 422.443509 216.774612 L 424.990384 222.352737 L 425.310696 234.942581 L 422.759915 245.778518 L 420.529446 248.489456 L 421.80679 252.630081 L 436.30679 266.020706 L 450.013821 273.985549 L 458.779446 282.911331 L 462.603665 292.790237 L 461.009915 309.524612 L 461.439603 322.688674 L 452.947415 317.923049 L 447.767728 316.059768 L 443.830228 316.887893 L 440.93179 313.575393 L 436.99429 314.403518 L 433.888821 313.575393 L 430.365384 315.645706 L 428.705228 314.610549 L 424.978665 314.610549 L 422.123196 315.102737 L 420.673978 310.180862 L 421.916165 301.063674 L 428.959134 293.813674 L 429.373196 281.380081 L 426.267728 280.344924 L 424.818509 272.887893 L 418.80679 282.001174 L 421.08804 286.559768 L 420.673978 293.399612 L 415.287259 292.153518 L 412.384915 296.298049 L 392.912259 288.841018 Z M 393.947415 283.868362 " transform="matrix(1,0,0,-1,-51.21304,687.407424)" region_id="MZ" necklace_id="N_africa"/>
<path style="fill-rule:evenodd;fill:rgb(70.6%,59.2%,50.6%);fill-opacity:1;stroke-width:0.5;stroke-linecap:butt;stroke-linejoin:round;stroke:rgb(0%,0%,0%);stroke-opacity:1;stroke-miterlimit:10;" d="M 359.763821 267.501174 L 363.826321 259.469924 L 365.103665 254.368362 L 372.115384 250.067581 L 372.115384 247.833206 L 375.302884 247.676956 L 375.142728 243.212112 L 376.736478 239.708206 L 383.427884 237.637893 L 385.18179 234.926956 L 398.060696 233.348831 L 405.86929 241.157424 L 405.86929 246.255081 L 409.853665 251.676956 L 408.576321 259.005081 L 410.170071 262.352737 L 410.170071 275.899612 L 399.334134 281.317581 L 394.076321 281.157424 L 393.947415 283.868362 L 390.631009 284.489456 L 383.58804 281.380081 L 383.381009 277.860549 L 377.166165 274.751174 L 375.509915 271.438674 L 369.084134 266.051956 Z M 359.763821 267.501174 " transform="matrix(1,0,0,-1,-51.21304,687.407424)" region_id="ZW" necklace_id="N_africa"/>
<path style="fill-rule:evenodd;fill:rgb(99.6%,96.5%,60.8%);fill-opacity:1;stroke-width:0.5;stroke-linecap:butt;stroke-linejoin:round;stroke:rgb(0%,0%,0%);stroke-opacity:1;stroke-miterlimit:10;" d="M 271.298978 272.059768 L 270.756009 266.161331 L 275.377103 260.423049 L 289.404446 229.665237 L 288.287259 219.946487 L 291.154446 212.934768 L 292.43179 199.067581 L 296.095853 191.258987 L 301.037259 186.798049 L 305.021634 190.782424 L 307.412259 186.001174 L 313.15054 184.247268 L 318.408353 183.930862 L 323.666165 188.231643 L 324.302884 214.844924 L 324.783353 236.360549 L 331.158353 236.360549 L 331.474759 263.930862 L 345.978665 266.321487 L 348.845853 262.813674 L 353.947415 266.481643 L 359.763821 267.501174 L 356.447415 269.985549 L 347.541165 268.950393 L 335.732571 266.466018 L 318.11929 267.501174 L 315.013821 270.817581 L 286.423978 270.817581 L 282.486478 273.508987 L 279.170071 273.716018 Z M 271.298978 272.059768 " transform="matrix(1,0,0,-1,-51.21304,687.407424)" region_id="NA" necklace_id="N_africa"/>
<path style="fill-rule:evenodd;fill:rgb(100%,80%,30.2%);fill-opacity:1;stroke-width:0.5;stroke-linecap:butt;stroke-linejoin:round;stroke:rgb(0%,0%,0%);stroke-opacity:1;stroke-miterlimit:10;" d="M 324.302884 214.844924 L 327.173978 212.934768 L 329.564603 204.485549 L 327.65054 202.575393 L 327.810696 199.548049 L 334.982571 199.864456 L 341.357571 205.442581 L 343.427884 211.497268 L 346.455228 211.341018 L 350.279446 208.790237 L 359.841946 208.153518 L 362.392728 215.962112 L 368.927884 219.309768 L 370.041165 224.247268 L 378.646634 231.739456 L 385.18179 234.926956 L 383.427884 237.637893 L 376.736478 239.708206 L 375.142728 243.212112 L 375.302884 247.676956 L 372.115384 247.833206 L 372.115384 250.067581 L 365.103665 254.368362 L 359.763821 267.501174 L 353.947415 266.481643 L 348.845853 262.813674 L 345.978665 266.321487 L 331.474759 263.930862 L 331.158353 236.360549 L 324.783353 236.360549 Z M 324.302884 214.844924 " transform="matrix(1,0,0,-1,-51.21304,687.407424)" region_id="BW" necklace_id="N_africa"/>
<path style="fill-rule:evenodd;fill:rgb(99.6%,85.9%,70.6%);fill-opacity:1;stroke-width:0.5;stroke-linecap:butt;stroke-linejoin:round;stroke:rgb(0%,0%,0%);stroke-opacity:1;stroke-miterlimit:10;" d="M 401.24429 206.098831 L 397.771634 207.993362 L 393.310696 202.098831 L 395.220853 197.473831 L 400.959134 196.200393 L 401.884915 199.880081 L 402.201321 205.778518 Z M 401.24429 206.098831 " transform="matrix(1,0,0,-1,-51.21304,687.407424)" region_id="SZ" necklace_id="N_africa"/>
<path style="fill-rule:evenodd;fill:rgb(53.3%,78%,39.6%);fill-opacity:1;stroke-width:0.5;stroke-linecap:butt;stroke-linejoin:round;stroke:rgb(0%,0%,0%);stroke-opacity:1;stroke-miterlimit:10;" d="M 301.037259 186.798049 L 306.615384 171.337112 L 311.873196 162.891799 L 311.873196 155.880081 L 309.162259 154.606643 L 312.509915 147.911331 L 311.873196 142.973831 L 313.943509 145.520706 L 318.724759 140.899612 L 322.072415 140.102737 L 327.65054 143.290237 L 333.865384 143.130081 L 337.21304 145.841018 L 344.701321 145.841018 L 352.513821 144.567581 L 353.947415 146.317581 L 358.408353 145.841018 L 357.93179 147.594924 L 363.029446 147.594924 L 372.912259 153.329299 L 384.384915 164.645706 L 389.006009 168.950393 L 398.568509 183.770706 L 403.670071 187.434768 L 406.666165 199.723831 L 401.884915 199.880081 L 400.959134 196.200393 L 395.220853 197.473831 L 393.310696 202.098831 L 397.771634 207.993362 L 401.24429 206.098831 L 402.361478 217.411331 L 399.334134 224.903518 L 398.060696 233.348831 L 385.18179 234.926956 L 378.646634 231.739456 L 370.041165 224.247268 L 368.927884 219.309768 L 362.392728 215.962112 L 359.841946 208.153518 L 350.279446 208.790237 L 346.455228 211.341018 L 343.427884 211.497268 L 341.357571 205.442581 L 334.982571 199.864456 L 327.810696 199.548049 L 327.65054 202.575393 L 329.564603 204.485549 L 327.173978 212.934768 L 324.302884 214.844924 L 323.666165 188.231643 L 318.408353 183.930862 L 313.15054 184.247268 L 307.412259 186.001174 L 305.021634 190.782424 Z M 301.037259 186.798049 " transform="matrix(1,0,0,-1,-51.21304,687.407424)" region_id="ZA" necklace_id="N_africa"/>
<path style="fill-rule:evenodd;fill:rgb(14.5%,73.7%,61.1%);fill-opacity:1;stroke-width:0.5;stroke-linecap:butt;stroke-linejoin:round;stroke:rgb(0%,0%,0%);stroke-opacity:1;stroke-miterlimit:10;" d="M 518.888821 311.739456 L 515.701321 307.915237 L 515.384915 300.426956 L 509.486478 299.786331 L 507.256009 290.387893 L 495.943509 283.055862 L 485.584134 279.868362 L 481.759915 269.508987 L 484.627103 251.341018 L 475.701321 236.360549 L 477.77554 223.450393 L 478.091946 216.758987 L 482.396634 211.497268 L 488.134915 209.110549 L 499.287259 213.411331 L 505.822415 232.376174 L 517.935696 265.684768 L 518.572415 273.813674 L 521.123196 277.794143 L 520.326321 285.606643 L 523.353665 281.778518 L 526.381009 286.559768 L 524.466946 290.067581 L 523.193509 303.294143 Z M 518.888821 311.739456 " transform="matrix(1,0,0,-1,-51.21304,687.407424)" region_id="MG" necklace_id="N_africa"/>
<path style="fill-rule:evenodd;fill:rgb(86.7%,52.9%,47.5%);fill-opacity:1;stroke-width:0.5;stroke-linecap:butt;stroke-linejoin:round;stroke:rgb(0%,0%,0%);stroke-opacity:1;stroke-miterlimit:10;" d="M 368.447415 178.989456 L 370.201321 173.731643 L 374.506009 170.700393 L 376.896634 175.005081 L 381.197415 175.962112 L 383.427884 181.380081 L 379.127103 186.798049 L 375.939603 185.524612 L 372.271634 183.290237 Z M 368.447415 178.989456 " transform="matrix(1,0,0,-1,-51.21304,687.407424)" region_id="LS" necklace_id="N_africa"/>
<path style="fill:none;stroke-width:1.5;stroke-linecap:butt;stroke-linejoin:round;stroke:rgb(0%,0%,0%);stroke-opacity:1;stroke-miterlimit:10;stroke-dasharray:4;" d="M 147.013821 658.899612 C 96.373196 630.434768 61.24429 575.563674 53.935696 529.024612 C 46.627103 482.485549 67.142728 444.282424 96.756009 421.462112 C 126.373196 398.641799 165.08804 391.204299 186.627103 358.641799 C 208.166165 326.075393 212.52554 268.383987 234.447415 221.333206 C 256.373196 174.282424 295.857571 137.872268 339.322415 134.540237 C 382.783353 131.204299 430.216946 160.950393 466.115384 224.794143 C 502.013821 288.641799 526.373196 386.591018 523.037259 463.126174 C 519.705228 539.665237 488.677884 594.794143 451.884915 629.282424 C 415.091946 663.770706 372.52554 677.614456 318.166165 683.512893 C 263.80679 689.411331 197.654446 687.360549 147.013821 658.899612 Z M 147.013821 658.899612 " kx="318" ky="500" transform="matrix(1,0,0,-1,-51.21304,687.407424)" necklace_id="N_africa"/>
</g>
</svg>
