<?xml version="1.0" encoding="UTF-8"?>
<svg xmlns="http://www.w3.org/2000/svg" xmlns:xlink="http://www.w3.org/1999/xlink" width="544pt" height="356pt" viewBox="0 0 544 356" version="1.1" bounds="[[-27.83,265.85],[516.17,621.85]]">
<g id="shapes">
<path style="fill-rule:evenodd;fill:rgb(14.5%,73.7%,61.2%);fill-opacity:1;stroke-width:0.4;stroke-linecap:butt;stroke-linejoin:round;stroke:rgb(0%,0%,0%);stroke-opacity:1;stroke-miterlimit:10;" d="M 55.328536 499.326195 L 89.641036 488.826195 L 80.184005 454.861351 L 117.648848 397.791038 L 118.348067 392.888695 L 120.44963 389.736351 L 118.000411 384.837913 L 115.898848 379.93557 L 113.44963 377.134788 L 113.098067 375.033226 L 114.848067 371.880882 L 110.996505 369.431663 L 88.937911 372.232445 L 89.641036 377.834007 L 84.035567 388.337913 L 80.88713 389.388695 L 79.836348 393.59182 L 75.633223 394.638695 L 71.434005 399.193382 L 62.328536 404.443382 L 63.027755 411.447288 L 55.676192 428.603538 L 58.129317 433.505882 L 54.625411 437.357445 L 55.328536 445.06057 L 57.777755 442.959007 L 57.777755 448.56057 L 60.226973 448.56057 L 57.426192 449.959007 L 55.328536 448.908226 L 52.176192 451.009788 L 51.82463 454.861351 L 49.375411 463.263695 L 50.426192 472.017601 L 48.676192 481.12307 L 54.277755 490.576195 Z M 55.328536 499.326195 " transform="matrix(1,0,0,-1,-27.832442,621.845726)" region_id="CA" necklace_id="N_west" />
<path style="fill-rule:evenodd;fill:rgb(70.6%,59.2%,50.6%);fill-opacity:1;stroke-width:0.4;stroke-linecap:butt;stroke-linejoin:round;stroke:rgb(0%,0%,0%);stroke-opacity:1;stroke-miterlimit:10;" d="M 89.641036 488.826195 L 115.547286 482.521507 L 120.16838 502.439476 L 122.078536 507.541038 L 120.16838 509.611351 L 120.965255 512.482445 L 124.469161 516.306663 L 127.340255 520.767601 L 130.047286 524.115257 L 126.54338 529.056663 L 121.246505 530.146507 L 111.805098 532.232445 L 106.535567 532.599632 L 101.996505 532.353538 L 97.828536 532.353538 L 94.766036 532.96682 L 91.82463 533.087913 L 89.004317 535.173851 L 84.598067 535.107445 L 82.527755 535.263695 L 79.340255 536.701195 L 79.019942 539.408226 L 78.859786 542.916038 L 76.629317 545.306663 L 74.875411 546.263695 L 72.644942 544.986351 L 71.531661 543.869163 L 70.57463 540.044945 L 69.297286 536.701195 L 67.703536 533.513695 L 66.590255 530.482445 L 65.473067 527.93557 L 64.359786 525.384788 L 62.922286 522.037132 L 61.391036 518.638695 L 60.594161 515.451195 L 58.04338 513.541038 L 56.289473 509.71682 L 55.652755 506.369163 L 55.332442 502.705101 L 55.328536 499.326195 Z M 89.641036 488.826195 " transform="matrix(1,0,0,-1,-27.832442,621.845726)" region_id="OR" necklace_id="N_west" />
<path style="fill-rule:evenodd;fill:rgb(56.1%,73.7%,75.7%);fill-opacity:1;stroke-width:0.4;stroke-linecap:butt;stroke-linejoin:round;stroke:rgb(0%,0%,0%);stroke-opacity:1;stroke-miterlimit:10;" d="M 115.547286 482.521507 L 140.844161 476.822288 L 128.992598 417.837913 L 127.648848 411.912132 L 126.840255 408.142601 L 125.492598 406.798851 L 122.531661 408.951195 L 120.914473 409.220726 L 120.10588 406.259788 L 119.566817 402.755882 L 119.836348 398.447288 L 117.648848 397.791038 L 80.184005 454.861351 L 89.641036 488.826195 Z M 115.547286 482.521507 " transform="matrix(1,0,0,-1,-27.832442,621.845726)" region_id="NV" necklace_id="N_west" />
<path style="fill-rule:evenodd;fill:rgb(83.1%,87.8%,35.3%);fill-opacity:1;stroke-width:0.4;stroke-linecap:butt;stroke-linejoin:round;stroke:rgb(0%,0%,0%);stroke-opacity:1;stroke-miterlimit:10;" d="M 126.54338 529.056663 L 127.258223 532.455101 L 127.258223 534.525413 L 128.914473 541.77932 L 134.094161 562.701195 L 90.797286 574.513695 L 90.383223 573.06057 L 93.488692 570.990257 L 91.625411 570.162132 L 90.797286 569.12307 L 91.625411 566.431663 L 91.41838 563.115257 L 90.383223 561.044945 L 88.723067 561.666038 L 85.82463 558.353538 L 84.371505 558.353538 L 85.410567 560.837913 L 88.309005 563.322288 L 88.309005 565.396507 L 85.410567 566.017601 L 81.266036 568.087913 L 78.156661 570.369163 L 75.672286 571.818382 L 72.976973 569.955101 L 73.394942 567.673851 L 73.601973 562.908226 L 73.601973 559.181663 L 74.430098 556.486351 L 73.809005 554.62307 L 73.184005 552.552757 L 73.184005 550.064476 L 74.875411 546.263695 L 76.629317 545.306663 L 78.859786 542.916038 L 79.019942 539.408226 L 79.340255 536.701195 L 82.527755 535.263695 L 84.598067 535.107445 L 89.004317 535.173851 L 91.82463 533.087913 L 94.766036 532.96682 L 97.828536 532.353538 L 101.996505 532.353538 L 106.535567 532.599632 L 111.805098 532.232445 L 121.246505 530.146507 Z M 126.54338 529.056663 " transform="matrix(1,0,0,-1,-27.832442,621.845726)" region_id="WA" necklace_id="N_west" />
<path style="fill-rule:evenodd;fill:rgb(86.7%,52.9%,47.5%);fill-opacity:1;stroke-width:0.4;stroke-linecap:butt;stroke-linejoin:round;stroke:rgb(0%,0%,0%);stroke-opacity:1;stroke-miterlimit:10;" d="M 115.547286 482.521507 L 140.844161 476.822288 L 166.488692 472.068382 L 171.562911 503.041038 L 169.238692 504.345726 L 167.789473 502.822288 L 161.840255 503.763695 L 159.156661 503.330101 L 156.254317 502.822288 L 155.38713 504.634788 L 154.734786 507.755882 L 152.703536 508.478538 L 152.703536 510.509788 L 152.848067 511.673851 L 152.410567 512.470726 L 151.902755 513.849632 L 151.613692 515.224632 L 150.598067 519.361351 L 146.898848 517.982445 L 145.488692 519.462913 L 145.488692 521.564476 L 146.57463 523.595726 L 147.226973 525.845726 L 147.664473 527.87307 L 149.187911 531.501976 L 147.590255 532.59182 L 145.414473 534.837913 L 144.617598 536.43557 L 142.863692 540.388695 L 141.195723 542.130882 L 140.832442 543.43557 L 141.125411 546.267601 L 139.961348 548.298851 L 139.383223 550.689476 L 140.035567 553.955101 L 140.906661 558.017601 L 141.340255 560.919945 L 134.094161 562.701195 L 127.258223 534.525413 L 127.258223 532.455101 L 126.54338 529.056663 L 130.047286 524.115257 L 127.340255 520.767601 L 124.469161 516.306663 L 120.965255 512.482445 L 120.16838 509.611351 L 122.078536 507.541038 L 120.16838 502.439476 Z M 115.547286 482.521507 " transform="matrix(1,0,0,-1,-27.832442,621.845726)" region_id="ID" necklace_id="N_west" />
<path style="fill-rule:evenodd;fill:rgb(99.6%,85.9%,70.6%);fill-opacity:1;stroke-width:0.4;stroke-linecap:butt;stroke-linejoin:round;stroke:rgb(0%,0%,0%);stroke-opacity:1;stroke-miterlimit:10;" d="M 141.340255 560.919945 L 155.527755 558.40432 L 166.090255 556.044945 L 177.691817 554.158226 L 188.723067 552.087913 L 200.039473 550.669945 L 208.527755 549.541038 L 218.238692 548.220726 L 225.969161 547.087913 L 235.590255 545.767601 L 232.570723 510.40432 L 231.344161 499.65432 L 219.559005 500.599632 L 209.375411 502.107445 L 201.07463 503.142601 L 192.684005 504.46682 L 185.328536 505.408226 L 179.76213 506.162132 L 172.879317 507.103538 L 171.562911 503.041038 L 169.238692 504.345726 L 167.789473 502.822288 L 161.840255 503.763695 L 156.254317 502.822288 L 155.38713 504.634788 L 154.734786 507.755882 L 152.703536 508.478538 L 152.848067 511.673851 L 151.902755 513.849632 L 151.613692 515.224632 L 150.598067 519.361351 L 146.898848 517.982445 L 145.488692 519.462913 L 145.488692 521.564476 L 146.57463 523.595726 L 147.226973 525.845726 L 147.664473 527.87307 L 149.187911 531.501976 L 147.590255 532.59182 L 145.414473 534.837913 L 144.617598 536.43557 L 142.863692 540.388695 L 141.195723 542.130882 L 140.832442 543.43557 L 141.125411 546.267601 L 139.961348 548.298851 L 139.383223 550.689476 Z M 141.340255 560.919945 " transform="matrix(1,0,0,-1,-27.832442,621.845726)" region_id="MT" necklace_id="N_west" />
<path style="fill-rule:evenodd;fill:rgb(56.1%,73.7%,75.7%);fill-opacity:1;stroke-width:0.4;stroke-linecap:butt;stroke-linejoin:round;stroke:rgb(0%,0%,0%);stroke-opacity:1;stroke-miterlimit:10;" d="M 235.590255 545.767601 L 289.703536 542.650413 L 290.344161 539.412132 L 289.851973 537.205101 L 289.976973 533.650413 L 290.957442 531.443382 L 291.937911 527.15432 L 292.180098 522.861351 L 292.551192 519.431663 L 292.672286 516.490257 L 293.164473 513.177757 L 294.266036 511.462913 L 294.38713 507.416038 L 288.383223 507.048851 L 281.148848 507.662132 L 267.785567 508.642601 L 257.242598 508.642601 L 248.29338 509.62307 L 239.590255 510.115257 L 232.570723 510.40432 Z M 235.590255 545.767601 " transform="matrix(1,0,0,-1,-27.832442,621.845726)" region_id="ND" necklace_id="N_north" />
<path style="fill-rule:evenodd;fill:rgb(53.3%,78%,39.6%);fill-opacity:1;stroke-width:0.4;stroke-linecap:butt;stroke-linejoin:round;stroke:rgb(0%,0%,0%);stroke-opacity:1;stroke-miterlimit:10;" d="M 140.844161 476.822288 L 166.488692 472.068382 L 164.73088 460.517601 L 181.941817 457.173851 L 175.410567 409.77932 L 128.992598 417.837913 Z M 140.844161 476.822288 " transform="matrix(1,0,0,-1,-27.832442,621.845726)" region_id="UT" necklace_id="N_west" />
<path style="fill-rule:evenodd;fill:rgb(99.6%,96.5%,60.8%);fill-opacity:1;stroke-width:0.4;stroke-linecap:butt;stroke-linejoin:round;stroke:rgb(0%,0%,0%);stroke-opacity:1;stroke-miterlimit:10;" d="M 181.941817 457.173851 L 226.406661 451.912132 L 244.383223 450.044945 L 244.383223 438.490257 L 241.582442 402.775413 L 231.777755 403.126976 L 175.410567 409.77932 Z M 181.941817 457.173851 " transform="matrix(1,0,0,-1,-27.832442,621.845726)" region_id="CO" necklace_id="N_west" />
<path style="fill-rule:evenodd;fill:rgb(100%,80%,30.2%);fill-opacity:1;stroke-width:0.4;stroke-linecap:butt;stroke-linejoin:round;stroke:rgb(0%,0%,0%);stroke-opacity:1;stroke-miterlimit:10;" d="M 175.410567 409.77932 L 165.60588 343.255882 L 146.69963 345.705101 L 110.996505 369.431663 L 114.848067 371.880882 L 113.098067 375.033226 L 113.44963 377.134788 L 115.898848 379.93557 L 118.000411 384.837913 L 120.44963 389.736351 L 118.348067 392.888695 L 117.648848 397.791038 L 119.836348 398.447288 L 119.566817 402.755882 L 120.10588 406.259788 L 120.914473 409.220726 L 122.531661 408.951195 L 125.492598 406.798851 L 126.840255 408.142601 L 127.648848 411.912132 L 128.992598 417.837913 Z M 175.410567 409.77932 " transform="matrix(1,0,0,-1,-27.832442,621.845726)" region_id="AZ" necklace_id="N_west" />
<path style="fill-rule:evenodd;fill:rgb(62%,83.9%,77.3%);fill-opacity:1;stroke-width:0.4;stroke-linecap:butt;stroke-linejoin:round;stroke:rgb(0%,0%,0%);stroke-opacity:1;stroke-miterlimit:10;" d="M 175.410567 409.77932 L 231.777755 403.126976 L 231.16838 397.31057 L 226.402755 344.482445 L 190.559005 347.587913 L 190.144942 345.931663 L 181.031661 346.96682 L 174.398848 347.587913 L 173.570723 342.408226 L 165.60588 343.255882 Z M 175.410567 409.77932 " transform="matrix(1,0,0,-1,-27.832442,621.845726)" region_id="NM" necklace_id="N_west" />
<path style="fill-rule:evenodd;fill:rgb(14.5%,73.7%,61.2%);fill-opacity:1;stroke-width:0.4;stroke-linecap:butt;stroke-linejoin:round;stroke:rgb(0%,0%,0%);stroke-opacity:1;stroke-miterlimit:10;" d="M 229.434005 475.818382 L 226.406661 451.912132 L 244.383223 450.044945 L 244.383223 438.490257 L 303.848067 436.294945 L 303.04338 438.990257 L 301.695723 439.798851 L 301.156661 442.759788 L 299.539473 445.18557 L 299.539473 452.18557 L 297.926192 454.880882 L 297.926192 457.572288 L 296.578536 460.806663 L 295.500411 463.228538 L 292.711348 467.970726 L 289.840255 469.408226 L 285.062911 470.99807 L 281.234786 469.884788 L 274.54338 472.751976 L 257.332442 473.869163 Z M 229.434005 475.818382 " transform="matrix(1,0,0,-1,-27.832442,621.845726)" region_id="NE" necklace_id="N_north" />
<path style="fill-rule:evenodd;fill:rgb(98%,71.4%,58%);fill-opacity:1;stroke-width:0.4;stroke-linecap:butt;stroke-linejoin:round;stroke:rgb(0%,0%,0%);stroke-opacity:1;stroke-miterlimit:10;" d="M 244.383223 438.490257 L 241.582442 402.775413 L 311.180098 399.951195 L 311.180098 425.541038 L 308.750411 427.041038 L 308.16838 428.77932 L 307.664473 429.650413 L 306.719161 430.447288 L 306.430098 431.318382 L 307.156661 432.478538 L 307.664473 433.349632 L 307.590255 434.076195 L 305.848067 435.162132 L 303.848067 436.294945 Z M 244.383223 438.490257 " transform="matrix(1,0,0,-1,-27.832442,621.845726)" region_id="KS" necklace_id="N_north" />
<path style="fill-rule:evenodd;fill:rgb(70.6%,59.2%,50.6%);fill-opacity:1;stroke-width:0.4;stroke-linecap:butt;stroke-linejoin:round;stroke:rgb(0%,0%,0%);stroke-opacity:1;stroke-miterlimit:10;" d="M 241.582442 402.775413 L 231.777755 403.126976 L 231.16838 397.31057 L 259.633223 395.763695 L 259.633223 385.611351 L 259.008223 379.189476 L 258.594161 373.181663 L 260.875411 371.318382 L 262.531661 370.076195 L 265.434005 370.283226 L 266.883223 368.001976 L 271.648848 366.552757 L 273.51213 365.931663 L 275.582442 366.345726 L 277.242598 366.345726 L 277.656661 364.689476 L 279.312911 363.447288 L 281.801192 364.482445 L 283.457442 363.236351 L 285.941817 363.02932 L 289.672286 363.65432 L 291.121505 363.02932 L 292.156661 362.408226 L 294.023848 361.37307 L 296.301192 362.201195 L 298.375411 363.236351 L 302.723067 363.236351 L 305.625411 363.65432 L 307.902755 362.408226 L 311.426192 360.544945 L 312.66838 360.130882 L 311.219161 394.314476 L 311.180098 399.951195 Z M 241.582442 402.775413 " transform="matrix(1,0,0,-1,-27.832442,621.845726)" region_id="OK" necklace_id="N_south" />
<path style="fill-rule:evenodd;fill:rgb(83.1%,87.8%,35.3%);fill-opacity:1;stroke-width:0.4;stroke-linecap:butt;stroke-linejoin:round;stroke:rgb(0%,0%,0%);stroke-opacity:1;stroke-miterlimit:10;" d="M 231.16838 397.31057 L 259.633223 395.763695 L 259.633223 385.611351 L 259.008223 379.189476 L 258.594161 373.181663 L 260.875411 371.318382 L 262.531661 370.076195 L 265.434005 370.283226 L 266.883223 368.001976 L 271.648848 366.552757 L 273.51213 365.931663 L 275.582442 366.345726 L 277.242598 366.345726 L 277.656661 364.689476 L 279.312911 363.447288 L 281.801192 364.482445 L 283.457442 363.236351 L 285.941817 363.02932 L 289.672286 363.65432 L 291.121505 363.02932 L 292.156661 362.408226 L 294.023848 361.37307 L 296.301192 362.201195 L 298.375411 363.236351 L 302.723067 363.236351 L 305.625411 363.65432 L 307.902755 362.408226 L 311.426192 360.544945 L 312.66838 360.130882 L 314.258223 359.162132 L 316.434005 359.09182 L 316.867598 352.56057 L 316.941817 340.736351 L 319.26213 337.908226 L 319.625411 335.080101 L 320.781661 332.486351 L 322.01213 329.87307 L 321.797286 326.900413 L 321.000411 324.724632 L 320.41838 323.345726 L 320.273848 321.240257 L 320.492598 319.501976 L 320.492598 318.12307 L 317.953536 313.408226 L 315.484786 313.044945 L 313.598067 312.02932 L 312.148848 311.451195 L 310.769942 311.955101 L 308.883223 313.119163 L 308.01213 311.955101 L 307.578536 307.822288 L 307.070723 306.080101 L 306.492598 304.486351 L 305.476973 302.962913 L 304.16838 302.166038 L 302.430098 301.294945 L 301.414473 300.787132 L 300.180098 300.205101 L 298.875411 299.408226 L 296.69963 298.24807 L 295.828536 299.626976 L 296.406661 301.076195 L 294.957442 300.712913 L 293.215255 300.06057 L 292.41838 298.681663 L 292.129317 297.884788 L 290.676192 297.158226 L 288.863692 295.927757 L 287.629317 293.96682 L 286.832442 292.298851 L 286.035567 290.849632 L 283.859786 290.12307 L 284.148848 285.771507 L 281.758223 284.013695 L 283.10588 282.126976 L 282.027755 279.166038 L 283.10588 274.318382 L 283.914473 272.162132 L 284.719161 268.392601 L 282.297286 268.931663 L 279.066817 270.009788 L 274.484786 270.548851 L 270.715255 271.892601 L 267.754317 272.701195 L 263.445723 276.474632 L 261.559005 278.896507 L 259.816817 283.759788 L 258.69963 289.177757 L 257.266036 290.931663 L 254.715255 293.322288 L 253.281661 296.349632 L 251.367598 298.740257 L 250.254317 300.65432 L 248.976973 304.638695 L 247.066817 308.77932 L 245.312911 311.330101 L 242.922286 313.720726 L 239.894942 317.068382 L 229.375411 317.865257 L 227.621505 317.228538 L 225.871505 315.474632 L 224.754317 313.244163 L 221.88713 308.619163 L 220.133223 308.462913 L 217.10588 309.576195 L 213.598067 312.607445 L 210.250411 315.951195 L 209.13713 317.228538 L 207.383223 320.892601 L 206.746505 325.513695 L 205.555098 329.93557 L 200.652755 334.84182 L 197.445723 338.423851 L 195.371505 340.68557 L 194.336348 341.345726 L 193.016036 343.419945 L 190.144942 345.931663 L 190.559005 347.587913 L 226.402755 344.482445 Z M 231.16838 397.31057 " transform="matrix(1,0,0,-1,-27.832442,621.845726)" region_id="TX" necklace_id="N_south" />
<path style="fill-rule:evenodd;fill:rgb(73.3%,71.8%,34.9%);fill-opacity:1;stroke-width:0.4;stroke-linecap:butt;stroke-linejoin:round;stroke:rgb(0%,0%,0%);stroke-opacity:1;stroke-miterlimit:10;" d="M 289.703536 542.650413 L 305.29338 542.533226 L 306.273848 543.271507 L 306.273848 546.947288 L 307.133223 547.314476 L 308.48088 546.212913 L 309.828536 542.77932 L 310.809005 540.697288 L 311.66838 539.59182 L 315.223067 539.837913 L 317.430098 538.490257 L 318.656661 537.755882 L 320.738692 538.857445 L 321.719161 538.978538 L 324.29338 538.736351 L 326.379317 538.12307 L 328.586348 537.142601 L 330.422286 535.548851 L 332.996505 534.93557 L 334.348067 533.955101 L 336.430098 532.482445 L 338.023848 532.361351 L 339.496505 533.220726 L 341.578536 533.462913 L 343.297286 532.974632 L 346.60588 532.607445 L 349.180098 532.236351 L 347.340255 529.294945 L 345.871505 528.314476 L 344.152755 528.068382 L 342.926192 527.087913 L 341.945723 525.986351 L 341.090255 524.513695 L 339.496505 523.166038 L 338.148848 521.939476 L 336.309005 520.712913 L 334.836348 519.611351 L 333.121505 518.384788 L 331.894942 516.669945 L 330.422286 516.423851 L 329.812911 515.564476 L 329.687911 512.009788 L 329.441817 508.576195 L 327.238692 507.353538 L 326.254317 506.740257 L 325.398848 505.267601 L 324.660567 503.673851 L 325.398848 502.814476 L 326.01213 501.959007 L 326.746505 501.224632 L 326.625411 500.119163 L 326.133223 498.525413 L 326.254317 496.81057 L 326.133223 495.21682 L 325.88713 493.865257 L 326.746505 492.02932 L 327.848067 491.169945 L 329.566817 489.822288 L 332.141036 489.455101 L 333.488692 487.369163 L 335.44963 485.775413 L 336.797286 485.041038 L 338.391036 483.326195 L 339.742598 481.732445 L 339.863692 479.646507 L 339.129317 478.787132 L 294.621505 478.173851 L 294.621505 489.169945 L 295.26213 499.525413 L 291.914473 502.556663 L 294.38713 507.416038 L 294.266036 511.462913 L 293.164473 513.177757 L 292.672286 516.490257 L 292.551192 519.431663 L 292.180098 522.861351 L 291.937911 527.15432 L 290.957442 531.443382 L 289.976973 533.650413 L 289.851973 537.205101 L 290.344161 539.412132 Z M 289.703536 542.650413 " transform="matrix(1,0,0,-1,-27.832442,621.845726)" region_id="MN" necklace_id="N_north" />
<path style="fill-rule:evenodd;fill:rgb(86.7%,52.9%,47.5%);fill-opacity:1;stroke-width:0.4;stroke-linecap:butt;stroke-linejoin:round;stroke:rgb(0%,0%,0%);stroke-opacity:1;stroke-miterlimit:10;" d="M 294.51213 478.09182 L 293.508223 477.37307 L 294.621505 473.709007 L 292.711348 467.970726 L 295.500411 463.228538 L 296.578536 460.806663 L 297.926192 457.572288 L 297.926192 454.880882 L 299.539473 452.18557 L 299.539473 445.18557 L 301.156661 442.759788 L 321.320723 443.611351 L 336.273848 443.732445 L 339.215255 441.27932 L 340.320723 443.732445 L 341.301192 444.46682 L 341.914473 444.837913 L 342.035567 445.939476 L 342.527755 447.166038 L 343.141036 448.146507 L 343.383223 448.880882 L 343.26213 449.740257 L 342.894942 450.228538 L 342.648848 450.599632 L 342.160567 451.455101 L 342.035567 452.43557 L 342.648848 453.783226 L 344.121505 454.15432 L 345.344161 454.521507 L 347.184005 455.255882 L 348.04338 455.869163 L 348.531661 456.728538 L 348.777755 457.830101 L 349.63713 458.689476 L 349.758223 459.548851 L 349.758223 462.244163 L 349.51213 462.978538 L 348.656661 463.345726 L 348.04338 464.326195 L 347.062911 465.306663 L 346.203536 466.533226 L 345.101973 468.24807 L 343.875411 469.107445 L 342.527755 469.232445 L 341.914473 469.845726 L 341.547286 470.580101 L 341.301192 471.314476 L 340.809005 473.642601 L 340.687911 475.115257 L 340.320723 475.974632 L 340.07463 477.81057 L 339.129317 478.787132 Z M 294.51213 478.09182 " transform="matrix(1,0,0,-1,-27.832442,621.845726)" region_id="IA" necklace_id="N_north" />
<path style="fill-rule:evenodd;fill:rgb(99.6%,96.5%,60.8%);fill-opacity:1;stroke-width:0.4;stroke-linecap:butt;stroke-linejoin:round;stroke:rgb(0%,0%,0%);stroke-opacity:1;stroke-miterlimit:10;" d="M 301.156661 442.759788 L 301.695723 439.798851 L 303.04338 438.990257 L 303.848067 436.294945 L 305.848067 435.162132 L 307.590255 434.076195 L 307.664473 433.349632 L 307.156661 432.478538 L 306.430098 431.318382 L 306.719161 430.447288 L 307.664473 429.650413 L 308.16838 428.77932 L 308.750411 427.041038 L 311.180098 425.541038 L 311.180098 399.951195 L 311.219161 394.314476 L 316.269942 394.486351 L 324.754317 394.580101 L 332.863692 394.865257 L 339.652755 395.052757 L 342.29338 395.337913 L 346.633223 395.337913 L 351.441817 395.431663 L 353.234786 395.244163 L 354.269942 393.357445 L 353.894942 392.412132 L 353.609786 391.376976 L 352.57463 390.62307 L 352.101973 389.771507 L 352.289473 389.396507 L 354.457442 389.865257 L 356.629317 389.677757 L 357.94963 390.150413 L 358.703536 392.978538 L 359.551192 395.806663 L 361.059005 396.46682 L 362.098067 397.693382 L 362.758223 399.013695 L 362.570723 400.806663 L 361.910567 402.599632 L 360.305098 402.693382 L 359.551192 403.634788 L 358.891036 404.955101 L 358.797286 406.275413 L 358.891036 408.255882 L 358.23088 409.857445 L 357.383223 410.802757 L 355.969161 412.21682 L 354.648848 413.158226 L 353.609786 413.255882 L 352.195723 414.197288 L 350.969161 415.423851 L 350.309005 415.986351 L 350.121505 417.119163 L 350.969161 418.912132 L 350.969161 420.044945 L 351.820723 422.400413 L 351.254317 424.005882 L 349.273848 424.568382 L 348.234786 424.380882 L 347.57463 424.193382 L 346.633223 425.322288 L 346.348067 426.834007 L 345.687911 428.814476 L 343.801192 430.228538 L 342.29338 431.923851 L 340.598067 433.056663 L 340.219161 434.283226 L 339.746505 435.697288 L 339.277755 436.923851 L 338.992598 438.056663 L 338.805098 439.470726 L 339.215255 441.27932 L 336.273848 443.732445 L 321.320723 443.611351 Z M 301.156661 442.759788 " transform="matrix(1,0,0,-1,-27.832442,621.845726)" region_id="MO" necklace_id="N_north" />
<path style="fill-rule:evenodd;fill:rgb(56.1%,73.7%,75.7%);fill-opacity:1;stroke-width:0.4;stroke-linecap:butt;stroke-linejoin:round;stroke:rgb(0%,0%,0%);stroke-opacity:1;stroke-miterlimit:10;" d="M 311.219161 394.314476 L 312.66838 360.130882 L 314.258223 359.162132 L 316.434005 359.09182 L 316.867598 352.56057 L 332.160567 352.927757 L 345.215255 353.134788 L 345.883223 355.669945 L 345.269942 356.896507 L 344.902755 359.103538 L 344.777755 361.18557 L 345.391036 362.412132 L 346.125411 364.130882 L 346.738692 365.724632 L 347.473067 367.56057 L 348.457442 369.15432 L 349.680098 370.259788 L 350.29338 370.74807 L 350.29338 372.709007 L 350.785567 374.181663 L 351.88713 375.52932 L 353.973067 378.103538 L 354.707442 380.064476 L 354.461348 381.90432 L 355.934005 384.599632 L 356.79338 386.68557 L 357.726973 388.537132 L 356.629317 389.677757 L 354.457442 389.865257 L 352.289473 389.396507 L 352.101973 389.771507 L 352.57463 390.62307 L 353.609786 391.376976 L 353.894942 392.412132 L 354.269942 393.357445 L 353.234786 395.244163 L 351.441817 395.431663 L 346.633223 395.337913 L 342.29338 395.337913 L 339.652755 395.052757 L 332.863692 394.865257 L 324.754317 394.580101 L 316.269942 394.486351 Z M 311.219161 394.314476 " transform="matrix(1,0,0,-1,-27.832442,621.845726)" region_id="AR" necklace_id="N_south" />
<path style="fill-rule:evenodd;fill:rgb(99.6%,85.9%,70.6%);fill-opacity:1;stroke-width:0.4;stroke-linecap:butt;stroke-linejoin:round;stroke:rgb(0%,0%,0%);stroke-opacity:1;stroke-miterlimit:10;" d="M 316.867598 352.56057 L 316.941817 340.736351 L 319.26213 337.908226 L 319.625411 335.080101 L 320.781661 332.486351 L 322.01213 329.87307 L 321.797286 326.900413 L 321.000411 324.724632 L 320.41838 323.345726 L 320.273848 321.240257 L 320.492598 319.501976 L 320.492598 318.12307 L 317.953536 313.408226 L 323.44963 313.857445 L 326.277755 314.044945 L 329.38713 313.384788 L 331.559005 312.724632 L 334.66838 312.255882 L 335.613692 312.443382 L 336.461348 312.818382 L 337.406661 314.802757 L 338.160567 315.084007 L 339.66838 314.705101 L 341.363692 313.763695 L 344.570723 311.970726 L 346.363692 309.896507 L 347.211348 308.861351 L 349.285567 308.576195 L 350.79338 308.009788 L 353.812911 308.294945 L 355.69963 308.294945 L 357.586348 308.576195 L 358.246505 309.521507 L 359.281661 311.21682 L 360.129317 311.49807 L 362.394942 310.181663 L 363.996505 308.955101 L 366.070723 307.255882 L 367.297286 307.162132 L 368.336348 308.576195 L 367.676192 309.709007 L 366.44963 310.650413 L 364.750411 311.49807 L 363.621505 312.064476 L 362.676192 313.384788 L 362.488692 314.802757 L 363.809005 315.744163 L 365.223067 316.87307 L 365.695723 318.478538 L 365.695723 319.705101 L 364.090255 320.080101 L 363.336348 319.138695 L 362.109786 318.291038 L 361.07463 318.291038 L 359.187911 320.177757 L 357.773848 319.326195 L 356.926192 319.138695 L 355.508223 319.138695 L 354.191817 319.798851 L 354.379317 321.494163 L 355.98088 322.626976 L 358.906661 322.720726 L 361.922286 321.77932 L 362.769942 321.87307 L 362.016036 323.380882 L 360.98088 324.513695 L 360.320723 325.455101 L 360.129317 326.494163 L 360.695723 328.283226 L 360.695723 329.888695 L 357.586348 329.982445 L 353.812911 329.888695 L 350.23088 329.888695 L 345.891036 329.134788 L 341.930098 329.509788 L 341.742598 330.830101 L 341.648848 332.244163 L 342.496505 333.189476 L 342.875411 334.884788 L 342.875411 335.923851 L 343.344161 336.962913 L 344.004317 338.37307 L 344.664473 339.884788 L 345.891036 340.923851 L 346.644942 341.677757 L 346.644942 342.994163 L 347.590255 343.65432 L 347.965255 344.220726 L 347.305098 345.919945 L 346.551192 347.146507 L 346.269942 348.46682 L 346.176192 350.162132 L 346.062911 351.572288 L 345.215255 353.134788 L 332.160567 352.927757 Z M 316.867598 352.56057 " transform="matrix(1,0,0,-1,-27.832442,621.845726)" region_id="LA" necklace_id="N_south" />
<path style="fill-rule:evenodd;fill:rgb(99.6%,96.5%,60.8%);fill-opacity:1;stroke-width:0.4;stroke-linecap:butt;stroke-linejoin:round;stroke:rgb(0%,0%,0%);stroke-opacity:1;stroke-miterlimit:10;" d="M 95.883223 321.482445 L 91.41838 319.251976 L 89.66838 318.134788 L 88.234786 316.701195 L 86.957442 315.427757 L 83.930098 314.947288 L 83.453536 313.513695 L 83.453536 311.443382 L 85.203536 309.849632 L 86.957442 307.93557 L 89.031661 305.388695 L 87.437911 304.271507 L 86.000411 304.59182 L 84.250411 306.18557 L 82.656661 306.18557 L 81.219161 305.228538 L 80.582442 304.59182 L 80.582442 302.677757 L 80.902755 301.244163 L 82.496505 299.81057 L 86.160567 299.490257 L 88.711348 299.330101 L 87.754317 297.259788 L 86.797286 295.982445 L 85.203536 295.666038 L 83.930098 295.02932 L 81.859786 294.072288 L 80.422286 293.115257 L 79.945723 291.84182 L 80.582442 289.451195 L 81.062911 287.220726 L 81.539473 285.783226 L 84.090255 285.46682 L 85.047286 284.349632 L 84.250411 282.119163 L 87.914473 282.119163 L 88.391036 281.482445 L 91.101973 281.482445 L 90.781661 278.611351 L 90.625411 277.658226 L 89.031661 276.380882 L 86.641036 274.947288 L 84.726973 274.31057 L 81.859786 273.353538 L 79.785567 272.240257 L 78.351973 271.443382 L 77.875411 270.326195 L 78.191817 270.166038 L 80.422286 270.962913 L 83.133223 271.919945 L 85.523848 272.71682 L 87.277755 273.513695 L 90.144942 274.787132 L 92.375411 276.064476 L 94.926192 277.49807 L 96.996505 280.048851 L 97.316817 281.802757 L 96.996505 283.236351 L 98.113692 284.669945 L 100.027755 285.783226 L 100.664473 284.033226 L 101.301192 282.916038 L 101.777755 282.119163 L 104.16838 284.349632 L 105.445723 285.146507 L 105.922286 287.376976 L 106.719161 287.697288 L 109.586348 287.220726 L 112.297286 285.46682 L 115.32463 285.306663 L 116.598067 285.306663 L 118.672286 283.87307 L 120.902755 282.595726 L 123.453536 281.322288 L 126.004317 281.162132 L 128.394942 280.845726 L 130.941817 277.974632 L 133.812911 274.31057 L 135.246505 272.876976 L 136.680098 274.630882 L 135.406661 276.541038 L 133.172286 278.134788 L 129.66838 280.845726 L 127.754317 283.392601 L 124.88713 284.189476 L 121.859786 284.189476 L 118.351973 285.46682 L 117.555098 287.06057 L 116.441817 290.564476 L 116.121505 293.43557 L 115.961348 296.302757 L 114.848067 302.837913 L 114.848067 306.662132 L 114.367598 311.443382 L 113.414473 315.90432 L 111.98088 317.021507 L 106.082442 317.337913 L 99.867598 319.251976 Z M 95.883223 321.482445 " transform="matrix(1,0,0,-1,-27.832442,621.845726)" region_id="AK" necklace_id="N_west" />
<path style="fill-rule:evenodd;fill:rgb(99.6%,96.5%,60.8%);fill-opacity:1;stroke-width:0.4;stroke-linecap:butt;stroke-linejoin:round;stroke:rgb(0%,0%,0%);stroke-opacity:1;stroke-miterlimit:10;" d="M 72.914473 298.119163 L 73.94963 298.119163 L 75.082442 296.892601 L 76.781661 296.705101 L 76.781661 297.646507 L 75.930098 297.931663 L 75.082442 298.212913 L 74.707442 299.06057 L 74.141036 299.533226 L 73.195723 299.626976 L 72.726973 299.720726 L 72.726973 298.87307 L 72.441817 299.06057 Z M 72.914473 298.119163 " transform="matrix(1,0,0,-1,-27.832442,621.845726)" region_id="AK" necklace_id="N_west" />
<path style="fill-rule:evenodd;fill:rgb(99.6%,96.5%,60.8%);fill-opacity:1;stroke-width:0.4;stroke-linecap:butt;stroke-linejoin:round;stroke:rgb(0%,0%,0%);stroke-opacity:1;stroke-miterlimit:10;" d="M 76.496505 288.02932 L 78.476973 287.93557 L 79.32463 287.369163 L 79.32463 286.427757 L 78.195723 285.576195 L 76.969161 286.615257 L 76.590255 287.181663 Z M 76.496505 288.02932 " transform="matrix(1,0,0,-1,-27.832442,621.845726)" region_id="AK" necklace_id="N_west" />
<path style="fill-rule:evenodd;fill:rgb(99.6%,96.5%,60.8%);fill-opacity:1;stroke-width:0.4;stroke-linecap:butt;stroke-linejoin:round;stroke:rgb(0%,0%,0%);stroke-opacity:1;stroke-miterlimit:10;" d="M 75.269942 269.830101 L 74.516036 269.451195 L 74.047286 269.263695 L 73.101973 268.884788 L 72.535567 268.509788 L 71.500411 268.416038 L 70.746505 268.130882 L 70.086348 267.755882 L 69.613692 267.283226 L 69.426192 266.90432 L 69.801192 266.62307 L 70.461348 266.62307 L 70.840255 267.470726 L 71.594161 267.662132 L 72.160567 267.662132 L 72.726973 267.849632 L 73.76213 267.943382 L 75.176192 268.322288 L 75.930098 268.791038 L 76.309005 269.076195 L 75.555098 269.736351 Z M 75.269942 269.830101 " transform="matrix(1,0,0,-1,-27.832442,621.845726)" region_id="AK" necklace_id="N_west" />
<path style="fill-rule:evenodd;fill:rgb(99.6%,96.5%,60.8%);fill-opacity:1;stroke-width:0.4;stroke-linecap:butt;stroke-linejoin:round;stroke:rgb(0%,0%,0%);stroke-opacity:1;stroke-miterlimit:10;" d="M 63.391036 267.095726 L 61.879317 266.90432 L 61.125411 267.189476 L 60.465255 267.662132 L 60.090255 267.662132 L 59.336348 267.189476 L 59.617598 266.81057 L 61.125411 266.43557 L 62.164473 266.056663 L 62.91838 266.150413 L 63.578536 266.81057 Z M 63.391036 267.095726 " transform="matrix(1,0,0,-1,-27.832442,621.845726)" region_id="AK" necklace_id="N_west" />
<path style="fill-rule:evenodd;fill:rgb(99.6%,96.5%,60.8%);fill-opacity:1;stroke-width:0.4;stroke-linecap:butt;stroke-linejoin:round;stroke:rgb(0%,0%,0%);stroke-opacity:1;stroke-miterlimit:10;" d="M 52.656661 268.658226 L 53.125411 268.09182 L 53.883223 267.90432 L 54.91838 267.525413 L 55.766036 267.431663 L 55.859786 267.150413 L 55.766036 266.959007 L 55.297286 266.677757 L 54.351973 267.052757 L 53.410567 267.337913 L 52.937911 267.431663 L 52.656661 268.18557 Z M 52.656661 268.658226 " transform="matrix(1,0,0,-1,-27.832442,621.845726)" region_id="AK" necklace_id="N_west" />
<path style="fill-rule:evenodd;fill:rgb(99.6%,96.5%,60.8%);fill-opacity:1;stroke-width:0.4;stroke-linecap:butt;stroke-linejoin:round;stroke:rgb(0%,0%,0%);stroke-opacity:1;stroke-miterlimit:10;" d="M 96.840255 278.294945 L 96.848067 277.12307 L 96.535567 277.181663 L 96.223067 277.494163 L 95.63713 277.12307 L 95.422286 276.732445 L 95.441817 276.400413 L 95.773848 275.755882 L 95.812911 275.326195 L 97.180098 275.326195 L 97.707442 275.677757 L 97.98088 276.087913 L 98.430098 276.18557 L 98.976973 276.81057 L 99.328536 277.181663 L 98.996505 277.552757 L 98.976973 278.021507 L 98.723067 278.630882 L 99.211348 278.962913 L 99.914473 279.115257 L 99.85588 279.724632 L 99.406661 280.564476 L 99.23088 280.193382 L 98.91838 280.115257 L 98.60588 279.724632 L 98.215255 279.353538 L 98.019942 278.845726 L 97.414473 278.314476 Z M 96.840255 278.294945 " transform="matrix(1,0,0,-1,-27.832442,621.845726)" region_id="AK" necklace_id="N_west" />
<path style="fill-rule:evenodd;fill:rgb(83.5%,72.5%,54.1%);fill-opacity:1;stroke-width:0.4;stroke-linecap:butt;stroke-linejoin:round;stroke:rgb(0%,0%,0%);stroke-opacity:1;stroke-miterlimit:10;" d="M 163.316817 293.982445 L 162.144942 293.314476 L 161.644942 292.084007 L 161.922286 290.46682 L 163.316817 290.021507 L 165.269942 291.693382 L 164.320723 293.033226 Z M 163.316817 293.982445 " transform="matrix(1,0,0,-1,-27.832442,621.845726)" region_id="HI" necklace_id="N_west" />
<path style="fill-rule:evenodd;fill:rgb(83.5%,72.5%,54.1%);fill-opacity:1;stroke-width:0.4;stroke-linecap:butt;stroke-linejoin:round;stroke:rgb(0%,0%,0%);stroke-opacity:1;stroke-miterlimit:10;" d="M 174.422286 289.349632 L 172.746505 288.013695 L 173.582442 286.451195 L 176.094161 286.505882 L 175.594161 287.732445 Z M 174.422286 289.349632 " transform="matrix(1,0,0,-1,-27.832442,621.845726)" region_id="HI" necklace_id="N_west" />
<path style="fill-rule:evenodd;fill:rgb(83.5%,72.5%,54.1%);fill-opacity:1;stroke-width:0.4;stroke-linecap:butt;stroke-linejoin:round;stroke:rgb(0%,0%,0%);stroke-opacity:1;stroke-miterlimit:10;" d="M 183.180098 286.451195 L 179.609786 286.228538 L 179.109786 284.775413 L 181.340255 284.607445 L 184.187911 283.994163 L 184.801192 282.544945 L 186.641036 281.205101 L 187.644942 280.31057 L 189.26213 282.93557 L 186.976973 283.994163 Z M 183.180098 286.451195 " transform="matrix(1,0,0,-1,-27.832442,621.845726)" region_id="HI" necklace_id="N_west" />
<path style="fill-rule:evenodd;fill:rgb(83.5%,72.5%,54.1%);fill-opacity:1;stroke-width:0.4;stroke-linecap:butt;stroke-linejoin:round;stroke:rgb(0%,0%,0%);stroke-opacity:1;stroke-miterlimit:10;" d="M 189.54338 278.302757 L 189.430098 274.845726 L 189.430098 273.001976 L 190.156661 271.607445 L 189.934005 269.318382 L 191.60588 268.87307 L 192.836348 268.537132 L 194.062911 271.384788 L 195.957442 271.775413 L 197.578536 272.556663 L 197.242598 274.677757 L 195.066817 276.517601 L 190.883223 277.96682 Z M 189.54338 278.302757 " transform="matrix(1,0,0,-1,-27.832442,621.845726)" region_id="HI" necklace_id="N_west" />
<path style="fill-rule:evenodd;fill:rgb(100%,80%,30.2%);fill-opacity:1;stroke-width:0.4;stroke-linecap:butt;stroke-linejoin:round;stroke:rgb(0%,0%,0%);stroke-opacity:1;stroke-miterlimit:10;" d="M 353.973067 378.103538 L 356.547286 377.755882 L 362.676192 378.244163 L 367.090255 378.611351 L 373.344161 378.857445 L 373.711348 378.857445 L 374.445723 374.076195 L 374.691817 348.334007 L 374.691817 323.814476 L 368.195723 323.568382 L 365.988692 322.46682 L 362.769942 321.87307 L 362.016036 323.380882 L 360.98088 324.513695 L 360.320723 325.455101 L 360.129317 326.494163 L 360.695723 328.283226 L 360.695723 329.888695 L 357.586348 329.982445 L 353.812911 329.888695 L 350.23088 329.888695 L 345.891036 329.134788 L 341.930098 329.509788 L 341.742598 330.830101 L 341.648848 332.244163 L 342.496505 333.189476 L 342.875411 334.884788 L 342.875411 335.923851 L 343.344161 336.962913 L 344.004317 338.37307 L 344.664473 339.884788 L 345.891036 340.923851 L 346.644942 341.677757 L 346.644942 342.994163 L 347.590255 343.65432 L 347.965255 344.220726 L 347.305098 345.919945 L 346.551192 347.146507 L 346.269942 348.46682 L 346.176192 350.162132 L 346.062911 351.572288 L 345.215255 353.134788 L 345.883223 355.669945 L 345.269942 356.896507 L 344.902755 359.103538 L 344.777755 361.18557 L 345.391036 362.412132 L 346.125411 364.130882 L 346.738692 365.724632 L 347.473067 367.56057 L 348.457442 369.15432 L 349.680098 370.259788 L 350.29338 370.74807 L 350.29338 372.709007 L 350.785567 374.181663 L 351.88713 375.52932 Z M 353.973067 378.103538 " transform="matrix(1,0,0,-1,-27.832442,621.845726)" region_id="MS" necklace_id="N_south" />
<path style="fill-rule:evenodd;fill:rgb(83.5%,72.5%,54.1%);fill-opacity:1;stroke-width:0.4;stroke-linecap:butt;stroke-linejoin:round;stroke:rgb(0%,0%,0%);stroke-opacity:1;stroke-miterlimit:10;" d="M 373.711348 378.857445 L 398.26213 380.943382 L 403.91838 361.548851 L 406.879317 352.931663 L 408.226973 349.431663 L 407.41838 347.544945 L 407.41838 344.044945 L 407.957442 339.736351 L 408.766036 333.541038 L 392.066817 332.462913 L 383.180098 331.115257 L 382.910567 329.49807 L 384.523848 327.345726 L 385.332442 325.728538 L 385.062911 323.306663 L 380.754317 322.228538 L 378.598067 328.962913 L 376.984786 323.576195 L 374.691817 323.814476 L 374.691817 348.334007 L 374.445723 374.076195 Z M 373.711348 378.857445 " transform="matrix(1,0,0,-1,-27.832442,621.845726)" region_id="AL" necklace_id="N_south" />
<path style="fill-rule:evenodd;fill:rgb(98%,71.4%,58%);fill-opacity:1;stroke-width:0.4;stroke-linecap:butt;stroke-linejoin:round;stroke:rgb(0%,0%,0%);stroke-opacity:1;stroke-miterlimit:10;" d="M 408.766036 333.541038 L 410.38713 331.318382 L 421.51213 331.318382 L 431.414473 331.978538 L 436.98088 332.166038 L 438.769942 330.564476 L 440.469161 330.470726 L 440.184005 332.638695 L 439.617598 334.900413 L 441.035567 335.46682 L 443.203536 335.18557 L 444.523848 334.994163 L 448.29338 325.095726 L 450.652755 320.380882 L 453.38713 316.134788 L 455.461348 313.68557 L 457.441817 311.044945 L 457.914473 308.68557 L 458.289473 306.611351 L 460.363692 302.650413 L 462.629317 298.408226 L 464.04338 296.146507 L 465.457442 293.408226 L 466.305098 290.673851 L 466.965255 285.111351 L 467.250411 281.150413 L 466.777755 279.169945 L 466.492598 277.001976 L 466.684005 275.021507 L 467.344161 273.134788 L 463.85588 272.474632 L 461.496505 271.24807 L 459.13713 270.494163 L 457.441817 270.587913 L 456.875411 272.005882 L 456.402755 274.173851 L 454.801192 276.52932 L 453.57463 277.755882 L 452.348067 278.322288 L 451.027755 278.509788 L 450.086348 279.642601 L 447.91838 283.509788 L 447.070723 284.544945 L 446.031661 287.18557 L 444.523848 288.787132 L 442.82463 289.638695 L 441.789473 290.959007 L 440.090255 292.46682 L 438.488692 294.541038 L 438.297286 297.84182 L 438.203536 299.822288 L 437.16838 300.103538 L 435.941817 300.009788 L 435.562911 301.802757 L 435.754317 303.876976 L 435.281661 306.990257 L 434.621505 308.970726 L 434.336348 312.177757 L 433.773848 314.24807 L 431.69963 315.474632 L 429.812911 316.419945 L 427.547286 318.212913 L 426.60588 319.43557 L 425.473067 321.416038 L 422.363692 323.775413 L 419.531661 324.34182 L 417.742598 324.244163 L 415.94963 322.736351 L 414.816817 321.416038 L 412.836348 320.755882 L 410.76213 319.814476 L 408.973067 319.15432 L 406.801192 318.869163 L 405.29338 321.509788 L 403.973067 322.267601 L 402.465255 322.736351 L 400.484786 323.302757 L 397.371505 324.62307 L 396.051192 325.283226 L 394.63713 326.416038 L 392.656661 326.318382 L 390.867598 325.755882 L 389.07463 325.470726 L 387.941817 326.037132 L 385.332442 325.728538 L 384.523848 327.345726 L 382.910567 329.49807 L 383.180098 331.115257 L 392.066817 332.462913 Z M 408.766036 333.541038 " transform="matrix(1,0,0,-1,-27.832442,621.845726)" region_id="FL" necklace_id="N_south" />
<path style="fill-rule:evenodd;fill:rgb(60.4%,83.9%,74.1%);fill-opacity:1;stroke-width:0.4;stroke-linecap:butt;stroke-linejoin:round;stroke:rgb(0%,0%,0%);stroke-opacity:1;stroke-miterlimit:10;" d="M 346.203536 466.533226 L 369.547286 467.837913 L 373.691817 458.755882 L 374.16838 450.787132 L 374.328536 442.978538 L 375.125411 438.197288 L 375.445723 431.982445 L 374.648848 429.111351 L 375.60588 425.927757 L 375.76213 424.173851 L 374.965255 421.302757 L 373.531661 418.115257 L 372.098067 414.771507 L 372.57463 413.017601 L 371.777755 410.943382 L 371.461348 408.076195 L 369.707442 407.439476 L 368.590255 406.642601 L 368.750411 403.615257 L 367.79338 403.134788 L 364.129317 404.09182 L 361.910567 402.599632 L 360.305098 402.693382 L 359.551192 403.634788 L 358.891036 404.955101 L 358.797286 406.275413 L 358.891036 408.255882 L 358.23088 409.857445 L 357.383223 410.802757 L 355.969161 412.21682 L 354.648848 413.158226 L 353.609786 413.255882 L 352.195723 414.197288 L 350.969161 415.423851 L 350.309005 415.986351 L 350.121505 417.119163 L 350.969161 418.912132 L 350.969161 420.044945 L 351.820723 422.400413 L 351.254317 424.005882 L 349.273848 424.568382 L 348.234786 424.380882 L 347.57463 424.193382 L 346.633223 425.322288 L 346.348067 426.834007 L 345.687911 428.814476 L 343.801192 430.228538 L 342.29338 431.923851 L 340.598067 433.056663 L 340.219161 434.283226 L 339.746505 435.697288 L 339.277755 436.923851 L 338.992598 438.056663 L 338.805098 439.470726 L 339.215255 441.27932 L 340.320723 443.732445 L 341.301192 444.46682 L 341.914473 444.837913 L 342.035567 445.939476 L 342.527755 447.166038 L 343.141036 448.146507 L 343.383223 448.880882 L 343.26213 449.740257 L 342.894942 450.228538 L 342.648848 450.599632 L 342.160567 451.455101 L 342.035567 452.43557 L 342.648848 453.783226 L 344.121505 454.15432 L 345.344161 454.521507 L 347.184005 455.255882 L 348.04338 455.869163 L 348.531661 456.728538 L 348.777755 457.830101 L 349.63713 458.689476 L 349.758223 459.548851 L 349.758223 462.244163 L 349.51213 462.978538 L 348.656661 463.345726 L 348.04338 464.326195 L 347.062911 465.306663 Z M 346.203536 466.533226 " transform="matrix(1,0,0,-1,-27.832442,621.845726)" region_id="IL" necklace_id="N_north" />
<path style="fill-rule:evenodd;fill:rgb(14.5%,73.7%,61.2%);fill-opacity:1;stroke-width:0.4;stroke-linecap:butt;stroke-linejoin:round;stroke:rgb(0%,0%,0%);stroke-opacity:1;stroke-miterlimit:10;" d="M 361.059005 396.46682 L 368.121505 396.595726 L 373.211348 396.595726 L 372.930098 398.669945 L 375.851973 398.482445 L 380.004317 398.669945 L 386.98088 399.517601 L 393.676192 400.837913 L 397.070723 400.931663 L 401.598067 401.49807 L 407.633223 402.158226 L 412.629317 402.630882 L 419.797286 403.478538 L 423.379317 404.138695 L 433.187911 405.365257 L 433.469161 401.49807 L 431.867598 399.802757 L 430.734786 398.482445 L 428.660567 397.822288 L 427.340255 396.595726 L 426.398848 395.84182 L 424.039473 395.556663 L 423.098067 394.709007 L 422.250411 393.201195 L 420.269942 391.595726 L 418.570723 390.46682 L 417.250411 389.615257 L 415.269942 389.521507 L 413.57463 388.107445 L 413.008223 386.599632 L 412.629317 385.56057 L 410.742598 384.619163 L 410.648848 382.732445 L 404.707442 381.884788 L 398.26213 380.943382 L 373.711348 378.857445 L 367.090255 378.611351 L 362.676192 378.244163 L 356.547286 377.755882 L 353.973067 378.103538 L 354.707442 380.064476 L 354.461348 381.90432 L 355.934005 384.599632 L 356.79338 386.68557 L 357.726973 388.537132 L 356.629317 389.677757 L 357.94963 390.150413 L 358.703536 392.978538 L 359.551192 395.806663 Z M 361.059005 396.46682 " transform="matrix(1,0,0,-1,-27.832442,621.845726)" region_id="TN" necklace_id="N_south" />
<path style="fill-rule:evenodd;fill:rgb(62%,83.9%,77.3%);fill-opacity:1;stroke-width:0.4;stroke-linecap:butt;stroke-linejoin:round;stroke:rgb(0%,0%,0%);stroke-opacity:1;stroke-miterlimit:10;" d="M 398.26213 380.943382 L 410.648848 382.732445 L 418.801192 383.380882 L 421.828536 383.380882 L 421.031661 380.830101 L 422.945723 379.076195 L 425.336348 377.642601 L 427.566817 375.251976 L 429.160567 372.861351 L 431.391036 370.947288 L 434.258223 368.876976 L 436.488692 365.849632 L 437.445723 364.255882 L 439.676192 362.822288 L 441.750411 361.228538 L 442.066817 359.634788 L 443.344161 356.767601 L 444.457442 356.923851 L 445.414473 355.650413 L 445.894942 353.419945 L 447.488692 352.462913 L 448.441817 351.189476 L 447.488692 348.478538 L 446.848067 345.130882 L 445.894942 342.740257 L 445.094161 340.033226 L 444.457442 338.119163 L 444.523848 334.994163 L 443.203536 335.18557 L 441.035567 335.46682 L 439.617598 334.900413 L 440.184005 332.638695 L 440.469161 330.470726 L 438.769942 330.564476 L 436.98088 332.166038 L 431.414473 331.978538 L 421.51213 331.318382 L 410.38713 331.318382 L 408.766036 333.541038 L 407.957442 339.736351 L 407.41838 344.044945 L 407.41838 347.544945 L 408.226973 349.431663 L 406.879317 352.931663 L 403.91838 361.548851 Z M 398.26213 380.943382 " transform="matrix(1,0,0,-1,-27.832442,621.845726)" region_id="GA" necklace_id="N_south" />
<path style="fill-rule:evenodd;fill:rgb(99.6%,96.5%,60.8%);fill-opacity:1;stroke-width:0.4;stroke-linecap:butt;stroke-linejoin:round;stroke:rgb(0%,0%,0%);stroke-opacity:1;stroke-miterlimit:10;" d="M 421.828536 383.380882 L 424.066817 386.064476 L 428.195723 387.572288 L 435.172286 388.240257 L 442.871505 388.017601 L 445.660567 384.724632 L 454.69963 385.34182 L 459.38713 382.548851 L 465.414473 378.142601 L 467.758223 376.46682 L 467.422286 374.291038 L 464.519942 370.834007 L 463.01213 368.376976 L 462.289473 365.587913 L 458.273848 361.626976 L 454.19963 357.720726 L 448.672286 357.275413 L 448.285567 353.77932 L 447.488692 352.462913 L 445.894942 353.419945 L 445.414473 355.650413 L 444.457442 356.923851 L 443.344161 356.767601 L 442.066817 359.634788 L 441.750411 361.228538 L 439.676192 362.822288 L 437.445723 364.255882 L 436.488692 365.849632 L 434.258223 368.876976 L 431.391036 370.947288 L 429.160567 372.861351 L 427.566817 375.251976 L 425.336348 377.642601 L 422.945723 379.076195 L 421.031661 380.830101 Z M 421.828536 383.380882 " transform="matrix(1,0,0,-1,-27.832442,621.845726)" region_id="SC" necklace_id="N_south" />
<path style="fill-rule:evenodd;fill:rgb(99.6%,85.9%,70.6%);fill-opacity:1;stroke-width:0.4;stroke-linecap:butt;stroke-linejoin:round;stroke:rgb(0%,0%,0%);stroke-opacity:1;stroke-miterlimit:10;" d="M 346.203536 466.533226 L 369.547286 467.837913 L 369.613692 473.009788 L 368.88713 477.287132 L 370.773848 485.701195 L 371.570723 494.044945 L 372.875411 498.326195 L 369.250411 494.62307 L 367.652755 493.537132 L 366.930098 492.81057 L 368.016036 496.294945 L 369.687911 499.556663 L 368.742598 501.732445 L 367.726973 503.259788 L 366.785567 506.013695 L 365.840255 507.537132 L 362.504317 509.568382 L 358.586348 510.076195 L 353.945723 510.584007 L 350.316817 512.033226 L 348.578536 512.615257 L 346.254317 514.93557 L 346.039473 515.443382 L 341.539473 515.443382 L 341.469161 518.709007 L 339.582442 518.853538 L 336.098067 516.240257 L 333.707442 515.298851 L 332.039473 515.443382 L 331.894942 516.669945 L 330.422286 516.423851 L 329.812911 515.564476 L 329.687911 512.009788 L 329.441817 508.576195 L 327.238692 507.353538 L 326.254317 506.740257 L 325.398848 505.267601 L 324.660567 503.673851 L 325.398848 502.814476 L 326.01213 501.959007 L 326.746505 501.224632 L 326.625411 500.119163 L 326.133223 498.525413 L 326.254317 496.81057 L 326.133223 495.21682 L 325.88713 493.865257 L 326.746505 492.02932 L 327.848067 491.169945 L 329.566817 489.822288 L 332.141036 489.455101 L 333.488692 487.369163 L 335.44963 485.775413 L 336.797286 485.041038 L 338.391036 483.326195 L 339.742598 481.732445 L 339.863692 479.646507 L 339.129317 478.787132 L 340.07463 477.81057 L 340.320723 475.974632 L 340.687911 475.115257 L 340.809005 473.642601 L 341.301192 471.314476 L 341.547286 470.580101 L 341.914473 469.845726 L 342.527755 469.232445 L 343.875411 469.107445 L 345.101973 468.24807 Z M 346.203536 466.533226 " transform="matrix(1,0,0,-1,-27.832442,621.845726)" region_id="WI" necklace_id="N_north" />
<path style="fill-rule:evenodd;fill:rgb(53.3%,78%,39.6%);fill-opacity:1;stroke-width:0.4;stroke-linecap:butt;stroke-linejoin:round;stroke:rgb(0%,0%,0%);stroke-opacity:1;stroke-miterlimit:10;" d="M 392.289473 508.584007 L 396.883223 508.005882 L 399.996505 506.025413 L 403.203536 505.365257 L 404.332442 504.044945 L 404.898848 502.158226 L 404.805098 499.990257 L 406.031661 497.916038 L 406.691817 494.994163 L 405.937911 493.294945 L 405.086348 491.220726 L 404.051192 490.27932 L 403.203536 488.861351 L 402.44963 487.072288 L 402.73088 485.658226 L 404.426192 485.658226 L 406.031661 488.201195 L 407.539473 490.27932 L 409.519942 490.845726 L 411.500411 489.900413 L 413.10588 487.353538 L 413.859786 484.99807 L 414.328536 482.732445 L 415.367598 481.037132 L 416.027755 479.244163 L 415.555098 475.283226 L 413.859786 473.962913 L 413.10588 472.830101 L 412.820723 471.041038 L 412.160567 468.87307 L 411.687911 466.986351 L 410.840255 464.724632 L 409.801192 463.119163 L 404.805098 462.177757 L 400.562911 461.986351 L 397.527755 461.388695 L 393.60588 461.509788 L 386.375411 461.142601 L 380.488692 461.142601 L 381.51213 464.345726 L 382.363692 468.681663 L 383.211348 471.794945 L 382.914473 476.834007 L 381.351973 479.568382 L 379.957442 482.580101 L 379.902755 485.427757 L 380.461348 488.048851 L 380.851973 491.34182 L 381.687911 495.974632 L 383.473067 498.818382 L 385.816817 500.103538 L 386.988692 497.701195 L 387.601973 500.326195 L 387.883223 502.724632 L 390.672286 504.173851 L 390.113692 507.912132 Z M 392.289473 508.584007 " transform="matrix(1,0,0,-1,-27.832442,621.845726)" region_id="MI" necklace_id="N_north" />
<path style="fill-rule:evenodd;fill:rgb(53.3%,78%,39.6%);fill-opacity:1;stroke-width:0.4;stroke-linecap:butt;stroke-linejoin:round;stroke:rgb(0%,0%,0%);stroke-opacity:1;stroke-miterlimit:10;" d="M 346.039473 515.443382 L 348.379317 517.044945 L 350.16838 518.271507 L 352.434005 518.931663 L 355.26213 520.251976 L 358.937911 523.173851 L 362.711348 526.380882 L 364.598067 527.322288 L 365.91838 526.853538 L 364.879317 525.15432 L 364.219161 523.927757 L 362.992598 522.798851 L 361.391036 521.572288 L 360.73088 520.251976 L 360.91838 518.646507 L 363.371505 519.77932 L 366.01213 519.77932 L 368.461348 518.271507 L 370.726973 516.103538 L 374.215255 515.818382 L 376.008223 515.818382 L 380.156661 519.119163 L 383.363692 519.68557 L 387.79338 520.724632 L 388.926192 520.626976 L 389.207442 518.740257 L 391.660567 518.080101 L 395.340255 517.892601 L 396.281661 515.818382 L 398.26213 513.650413 L 397.695723 512.142601 L 394.582442 512.142601 L 393.16838 511.294945 L 392.039473 511.009788 L 388.453536 512.423851 L 385.719161 511.482445 L 384.211348 510.443382 L 380.629317 509.408226 L 379.590255 508.650413 L 378.176192 506.388695 L 376.76213 508.275413 L 375.348067 507.709007 L 374.215255 506.861351 L 372.801192 504.126976 L 371.859786 502.240257 L 373.555098 500.732445 L 372.875411 498.326195 L 369.250411 494.62307 L 367.652755 493.537132 L 366.930098 492.81057 L 368.016036 496.294945 L 369.687911 499.556663 L 368.742598 501.732445 L 367.726973 503.259788 L 366.785567 506.013695 L 365.840255 507.537132 L 362.504317 509.568382 L 358.586348 510.076195 L 353.945723 510.584007 L 350.316817 512.033226 L 348.578536 512.615257 Z M 346.039473 515.443382 " transform="matrix(1,0,0,-1,-27.832442,621.845726)" region_id="MI" necklace_id="N_north" />
<path style="fill-rule:evenodd;fill:rgb(98%,71.4%,58%);fill-opacity:1;stroke-width:0.4;stroke-linecap:butt;stroke-linejoin:round;stroke:rgb(0%,0%,0%);stroke-opacity:1;stroke-miterlimit:10;" d="M 373.691817 458.755882 L 376.934005 459.181663 L 380.488692 461.142601 L 386.375411 461.142601 L 393.60588 461.509788 L 397.527755 461.388695 L 400.715255 430.619163 L 400.715255 426.818382 L 398.266036 425.345726 L 395.812911 425.59182 L 395.445723 423.509788 L 394.340255 422.037132 L 393.238692 419.830101 L 391.769942 418.361351 L 391.277755 416.02932 L 389.191817 416.275413 L 387.476973 417.134788 L 386.375411 416.15432 L 385.394942 414.56057 L 384.656661 414.314476 L 383.309005 415.294945 L 381.836348 414.314476 L 380.613692 412.96682 L 377.79338 413.822288 L 375.094161 413.701195 L 372.57463 413.017601 L 372.098067 414.771507 L 373.531661 418.115257 L 374.965255 421.302757 L 375.76213 424.173851 L 375.60588 425.927757 L 374.648848 429.111351 L 375.445723 431.982445 L 375.125411 438.197288 L 374.328536 442.978538 L 374.16838 450.787132 Z M 373.691817 458.755882 " transform="matrix(1,0,0,-1,-27.832442,621.845726)" region_id="IN" necklace_id="N_north" />
<path style="fill-rule:evenodd;fill:rgb(100%,80%,30.2%);fill-opacity:1;stroke-width:0.4;stroke-linecap:butt;stroke-linejoin:round;stroke:rgb(0%,0%,0%);stroke-opacity:1;stroke-miterlimit:10;" d="M 397.527755 461.388695 L 400.715255 430.619163 L 404.144942 430.650413 L 406.473067 428.072288 L 407.086348 427.21682 L 409.781661 427.21682 L 410.76213 426.357445 L 413.094161 427.095726 L 414.809005 426.111351 L 418.117598 427.830101 L 419.711348 426.357445 L 421.676192 424.642601 L 423.023848 424.517601 L 424.617598 426.357445 L 424.863692 428.197288 L 424.863692 431.138695 L 426.945723 431.99807 L 428.172286 433.345726 L 429.031661 435.919945 L 430.254317 437.392601 L 432.707442 438.005882 L 434.547286 439.96682 L 435.527755 442.173851 L 436.019942 446.709007 L 436.26213 448.669945 L 436.875411 452.345726 L 436.875411 454.677757 L 436.26213 458.599632 L 435.527755 461.908226 L 435.160567 464.361351 L 434.79338 466.93557 L 434.66838 468.650413 L 431.848067 468.896507 L 430.133223 467.056663 L 428.785567 466.076195 L 427.191817 464.849632 L 425.844161 463.74807 L 424.617598 462.767601 L 422.410567 462.275413 L 419.957442 462.033226 L 418.976973 461.052757 L 416.402755 460.927757 L 413.336348 461.419945 L 409.801192 463.119163 L 404.805098 462.177757 L 400.562911 461.986351 Z M 397.527755 461.388695 " transform="matrix(1,0,0,-1,-27.832442,621.845726)" region_id="OH" necklace_id="N_north" />
<path style="fill-rule:evenodd;fill:rgb(83.1%,87.8%,35.3%);fill-opacity:1;stroke-width:0.4;stroke-linecap:butt;stroke-linejoin:round;stroke:rgb(0%,0%,0%);stroke-opacity:1;stroke-miterlimit:10;" d="M 421.676192 424.642601 L 422.410567 420.962913 L 423.51213 419.12307 L 424.863692 417.65432 L 426.332442 416.06057 L 428.539473 414.220726 L 425.965255 412.138695 L 424.863692 410.912132 L 422.656661 408.951195 L 421.676192 407.232445 L 420.695723 405.763695 L 419.797286 403.478538 L 412.629317 402.630882 L 407.633223 402.158226 L 401.598067 401.49807 L 397.070723 400.931663 L 393.676192 400.837913 L 386.98088 399.517601 L 380.004317 398.669945 L 375.851973 398.482445 L 372.930098 398.669945 L 373.211348 396.595726 L 368.121505 396.595726 L 361.059005 396.46682 L 362.098067 397.693382 L 362.758223 399.013695 L 362.570723 400.806663 L 361.910567 402.599632 L 364.129317 404.09182 L 367.79338 403.134788 L 368.750411 403.615257 L 368.590255 406.642601 L 369.707442 407.439476 L 371.461348 408.076195 L 371.777755 410.943382 L 372.57463 413.017601 L 375.094161 413.701195 L 377.79338 413.822288 L 380.613692 412.96682 L 381.836348 414.314476 L 383.309005 415.294945 L 384.656661 414.314476 L 385.394942 414.56057 L 386.375411 416.15432 L 387.476973 417.134788 L 389.191817 416.275413 L 391.277755 416.02932 L 391.769942 418.361351 L 393.238692 419.830101 L 394.340255 422.037132 L 395.445723 423.509788 L 395.812911 425.59182 L 398.266036 425.345726 L 400.715255 426.818382 L 400.715255 430.619163 L 404.144942 430.650413 L 406.473067 428.072288 L 407.086348 427.21682 L 409.781661 427.21682 L 410.76213 426.357445 L 413.094161 427.095726 L 414.809005 426.111351 L 418.117598 427.830101 L 419.711348 426.357445 Z M 421.676192 424.642601 " transform="matrix(1,0,0,-1,-27.832442,621.845726)" region_id="KY" necklace_id="N_south" />
<path style="fill-rule:evenodd;fill:rgb(70.6%,59.2%,50.6%);fill-opacity:1;stroke-width:0.4;stroke-linecap:butt;stroke-linejoin:round;stroke:rgb(0%,0%,0%);stroke-opacity:1;stroke-miterlimit:10;" d="M 433.187911 405.365257 L 481.254317 413.365257 L 483.828536 414.099632 L 487.504317 414.099632 L 488.363692 410.544945 L 487.383223 408.459007 L 486.277755 407.111351 L 483.94963 406.376976 L 481.375411 408.09182 L 481.867598 405.150413 L 483.582442 404.169945 L 486.402755 404.658226 L 488.73088 403.677757 L 490.937911 401.595726 L 489.711348 398.65432 L 488.363692 398.162132 L 484.441817 398.162132 L 483.090255 397.673851 L 484.687911 396.814476 L 484.441817 394.240257 L 485.910567 393.380882 L 487.258223 392.15432 L 486.523848 390.56057 L 483.828536 389.337913 L 480.148848 387.49807 L 478.312911 386.025413 L 476.715255 384.064476 L 475.367598 381.736351 L 473.898848 379.162132 L 471.32463 377.322288 L 467.758223 376.46682 L 465.414473 378.142601 L 459.38713 382.548851 L 454.69963 385.34182 L 445.660567 384.724632 L 442.871505 388.017601 L 435.172286 388.240257 L 428.195723 387.572288 L 424.066817 386.064476 L 421.828536 383.380882 L 418.801192 383.380882 L 410.648848 382.732445 L 410.742598 384.619163 L 412.629317 385.56057 L 413.008223 386.599632 L 413.57463 388.107445 L 415.269942 389.521507 L 417.250411 389.615257 L 418.570723 390.46682 L 420.269942 391.595726 L 422.250411 393.201195 L 423.098067 394.709007 L 424.039473 395.556663 L 426.398848 395.84182 L 427.340255 396.595726 L 428.660567 397.822288 L 430.734786 398.482445 L 431.867598 399.802757 L 433.469161 401.49807 Z M 433.187911 405.365257 " transform="matrix(1,0,0,-1,-27.832442,621.845726)" region_id="NC" necklace_id="N_south" />
<path style="fill-rule:evenodd;fill:rgb(83.5%,72.5%,54.1%);fill-opacity:1;stroke-width:0.4;stroke-linecap:butt;stroke-linejoin:round;stroke:rgb(0%,0%,0%);stroke-opacity:1;stroke-miterlimit:10;" d="M 171.562911 503.041038 L 166.488692 472.068382 L 164.73088 460.517601 L 181.941817 457.173851 L 226.406661 451.912132 L 229.434005 475.818382 L 231.344161 499.65432 L 219.559005 500.599632 L 209.375411 502.107445 L 201.07463 503.142601 L 192.684005 504.46682 L 185.328536 505.408226 L 179.76213 506.162132 L 172.879317 507.103538 Z " transform="matrix(1,0,0,-1,-27.832442,621.845726)" region_id="WY" necklace_id="N_west" />
<path style="fill-rule:evenodd;fill:rgb(100%,80%,30.2%);fill-opacity:1;stroke-width:0.4;stroke-linecap:butt;stroke-linejoin:round;stroke:rgb(0%,0%,0%);stroke-opacity:1;stroke-miterlimit:10;" d="M 232.570723 510.40432 L 239.590255 510.115257 L 248.29338 509.62307 L 257.242598 508.642601 L 267.785567 508.642601 L 281.148848 507.662132 L 288.383223 507.048851 L 294.38713 507.416038 L 291.914473 502.556663 L 295.26213 499.525413 L 294.621505 489.169945 L 294.621505 478.173851 L 293.508223 477.37307 L 294.621505 473.709007 L 292.711348 467.970726 L 289.840255 469.408226 L 285.062911 470.99807 L 281.234786 469.884788 L 274.54338 472.751976 L 257.332442 473.869163 L 229.434005 475.818382 Z M 232.570723 510.40432 " transform="matrix(1,0,0,-1,-27.832442,621.845726)" region_id="SD" necklace_id="N_north" />
<path style="fill-rule:evenodd;fill:rgb(99.6%,96.5%,60.8%);fill-opacity:1;stroke-width:0.4;stroke-linecap:butt;stroke-linejoin:round;stroke:rgb(0%,0%,0%);stroke-opacity:1;stroke-miterlimit:10;" d="M 443.801192 477.462913 L 447.625411 481.603538 L 445.234786 486.384788 L 449.379317 488.775413 L 453.04338 490.052757 L 457.508223 489.255882 L 460.535567 489.892601 L 464.19963 490.849632 L 466.590255 494.353538 L 469.301192 495.470726 L 467.707442 498.337913 L 468.504317 499.931663 L 466.590255 501.365257 L 468.344161 504.076195 L 472.488692 511.24807 L 476.473067 513.478538 L 488.10588 516.02932 L 489.539473 511.884788 L 490.496505 508.220726 L 489.69963 505.349632 L 491.29338 502.322288 L 492.250411 499.771507 L 493.684005 497.220726 L 494.957442 493.396507 L 494.797286 490.209007 L 495.117598 481.923851 L 496.711348 471.244163 L 494.48088 468.376976 L 485.715255 471.724632 L 483.004317 473.158226 L 481.254317 476.662132 L 478.066817 478.099632 L 471.371505 476.505882 L 455.117598 473.478538 L 441.410567 470.927757 L 439.500411 473.158226 Z M 443.801192 477.462913 " transform="matrix(1,0,0,-1,-27.832442,621.845726)" region_id="NY" necklace_id="N_east" />
<path style="fill-rule:evenodd;fill:rgb(99.6%,96.5%,60.8%);fill-opacity:1;stroke-width:0.4;stroke-linecap:butt;stroke-linejoin:round;stroke:rgb(0%,0%,0%);stroke-opacity:1;stroke-miterlimit:10;" d="M 494.48088 468.376976 L 498.207442 468.455101 L 504.738692 471.189476 L 508.039473 472.884788 L 511.246505 472.884788 L 511.812911 471.283226 L 510.113692 470.71682 L 506.625411 469.869163 L 504.832442 468.263695 L 502.004317 467.603538 L 499.269942 466.001976 L 497.57463 464.587913 L 493.742598 463.197288 Z M 494.48088 468.376976 " transform="matrix(1,0,0,-1,-27.832442,621.845726)" region_id="NY" necklace_id="N_east" />
<path style="fill-rule:evenodd;fill:rgb(70.6%,59.2%,50.6%);fill-opacity:1;stroke-width:0.4;stroke-linecap:butt;stroke-linejoin:round;stroke:rgb(0%,0%,0%);stroke-opacity:1;stroke-miterlimit:10;" d="M 488.10588 516.02932 L 502.871505 519.919945 L 502.871505 517.224632 L 504.488692 514.263695 L 502.332442 511.837913 L 500.984786 509.681663 L 500.445723 500.794945 L 501.254317 492.177757 L 494.797286 490.209007 L 494.957442 493.396507 L 493.684005 497.220726 L 492.250411 499.771507 L 491.29338 502.322288 L 489.69963 505.349632 L 490.496505 508.220726 L 489.539473 511.884788 Z M 488.10588 516.02932 " transform="matrix(1,0,0,-1,-27.832442,621.845726)" region_id="VT" necklace_id="N_east" />
<path style="fill-rule:evenodd;fill:rgb(86.7%,52.9%,47.5%);fill-opacity:1;stroke-width:0.4;stroke-linecap:butt;stroke-linejoin:round;stroke:rgb(0%,0%,0%);stroke-opacity:1;stroke-miterlimit:10;" d="M 506.066817 523.798851 L 509.250411 525.712913 L 510.047286 528.580101 L 510.687911 532.244163 L 510.527755 542.603538 L 510.367598 545.951195 L 512.91838 552.166038 L 514.031661 552.962913 L 515.785567 551.209007 L 518.496505 550.412132 L 520.566817 552.326195 L 521.684005 553.759788 L 526.465255 552.005882 L 529.492598 543.876976 L 530.926192 537.662132 L 532.04338 535.59182 L 534.590255 534.955101 L 535.867598 532.084007 L 538.734786 531.287132 L 541.125411 528.580101 L 541.922286 526.826195 L 539.055098 525.392601 L 536.82463 523.638695 L 534.750411 521.24807 L 532.680098 519.017601 L 528.055098 520.291038 L 527.578536 517.900413 L 526.621505 515.830101 L 526.144942 513.759788 L 524.551192 512.166038 L 521.840255 509.775413 L 520.246505 509.931663 L 518.973067 508.49807 L 517.69963 503.240257 L 515.785567 499.732445 L 514.031661 501.169945 L 512.121505 505.31057 L 510.527755 509.455101 L 509.410567 513.599632 L 507.816817 519.177757 Z M 506.066817 523.798851 " transform="matrix(1,0,0,-1,-27.832442,621.845726)" region_id="ME" necklace_id="N_east" />
<path style="fill-rule:evenodd;fill:rgb(83.1%,87.8%,35.3%);fill-opacity:1;stroke-width:0.4;stroke-linecap:butt;stroke-linejoin:round;stroke:rgb(0%,0%,0%);stroke-opacity:1;stroke-miterlimit:10;" d="M 502.871505 519.919945 L 503.441817 522.462913 L 506.066817 523.798851 L 507.816817 519.177757 L 509.410567 513.599632 L 510.527755 509.455101 L 512.121505 505.31057 L 514.031661 501.169945 L 515.785567 499.732445 L 515.04338 496.71682 L 511.082442 494.267601 L 507.027755 493.322288 L 501.254317 492.177757 L 500.445723 500.794945 L 500.984786 509.681663 L 502.332442 511.837913 L 504.488692 514.263695 L 502.871505 517.224632 Z M 502.871505 519.919945 " transform="matrix(1,0,0,-1,-27.832442,621.845726)" region_id="NH" necklace_id="N_east" />
<path style="fill-rule:evenodd;fill:rgb(73.3%,71.8%,34.9%);fill-opacity:1;stroke-width:0.4;stroke-linecap:butt;stroke-linejoin:round;stroke:rgb(0%,0%,0%);stroke-opacity:1;stroke-miterlimit:10;" d="M 515.04338 496.71682 L 517.648848 494.751976 L 516.215255 490.607445 L 517.809005 489.970726 L 520.516036 487.103538 L 522.746505 485.509788 L 524.98088 485.509788 L 526.57463 487.900413 L 526.414473 484.232445 L 522.906661 482.322288 L 520.676192 483.595726 L 518.60588 482.162132 L 516.215255 482.001976 L 513.664473 486.306663 L 506.016036 484.869163 L 495.117598 481.923851 L 494.797286 490.209007 L 501.254317 492.177757 L 507.027755 493.322288 L 511.082442 494.267601 Z M 515.04338 496.71682 " transform="matrix(1,0,0,-1,-27.832442,621.845726)" region_id="MA" necklace_id="N_east" />
<path style="fill-rule:evenodd;fill:rgb(62%,83.9%,77.3%);fill-opacity:1;stroke-width:0.4;stroke-linecap:butt;stroke-linejoin:round;stroke:rgb(0%,0%,0%);stroke-opacity:1;stroke-miterlimit:10;" d="M 513.664473 486.306663 L 506.016036 484.869163 L 510.000411 482.959007 L 511.273848 476.584007 L 515.41838 478.974632 L 515.258223 481.205101 L 516.215255 482.001976 Z M 513.664473 486.306663 " transform="matrix(1,0,0,-1,-27.832442,621.845726)" region_id="RI" necklace_id="N_east" />
<path style="fill-rule:evenodd;fill:rgb(100%,80%,30.2%);fill-opacity:1;stroke-width:0.4;stroke-linecap:butt;stroke-linejoin:round;stroke:rgb(0%,0%,0%);stroke-opacity:1;stroke-miterlimit:10;" d="M 506.016036 484.869163 L 495.117598 481.923851 L 496.711348 471.244163 L 499.320723 471.166038 L 501.711348 473.236351 L 504.26213 474.990257 L 508.406661 475.626976 L 511.273848 476.584007 L 510.000411 482.959007 Z M 506.016036 484.869163 " transform="matrix(1,0,0,-1,-27.832442,621.845726)" region_id="CT" necklace_id="N_east" />
<path style="fill-rule:evenodd;fill:rgb(83.5%,72.5%,54.1%);fill-opacity:1;stroke-width:0.4;stroke-linecap:butt;stroke-linejoin:round;stroke:rgb(0%,0%,0%);stroke-opacity:1;stroke-miterlimit:10;" d="M 485.715255 471.724632 L 483.703536 466.705101 L 483.226973 462.56057 L 486.094161 460.009788 L 488.801192 457.619163 L 487.527755 455.068382 L 484.500411 452.041038 L 485.13713 448.537132 L 489.598067 445.189476 L 491.832442 444.232445 L 494.062911 449.013695 L 495.496505 452.201195 L 496.133223 455.865257 L 496.453536 459.052757 L 495.176192 461.923851 L 493.742598 463.197288 L 494.48088 468.376976 Z M 485.715255 471.724632 " transform="matrix(1,0,0,-1,-27.832442,621.845726)" region_id="NJ" necklace_id="N_east" />
<path style="fill-rule:evenodd;fill:rgb(14.5%,73.7%,61.2%);fill-opacity:1;stroke-width:0.4;stroke-linecap:butt;stroke-linejoin:round;stroke:rgb(0%,0%,0%);stroke-opacity:1;stroke-miterlimit:10;" d="M 439.500411 473.158226 L 436.277755 471.283226 L 434.66838 468.650413 L 434.79338 466.93557 L 435.160567 464.361351 L 435.527755 461.908226 L 436.26213 458.599632 L 436.875411 454.677757 L 436.875411 452.345726 L 436.26213 448.669945 L 437.66838 448.611351 L 438.035567 445.791038 L 438.769942 443.095726 L 440.117598 443.095726 L 446.863692 443.951195 L 454.586348 445.669945 L 457.894942 445.669945 L 459.758223 446.763695 L 463.437911 447.236351 L 470.60588 448.556663 L 477.016036 449.595726 L 481.258223 450.912132 L 484.500411 452.041038 L 487.527755 455.068382 L 488.801192 457.619163 L 486.094161 460.009788 L 483.226973 462.56057 L 483.703536 466.705101 L 485.715255 471.724632 L 483.004317 473.158226 L 481.254317 476.662132 L 478.066817 478.099632 L 471.371505 476.505882 L 455.117598 473.478538 L 441.410567 470.927757 Z M 439.500411 473.158226 " transform="matrix(1,0,0,-1,-27.832442,621.845726)" region_id="PA" necklace_id="N_east" />
<path style="fill-rule:evenodd;fill:rgb(73.3%,71.8%,34.9%);fill-opacity:1;stroke-width:0.4;stroke-linecap:butt;stroke-linejoin:round;stroke:rgb(0%,0%,0%);stroke-opacity:1;stroke-miterlimit:10;" d="M 428.539473 414.220726 L 425.965255 412.138695 L 424.863692 410.912132 L 422.656661 408.951195 L 421.676192 407.232445 L 420.695723 405.763695 L 419.797286 403.478538 L 423.379317 404.138695 L 433.187911 405.365257 L 481.254317 413.365257 L 483.828536 414.099632 L 487.504317 414.099632 L 486.723067 417.021507 L 481.535567 415.892601 L 480.969161 418.34182 L 481.914473 420.513695 L 481.066817 424.376976 L 480.312911 427.302757 L 478.234786 430.318382 L 472.484786 431.357445 L 470.691817 432.771507 L 470.598067 436.166038 L 470.219161 439.27932 L 467.863692 440.033226 L 465.316817 441.353538 L 463.996505 440.599632 L 461.734786 440.693382 L 459.566817 441.822288 L 458.508223 443.095726 L 458.26213 439.048851 L 456.66838 435.861351 L 453.973067 433.533226 L 452.500411 429.978538 L 451.152755 429.119163 L 448.945723 430.345726 L 444.656661 416.615257 L 441.223067 415.634788 L 438.527755 413.181663 L 435.707442 412.568382 L 433.867598 411.220726 L 431.16838 411.834007 Z M 428.539473 414.220726 " transform="matrix(1,0,0,-1,-27.832442,621.845726)" region_id="VA" necklace_id="N_south" />
<path style="fill-rule:evenodd;fill:rgb(56.1%,73.7%,75.7%);fill-opacity:1;stroke-width:0.4;stroke-linecap:butt;stroke-linejoin:round;stroke:rgb(0%,0%,0%);stroke-opacity:1;stroke-miterlimit:10;" d="M 440.117598 443.095726 L 438.769942 443.095726 L 438.035567 445.791038 L 437.66838 448.611351 L 436.26213 448.669945 L 436.019942 446.709007 L 435.527755 442.173851 L 434.547286 439.96682 L 432.707442 438.005882 L 430.254317 437.392601 L 429.031661 435.919945 L 428.172286 433.345726 L 426.945723 431.99807 L 424.863692 431.138695 L 424.863692 428.197288 L 424.617598 426.357445 L 423.023848 424.517601 L 421.676192 424.642601 L 422.410567 420.962913 L 423.51213 419.12307 L 424.863692 417.65432 L 426.332442 416.06057 L 428.539473 414.220726 L 431.16838 411.834007 L 433.867598 411.220726 L 435.707442 412.568382 L 438.527755 413.181663 L 441.223067 415.634788 L 444.656661 416.615257 L 448.945723 430.345726 L 451.152755 429.119163 L 452.500411 429.978538 L 453.973067 433.533226 L 456.66838 435.861351 L 458.26213 439.048851 L 458.508223 443.095726 L 461.734786 440.693382 L 463.996505 440.599632 L 465.316817 441.353538 L 467.863692 440.033226 L 467.85588 442.814476 L 465.281661 443.673851 L 460.742598 443.916038 L 458.660567 444.65432 L 457.187911 443.794945 L 454.367598 442.93557 L 452.039473 441.587913 L 449.711348 439.994163 L 448.363692 441.587913 L 445.54338 442.076195 L 442.601973 442.322288 Z M 440.117598 443.095726 " transform="matrix(1,0,0,-1,-27.832442,621.845726)" region_id="WV" necklace_id="N_south" />
<path style="fill-rule:evenodd;fill:rgb(73.3%,71.8%,34.9%);fill-opacity:1;stroke-width:0.4;stroke-linecap:butt;stroke-linejoin:round;stroke:rgb(0%,0%,0%);stroke-opacity:1;stroke-miterlimit:10;" d="M 488.695723 431.044945 L 486.609786 430.18557 L 485.383223 426.388695 L 485.016036 423.322288 L 486.488692 420.255882 L 488.816817 420.380882 L 489.184005 422.830101 L 489.676192 426.630882 L 489.430098 430.18557 Z M 488.695723 431.044945 " transform="matrix(1,0,0,-1,-27.832442,621.845726)" region_id="VA" necklace_id="N_south" />
<path style="fill-rule:evenodd;fill:rgb(86.7%,52.9%,47.5%);fill-opacity:1;stroke-width:0.4;stroke-linecap:butt;stroke-linejoin:round;stroke:rgb(0%,0%,0%);stroke-opacity:1;stroke-miterlimit:10;" d="M 481.258223 450.912132 L 482.320723 445.021507 L 483.422286 439.87307 L 484.527755 435.826195 L 489.305098 434.724632 L 490.656661 435.580101 L 491.269942 437.666038 L 491.269942 438.892601 L 489.062911 441.955101 L 486.976973 444.775413 L 485.13713 448.537132 L 484.500411 452.041038 Z M 481.258223 450.912132 " transform="matrix(1,0,0,-1,-27.832442,621.845726)" region_id="DE" necklace_id="N_south" />
<path style="fill-rule:evenodd;fill:rgb(99.6%,85.9%,70.6%);fill-opacity:1;stroke-width:0.4;stroke-linecap:butt;stroke-linejoin:round;stroke:rgb(0%,0%,0%);stroke-opacity:1;stroke-miterlimit:10;" d="M 479.254317 433.005882 L 478.766036 435.459007 L 477.172286 438.521507 L 476.191817 442.076195 L 476.312911 444.408226 L 478.398848 445.388695 L 479.988692 443.181663 L 480.48088 440.853538 L 481.340255 435.826195 L 481.828536 433.740257 L 483.422286 433.130882 L 484.281661 432.150413 L 484.527755 429.697288 L 486.609786 430.18557 L 488.695723 431.044945 L 489.430098 430.18557 L 490.777755 431.90432 L 490.777755 433.865257 L 489.305098 434.724632 L 484.527755 435.826195 L 483.422286 439.87307 L 482.320723 445.021507 L 481.258223 450.912132 L 477.016036 449.595726 L 470.60588 448.556663 L 463.437911 447.236351 L 459.758223 446.763695 L 457.894942 445.669945 L 454.586348 445.669945 L 446.863692 443.951195 L 440.117598 443.095726 L 442.601973 442.322288 L 445.54338 442.076195 L 448.363692 441.587913 L 449.711348 439.994163 L 452.039473 441.587913 L 454.367598 442.93557 L 457.187911 443.794945 L 458.660567 444.65432 L 460.742598 443.916038 L 465.281661 443.673851 L 467.85588 442.814476 L 467.863692 440.033226 L 470.219161 439.27932 L 470.598067 436.166038 L 470.691817 432.771507 L 472.484786 431.357445 L 478.234786 430.318382 L 481.215255 431.169945 Z M 479.254317 433.005882 " transform="matrix(1,0,0,-1,-27.832442,621.845726)" region_id="MD" necklace_id="N_south"/>
<path style="fill:none;stroke-width:0.4;stroke-linecap:butt;stroke-linejoin:round;stroke:rgb(0%,0%,0%);stroke-opacity:1;stroke-dasharray:4;stroke-miterlimit:10;" d="M 221.086348 453.084007 C 221.086348 506.255882 177.984786 549.361351 124.809005 549.361351 C 71.63713 549.361351 28.531661 506.255882 28.531661 453.084007 C 28.531661 399.912132 71.63713 356.806663 124.809005 356.806663 C 177.984786 356.806663 221.086348 399.912132 221.086348 453.084007 Z M 221.086348 453.084007 " kx="124.810" ky="453.084" transform="matrix(1,0,0,-1,-27.832442,621.845726)" necklace_id="N_west"/>
<path style="fill:none;stroke-width:0.4;stroke-linecap:butt;stroke-linejoin:round;stroke:rgb(0%,0%,0%);stroke-opacity:1;stroke-dasharray:4;stroke-miterlimit:10;" d="M 571.027755 457.521507 C 571.027755 504.62307 532.844161 542.806663 485.738692 542.806663 C 438.63713 542.806663 400.453536 504.62307 400.453536 457.521507 C 400.453536 410.419945 438.63713 372.236351 485.738692 372.236351 C 532.844161 372.236351 571.027755 410.419945 571.027755 457.521507 Z M 571.027755 457.521507 " kx="485.741" ky="457.521" transform="matrix(1,0,0,-1,-27.832442,621.845726)" necklace_id="N_east"/>
<path style="fill:none;stroke-width:0.4;stroke-linecap:butt;stroke-linejoin:round;stroke:rgb(0%,0%,0%);stroke-opacity:1;stroke-dasharray:4;stroke-miterlimit:10;" d="M 397.617598 483.845726 C 397.617598 524.380882 364.758223 557.240257 324.226973 557.240257 C 283.691817 557.240257 250.832442 524.380882 250.832442 483.845726 C 250.832442 443.31057 283.691817 410.451195 324.226973 410.451195 C 364.758223 410.451195 397.617598 443.31057 397.617598 483.845726 Z M 397.617598 483.845726 " kx="324.225" ky="483.846" transform="matrix(1,0,0,-1,-27.832442,621.845726)" necklace_id="N_north"/>
<path style="fill:none;stroke-width:0.4;stroke-linecap:butt;stroke-linejoin:round;stroke:rgb(0%,0%,0%);stroke-opacity:1;stroke-dasharray:4;stroke-miterlimit:10;" d="M 515.301192 457.275413 C 515.301192 547.77932 441.934005 621.146507 351.430098 621.146507 C 260.930098 621.146507 187.562911 547.77932 187.562911 457.275413 C 187.562911 366.771507 260.930098 293.40432 351.430098 293.40432 C 441.934005 293.40432 515.301192 366.771507 515.301192 457.275413 Z M 515.301192 457.275413 " kx="351.432" ky="457.275" transform="matrix(1,0,0,-1,-27.832442,621.845726)" necklace_id="N_south"/>
</g>
</svg>
